/* XPM */
static char *result[] = {
/* columns rows colors chars-per-pixel */
"128 128 2 1 ",
"  c #2B3D53",
". c #496C97",
/* pixels */
"                                                                                                                                ",
"                                                                                                                                ",
"                                                                                                                                ",
"                                                                                                                                ",
"                                                                                                                                ",
"                                                                                                                                ",
"                                                                                                                                ",
"                                                                                                                                ",
"                            ....                                                                                                ",
"                            ....                                                                                                ",
"                            ....                                                                                                ",
"                            ....                                                                                                ",
"                                ....................                                        ........                            ",
"                                ....................                                        ........                            ",
"                                ....................                                        ........                            ",
"                                ....................                                        ........                            ",
"                    ........                                                                        ........                    ",
"                    ........                                                                        ........                    ",
"                    ........                                                                        ........                    ",
"                    ........                                                                        ........                    ",
"    ....................                                                                                                        ",
"    ....................                                                                                                        ",
"    ....................                                                                                                        ",
"    ....................                                                                                                        ",
"                                                                                                                                ",
"                                                                                                                                ",
"                                                                                                                                ",
"                                                                                                                                ",
"                                        ........                                                                                ",
"                                        ........                                                                                ",
"                                        ........                                                                                ",
"                                        ........                                                                                ",
"                                            ............                                                                        ",
"                                            ............                                                                        ",
"                                            ............                                                                        ",
"                                            ............                                                                        ",
"                                                                        ................                                        ",
"                                                                        ................                                        ",
"                                                                        ................                                        ",
"                                                                        ................                                        ",
"                                                                                            ....        ....                    ",
"                                                                                            ....        ....                    ",
"                                                                                            ....        ....                    ",
"                                                                                            ....        ....                    ",
"                                                                                                ............                    ",
"                                                                                                ............                    ",
"                                                                                                ............                    ",
"                                                                                                ............                    ",
"............                                                                                                        ........    ",
"............                                                                                                        ........    ",
"............                                                                                                        ........    ",
"............                                                                                                        ........    ",
"                                                                                                                        ........",
"                                                                                                                        ........",
"                                                                                                                        ........",
"                                                                                                                        ........",
"                                                                                                                                ",
"                                                                                                                                ",
"                                                                                                                                ",
"                                                                                                                                ",
"            ................            ............                ....                                                        ",
"            ................            ............                ....                                                        ",
"            ................            ............                ....                                                        ",
"            ................            ............                ....                                                        ",
"                                                                ........                                                        ",
"                                                                ........                                                        ",
"                                                                ........                                                        ",
"                                                                ........                                                        ",
"                                                            ....                                                                ",
"                                                            ....                                                                ",
"                                                            ....                                                                ",
"                                                            ....                                                                ",
"                                                                                    ............................                ",
"                                                                                    ............................                ",
"                                                                                    ............................                ",
"                                                                                    ............................                ",
"                ........                                                            ....                                        ",
"                ........                                                            ....                                        ",
"                ........                                                            ....                                        ",
"                ........                                                            ....                                        ",
"                    ............                                                                                                ",
"                    ............                                                                                                ",
"                    ............                                                                                                ",
"                    ............                                                                                                ",
"                                                                                                                                ",
"                                                                                                                                ",
"                                                                                                                                ",
"                                                                                                                                ",
"                                                                                                                                ",
"                                                                                                                                ",
"                                                                                                                                ",
"                                                                                                                                ",
"                                                                                ........                                        ",
"                                                                                ........                                        ",
"                                                                                ........                                        ",
"                                                                                ........                                        ",
"                                                                ....................                                            ",
"                                                                ....................                                            ",
"                                                                ....................                                            ",
"                                                                ....................                                            ",
"                                                                                                                                ",
"                                                                                                                                ",
"                                                                                                                                ",
"                                                                                                                                ",
"                                                                                                                                ",
"                                                                                                                                ",
"                                                                                                                                ",
"                                                                                                                                ",
"                                ....                                                                        ............        ",
"                                ....                                                                        ............        ",
"                                ....                                                                        ............        ",
"                                ....                                                                        ............        ",
"                ................                                                            ................                    ",
"                ................                                                            ................                    ",
"                ................                                                            ................                    ",
"                ................                                                            ................                    ",
"                                                                                                                                ",
"                                                                                                                                ",
"                                                                                                                                ",
"                                                                                                                                ",
"                                                                                                                                ",
"                                                                                                                                ",
"                                                                                                                                ",
"                                                                                                                                ",
"                                                                                                                                ",
"                                                                                                                                ",
"                                                                                                                                ",
"                                                                                                                                "
};
