/* XPM */
static char *result[] = {
/* columns rows colors chars-per-pixel */
"128 128 10 1 ",
"  c black",
". c #252525",
"X c #343333",
"o c #214433",
"O c #2B3D53",
"+ c #573964",
"@ c #1D6642",
"# c #297970",
"$ c #A0821B",
"% c #496C97",
/* pixels */
"oooooooooooooooooooooooooooooooooooooooooooooooooooooooooooo############OOOOOOOOOOOOOOOOOOOOOOOOOOOOOOOO%%%%OOOOOOOOOOOOOOOOOOOO",
"oooooooooooooooooooooooooooooooooooooooooooooooooooooooooooo############OOOOOOOOOOOOOOOOOOOOOOOOOOOOOOOO%%%%OOOOOOOOOOOOOOOOOOOO",
"oooooooooooooooooooooooooooooooooooooooooooooooooooooooooooo############OOOOOOOOOOOOOOOOOOOOOOOOOOOOOOOO%%%%OOOOOOOOOOOOOOOOOOOO",
"oooooooooooooooooooooooooooooooooooooooooooooooooooooooooooo############OOOOOOOOOOOOOOOOOOOOOOOOOOOOOOOO%%%%OOOOOOOOOOOOOOOOOOOO",
"oooooooooooooooooooooooooooooooooooooooooooooooooooooooooooo############OOOOOOOOOOOOOOOOOOOOOOOOOOOOOOOO%%%%OOOOOOOOOOOOOOOOOOOO",
"oooooooooooooooooooooooooooooooooooooooooooooooooooooooooooo############OOOOOOOOOOOOOOOOOOOOOOOOOOOOOOOO%%%%OOOOOOOOOOOOOOOOOOOO",
"oooooooooooooooooooooooooooooooooooooooooooooooooooooooooooo############OOOOOOOOOOOOOOOOOOOOOOOOOOOOOOOO%%%%OOOOOOOOOOOOOOOOOOOO",
"oooooooooooooooooooooooooooooooooooooooooooooooooooooooooooo############OOOOOOOOOOOOOOOOOOOOOOOOOOOOOOOO%%%%OOOOOOOOOOOOOOOOOOOO",
"oooooooooooooooooooo@@@@@@@@@@@@@@@@@@@@oooooooooooooooooooo############OOOOOOOOOOOOOOOOOOOOOOOOOOOOOOOO%%%%%%%%%%%%OOOOOOOOOOOO",
"oooooooooooooooooooo@@@@@@@@@@@@@@@@@@@@oooooooooooooooooooo############OOOOOOOOOOOOOOOOOOOOOOOOOOOOOOOO%%%%%%%%%%%%OOOOOOOOOOOO",
"oooooooooooooooooooo@@@@@@@@@@@@@@@@@@@@oooooooooooooooooooo############OOOOOOOOOOOOOOOOOOOOOOOOOOOOOOOO%%%%%%%%%%%%OOOOOOOOOOOO",
"oooooooooooooooooooo@@@@@@@@@@@@@@@@@@@@oooooooooooooooooooo############OOOOOOOOOOOOOOOOOOOOOOOOOOOOOOOO%%%%%%%%%%%%OOOOOOOOOOOO",
"oooooooooooo@@@@@@@@oooooooooooooooooooo@@@@oooooooooooooooo############OOOOOOOOOOOOOOOOOOOOOOOOOOOOOOOOOOOOOOOO%%%%OOOOOOOOOOOO",
"oooooooooooo@@@@@@@@oooooooooooooooooooo@@@@oooooooooooooooo############OOOOOOOOOOOOOOOOOOOOOOOOOOOOOOOOOOOOOOOO%%%%OOOOOOOOOOOO",
"oooooooooooo@@@@@@@@oooooooooooooooooooo@@@@oooooooooooooooo############OOOOOOOOOOOOOOOOOOOOOOOOOOOOOOOOOOOOOOOO%%%%OOOOOOOOOOOO",
"oooooooooooo@@@@@@@@oooooooooooooooooooo@@@@oooooooooooooooo############OOOOOOOOOOOOOOOOOOOOOOOOOOOOOOOOOOOOOOOO%%%%OOOOOOOOOOOO",
"oooooooooooooooooooooooooooooooooooooooooooooooooooooooooooo############OOOOOOOOOOOOOOOOOOOOOOOOOOOOOOOOOOOOOOOOOOOOOOOOOOOOOOOO",
"oooooooooooooooooooooooooooooooooooooooooooooooooooooooooooo############OOOOOOOOOOOOOOOOOOOOOOOOOOOOOOOOOOOOOOOOOOOOOOOOOOOOOOOO",
"oooooooooooooooooooooooooooooooooooooooooooooooooooooooooooo############OOOOOOOOOOOOOOOOOOOOOOOOOOOOOOOOOOOOOOOOOOOOOOOOOOOOOOOO",
"oooooooooooooooooooooooooooooooooooooooooooooooooooooooooooo############OOOOOOOOOOOOOOOOOOOOOOOOOOOOOOOOOOOOOOOOOOOOOOOOOOOOOOOO",
"oooooooooooooooooooooooooooooooooooooooooooooooooooooooooooo####++++++++XXXXXXXXXXXXXXXXXXXXXXXXOOOOOOOOOOOOOOOOOOOOOOOOOOOOOOOO",
"oooooooooooooooooooooooooooooooooooooooooooooooooooooooooooo####++++++++XXXXXXXXXXXXXXXXXXXXXXXXOOOOOOOOOOOOOOOOOOOOOOOOOOOOOOOO",
"oooooooooooooooooooooooooooooooooooooooooooooooooooooooooooo####++++++++XXXXXXXXXXXXXXXXXXXXXXXXOOOOOOOOOOOOOOOOOOOOOOOOOOOOOOOO",
"oooooooooooooooooooooooooooooooooooooooooooooooooooooooooooo####++++++++XXXXXXXXXXXXXXXXXXXXXXXXOOOOOOOOOOOOOOOOOOOOOOOOOOOOOOOO",
"oooooooo@@@@ooooooooooooooooooooooooooooooooooooooooooooooooXXXXXXXXXXXXXXXX$$$$XXXXXXXXXXXXOOOOOOOOOOOOOOOOOOOOOOOOOOOOOOOOOOOO",
"oooooooo@@@@ooooooooooooooooooooooooooooooooooooooooooooooooXXXXXXXXXXXXXXXX$$$$XXXXXXXXXXXXOOOOOOOOOOOOOOOOOOOOOOOOOOOOOOOOOOOO",
"oooooooo@@@@ooooooooooooooooooooooooooooooooooooooooooooooooXXXXXXXXXXXXXXXX$$$$XXXXXXXXXXXXOOOOOOOOOOOOOOOOOOOOOOOOOOOOOOOOOOOO",
"oooooooo@@@@ooooooooooooooooooooooooooooooooooooooooooooooooXXXXXXXXXXXXXXXX$$$$XXXXXXXXXXXXOOOOOOOOOOOOOOOOOOOOOOOOOOOOOOOOOOOO",
"oooooooo@@@@@@@@ooooooooooooooooooooooooooooooooooooXXXXXXXXXXXXXXXXXXXXXXXXXXXXXXXXOOOOOOOOOOOOOOOOOOOOOOOOOOOOOOOOOOOOOOOOOOOO",
"oooooooo@@@@@@@@ooooooooooooooooooooooooooooooooooooXXXXXXXXXXXXXXXXXXXXXXXXXXXXXXXXOOOOOOOOOOOOOOOOOOOOOOOOOOOOOOOOOOOOOOOOOOOO",
"oooooooo@@@@@@@@ooooooooooooooooooooooooooooooooooooXXXXXXXXXXXXXXXXXXXXXXXXXXXXXXXXOOOOOOOOOOOOOOOOOOOOOOOOOOOOOOOOOOOOOOOOOOOO",
"oooooooo@@@@@@@@ooooooooooooooooooooooooooooooooooooXXXXXXXXXXXXXXXXXXXXXXXXXXXXXXXXOOOOOOOOOOOOOOOOOOOOOOOOOOOOOOOOOOOOOOOOOOOO",
"ooooooooooooooooooooooooooooooooooooooooooooooooooooXXXXXXXXXXXXXXXXXXXXXXXXXXXXOOOOOOOOOOOOOOOOOOOOOOOOOOOO%%%%OOOOOOOOOOOOOOOO",
"ooooooooooooooooooooooooooooooooooooooooooooooooooooXXXXXXXXXXXXXXXXXXXXXXXXXXXXOOOOOOOOOOOOOOOOOOOOOOOOOOOO%%%%OOOOOOOOOOOOOOOO",
"ooooooooooooooooooooooooooooooooooooooooooooooooooooXXXXXXXXXXXXXXXXXXXXXXXXXXXXOOOOOOOOOOOOOOOOOOOOOOOOOOOO%%%%OOOOOOOOOOOOOOOO",
"ooooooooooooooooooooooooooooooooooooooooooooooooooooXXXXXXXXXXXXXXXXXXXXXXXXXXXXOOOOOOOOOOOOOOOOOOOOOOOOOOOO%%%%OOOOOOOOOOOOOOOO",
"oooooooooooooooooooooooooooo@@@@@@@@ooooooooooooXXXXXXXXXXXXXXXXXXXXXXXXXXXXXXXX................OOOOOOOOOOOO%%%%OOOOOOOOOOOOOOOO",
"oooooooooooooooooooooooooooo@@@@@@@@ooooooooooooXXXXXXXXXXXXXXXXXXXXXXXXXXXXXXXX................OOOOOOOOOOOO%%%%OOOOOOOOOOOOOOOO",
"oooooooooooooooooooooooooooo@@@@@@@@ooooooooooooXXXXXXXXXXXXXXXXXXXXXXXXXXXXXXXX................OOOOOOOOOOOO%%%%OOOOOOOOOOOOOOOO",
"oooooooooooooooooooooooooooo@@@@@@@@ooooooooooooXXXXXXXXXXXXXXXXXXXXXXXXXXXXXXXX................OOOOOOOOOOOO%%%%OOOOOOOOOOOOOOOO",
"oooooooooooooooooooooooooooooooo@@@@ooooooooooooXXXXXXXXXXXXXXXXXXXXXXXXXXXXXXXX............OOOOOOOOOOOOOOOO%%%%%%%%OOOOOOOOOOOO",
"oooooooooooooooooooooooooooooooo@@@@ooooooooooooXXXXXXXXXXXXXXXXXXXXXXXXXXXXXXXX............OOOOOOOOOOOOOOOO%%%%%%%%OOOOOOOOOOOO",
"oooooooooooooooooooooooooooooooo@@@@ooooooooooooXXXXXXXXXXXXXXXXXXXXXXXXXXXXXXXX............OOOOOOOOOOOOOOOO%%%%%%%%OOOOOOOOOOOO",
"oooooooooooooooooooooooooooooooo@@@@ooooooooooooXXXXXXXXXXXXXXXXXXXXXXXXXXXXXXXX............OOOOOOOOOOOOOOOO%%%%%%%%OOOOOOOOOOOO",
"oooooooooooooooooooooooooooooooooooo@@@@ooooooooXXXXXXXXXXXXXXXXXXXXXXXXXXXXXXXX....OOOOOOOOOOOOOOOOOOOOOOOOOOOO%%%%OOOOOOOOOOOO",
"oooooooooooooooooooooooooooooooooooo@@@@ooooooooXXXXXXXXXXXXXXXXXXXXXXXXXXXXXXXX....OOOOOOOOOOOOOOOOOOOOOOOOOOOO%%%%OOOOOOOOOOOO",
"oooooooooooooooooooooooooooooooooooo@@@@ooooooooXXXXXXXXXXXXXXXXXXXXXXXXXXXXXXXX....OOOOOOOOOOOOOOOOOOOOOOOOOOOO%%%%OOOOOOOOOOOO",
"oooooooooooooooooooooooooooooooooooo@@@@ooooooooXXXXXXXXXXXXXXXXXXXXXXXXXXXXXXXX....OOOOOOOOOOOOOOOOOOOOOOOOOOOO%%%%OOOOOOOOOOOO",
"oooooooooooooooo@@@@oooooooooooooooo@@@@@@@@ooooXXXXXXXXXXXXXXXXXXXXXXXXXXXXXXXXOOOOOOOOOOOOOOOOOOOOOOOOOOOOOOOO%%%%OOOOOOOOOOOO",
"oooooooooooooooo@@@@oooooooooooooooo@@@@@@@@ooooXXXXXXXXXXXXXXXXXXXXXXXXXXXXXXXXOOOOOOOOOOOOOOOOOOOOOOOOOOOOOOOO%%%%OOOOOOOOOOOO",
"oooooooooooooooo@@@@oooooooooooooooo@@@@@@@@ooooXXXXXXXXXXXXXXXXXXXXXXXXXXXXXXXXOOOOOOOOOOOOOOOOOOOOOOOOOOOOOOOO%%%%OOOOOOOOOOOO",
"oooooooooooooooo@@@@oooooooooooooooo@@@@@@@@ooooXXXXXXXXXXXXXXXXXXXXXXXXXXXXXXXXOOOOOOOOOOOOOOOOOOOOOOOOOOOOOOOO%%%%OOOOOOOOOOOO",
"oooooooooooooooooooo@@@@oooooooooooooooo@@@@ooooXXXXXXXXXXXXXXXXXXXXXXXXXXXXXXXXOOOOOOOOOOOOOOOOOOOOOOOOOOOOOOOOOOOOOOOOOOOOOOOO",
"oooooooooooooooooooo@@@@oooooooooooooooo@@@@ooooXXXXXXXXXXXXXXXXXXXXXXXXXXXXXXXXOOOOOOOOOOOOOOOOOOOOOOOOOOOOOOOOOOOOOOOOOOOOOOOO",
"oooooooooooooooooooo@@@@oooooooooooooooo@@@@ooooXXXXXXXXXXXXXXXXXXXXXXXXXXXXXXXXOOOOOOOOOOOOOOOOOOOOOOOOOOOOOOOOOOOOOOOOOOOOOOOO",
"oooooooooooooooooooo@@@@oooooooooooooooo@@@@ooooXXXXXXXXXXXXXXXXXXXXXXXXXXXXXXXXOOOOOOOOOOOOOOOOOOOOOOOOOOOOOOOOOOOOOOOOOOOOOOOO",
"ooooooooooooooooooooooooooooooooooooooooooooooooXXXXXXXXXXXX$$$$$$$$XXXXXXXXXXXXOOOOOOOOOOOOOOOOOOOOOOOOOOOOOOOOOOOOOOOOOOOOOOOO",
"ooooooooooooooooooooooooooooooooooooooooooooooooXXXXXXXXXXXX$$$$$$$$XXXXXXXXXXXXOOOOOOOOOOOOOOOOOOOOOOOOOOOOOOOOOOOOOOOOOOOOOOOO",
"ooooooooooooooooooooooooooooooooooooooooooooooooXXXXXXXXXXXX$$$$$$$$XXXXXXXXXXXXOOOOOOOOOOOOOOOOOOOOOOOOOOOOOOOOOOOOOOOOOOOOOOOO",
"ooooooooooooooooooooooooooooooooooooooooooooooooXXXXXXXXXXXX$$$$$$$$XXXXXXXXXXXXOOOOOOOOOOOOOOOOOOOOOOOOOOOOOOOOOOOOOOOOOOOOOOOO",
"################################################XXXXXXXXXXXX$$$$$$$$XXXXXXXXXXXXOOOOOOOO%%%%%%%%OOOOOOOOOOOOOOOOOOOOOOOOOOOOOOOO",
"################################################XXXXXXXXXXXX$$$$$$$$XXXXXXXXXXXXOOOOOOOO%%%%%%%%OOOOOOOOOOOOOOOOOOOOOOOOOOOOOOOO",
"################################################XXXXXXXXXXXX$$$$$$$$XXXXXXXXXXXXOOOOOOOO%%%%%%%%OOOOOOOOOOOOOOOOOOOOOOOOOOOOOOOO",
"################################################XXXXXXXXXXXX$$$$$$$$XXXXXXXXXXXXOOOOOOOO%%%%%%%%OOOOOOOOOOOOOOOOOOOOOOOOOOOOOOOO",
"################################################XXXXXXXX$$$$XXXXXXXX$$$$XXXXXXXXOOOOOOOO%%%%OOOOOOOOOOOOOOOOOOOOOOOO%%%%OOOOOOOO",
"################################################XXXXXXXX$$$$XXXXXXXX$$$$XXXXXXXXOOOOOOOO%%%%OOOOOOOOOOOOOOOOOOOOOOOO%%%%OOOOOOOO",
"################################################XXXXXXXX$$$$XXXXXXXX$$$$XXXXXXXXOOOOOOOO%%%%OOOOOOOOOOOOOOOOOOOOOOOO%%%%OOOOOOOO",
"################################################XXXXXXXX$$$$XXXXXXXX$$$$XXXXXXXXOOOOOOOO%%%%OOOOOOOOOOOOOOOOOOOOOOOO%%%%OOOOOOOO",
"################################################XXXX$$$$XXXXXXXXXXXXXXXX$$$$XXXXOOOOOOOOOOOOOOOOOOOOOOOOOOOOOOOOOOOO%%%%OOOOOOOO",
"################################################XXXX$$$$XXXXXXXXXXXXXXXX$$$$XXXXOOOOOOOOOOOOOOOOOOOOOOOOOOOOOOOOOOOO%%%%OOOOOOOO",
"################################################XXXX$$$$XXXXXXXXXXXXXXXX$$$$XXXXOOOOOOOOOOOOOOOOOOOOOOOOOOOOOOOOOOOO%%%%OOOOOOOO",
"################################################XXXX$$$$XXXXXXXXXXXXXXXX$$$$XXXXOOOOOOOOOOOOOOOOOOOOOOOOOOOOOOOOOOOO%%%%OOOOOOOO",
"OOOOOOOOOOOOOOOOOOOOOOOOOOOOOOOOOOOOOOOOOOOOOOOO$$$$XXXXXXXXXXXXXXXXXXXXXXXX$$$$OOOOOOOOOOOOOOOOOOOOOOOOOOOOOOOO%%%%%%%%OOOOOOOO",
"OOOOOOOOOOOOOOOOOOOOOOOOOOOOOOOOOOOOOOOOOOOOOOOO$$$$XXXXXXXXXXXXXXXXXXXXXXXX$$$$OOOOOOOOOOOOOOOOOOOOOOOOOOOOOOOO%%%%%%%%OOOOOOOO",
"OOOOOOOOOOOOOOOOOOOOOOOOOOOOOOOOOOOOOOOOOOOOOOOO$$$$XXXXXXXXXXXXXXXXXXXXXXXX$$$$OOOOOOOOOOOOOOOOOOOOOOOOOOOOOOOO%%%%%%%%OOOOOOOO",
"OOOOOOOOOOOOOOOOOOOOOOOOOOOOOOOOOOOOOOOOOOOOOOOO$$$$XXXXXXXXXXXXXXXXXXXXXXXX$$$$OOOOOOOOOOOOOOOOOOOOOOOOOOOOOOOO%%%%%%%%OOOOOOOO",
"OOOOOOOOOOOOOOOOOOOOOOOOOOOOOOOOOOOOOOOOOOOOOOOOXXXXXXXXXXXXXXXXXXXXXXXXXXXXXXXXOOOOOOOOOOOOOOOOOOOOOOOOOOOOOOOOOOOOOOOOOOOOOOOO",
"OOOOOOOOOOOOOOOOOOOOOOOOOOOOOOOOOOOOOOOOOOOOOOOOXXXXXXXXXXXXXXXXXXXXXXXXXXXXXXXXOOOOOOOOOOOOOOOOOOOOOOOOOOOOOOOOOOOOOOOOOOOOOOOO",
"OOOOOOOOOOOOOOOOOOOOOOOOOOOOOOOOOOOOOOOOOOOOOOOOXXXXXXXXXXXXXXXXXXXXXXXXXXXXXXXXOOOOOOOOOOOOOOOOOOOOOOOOOOOOOOOOOOOOOOOOOOOOOOOO",
"OOOOOOOOOOOOOOOOOOOOOOOOOOOOOOOOOOOOOOOOOOOOOOOOXXXXXXXXXXXXXXXXXXXXXXXXXXXXXXXXOOOOOOOOOOOOOOOOOOOOOOOOOOOOOOOOOOOOOOOOOOOOOOOO",
"OOOOOOOOOOOOOOOOOOOOOOOOOOOOOOOOOOOOOOOOOOOOOOOOXXXXXXXXXXXX++++++++XXXXXXXXXXXXOOOOOOOOOOOOOOOOOOOOOOOOOOOOOOOOOOOOOOOOOOOOOOOO",
"OOOOOOOOOOOOOOOOOOOOOOOOOOOOOOOOOOOOOOOOOOOOOOOOXXXXXXXXXXXX++++++++XXXXXXXXXXXXOOOOOOOOOOOOOOOOOOOOOOOOOOOOOOOOOOOOOOOOOOOOOOOO",
"OOOOOOOOOOOOOOOOOOOOOOOOOOOOOOOOOOOOOOOOOOOOOOOOXXXXXXXXXXXX++++++++XXXXXXXXXXXXOOOOOOOOOOOOOOOOOOOOOOOOOOOOOOOOOOOOOOOOOOOOOOOO",
"OOOOOOOOOOOOOOOOOOOOOOOOOOOOOOOOOOOOOOOOOOOOOOOOXXXXXXXXXXXX++++++++XXXXXXXXXXXXOOOOOOOOOOOOOOOOOOOOOOOOOOOOOOOOOOOOOOOOOOOOOOOO",
"OOOOOOOO%%%%%%%%OOOO%%%%%%%%OOOOOOOOOOOOOOOOOOOOXXXXXXXXXXXX++++++++XXXXXXXXXXXXOOOOOOOOOOOOOOOOOOOOOOOOOOOOOOOOOOOOOOOOOOOOOOOO",
"OOOOOOOO%%%%%%%%OOOO%%%%%%%%OOOOOOOOOOOOOOOOOOOOXXXXXXXXXXXX++++++++XXXXXXXXXXXXOOOOOOOOOOOOOOOOOOOOOOOOOOOOOOOOOOOOOOOOOOOOOOOO",
"OOOOOOOO%%%%%%%%OOOO%%%%%%%%OOOOOOOOOOOOOOOOOOOOXXXXXXXXXXXX++++++++XXXXXXXXXXXXOOOOOOOOOOOOOOOOOOOOOOOOOOOOOOOOOOOOOOOOOOOOOOOO",
"OOOOOOOO%%%%%%%%OOOO%%%%%%%%OOOOOOOOOOOOOOOOOOOOXXXXXXXXXXXX++++++++XXXXXXXXXXXXOOOOOOOOOOOOOOOOOOOOOOOOOOOOOOOOOOOOOOOOOOOOOOOO",
"OOOOOOOOOOOO%%%%%%%%%%%%OOOOOOOOOOOOOOOOOOOOOOOOXXXXXXXX    ++++++++    XXXXXXXXOOOOOOOOOOOOOOOOOOOOOOOOOOOOOOOOOOOOOOOOOOOOOOOO",
"OOOOOOOOOOOO%%%%%%%%%%%%OOOOOOOOOOOOOOOOOOOOOOOOXXXXXXXX    ++++++++    XXXXXXXXOOOOOOOOOOOOOOOOOOOOOOOOOOOOOOOOOOOOOOOOOOOOOOOO",
"OOOOOOOOOOOO%%%%%%%%%%%%OOOOOOOOOOOOOOOOOOOOOOOOXXXXXXXX    ++++++++    XXXXXXXXOOOOOOOOOOOOOOOOOOOOOOOOOOOOOOOOOOOOOOOOOOOOOOOO",
"OOOOOOOOOOOO%%%%%%%%%%%%OOOOOOOOOOOOOOOOOOOOOOOOXXXXXXXX    ++++++++    XXXXXXXXOOOOOOOOOOOOOOOOOOOOOOOOOOOOOOOOOOOOOOOOOOOOOOOO",
"OOOOOOOOOOOOOOOOOOOOOOOOOOOOOOOOOOOOOOOOOOOOXXXXXXXXXXXXXXXXXXXXXXXXXXXXXXXXXXXXXXXXOOOOOOOOOOOOOOOOOOOOOOOO%%%%%%%%OOOOOOOOOOOO",
"OOOOOOOOOOOOOOOOOOOOOOOOOOOOOOOOOOOOOOOOOOOOXXXXXXXXXXXXXXXXXXXXXXXXXXXXXXXXXXXXXXXXOOOOOOOOOOOOOOOOOOOOOOOO%%%%%%%%OOOOOOOOOOOO",
"OOOOOOOOOOOOOOOOOOOOOOOOOOOOOOOOOOOOOOOOOOOOXXXXXXXXXXXXXXXXXXXXXXXXXXXXXXXXXXXXXXXXOOOOOOOOOOOOOOOOOOOOOOOO%%%%%%%%OOOOOOOOOOOO",
"OOOOOOOOOOOOOOOOOOOOOOOOOOOOOOOOOOOOOOOOOOOOXXXXXXXXXXXXXXXXXXXXXXXXXXXXXXXXXXXXXXXXOOOOOOOOOOOOOOOOOOOOOOOO%%%%%%%%OOOOOOOOOOOO",
"OOOOOOOOOOOOOOOOOOOOOOOOOOOOOOOOOOOOXXXXXXXXXXXX++++XXXXXXXXXXXXXXXXXXXXXXXX++++XXXXXXXXXXXXOOOOOOOOOOOO%%%%%%%%OOOOOOOOOOOOOOOO",
"OOOOOOOOOOOOOOOOOOOOOOOOOOOOOOOOOOOOXXXXXXXXXXXX++++XXXXXXXXXXXXXXXXXXXXXXXX++++XXXXXXXXXXXXOOOOOOOOOOOO%%%%%%%%OOOOOOOOOOOOOOOO",
"OOOOOOOOOOOOOOOOOOOOOOOOOOOOOOOOOOOOXXXXXXXXXXXX++++XXXXXXXXXXXXXXXXXXXXXXXX++++XXXXXXXXXXXXOOOOOOOOOOOO%%%%%%%%OOOOOOOOOOOOOOOO",
"OOOOOOOOOOOOOOOOOOOOOOOOOOOOOOOOOOOOXXXXXXXXXXXX++++XXXXXXXXXXXXXXXXXXXXXXXX++++XXXXXXXXXXXXOOOOOOOOOOOO%%%%%%%%OOOOOOOOOOOOOOOO",
"OOOOOOOOOOOOOOOOOOOOOOOOOOOOOOOOXXXXXXXXXXXXXXXXXXXXXXXXXXXXXXXXXXXXXXXXXXXXXXXXXXXXXXXXXXXXXXXXOOOOOOOOOOOOOOOOOOOOOOOOOOOOOOOO",
"OOOOOOOOOOOOOOOOOOOOOOOOOOOOOOOOXXXXXXXXXXXXXXXXXXXXXXXXXXXXXXXXXXXXXXXXXXXXXXXXXXXXXXXXXXXXXXXXOOOOOOOOOOOOOOOOOOOOOOOOOOOOOOOO",
"OOOOOOOOOOOOOOOOOOOOOOOOOOOOOOOOXXXXXXXXXXXXXXXXXXXXXXXXXXXXXXXXXXXXXXXXXXXXXXXXXXXXXXXXXXXXXXXXOOOOOOOOOOOOOOOOOOOOOOOOOOOOOOOO",
"OOOOOOOOOOOOOOOOOOOOOOOOOOOOOOOOXXXXXXXXXXXXXXXXXXXXXXXXXXXXXXXXXXXXXXXXXXXXXXXXXXXXXXXXXXXXXXXXOOOOOOOOOOOOOOOOOOOOOOOOOOOOOOOO",
"OOOOOOOOOOOOOOOOOOOOOOOOOOOOOOOO++++++++XXXXXXXXXXXXOOOOOOOOXXXXXXXXOOOOOOOOXXXXXXXXXXXX++++++++OOOOOOOOOOOOOOOOOOOOOOOOOOOOOOOO",
"OOOOOOOOOOOOOOOOOOOOOOOOOOOOOOOO++++++++XXXXXXXXXXXXOOOOOOOOXXXXXXXXOOOOOOOOXXXXXXXXXXXX++++++++OOOOOOOOOOOOOOOOOOOOOOOOOOOOOOOO",
"OOOOOOOOOOOOOOOOOOOOOOOOOOOOOOOO++++++++XXXXXXXXXXXXOOOOOOOOXXXXXXXXOOOOOOOOXXXXXXXXXXXX++++++++OOOOOOOOOOOOOOOOOOOOOOOOOOOOOOOO",
"OOOOOOOOOOOOOOOOOOOOOOOOOOOOOOOO++++++++XXXXXXXXXXXXOOOOOOOOXXXXXXXXOOOOOOOOXXXXXXXXXXXX++++++++OOOOOOOOOOOOOOOOOOOOOOOOOOOOOOOO",
"OOOOOOOOOOOOOOOOOOOOOOOOOOOOOOOOOOOOOOOOOOOOOOOOOOOOOOOOOOOOXXXXXXXXOOOOOOOOOOOOOOOOOOOOOOOOOOOOOOOOOOOOOOOOOOOOOOOOOOOOOOOOOOOO",
"OOOOOOOOOOOOOOOOOOOOOOOOOOOOOOOOOOOOOOOOOOOOOOOOOOOOOOOOOOOOXXXXXXXXOOOOOOOOOOOOOOOOOOOOOOOOOOOOOOOOOOOOOOOOOOOOOOOOOOOOOOOOOOOO",
"OOOOOOOOOOOOOOOOOOOOOOOOOOOOOOOOOOOOOOOOOOOOOOOOOOOOOOOOOOOOXXXXXXXXOOOOOOOOOOOOOOOOOOOOOOOOOOOOOOOOOOOOOOOOOOOOOOOOOOOOOOOOOOOO",
"OOOOOOOOOOOOOOOOOOOOOOOOOOOOOOOOOOOOOOOOOOOOOOOOOOOOOOOOOOOOXXXXXXXXOOOOOOOOOOOOOOOOOOOOOOOOOOOOOOOOOOOOOOOOOOOOOOOOOOOOOOOOOOOO",
"OOOOOOOOOOOO%%%%%%%%OOOOOOOOOOOOOOOOOOOOOOOOOOOOOOOOOOOOOOOOXXXXXXXXOOOOOOOOOOOOOOOOOOOOOOOOOOOOOOOOOOOOOOOOOOOOOOOOOOOOOOOOOOOO",
"OOOOOOOOOOOO%%%%%%%%OOOOOOOOOOOOOOOOOOOOOOOOOOOOOOOOOOOOOOOOXXXXXXXXOOOOOOOOOOOOOOOOOOOOOOOOOOOOOOOOOOOOOOOOOOOOOOOOOOOOOOOOOOOO",
"OOOOOOOOOOOO%%%%%%%%OOOOOOOOOOOOOOOOOOOOOOOOOOOOOOOOOOOOOOOOXXXXXXXXOOOOOOOOOOOOOOOOOOOOOOOOOOOOOOOOOOOOOOOOOOOOOOOOOOOOOOOOOOOO",
"OOOOOOOOOOOO%%%%%%%%OOOOOOOOOOOOOOOOOOOOOOOOOOOOOOOOOOOOOOOOXXXXXXXXOOOOOOOOOOOOOOOOOOOOOOOOOOOOOOOOOOOOOOOOOOOOOOOOOOOOOOOOOOOO",
"OOOOOOOOOOOOOOOO%%%%%%%%%%%%OOOOOOOOOOOOOOOOOOOOOOOOOOOOOOOO++++++++OOOOOOOOOOOOOOOOOOOOOOOOOOOOOOOO%%%%%%%%%%%%OOOOOOOOOOOOOOOO",
"OOOOOOOOOOOOOOOO%%%%%%%%%%%%OOOOOOOOOOOOOOOOOOOOOOOOOOOOOOOO++++++++OOOOOOOOOOOOOOOOOOOOOOOOOOOOOOOO%%%%%%%%%%%%OOOOOOOOOOOOOOOO",
"OOOOOOOOOOOOOOOO%%%%%%%%%%%%OOOOOOOOOOOOOOOOOOOOOOOOOOOOOOOO++++++++OOOOOOOOOOOOOOOOOOOOOOOOOOOOOOOO%%%%%%%%%%%%OOOOOOOOOOOOOOOO",
"OOOOOOOOOOOOOOOO%%%%%%%%%%%%OOOOOOOOOOOOOOOOOOOOOOOOOOOOOOOO++++++++OOOOOOOOOOOOOOOOOOOOOOOOOOOOOOOO%%%%%%%%%%%%OOOOOOOOOOOOOOOO",
"OOOOOOOOOOOOOOOOOOOOOOOO%%%%%%%%%%%%OOOOOOOOOOOOOOOOOOOOOOOOOOOOOOOOOOOOOOOOOOOOOOOOOOOO%%%%%%%%%%%%OOOOOOOOOOOOOOOOOOOOOOOOOOOO",
"OOOOOOOOOOOOOOOOOOOOOOOO%%%%%%%%%%%%OOOOOOOOOOOOOOOOOOOOOOOOOOOOOOOOOOOOOOOOOOOOOOOOOOOO%%%%%%%%%%%%OOOOOOOOOOOOOOOOOOOOOOOOOOOO",
"OOOOOOOOOOOOOOOOOOOOOOOO%%%%%%%%%%%%OOOOOOOOOOOOOOOOOOOOOOOOOOOOOOOOOOOOOOOOOOOOOOOOOOOO%%%%%%%%%%%%OOOOOOOOOOOOOOOOOOOOOOOOOOOO",
"OOOOOOOOOOOOOOOOOOOOOOOO%%%%%%%%%%%%OOOOOOOOOOOOOOOOOOOOOOOOOOOOOOOOOOOOOOOOOOOOOOOOOOOO%%%%%%%%%%%%OOOOOOOOOOOOOOOOOOOOOOOOOOOO",
"OOOOOOOOOOOOOOOOOOOOOOOOOOOOOOOOOOOOOOOOOOOOOOOOOOOOOOOOOOOOOOOOOOOOOOOOOOOOOOOOOOOOOOOOOOOOOOOOOOOOOOOOOOOOOOOOOOOOOOOOOOOOOOOO",
"OOOOOOOOOOOOOOOOOOOOOOOOOOOOOOOOOOOOOOOOOOOOOOOOOOOOOOOOOOOOOOOOOOOOOOOOOOOOOOOOOOOOOOOOOOOOOOOOOOOOOOOOOOOOOOOOOOOOOOOOOOOOOOOO",
"OOOOOOOOOOOOOOOOOOOOOOOOOOOOOOOOOOOOOOOOOOOOOOOOOOOOOOOOOOOOOOOOOOOOOOOOOOOOOOOOOOOOOOOOOOOOOOOOOOOOOOOOOOOOOOOOOOOOOOOOOOOOOOOO",
"OOOOOOOOOOOOOOOOOOOOOOOOOOOOOOOOOOOOOOOOOOOOOOOOOOOOOOOOOOOOOOOOOOOOOOOOOOOOOOOOOOOOOOOOOOOOOOOOOOOOOOOOOOOOOOOOOOOOOOOOOOOOOOOO"
};
