/* XPM */
static char *result[] = {
/* columns rows colors chars-per-pixel */
"128 128 10 1 ",
"  c black",
". c #252525",
"X c #343333",
"o c #214433",
"O c #2B3D53",
"+ c #573964",
"@ c #1D6642",
"# c #297970",
"$ c #A0821B",
"% c #496C97",
/* pixels */
"OOOOOOOOOOOOOOOOOOOOOOOOOOOOOOOOOOOOOOOOOOOOOOOOOOOOOOOO############oooooooooooooooooooooooooooooooooooooooooooooooooooooooooooo",
"OOOOOOOOOOOOOOOOOOOOOOOOOOOOOOOOOOOOOOOOOOOOOOOOOOOOOOOO############oooooooooooooooooooooooooooooooooooooooooooooooooooooooooooo",
"OOOOOOOOOOOOOOOOOOOOOOOOOOOOOOOOOOOOOOOOOOOOOOOOOOOOOOOO############oooooooooooooooooooooooooooooooooooooooooooooooooooooooooooo",
"OOOOOOOOOOOOOOOOOOOOOOOOOOOOOOOOOOOOOOOOOOOOOOOOOOOOOOOO############oooooooooooooooooooooooooooooooooooooooooooooooooooooooooooo",
"OOOOOOOOOOOOOOOOOOOOOOOOOOOOOOOOOOOOOOOOOOOOOOOOOOOOOOOO############oooooooooooooooooooo@@@@oooooooooooooooooooooooooooooooooooo",
"OOOOOOOOOOOOOOOOOOOOOOOOOOOOOOOOOOOOOOOOOOOOOOOOOOOOOOOO############oooooooooooooooooooo@@@@oooooooooooooooooooooooooooooooooooo",
"OOOOOOOOOOOOOOOOOOOOOOOOOOOOOOOOOOOOOOOOOOOOOOOOOOOOOOOO############oooooooooooooooooooo@@@@oooooooooooooooooooooooooooooooooooo",
"OOOOOOOOOOOOOOOOOOOOOOOOOOOOOOOOOOOOOOOOOOOOOOOOOOOOOOOO############oooooooooooooooooooo@@@@oooooooooooooooooooooooooooooooooooo",
"OOOOOOOOOOOOOOOOOOOOOOOOOOOOOOOOOOOOOOOOOOOOOOOOOOOOOOOO############oooooooooooo@@@@@@@@@@@@oooooooooooooooooooooooooooooooooooo",
"OOOOOOOOOOOOOOOOOOOOOOOOOOOOOOOOOOOOOOOOOOOOOOOOOOOOOOOO############oooooooooooo@@@@@@@@@@@@oooooooooooooooooooooooooooooooooooo",
"OOOOOOOOOOOOOOOOOOOOOOOOOOOOOOOOOOOOOOOOOOOOOOOOOOOOOOOO############oooooooooooo@@@@@@@@@@@@oooooooooooooooooooooooooooooooooooo",
"OOOOOOOOOOOOOOOOOOOOOOOOOOOOOOOOOOOOOOOOOOOOOOOOOOOOOOOO############oooooooooooo@@@@@@@@@@@@oooooooooooooooooooooooooooooooooooo",
"OOOOOOOOOOOOOOOOOOOOOOOOOOOOOOOO%%%%OOOOOOOOOOOOOOOOOOOO############oooooooooooooooooooooooooooooooooooooooooooo@@@@oooo@@@@oooo",
"OOOOOOOOOOOOOOOOOOOOOOOOOOOOOOOO%%%%OOOOOOOOOOOOOOOOOOOO############oooooooooooooooooooooooooooooooooooooooooooo@@@@oooo@@@@oooo",
"OOOOOOOOOOOOOOOOOOOOOOOOOOOOOOOO%%%%OOOOOOOOOOOOOOOOOOOO############oooooooooooooooooooooooooooooooooooooooooooo@@@@oooo@@@@oooo",
"OOOOOOOOOOOOOOOOOOOOOOOOOOOOOOOO%%%%OOOOOOOOOOOOOOOOOOOO############oooooooooooooooooooooooooooooooooooooooooooo@@@@oooo@@@@oooo",
"OOOOOOOOOOOOOOOOOOOOOOOOOOOOOOOOOOOO%%%%%%%%OOOOOOOOOOOO############oooooooooooooooooooooooooooooooooooooooooooooooo@@@@oooooooo",
"OOOOOOOOOOOOOOOOOOOOOOOOOOOOOOOOOOOO%%%%%%%%OOOOOOOOOOOO############oooooooooooooooooooooooooooooooooooooooooooooooo@@@@oooooooo",
"OOOOOOOOOOOOOOOOOOOOOOOOOOOOOOOOOOOO%%%%%%%%OOOOOOOOOOOO############oooooooooooooooooooooooooooooooooooooooooooooooo@@@@oooooooo",
"OOOOOOOOOOOOOOOOOOOOOOOOOOOOOOOOOOOO%%%%%%%%OOOOOOOOOOOO############oooooooooooooooooooooooooooooooooooooooooooooooo@@@@oooooooo",
"OOOOOOOO%%%%OOOOOOOOOOOOOOOOOOOOOOOOOOOOOOOO%%%%OOOOOOOO############oooooooooooooooooooooooooooooooooooooooooooooooooooo@@@@oooo",
"OOOOOOOO%%%%OOOOOOOOOOOOOOOOOOOOOOOOOOOOOOOO%%%%OOOOOOOO############oooooooooooooooooooooooooooooooooooooooooooooooooooo@@@@oooo",
"OOOOOOOO%%%%OOOOOOOOOOOOOOOOOOOOOOOOOOOOOOOO%%%%OOOOOOOO############oooooooooooooooooooooooooooooooooooooooooooooooooooo@@@@oooo",
"OOOOOOOO%%%%OOOOOOOOOOOOOOOOOOOOOOOOOOOOOOOO%%%%OOOOOOOO############oooooooooooooooooooooooooooooooooooooooooooooooooooo@@@@oooo",
"OOOOOOOO%%%%OOOOOOOOOOOOOOOOOOOOOOOOOOOOOOOO%%%%OOOOOOOO############oooooooooooooooooooooooooooooooooooo@@@@oooooooooooo@@@@oooo",
"OOOOOOOO%%%%OOOOOOOOOOOOOOOOOOOOOOOOOOOOOOOO%%%%OOOOOOOO############oooooooooooooooooooooooooooooooooooo@@@@oooooooooooo@@@@oooo",
"OOOOOOOO%%%%OOOOOOOOOOOOOOOOOOOOOOOOOOOOOOOO%%%%OOOOOOOO############oooooooooooooooooooooooooooooooooooo@@@@oooooooooooo@@@@oooo",
"OOOOOOOO%%%%OOOOOOOOOOOOOOOOOOOOOOOOOOOOOOOO%%%%OOOOOOOO############oooooooooooooooooooooooooooooooooooo@@@@oooooooooooo@@@@oooo",
"OOOOOOOO%%%%OOOOOOOOOOOOOOOOOOOOOOOOOOOOOOOO%%%%OOOOOOOO############oooooooooooooooo@@@@oooooooooooooooo@@@@oooooooooooo@@@@oooo",
"OOOOOOOO%%%%OOOOOOOOOOOOOOOOOOOOOOOOOOOOOOOO%%%%OOOOOOOO############oooooooooooooooo@@@@oooooooooooooooo@@@@oooooooooooo@@@@oooo",
"OOOOOOOO%%%%OOOOOOOOOOOOOOOOOOOOOOOOOOOOOOOO%%%%OOOOOOOO############oooooooooooooooo@@@@oooooooooooooooo@@@@oooooooooooo@@@@oooo",
"OOOOOOOO%%%%OOOOOOOOOOOOOOOOOOOOOOOOOOOOOOOO%%%%OOOOOOOO############oooooooooooooooo@@@@oooooooooooooooo@@@@oooooooooooo@@@@oooo",
"OOOOOOOO%%%%OOOOOOOOOOOO++++XXXXOOOOOOOOOOOO%%%%OOOOOOOO############oooooooo@@@@@@@@@@@@oooooooooooooooo@@@@oooooooooooo@@@@oooo",
"OOOOOOOO%%%%OOOOOOOOOOOO++++XXXXOOOOOOOOOOOO%%%%OOOOOOOO############oooooooo@@@@@@@@@@@@oooooooooooooooo@@@@oooooooooooo@@@@oooo",
"OOOOOOOO%%%%OOOOOOOOOOOO++++XXXXOOOOOOOOOOOO%%%%OOOOOOOO############oooooooo@@@@@@@@@@@@oooooooooooooooo@@@@oooooooooooo@@@@oooo",
"OOOOOOOO%%%%OOOOOOOOOOOO++++XXXXOOOOOOOOOOOO%%%%OOOOOOOO############oooooooo@@@@@@@@@@@@oooooooooooooooo@@@@oooooooooooo@@@@oooo",
"OOOOOOOO%%%%OOOOOOOOOOOO++++XXXXXXXXOOOOOOOOOOOOOOOOOOOO############oooooooo@@@@oooooooooooooooooooooooo@@@@oooooooooooooooooooo",
"OOOOOOOO%%%%OOOOOOOOOOOO++++XXXXXXXXOOOOOOOOOOOOOOOOOOOO############oooooooo@@@@oooooooooooooooooooooooo@@@@oooooooooooooooooooo",
"OOOOOOOO%%%%OOOOOOOOOOOO++++XXXXXXXXOOOOOOOOOOOOOOOOOOOO############oooooooo@@@@oooooooooooooooooooooooo@@@@oooooooooooooooooooo",
"OOOOOOOO%%%%OOOOOOOOOOOO++++XXXXXXXXOOOOOOOOOOOOOOOOOOOO############oooooooo@@@@oooooooooooooooooooooooo@@@@oooooooooooooooooooo",
"OOOOOOOO%%%%OOOOOOOOOOOOXXXXXXXXXXXXOOOOOOOOOOOOOOOOOOOO############oooooooooooooooooooooooooooooooooooooooooooooooo@@@@oooooooo",
"OOOOOOOO%%%%OOOOOOOOOOOOXXXXXXXXXXXXOOOOOOOOOOOOOOOOOOOO############oooooooooooooooooooooooooooooooooooooooooooooooo@@@@oooooooo",
"OOOOOOOO%%%%OOOOOOOOOOOOXXXXXXXXXXXXOOOOOOOOOOOOOOOOOOOO############oooooooooooooooooooooooooooooooooooooooooooooooo@@@@oooooooo",
"OOOOOOOO%%%%OOOOOOOOOOOOXXXXXXXXXXXXOOOOOOOOOOOOOOOOOOOO############oooooooooooooooooooooooooooooooooooooooooooooooo@@@@oooooooo",
"OOOOOOOOOOOOOOOOOOOOOOOOXXXXXXXXXXXXXXXXOOOOOOOOOOOOOOOO############oooooooooooooooooooooooooooooooooooooooooooooooo@@@@oooooooo",
"OOOOOOOOOOOOOOOOOOOOOOOOXXXXXXXXXXXXXXXXOOOOOOOOOOOOOOOO############oooooooooooooooooooooooooooooooooooooooooooooooo@@@@oooooooo",
"OOOOOOOOOOOOOOOOOOOOOOOOXXXXXXXXXXXXXXXXOOOOOOOOOOOOOOOO############oooooooooooooooooooooooooooooooooooooooooooooooo@@@@oooooooo",
"OOOOOOOOOOOOOOOOOOOOOOOOXXXXXXXXXXXXXXXXOOOOOOOOOOOOOOOO############oooooooooooooooooooooooooooooooooooooooooooooooo@@@@oooooooo",
"OOOOOOOOOOOOOOOOOOOOOOOOXXXXXXXX++++XXXXXXXXXXXXXXXXXXXX$$$$XXXXXXXXXXXXXXXXXXXXXXXXXXXXXXXXoooooooooooooooooooooooo@@@@oooooooo",
"OOOOOOOOOOOOOOOOOOOOOOOOXXXXXXXX++++XXXXXXXXXXXXXXXXXXXX$$$$XXXXXXXXXXXXXXXXXXXXXXXXXXXXXXXXoooooooooooooooooooooooo@@@@oooooooo",
"OOOOOOOOOOOOOOOOOOOOOOOOXXXXXXXX++++XXXXXXXXXXXXXXXXXXXX$$$$XXXXXXXXXXXXXXXXXXXXXXXXXXXXXXXXoooooooooooooooooooooooo@@@@oooooooo",
"OOOOOOOOOOOOOOOOOOOOOOOOXXXXXXXX++++XXXXXXXXXXXXXXXXXXXX$$$$XXXXXXXXXXXXXXXXXXXXXXXXXXXXXXXXoooooooooooooooooooooooo@@@@oooooooo",
"OOOOOOOOOOOOOOOOOOOOOOOOOOOOXXXXXXXXXXXXXXXXXXXXXXXXXXXXXXXX$$$$XXXXXXXXXXXXXXXXXXXXXXXXXXXXXXXXXXXXoooooooooooooooooooooooooooo",
"OOOOOOOOOOOOOOOOOOOOOOOOOOOOXXXXXXXXXXXXXXXXXXXXXXXXXXXXXXXX$$$$XXXXXXXXXXXXXXXXXXXXXXXXXXXXXXXXXXXXoooooooooooooooooooooooooooo",
"OOOOOOOOOOOOOOOOOOOOOOOOOOOOXXXXXXXXXXXXXXXXXXXXXXXXXXXXXXXX$$$$XXXXXXXXXXXXXXXXXXXXXXXXXXXXXXXXXXXXoooooooooooooooooooooooooooo",
"OOOOOOOOOOOOOOOOOOOOOOOOOOOOXXXXXXXXXXXXXXXXXXXXXXXXXXXXXXXX$$$$XXXXXXXXXXXXXXXXXXXXXXXXXXXXXXXXXXXXoooooooooooooooooooooooooooo",
"OOOOOOOOOOOOOOOOOOOOOOOOOOOOXXXXXXXXXXXX    XXXXXXXXXXXXXXXXXXXX$$$$XXXXXXXXXXXXXXXXXXXXXXXXXXXXXXXXoooooooooooooooooooooooooooo",
"OOOOOOOOOOOOOOOOOOOOOOOOOOOOXXXXXXXXXXXX    XXXXXXXXXXXXXXXXXXXX$$$$XXXXXXXXXXXXXXXXXXXXXXXXXXXXXXXXoooooooooooooooooooooooooooo",
"OOOOOOOOOOOOOOOOOOOOOOOOOOOOXXXXXXXXXXXX    XXXXXXXXXXXXXXXXXXXX$$$$XXXXXXXXXXXXXXXXXXXXXXXXXXXXXXXXoooooooooooooooooooooooooooo",
"OOOOOOOOOOOOOOOOOOOOOOOOOOOOXXXXXXXXXXXX    XXXXXXXXXXXXXXXXXXXX$$$$XXXXXXXXXXXXXXXXXXXXXXXXXXXXXXXXoooooooooooooooooooooooooooo",
"OOOOOOOOOOOO++++XXXXXXXXXXXXXXXXXXXXXXXX++++++++++++XXXXXXXXXXXXXXXX$$$$$$$$XXXXXXXXXXXXXXXXXXXXXXXXXXXX########################",
"OOOOOOOOOOOO++++XXXXXXXXXXXXXXXXXXXXXXXX++++++++++++XXXXXXXXXXXXXXXX$$$$$$$$XXXXXXXXXXXXXXXXXXXXXXXXXXXX########################",
"OOOOOOOOOOOO++++XXXXXXXXXXXXXXXXXXXXXXXX++++++++++++XXXXXXXXXXXXXXXX$$$$$$$$XXXXXXXXXXXXXXXXXXXXXXXXXXXX########################",
"OOOOOOOOOOOO++++XXXXXXXXXXXXXXXXXXXXXXXX++++++++++++XXXXXXXXXXXXXXXX$$$$$$$$XXXXXXXXXXXXXXXXXXXXXXXXXXXX########################",
"OOOOOOOOOOOO++++XXXXXXXXXXXXXXXXXXXXXXXX++++++++++++XXXXXXXXXXXXXXXX$$$$$$$$XXXXXXXXXXXXXXXXXXXXXXXXXXXX++++####################",
"OOOOOOOOOOOO++++XXXXXXXXXXXXXXXXXXXXXXXX++++++++++++XXXXXXXXXXXXXXXX$$$$$$$$XXXXXXXXXXXXXXXXXXXXXXXXXXXX++++####################",
"OOOOOOOOOOOO++++XXXXXXXXXXXXXXXXXXXXXXXX++++++++++++XXXXXXXXXXXXXXXX$$$$$$$$XXXXXXXXXXXXXXXXXXXXXXXXXXXX++++####################",
"OOOOOOOOOOOO++++XXXXXXXXXXXXXXXXXXXXXXXX++++++++++++XXXXXXXXXXXXXXXX$$$$$$$$XXXXXXXXXXXXXXXXXXXXXXXXXXXX++++####################",
"OOOOOOOOOOOOOOOOOOOOOOOOOOOOXXXXXXXXXXXX    XXXXXXXXXXXXXXXXXXXX$$$$XXXXXXXXXXXXXXXXXXXXXXXXXXXXXXXXXXXX++++####################",
"OOOOOOOOOOOOOOOOOOOOOOOOOOOOXXXXXXXXXXXX    XXXXXXXXXXXXXXXXXXXX$$$$XXXXXXXXXXXXXXXXXXXXXXXXXXXXXXXXXXXX++++####################",
"OOOOOOOOOOOOOOOOOOOOOOOOOOOOXXXXXXXXXXXX    XXXXXXXXXXXXXXXXXXXX$$$$XXXXXXXXXXXXXXXXXXXXXXXXXXXXXXXXXXXX++++####################",
"OOOOOOOOOOOOOOOOOOOOOOOOOOOOXXXXXXXXXXXX    XXXXXXXXXXXXXXXXXXXX$$$$XXXXXXXXXXXXXXXXXXXXXXXXXXXXXXXXXXXX++++####################",
"OOOOOOOOOOOOOOOOOOOOOOOOOOOOXXXXXXXXXXXXXXXXXXXXXXXXXXXXXXXX$$$$XXXXXXXXXXXXXXXXXXXXXXXXXXXXXXXXXXXXXXXXXXXXOOOOOOOOOOOOOOOOOOOO",
"OOOOOOOOOOOOOOOOOOOOOOOOOOOOXXXXXXXXXXXXXXXXXXXXXXXXXXXXXXXX$$$$XXXXXXXXXXXXXXXXXXXXXXXXXXXXXXXXXXXXXXXXXXXXOOOOOOOOOOOOOOOOOOOO",
"OOOOOOOOOOOOOOOOOOOOOOOOOOOOXXXXXXXXXXXXXXXXXXXXXXXXXXXXXXXX$$$$XXXXXXXXXXXXXXXXXXXXXXXXXXXXXXXXXXXXXXXXXXXXOOOOOOOOOOOOOOOOOOOO",
"OOOOOOOOOOOOOOOOOOOOOOOOOOOOXXXXXXXXXXXXXXXXXXXXXXXXXXXXXXXX$$$$XXXXXXXXXXXXXXXXXXXXXXXXXXXXXXXXXXXXXXXXXXXXOOOOOOOOOOOOOOOOOOOO",
"OOOOOOOOOOOOOOOOOOOOOOOOXXXXXXXX++++XXXXXXXXXXXXXXXXXXXX$$$$XXXXXXXXXXXXXXXXXXXXXXXXXXXXXXXXXXXXXXXX$$$$XXXXOOOOOOOOOOOOOOOOOOOO",
"OOOOOOOOOOOOOOOOOOOOOOOOXXXXXXXX++++XXXXXXXXXXXXXXXXXXXX$$$$XXXXXXXXXXXXXXXXXXXXXXXXXXXXXXXXXXXXXXXX$$$$XXXXOOOOOOOOOOOOOOOOOOOO",
"OOOOOOOOOOOOOOOOOOOOOOOOXXXXXXXX++++XXXXXXXXXXXXXXXXXXXX$$$$XXXXXXXXXXXXXXXXXXXXXXXXXXXXXXXXXXXXXXXX$$$$XXXXOOOOOOOOOOOOOOOOOOOO",
"OOOOOOOOOOOOOOOOOOOOOOOOXXXXXXXX++++XXXXXXXXXXXXXXXXXXXX$$$$XXXXXXXXXXXXXXXXXXXXXXXXXXXXXXXXXXXXXXXX$$$$XXXXOOOOOOOOOOOOOOOOOOOO",
"OOOOOOOOOOOOOOOOOOOOOOOOXXXXXXXXXXXXXXXXOOOOOOOOOOOOOOOOOOOOOOOOOOOOOOOOOOOOOOOO............OOOOXXXXXXXXXXXXOOOOOOOOOOOOOOOOOOOO",
"OOOOOOOOOOOOOOOOOOOOOOOOXXXXXXXXXXXXXXXXOOOOOOOOOOOOOOOOOOOOOOOOOOOOOOOOOOOOOOOO............OOOOXXXXXXXXXXXXOOOOOOOOOOOOOOOOOOOO",
"OOOOOOOOOOOOOOOOOOOOOOOOXXXXXXXXXXXXXXXXOOOOOOOOOOOOOOOOOOOOOOOOOOOOOOOOOOOOOOOO............OOOOXXXXXXXXXXXXOOOOOOOOOOOOOOOOOOOO",
"OOOOOOOOOOOOOOOOOOOOOOOOXXXXXXXXXXXXXXXXOOOOOOOOOOOOOOOOOOOOOOOOOOOOOOOOOOOOOOOO............OOOOXXXXXXXXXXXXOOOOOOOOOOOOOOOOOOOO",
"OOOOOOOOOOOOOOOOOOOOOOOOXXXXXXXXXXXXOOOOOOOOOOOOOOOOOOOOOOOOOOOOOOOOOOOOOOOOOOOOOOOO........OOOOOOOOXXXXXXXXOOOOOOOOOOOOOOOOOOOO",
"OOOOOOOOOOOOOOOOOOOOOOOOXXXXXXXXXXXXOOOOOOOOOOOOOOOOOOOOOOOOOOOOOOOOOOOOOOOOOOOOOOOO........OOOOOOOOXXXXXXXXOOOOOOOOOOOOOOOOOOOO",
"OOOOOOOOOOOOOOOOOOOOOOOOXXXXXXXXXXXXOOOOOOOOOOOOOOOOOOOOOOOOOOOOOOOOOOOOOOOOOOOOOOOO........OOOOOOOOXXXXXXXXOOOOOOOOOOOOOOOOOOOO",
"OOOOOOOOOOOOOOOOOOOOOOOOXXXXXXXXXXXXOOOOOOOOOOOOOOOOOOOOOOOOOOOOOOOOOOOOOOOOOOOOOOOO........OOOOOOOOXXXXXXXXOOOOOOOOOOOOOOOOOOOO",
"OOOOOOOO%%%%OOOOOOOOOOOO++++XXXXXXXXOOOOOOOOOOOOOOOOOOOOOOOOOOOOOOOOOOOOOOOOOOOOOOOO........OOOOOOOOXXXXXXXXOOOOOOOOOOOOOOOOOOOO",
"OOOOOOOO%%%%OOOOOOOOOOOO++++XXXXXXXXOOOOOOOOOOOOOOOOOOOOOOOOOOOOOOOOOOOOOOOOOOOOOOOO........OOOOOOOOXXXXXXXXOOOOOOOOOOOOOOOOOOOO",
"OOOOOOOO%%%%OOOOOOOOOOOO++++XXXXXXXXOOOOOOOOOOOOOOOOOOOOOOOOOOOOOOOOOOOOOOOOOOOOOOOO........OOOOOOOOXXXXXXXXOOOOOOOOOOOOOOOOOOOO",
"OOOOOOOO%%%%OOOOOOOOOOOO++++XXXXXXXXOOOOOOOOOOOOOOOOOOOOOOOOOOOOOOOOOOOOOOOOOOOOOOOO........OOOOOOOOXXXXXXXXOOOOOOOOOOOOOOOOOOOO",
"OOOOOOOO%%%%%%%%OOOOOOOO++++XXXXOOOOOOOOOOOOOOOOOOOOOOOOOOOOOOOO%%%%%%%%%%%%OOOOOOOOOOOO....OOOOOOOOOOOOXXXXOOOOOOOOOOOOOOOOOOOO",
"OOOOOOOO%%%%%%%%OOOOOOOO++++XXXXOOOOOOOOOOOOOOOOOOOOOOOOOOOOOOOO%%%%%%%%%%%%OOOOOOOOOOOO....OOOOOOOOOOOOXXXXOOOOOOOOOOOOOOOOOOOO",
"OOOOOOOO%%%%%%%%OOOOOOOO++++XXXXOOOOOOOOOOOOOOOOOOOOOOOOOOOOOOOO%%%%%%%%%%%%OOOOOOOOOOOO....OOOOOOOOOOOOXXXXOOOOOOOOOOOOOOOOOOOO",
"OOOOOOOO%%%%%%%%OOOOOOOO++++XXXXOOOOOOOOOOOOOOOOOOOOOOOOOOOOOOOO%%%%%%%%%%%%OOOOOOOOOOOO....OOOOOOOOOOOOXXXXOOOOOOOOOOOOOOOOOOOO",
"OOOOOOOO%%%%OOOOOOOOOOOOOOOOOOOOOOOOOOOOOOOOOOOOOOOOOOOOOOOOOOOOOOOOOOOOOOOO%%%%OOOOOOOOOOOOOOOOOOOOOOOOOOOOOOOOOOOOOOOOOOOOOOOO",
"OOOOOOOO%%%%OOOOOOOOOOOOOOOOOOOOOOOOOOOOOOOOOOOOOOOOOOOOOOOOOOOOOOOOOOOOOOOO%%%%OOOOOOOOOOOOOOOOOOOOOOOOOOOOOOOOOOOOOOOOOOOOOOOO",
"OOOOOOOO%%%%OOOOOOOOOOOOOOOOOOOOOOOOOOOOOOOOOOOOOOOOOOOOOOOOOOOOOOOOOOOOOOOO%%%%OOOOOOOOOOOOOOOOOOOOOOOOOOOOOOOOOOOOOOOOOOOOOOOO",
"OOOOOOOO%%%%OOOOOOOOOOOOOOOOOOOOOOOOOOOOOOOOOOOOOOOOOOOOOOOOOOOOOOOOOOOOOOOO%%%%OOOOOOOOOOOOOOOOOOOOOOOOOOOOOOOOOOOOOOOOOOOOOOOO",
"OOOOOOOO%%%%OOOOOOOOOOOOOOOOOOOOOOOOOOOOOOOOOOOOOOOOOOOOOOOOOOOOOOOOOOOOOOOOOOOOOOOOOOOOOOOOOOOOOOOOOOOOOOOOOOOOOOOO%%%%%%%%OOOO",
"OOOOOOOO%%%%OOOOOOOOOOOOOOOOOOOOOOOOOOOOOOOOOOOOOOOOOOOOOOOOOOOOOOOOOOOOOOOOOOOOOOOOOOOOOOOOOOOOOOOOOOOOOOOOOOOOOOOO%%%%%%%%OOOO",
"OOOOOOOO%%%%OOOOOOOOOOOOOOOOOOOOOOOOOOOOOOOOOOOOOOOOOOOOOOOOOOOOOOOOOOOOOOOOOOOOOOOOOOOOOOOOOOOOOOOOOOOOOOOOOOOOOOOO%%%%%%%%OOOO",
"OOOOOOOO%%%%OOOOOOOOOOOOOOOOOOOOOOOOOOOOOOOOOOOOOOOOOOOOOOOOOOOOOOOOOOOOOOOOOOOOOOOOOOOOOOOOOOOOOOOOOOOOOOOOOOOOOOOO%%%%%%%%OOOO",
"OOOOOOOOOOOOOOOOOOOOOOOOOOOOOOOOOOOOOOOOOOOOOOOOOOOOOOOOOOOOOOOOOOOOOOOOOOOOOOOOOOOOOOOOOOOOOOOOOOOOOOOOOOOOOOOOOOOO%%%%OOOOOOOO",
"OOOOOOOOOOOOOOOOOOOOOOOOOOOOOOOOOOOOOOOOOOOOOOOOOOOOOOOOOOOOOOOOOOOOOOOOOOOOOOOOOOOOOOOOOOOOOOOOOOOOOOOOOOOOOOOOOOOO%%%%OOOOOOOO",
"OOOOOOOOOOOOOOOOOOOOOOOOOOOOOOOOOOOOOOOOOOOOOOOOOOOOOOOOOOOOOOOOOOOOOOOOOOOOOOOOOOOOOOOOOOOOOOOOOOOOOOOOOOOOOOOOOOOO%%%%OOOOOOOO",
"OOOOOOOOOOOOOOOOOOOOOOOOOOOOOOOOOOOOOOOOOOOOOOOOOOOOOOOOOOOOOOOOOOOOOOOOOOOOOOOOOOOOOOOOOOOOOOOOOOOOOOOOOOOOOOOOOOOO%%%%OOOOOOOO",
"OOOOOOOOOOOOOOOOOOOOOOOOOOOOOOOOOOOOOOOOOOOOOOOOOOOOOOOOOOOOOOOOOOOOOOOOOOOOOOOOOOOOOOOOOOOOOOOOOOOOOOOOOOOO%%%%%%%%OOOOOOOOOOOO",
"OOOOOOOOOOOOOOOOOOOOOOOOOOOOOOOOOOOOOOOOOOOOOOOOOOOOOOOOOOOOOOOOOOOOOOOOOOOOOOOOOOOOOOOOOOOOOOOOOOOOOOOOOOOO%%%%%%%%OOOOOOOOOOOO",
"OOOOOOOOOOOOOOOOOOOOOOOOOOOOOOOOOOOOOOOOOOOOOOOOOOOOOOOOOOOOOOOOOOOOOOOOOOOOOOOOOOOOOOOOOOOOOOOOOOOOOOOOOOOO%%%%%%%%OOOOOOOOOOOO",
"OOOOOOOOOOOOOOOOOOOOOOOOOOOOOOOOOOOOOOOOOOOOOOOOOOOOOOOOOOOOOOOOOOOOOOOOOOOOOOOOOOOOOOOOOOOOOOOOOOOOOOOOOOOO%%%%%%%%OOOOOOOOOOOO",
"OOOOOOOOOOOOOOOOOOOOOOOOOOOO%%%%OOOOOOOOOOOOOOOOOOOOOOOOOOOOOOOO%%%%%%%%OOOOOOOOOOOOOOOOOOOOOOOOOOOOOOOOOOOOOOOOOOOOOOOOOOOOOOOO",
"OOOOOOOOOOOOOOOOOOOOOOOOOOOO%%%%OOOOOOOOOOOOOOOOOOOOOOOOOOOOOOOO%%%%%%%%OOOOOOOOOOOOOOOOOOOOOOOOOOOOOOOOOOOOOOOOOOOOOOOOOOOOOOOO",
"OOOOOOOOOOOOOOOOOOOOOOOOOOOO%%%%OOOOOOOOOOOOOOOOOOOOOOOOOOOOOOOO%%%%%%%%OOOOOOOOOOOOOOOOOOOOOOOOOOOOOOOOOOOOOOOOOOOOOOOOOOOOOOOO",
"OOOOOOOOOOOOOOOOOOOOOOOOOOOO%%%%OOOOOOOOOOOOOOOOOOOOOOOOOOOOOOOO%%%%%%%%OOOOOOOOOOOOOOOOOOOOOOOOOOOOOOOOOOOOOOOOOOOOOOOOOOOOOOOO",
"OOOOOOOOOOOOOOOOOOOOOOOOOOOO%%%%OOOOOOOOOOOOOOOOOOOO%%%%%%%%%%%%%%%%OOOOOOOOOOOOOOOOOOOOOOOOOOOOOOOOOOOOOOOOOOOOOOOOOOOOOOOOOOOO",
"OOOOOOOOOOOOOOOOOOOOOOOOOOOO%%%%OOOOOOOOOOOOOOOOOOOO%%%%%%%%%%%%%%%%OOOOOOOOOOOOOOOOOOOOOOOOOOOOOOOOOOOOOOOOOOOOOOOOOOOOOOOOOOOO",
"OOOOOOOOOOOOOOOOOOOOOOOOOOOO%%%%OOOOOOOOOOOOOOOOOOOO%%%%%%%%%%%%%%%%OOOOOOOOOOOOOOOOOOOOOOOOOOOOOOOOOOOOOOOOOOOOOOOOOOOOOOOOOOOO",
"OOOOOOOOOOOOOOOOOOOOOOOOOOOO%%%%OOOOOOOOOOOOOOOOOOOO%%%%%%%%%%%%%%%%OOOOOOOOOOOOOOOOOOOOOOOOOOOOOOOOOOOOOOOOOOOOOOOOOOOOOOOOOOOO",
"OOOOOOOOOOOOOOOOOOOOOOOOOOOO%%%%OOOOOOOOOOOOOOOOOOOOOOOOOOOOOOOOOOOOOOOOOOOOOOOOOOOOOOOOOOOOOOOOOOOOOOOOOOOOOOOOOOOOOOOOOOOOOOOO",
"OOOOOOOOOOOOOOOOOOOOOOOOOOOO%%%%OOOOOOOOOOOOOOOOOOOOOOOOOOOOOOOOOOOOOOOOOOOOOOOOOOOOOOOOOOOOOOOOOOOOOOOOOOOOOOOOOOOOOOOOOOOOOOOO",
"OOOOOOOOOOOOOOOOOOOOOOOOOOOO%%%%OOOOOOOOOOOOOOOOOOOOOOOOOOOOOOOOOOOOOOOOOOOOOOOOOOOOOOOOOOOOOOOOOOOOOOOOOOOOOOOOOOOOOOOOOOOOOOOO",
"OOOOOOOOOOOOOOOOOOOOOOOOOOOO%%%%OOOOOOOOOOOOOOOOOOOOOOOOOOOOOOOOOOOOOOOOOOOOOOOOOOOOOOOOOOOOOOOOOOOOOOOOOOOOOOOOOOOOOOOOOOOOOOOO",
"OOOOOOOOOOOOOOOOOOOOOOOOOOOOOOOOOOOOOOOOOOOOOOOOOOOOOOOOOOOOOOOOOOOOOOOOOOOOOOOOOOOOOOOOOOOOOOOOOOOOOOOOOOOOOOOOOOOOOOOOOOOOOOOO",
"OOOOOOOOOOOOOOOOOOOOOOOOOOOOOOOOOOOOOOOOOOOOOOOOOOOOOOOOOOOOOOOOOOOOOOOOOOOOOOOOOOOOOOOOOOOOOOOOOOOOOOOOOOOOOOOOOOOOOOOOOOOOOOOO",
"OOOOOOOOOOOOOOOOOOOOOOOOOOOOOOOOOOOOOOOOOOOOOOOOOOOOOOOOOOOOOOOOOOOOOOOOOOOOOOOOOOOOOOOOOOOOOOOOOOOOOOOOOOOOOOOOOOOOOOOOOOOOOOOO",
"OOOOOOOOOOOOOOOOOOOOOOOOOOOOOOOOOOOOOOOOOOOOOOOOOOOOOOOOOOOOOOOOOOOOOOOOOOOOOOOOOOOOOOOOOOOOOOOOOOOOOOOOOOOOOOOOOOOOOOOOOOOOOOOO"
};
