/* XPM */
static char *result[] = {
/* columns rows colors chars-per-pixel */
"128 128 10 1 ",
"  c black",
". c #252525",
"X c #343333",
"o c #214433",
"O c #2B3D53",
"+ c #573964",
"@ c #1D6642",
"# c #297970",
"$ c #A0821B",
"% c #496C97",
/* pixels */
"OOOOOOOOOOOOOOOOOOOOOOOOOOOOOOOOOOOOOOOOOOOOOOOOOOOOOOOO############oooooooooooooooooooooooooooooooooooooooooooooooooooooooooooo",
"OOOOOOOOOOOOOOOOOOOOOOOOOOOOOOOOOOOOOOOOOOOOOOOOOOOOOOOO############oooooooooooooooooooooooooooooooooooooooooooooooooooooooooooo",
"OOOOOOOOOOOOOOOOOOOOOOOOOOOOOOOOOOOOOOOOOOOOOOOOOOOOOOOO############oooooooooooooooooooooooooooooooooooooooooooooooooooooooooooo",
"OOOOOOOOOOOOOOOOOOOOOOOOOOOOOOOOOOOOOOOOOOOOOOOOOOOOOOOO############oooooooooooooooooooooooooooooooooooooooooooooooooooooooooooo",
"OOOOOOOOOOOOOOOOOOOOOOOOOOOOOOOOOOOOOOOOOOOOOOOOOOOOOOOO############oooooooooooooooooooooooooooooooooooooooooooooooooooooooooooo",
"OOOOOOOOOOOOOOOOOOOOOOOOOOOOOOOOOOOOOOOOOOOOOOOOOOOOOOOO############oooooooooooooooooooooooooooooooooooooooooooooooooooooooooooo",
"OOOOOOOOOOOOOOOOOOOOOOOOOOOOOOOOOOOOOOOOOOOOOOOOOOOOOOOO############oooooooooooooooooooooooooooooooooooooooooooooooooooooooooooo",
"OOOOOOOOOOOOOOOOOOOOOOOOOOOOOOOOOOOOOOOOOOOOOOOOOOOOOOOO############oooooooooooooooooooooooooooooooooooooooooooooooooooooooooooo",
"OOOOOOOOOOOOOOOOOOOOOOOOOOOOOOOOOOOOOOOO%%%%OOOOOOOOOOOO############oooooooooooooooooooooooooooo@@@@@@@@oooooooooooooooooooooooo",
"OOOOOOOOOOOOOOOOOOOOOOOOOOOOOOOOOOOOOOOO%%%%OOOOOOOOOOOO############oooooooooooooooooooooooooooo@@@@@@@@oooooooooooooooooooooooo",
"OOOOOOOOOOOOOOOOOOOOOOOOOOOOOOOOOOOOOOOO%%%%OOOOOOOOOOOO############oooooooooooooooooooooooooooo@@@@@@@@oooooooooooooooooooooooo",
"OOOOOOOOOOOOOOOOOOOOOOOOOOOOOOOOOOOOOOOO%%%%OOOOOOOOOOOO############oooooooooooooooooooooooooooo@@@@@@@@oooooooooooooooooooooooo",
"OOOOOOOOOOOO%%%%OOOOOOOOOOOOOOOOOOOO%%%%%%%%OOOOOOOOOOOO############oooooooooooooooooooooooooooo@@@@oooooooooooo@@@@oooooooooooo",
"OOOOOOOOOOOO%%%%OOOOOOOOOOOOOOOOOOOO%%%%%%%%OOOOOOOOOOOO############oooooooooooooooooooooooooooo@@@@oooooooooooo@@@@oooooooooooo",
"OOOOOOOOOOOO%%%%OOOOOOOOOOOOOOOOOOOO%%%%%%%%OOOOOOOOOOOO############oooooooooooooooooooooooooooo@@@@oooooooooooo@@@@oooooooooooo",
"OOOOOOOOOOOO%%%%OOOOOOOOOOOOOOOOOOOO%%%%%%%%OOOOOOOOOOOO############oooooooooooooooooooooooooooo@@@@oooooooooooo@@@@oooooooooooo",
"OOOOOOOO%%%%%%%%OOOOOOOOOOOOOOOOOOOO%%%%OOOOOOOOOOOOOOOO############oooooooo@@@@oooooooooooooooooooooooooooooooo@@@@oooooooooooo",
"OOOOOOOO%%%%%%%%OOOOOOOOOOOOOOOOOOOO%%%%OOOOOOOOOOOOOOOO############oooooooo@@@@oooooooooooooooooooooooooooooooo@@@@oooooooooooo",
"OOOOOOOO%%%%%%%%OOOOOOOOOOOOOOOOOOOO%%%%OOOOOOOOOOOOOOOO############oooooooo@@@@oooooooooooooooooooooooooooooooo@@@@oooooooooooo",
"OOOOOOOO%%%%%%%%OOOOOOOOOOOOOOOOOOOO%%%%OOOOOOOOOOOOOOOO############oooooooo@@@@oooooooooooooooooooooooooooooooo@@@@oooooooooooo",
"OOOOOOOO%%%%OOOOOOOOOOOOOOOOOOOOOOOO%%%%%%%%OOOOOOOOOOOO############oooo@@@@oooooooooooooooooooooooooooooooooooooooo@@@@oooooooo",
"OOOOOOOO%%%%OOOOOOOOOOOOOOOOOOOOOOOO%%%%%%%%OOOOOOOOOOOO############oooo@@@@oooooooooooooooooooooooooooooooooooooooo@@@@oooooooo",
"OOOOOOOO%%%%OOOOOOOOOOOOOOOOOOOOOOOO%%%%%%%%OOOOOOOOOOOO############oooo@@@@oooooooooooooooooooooooooooooooooooooooo@@@@oooooooo",
"OOOOOOOO%%%%OOOOOOOOOOOOOOOOOOOOOOOO%%%%%%%%OOOOOOOOOOOO############oooo@@@@oooooooooooooooooooooooooooooooooooooooo@@@@oooooooo",
"OOOO%%%%%%%%OOOOOOOOOOOOOOOOOOOOOOOOOOOO%%%%OOOOOOOOOOOO############oooooooooooooooooooooooooooooooooooooooooooooooo@@@@oooooooo",
"OOOO%%%%%%%%OOOOOOOOOOOOOOOOOOOOOOOOOOOO%%%%OOOOOOOOOOOO############oooooooooooooooooooooooooooooooooooooooooooooooo@@@@oooooooo",
"OOOO%%%%%%%%OOOOOOOOOOOOOOOOOOOOOOOOOOOO%%%%OOOOOOOOOOOO############oooooooooooooooooooooooooooooooooooooooooooooooo@@@@oooooooo",
"OOOO%%%%%%%%OOOOOOOOOOOOOOOOOOOOOOOOOOOO%%%%OOOOOOOOOOOO############oooooooooooooooooooooooooooooooooooooooooooooooo@@@@oooooooo",
"OOOO%%%%OOOOOOOOOOOOOOOOOOOOOOOOOOOOOOOOOOOOOOOOOOOOOOOO############oooooooooooooooooooo@@@@oooooooooooooooooooooooo@@@@oooooooo",
"OOOO%%%%OOOOOOOOOOOOOOOOOOOOOOOOOOOOOOOOOOOOOOOOOOOOOOOO############oooooooooooooooooooo@@@@oooooooooooooooooooooooo@@@@oooooooo",
"OOOO%%%%OOOOOOOOOOOOOOOOOOOOOOOOOOOOOOOOOOOOOOOOOOOOOOOO############oooooooooooooooooooo@@@@oooooooooooooooooooooooo@@@@oooooooo",
"OOOO%%%%OOOOOOOOOOOOOOOOOOOOOOOOOOOOOOOOOOOOOOOOOOOOOOOO############oooooooooooooooooooo@@@@oooooooooooooooooooooooo@@@@oooooooo",
"OOOO%%%%OOOOOOOOOOOO++++XXXXOOOOOOOOOOOOOOOOOOOOOOOOOOOO############oooooooooooooooo@@@@@@@@oooooooooooooooooooooooo@@@@oooooooo",
"OOOO%%%%OOOOOOOOOOOO++++XXXXOOOOOOOOOOOOOOOOOOOOOOOOOOOO############oooooooooooooooo@@@@@@@@oooooooooooooooooooooooo@@@@oooooooo",
"OOOO%%%%OOOOOOOOOOOO++++XXXXOOOOOOOOOOOOOOOOOOOOOOOOOOOO############oooooooooooooooo@@@@@@@@oooooooooooooooooooooooo@@@@oooooooo",
"OOOO%%%%OOOOOOOOOOOO++++XXXXOOOOOOOOOOOOOOOOOOOOOOOOOOOO############oooooooooooooooo@@@@@@@@oooooooooooooooooooooooo@@@@oooooooo",
"OOOOOOOOOOOOOOOOOOOO++++XXXXXXXXOOOOOOOOOOOOOOOOOOOOOOOO############oooooooo@@@@@@@@oooooooooooooooooooooooooooooooo@@@@oooooooo",
"OOOOOOOOOOOOOOOOOOOO++++XXXXXXXXOOOOOOOOOOOOOOOOOOOOOOOO############oooooooo@@@@@@@@oooooooooooooooooooooooooooooooo@@@@oooooooo",
"OOOOOOOOOOOOOOOOOOOO++++XXXXXXXXOOOOOOOOOOOOOOOOOOOOOOOO############oooooooo@@@@@@@@oooooooooooooooooooooooooooooooo@@@@oooooooo",
"OOOOOOOOOOOOOOOOOOOO++++XXXXXXXXOOOOOOOOOOOOOOOOOOOOOOOO############oooooooo@@@@@@@@oooooooooooooooooooooooooooooooo@@@@oooooooo",
"OOOOOOOOOOOOOOOOOOOOXXXXXXXXXXXXOOOOOOOOOOOOOOOOOOOOOOOO############oooo@@@@@@@@oooooooooooooooooooooooooooooooo@@@@oooooooooooo",
"OOOOOOOOOOOOOOOOOOOOXXXXXXXXXXXXOOOOOOOOOOOOOOOOOOOOOOOO############oooo@@@@@@@@oooooooooooooooooooooooooooooooo@@@@oooooooooooo",
"OOOOOOOOOOOOOOOOOOOOXXXXXXXXXXXXOOOOOOOOOOOOOOOOOOOOOOOO############oooo@@@@@@@@oooooooooooooooooooooooooooooooo@@@@oooooooooooo",
"OOOOOOOOOOOOOOOOOOOOXXXXXXXXXXXXOOOOOOOOOOOOOOOOOOOOOOOO############oooo@@@@@@@@oooooooooooooooooooooooooooooooo@@@@oooooooooooo",
"OOOOOOOOOOOOOOOOOOOOXXXXXXXXXXXXXXXXOOOOOOOOOOOOOOOOOOOO############oooooooooooooooooooooooooooooooooooooooooooooooooooooooooooo",
"OOOOOOOOOOOOOOOOOOOOXXXXXXXXXXXXXXXXOOOOOOOOOOOOOOOOOOOO############oooooooooooooooooooooooooooooooooooooooooooooooooooooooooooo",
"OOOOOOOOOOOOOOOOOOOOXXXXXXXXXXXXXXXXOOOOOOOOOOOOOOOOOOOO############oooooooooooooooooooooooooooooooooooooooooooooooooooooooooooo",
"OOOOOOOOOOOOOOOOOOOOXXXXXXXXXXXXXXXXOOOOOOOOOOOOOOOOOOOO############oooooooooooooooooooooooooooooooooooooooooooooooooooooooooooo",
"OOOOOOOOOOOOOOOOOOOOXXXXXXXX++++XXXXXXXXXXXXXXXXXXXX$$$$XXXXXXXXXXXXXXXXXXXXXXXXXXXXXXXXXXXXoooooooooooooooooooooooooooooooooooo",
"OOOOOOOOOOOOOOOOOOOOXXXXXXXX++++XXXXXXXXXXXXXXXXXXXX$$$$XXXXXXXXXXXXXXXXXXXXXXXXXXXXXXXXXXXXoooooooooooooooooooooooooooooooooooo",
"OOOOOOOOOOOOOOOOOOOOXXXXXXXX++++XXXXXXXXXXXXXXXXXXXX$$$$XXXXXXXXXXXXXXXXXXXXXXXXXXXXXXXXXXXXoooooooooooooooooooooooooooooooooooo",
"OOOOOOOOOOOOOOOOOOOOXXXXXXXX++++XXXXXXXXXXXXXXXXXXXX$$$$XXXXXXXXXXXXXXXXXXXXXXXXXXXXXXXXXXXXoooooooooooooooooooooooooooooooooooo",
"OOOOOOOOOOOOOOOOOOOOOOOOXXXXXXXXXXXXXXXXXXXXXXXXXXXXXXXX$$$$XXXXXXXXXXXXXXXXXXXXXXXXXXXXXXXXXXXXXXXXoooooooooooooooooooooooooooo",
"OOOOOOOOOOOOOOOOOOOOOOOOXXXXXXXXXXXXXXXXXXXXXXXXXXXXXXXX$$$$XXXXXXXXXXXXXXXXXXXXXXXXXXXXXXXXXXXXXXXXoooooooooooooooooooooooooooo",
"OOOOOOOOOOOOOOOOOOOOOOOOXXXXXXXXXXXXXXXXXXXXXXXXXXXXXXXX$$$$XXXXXXXXXXXXXXXXXXXXXXXXXXXXXXXXXXXXXXXXoooooooooooooooooooooooooooo",
"OOOOOOOOOOOOOOOOOOOOOOOOXXXXXXXXXXXXXXXXXXXXXXXXXXXXXXXX$$$$XXXXXXXXXXXXXXXXXXXXXXXXXXXXXXXXXXXXXXXXoooooooooooooooooooooooooooo",
"OOOOOOOOOOOOOOOOOOOOOOOOXXXXXXXXXXXX    XXXXXXXXXXXXXXXXXXXX$$$$XXXXXXXXXXXXXXXXXXXXXXXXXXXXXXXXXXXXoooooooooooooooooooooooooooo",
"OOOOOOOOOOOOOOOOOOOOOOOOXXXXXXXXXXXX    XXXXXXXXXXXXXXXXXXXX$$$$XXXXXXXXXXXXXXXXXXXXXXXXXXXXXXXXXXXXoooooooooooooooooooooooooooo",
"OOOOOOOOOOOOOOOOOOOOOOOOXXXXXXXXXXXX    XXXXXXXXXXXXXXXXXXXX$$$$XXXXXXXXXXXXXXXXXXXXXXXXXXXXXXXXXXXXoooooooooooooooooooooooooooo",
"OOOOOOOOOOOOOOOOOOOOOOOOXXXXXXXXXXXX    XXXXXXXXXXXXXXXXXXXX$$$$XXXXXXXXXXXXXXXXXXXXXXXXXXXXXXXXXXXXoooooooooooooooooooooooooooo",
"OOOOOOOO++++XXXXXXXXXXXXXXXXXXXXXXXX++++++++++++XXXXXXXXXXXXXXXX$$$$$$$$XXXXXXXXXXXXXXXXXXXXXXXXXXXXXXXX########################",
"OOOOOOOO++++XXXXXXXXXXXXXXXXXXXXXXXX++++++++++++XXXXXXXXXXXXXXXX$$$$$$$$XXXXXXXXXXXXXXXXXXXXXXXXXXXXXXXX########################",
"OOOOOOOO++++XXXXXXXXXXXXXXXXXXXXXXXX++++++++++++XXXXXXXXXXXXXXXX$$$$$$$$XXXXXXXXXXXXXXXXXXXXXXXXXXXXXXXX########################",
"OOOOOOOO++++XXXXXXXXXXXXXXXXXXXXXXXX++++++++++++XXXXXXXXXXXXXXXX$$$$$$$$XXXXXXXXXXXXXXXXXXXXXXXXXXXXXXXX########################",
"OOOOOOOO++++XXXXXXXXXXXXXXXXXXXXXXXX++++++++++++XXXXXXXXXXXXXXXX$$$$$$$$XXXXXXXXXXXXXXXXXXXXXXXXXXXXXXXX++++####################",
"OOOOOOOO++++XXXXXXXXXXXXXXXXXXXXXXXX++++++++++++XXXXXXXXXXXXXXXX$$$$$$$$XXXXXXXXXXXXXXXXXXXXXXXXXXXXXXXX++++####################",
"OOOOOOOO++++XXXXXXXXXXXXXXXXXXXXXXXX++++++++++++XXXXXXXXXXXXXXXX$$$$$$$$XXXXXXXXXXXXXXXXXXXXXXXXXXXXXXXX++++####################",
"OOOOOOOO++++XXXXXXXXXXXXXXXXXXXXXXXX++++++++++++XXXXXXXXXXXXXXXX$$$$$$$$XXXXXXXXXXXXXXXXXXXXXXXXXXXXXXXX++++####################",
"OOOOOOOOOOOOOOOOOOOOOOOOXXXXXXXXXXXX    XXXXXXXXXXXXXXXXXXXX$$$$XXXXXXXXXXXXXXXXXXXXXXXXXXXXXXXXXXXXXXXX++++####################",
"OOOOOOOOOOOOOOOOOOOOOOOOXXXXXXXXXXXX    XXXXXXXXXXXXXXXXXXXX$$$$XXXXXXXXXXXXXXXXXXXXXXXXXXXXXXXXXXXXXXXX++++####################",
"OOOOOOOOOOOOOOOOOOOOOOOOXXXXXXXXXXXX    XXXXXXXXXXXXXXXXXXXX$$$$XXXXXXXXXXXXXXXXXXXXXXXXXXXXXXXXXXXXXXXX++++####################",
"OOOOOOOOOOOOOOOOOOOOOOOOXXXXXXXXXXXX    XXXXXXXXXXXXXXXXXXXX$$$$XXXXXXXXXXXXXXXXXXXXXXXXXXXXXXXXXXXXXXXX++++####################",
"OOOOOOOOOOOOOOOOOOOOOOOOXXXXXXXXXXXXXXXXXXXXXXXXXXXXXXXX$$$$XXXXXXXXXXXXXXXXXXXXXXXXXXXXXXXXXXXXXXXXXXXXXXXXOOOOOOOOOOOOOOOOOOOO",
"OOOOOOOOOOOOOOOOOOOOOOOOXXXXXXXXXXXXXXXXXXXXXXXXXXXXXXXX$$$$XXXXXXXXXXXXXXXXXXXXXXXXXXXXXXXXXXXXXXXXXXXXXXXXOOOOOOOOOOOOOOOOOOOO",
"OOOOOOOOOOOOOOOOOOOOOOOOXXXXXXXXXXXXXXXXXXXXXXXXXXXXXXXX$$$$XXXXXXXXXXXXXXXXXXXXXXXXXXXXXXXXXXXXXXXXXXXXXXXXOOOOOOOOOOOOOOOOOOOO",
"OOOOOOOOOOOOOOOOOOOOOOOOXXXXXXXXXXXXXXXXXXXXXXXXXXXXXXXX$$$$XXXXXXXXXXXXXXXXXXXXXXXXXXXXXXXXXXXXXXXXXXXXXXXXOOOOOOOOOOOOOOOOOOOO",
"OOOOOOOOOOOOOOOOOOOOXXXXXXXX++++XXXXXXXXXXXXXXXXXXXX$$$$XXXXXXXXXXXXXXXXXXXXXXXXXXXXXXXXXXXXXXXXXXXX$$$$XXXXOOOOOOOOOOOOOOOOOOOO",
"OOOOOOOOOOOOOOOOOOOOXXXXXXXX++++XXXXXXXXXXXXXXXXXXXX$$$$XXXXXXXXXXXXXXXXXXXXXXXXXXXXXXXXXXXXXXXXXXXX$$$$XXXXOOOOOOOOOOOOOOOOOOOO",
"OOOOOOOOOOOOOOOOOOOOXXXXXXXX++++XXXXXXXXXXXXXXXXXXXX$$$$XXXXXXXXXXXXXXXXXXXXXXXXXXXXXXXXXXXXXXXXXXXX$$$$XXXXOOOOOOOOOOOOOOOOOOOO",
"OOOOOOOOOOOOOOOOOOOOXXXXXXXX++++XXXXXXXXXXXXXXXXXXXX$$$$XXXXXXXXXXXXXXXXXXXXXXXXXXXXXXXXXXXXXXXXXXXX$$$$XXXXOOOOOOOOOOOOOOOOOOOO",
"OOOOOOOOOOOOOOOOOOOOXXXXXXXXXXXXXXXXOOOOOOOOOOOOOOOOOOOOOOOOOOOOOOOOOOOOOOOOOOOO............OOOOXXXXXXXXXXXXOOOOOOOOOOOOOOOOOOOO",
"OOOOOOOOOOOOOOOOOOOOXXXXXXXXXXXXXXXXOOOOOOOOOOOOOOOOOOOOOOOOOOOOOOOOOOOOOOOOOOOO............OOOOXXXXXXXXXXXXOOOOOOOOOOOOOOOOOOOO",
"OOOOOOOOOOOOOOOOOOOOXXXXXXXXXXXXXXXXOOOOOOOOOOOOOOOOOOOOOOOOOOOOOOOOOOOOOOOOOOOO............OOOOXXXXXXXXXXXXOOOOOOOOOOOOOOOOOOOO",
"OOOOOOOOOOOOOOOOOOOOXXXXXXXXXXXXXXXXOOOOOOOOOOOOOOOOOOOOOOOOOOOOOOOOOOOOOOOOOOOO............OOOOXXXXXXXXXXXXOOOOOOOOOOOOOOOOOOOO",
"OOOOOOOOOOOOOOOOOOOOXXXXXXXXXXXXOOOOOOOOOOOOOOOOOOOOOOOOOOOOOOOOOOOOOOOOOOOOOOOOOOOO........OOOOOOOOXXXXXXXXOOOOOOOOOOOOOOOOOOOO",
"OOOOOOOOOOOOOOOOOOOOXXXXXXXXXXXXOOOOOOOOOOOOOOOOOOOOOOOOOOOOOOOOOOOOOOOOOOOOOOOOOOOO........OOOOOOOOXXXXXXXXOOOOOOOOOOOOOOOOOOOO",
"OOOOOOOOOOOOOOOOOOOOXXXXXXXXXXXXOOOOOOOOOOOOOOOOOOOOOOOOOOOOOOOOOOOOOOOOOOOOOOOOOOOO........OOOOOOOOXXXXXXXXOOOOOOOOOOOOOOOOOOOO",
"OOOOOOOOOOOOOOOOOOOOXXXXXXXXXXXXOOOOOOOOOOOOOOOOOOOOOOOOOOOOOOOOOOOOOOOOOOOOOOOOOOOO........OOOOOOOOXXXXXXXXOOOOOOOOOOOOOOOOOOOO",
"OOOO%%%%OOOOOOOOOOOO++++XXXXXXXXOOOOOOOOOOOOOOOOOOOOOOOOOOOO%%%%%%%%OOOOOOOOOOOOOOOO........OOOOOOOOXXXXXXXXOOOOOOOOOOOOOOOOOOOO",
"OOOO%%%%OOOOOOOOOOOO++++XXXXXXXXOOOOOOOOOOOOOOOOOOOOOOOOOOOO%%%%%%%%OOOOOOOOOOOOOOOO........OOOOOOOOXXXXXXXXOOOOOOOOOOOOOOOOOOOO",
"OOOO%%%%OOOOOOOOOOOO++++XXXXXXXXOOOOOOOOOOOOOOOOOOOOOOOOOOOO%%%%%%%%OOOOOOOOOOOOOOOO........OOOOOOOOXXXXXXXXOOOOOOOOOOOOOOOOOOOO",
"OOOO%%%%OOOOOOOOOOOO++++XXXXXXXXOOOOOOOOOOOOOOOOOOOOOOOOOOOO%%%%%%%%OOOOOOOOOOOOOOOO........OOOOOOOOXXXXXXXXOOOOOOOOOOOOOOOOOOOO",
"OOOO%%%%OOOOOOOOOOOO++++XXXXOOOOOOOOOOOOOOOOOOOOOOOOOOOOOOOOOOOO%%%%OOOOOOOOOOOOOOOOOOOO....OOOOOOOOOOOOXXXXOOOOOOOOOOOOOOOOOOOO",
"OOOO%%%%OOOOOOOOOOOO++++XXXXOOOOOOOOOOOOOOOOOOOOOOOOOOOOOOOOOOOO%%%%OOOOOOOOOOOOOOOOOOOO....OOOOOOOOOOOOXXXXOOOOOOOOOOOOOOOOOOOO",
"OOOO%%%%OOOOOOOOOOOO++++XXXXOOOOOOOOOOOOOOOOOOOOOOOOOOOOOOOOOOOO%%%%OOOOOOOOOOOOOOOOOOOO....OOOOOOOOOOOOXXXXOOOOOOOOOOOOOOOOOOOO",
"OOOO%%%%OOOOOOOOOOOO++++XXXXOOOOOOOOOOOOOOOOOOOOOOOOOOOOOOOOOOOO%%%%OOOOOOOOOOOOOOOOOOOO....OOOOOOOOOOOOXXXXOOOOOOOOOOOOOOOOOOOO",
"OOOO%%%%OOOOOOOOOOOOOOOOOOOOOOOOOOOOOOOOOOOOOOOOOOOOOOOOOOOOOOOOOOOOOOOOOOOOOOOOOOOOOOOOOOOOOOOOOOOOOOOOOOOOOOOOOOOOOOOOOOOOOOOO",
"OOOO%%%%OOOOOOOOOOOOOOOOOOOOOOOOOOOOOOOOOOOOOOOOOOOOOOOOOOOOOOOOOOOOOOOOOOOOOOOOOOOOOOOOOOOOOOOOOOOOOOOOOOOOOOOOOOOOOOOOOOOOOOOO",
"OOOO%%%%OOOOOOOOOOOOOOOOOOOOOOOOOOOOOOOOOOOOOOOOOOOOOOOOOOOOOOOOOOOOOOOOOOOOOOOOOOOOOOOOOOOOOOOOOOOOOOOOOOOOOOOOOOOOOOOOOOOOOOOO",
"OOOO%%%%OOOOOOOOOOOOOOOOOOOOOOOOOOOOOOOOOOOOOOOOOOOOOOOOOOOOOOOOOOOOOOOOOOOOOOOOOOOOOOOOOOOOOOOOOOOOOOOOOOOOOOOOOOOOOOOOOOOOOOOO",
"OOOOOOOO%%%%OOOOOOOOOOOOOOOOOOOOOOOOOOOOOOOOOOOOOOOOOOOOOOOOOOOOOOOOOOOOOOOOOOOOOOOOOOOOOOOOOOOOOOOOOOOOOOOOOOOOOOOOOOOOOOOOOOOO",
"OOOOOOOO%%%%OOOOOOOOOOOOOOOOOOOOOOOOOOOOOOOOOOOOOOOOOOOOOOOOOOOOOOOOOOOOOOOOOOOOOOOOOOOOOOOOOOOOOOOOOOOOOOOOOOOOOOOOOOOOOOOOOOOO",
"OOOOOOOO%%%%OOOOOOOOOOOOOOOOOOOOOOOOOOOOOOOOOOOOOOOOOOOOOOOOOOOOOOOOOOOOOOOOOOOOOOOOOOOOOOOOOOOOOOOOOOOOOOOOOOOOOOOOOOOOOOOOOOOO",
"OOOOOOOO%%%%OOOOOOOOOOOOOOOOOOOOOOOOOOOOOOOOOOOOOOOOOOOOOOOOOOOOOOOOOOOOOOOOOOOOOOOOOOOOOOOOOOOOOOOOOOOOOOOOOOOOOOOOOOOOOOOOOOOO",
"OOOOOOOO%%%%OOOOOOOOOOOOOOOO%%%%OOOOOOOOOOOOOOOOOOOOOOOOOOOOOOOOOOOOOOOOOOOOOOOOOOOOOOOOOOOOOOOOOOOOOOOOOOOOOOOOOOOO%%%%%%%%%%%%",
"OOOOOOOO%%%%OOOOOOOOOOOOOOOO%%%%OOOOOOOOOOOOOOOOOOOOOOOOOOOOOOOOOOOOOOOOOOOOOOOOOOOOOOOOOOOOOOOOOOOOOOOOOOOOOOOOOOOO%%%%%%%%%%%%",
"OOOOOOOO%%%%OOOOOOOOOOOOOOOO%%%%OOOOOOOOOOOOOOOOOOOOOOOOOOOOOOOOOOOOOOOOOOOOOOOOOOOOOOOOOOOOOOOOOOOOOOOOOOOOOOOOOOOO%%%%%%%%%%%%",
"OOOOOOOO%%%%OOOOOOOOOOOOOOOO%%%%OOOOOOOOOOOOOOOOOOOOOOOOOOOOOOOOOOOOOOOOOOOOOOOOOOOOOOOOOOOOOOOOOOOOOOOOOOOOOOOOOOOO%%%%%%%%%%%%",
"OOOOOOOO%%%%OOOOOOOOOOOOOOOO%%%%%%%%OOOOOOOOOOOOOOOOOOOOOOOOOOOOOOOOOOOOOOOOOOOOOOOO%%%%%%%%%%%%OOOOOOOOOOOOOOOOOOOO%%%%OOOOOOOO",
"OOOOOOOO%%%%OOOOOOOOOOOOOOOO%%%%%%%%OOOOOOOOOOOOOOOOOOOOOOOOOOOOOOOOOOOOOOOOOOOOOOOO%%%%%%%%%%%%OOOOOOOOOOOOOOOOOOOO%%%%OOOOOOOO",
"OOOOOOOO%%%%OOOOOOOOOOOOOOOO%%%%%%%%OOOOOOOOOOOOOOOOOOOOOOOOOOOOOOOOOOOOOOOOOOOOOOOO%%%%%%%%%%%%OOOOOOOOOOOOOOOOOOOO%%%%OOOOOOOO",
"OOOOOOOO%%%%OOOOOOOOOOOOOOOO%%%%%%%%OOOOOOOOOOOOOOOOOOOOOOOOOOOOOOOOOOOOOOOOOOOOOOOO%%%%%%%%%%%%OOOOOOOOOOOOOOOOOOOO%%%%OOOOOOOO",
"OOOOOOOOOOOOOOOOOOOOOOOOOOOOOOOO%%%%OOOOOOOOOOOOOOOO%%%%OOOOOOOOOOOOOOOOOOOO%%%%%%%%%%%%OOOOOOOOOOOOOOOOOOOOOOOO%%%%%%%%OOOOOOOO",
"OOOOOOOOOOOOOOOOOOOOOOOOOOOOOOOO%%%%OOOOOOOOOOOOOOOO%%%%OOOOOOOOOOOOOOOOOOOO%%%%%%%%%%%%OOOOOOOOOOOOOOOOOOOOOOOO%%%%%%%%OOOOOOOO",
"OOOOOOOOOOOOOOOOOOOOOOOOOOOOOOOO%%%%OOOOOOOOOOOOOOOO%%%%OOOOOOOOOOOOOOOOOOOO%%%%%%%%%%%%OOOOOOOOOOOOOOOOOOOOOOOO%%%%%%%%OOOOOOOO",
"OOOOOOOOOOOOOOOOOOOOOOOOOOOOOOOO%%%%OOOOOOOOOOOOOOOO%%%%OOOOOOOOOOOOOOOOOOOO%%%%%%%%%%%%OOOOOOOOOOOOOOOOOOOOOOOO%%%%%%%%OOOOOOOO",
"OOOOOOOOOOOOOOOOOOOOOOOOOOOOOOOOOOOOOOOOOOOOOOOOOOOO%%%%%%%%%%%%OOOOOOOOOOOOOOOOOOOOOOOOOOOOOOOOOOOOOOOOOOOOOOOOOOOOOOOOOOOOOOOO",
"OOOOOOOOOOOOOOOOOOOOOOOOOOOOOOOOOOOOOOOOOOOOOOOOOOOO%%%%%%%%%%%%OOOOOOOOOOOOOOOOOOOOOOOOOOOOOOOOOOOOOOOOOOOOOOOOOOOOOOOOOOOOOOOO",
"OOOOOOOOOOOOOOOOOOOOOOOOOOOOOOOOOOOOOOOOOOOOOOOOOOOO%%%%%%%%%%%%OOOOOOOOOOOOOOOOOOOOOOOOOOOOOOOOOOOOOOOOOOOOOOOOOOOOOOOOOOOOOOOO",
"OOOOOOOOOOOOOOOOOOOOOOOOOOOOOOOOOOOOOOOOOOOOOOOOOOOO%%%%%%%%%%%%OOOOOOOOOOOOOOOOOOOOOOOOOOOOOOOOOOOOOOOOOOOOOOOOOOOOOOOOOOOOOOOO",
"OOOOOOOOOOOOOOOOOOOOOOOOOOOOOOOOOOOOOOOOOOOOOOOOOOOOOOOOOOOOOOOOOOOOOOOOOOOOOOOOOOOOOOOOOOOOOOOOOOOOOOOOOOOOOOOOOOOOOOOOOOOOOOOO",
"OOOOOOOOOOOOOOOOOOOOOOOOOOOOOOOOOOOOOOOOOOOOOOOOOOOOOOOOOOOOOOOOOOOOOOOOOOOOOOOOOOOOOOOOOOOOOOOOOOOOOOOOOOOOOOOOOOOOOOOOOOOOOOOO",
"OOOOOOOOOOOOOOOOOOOOOOOOOOOOOOOOOOOOOOOOOOOOOOOOOOOOOOOOOOOOOOOOOOOOOOOOOOOOOOOOOOOOOOOOOOOOOOOOOOOOOOOOOOOOOOOOOOOOOOOOOOOOOOOO",
"OOOOOOOOOOOOOOOOOOOOOOOOOOOOOOOOOOOOOOOOOOOOOOOOOOOOOOOOOOOOOOOOOOOOOOOOOOOOOOOOOOOOOOOOOOOOOOOOOOOOOOOOOOOOOOOOOOOOOOOOOOOOOOOO",
"OOOOOOOOOOOOOOOOOOOOOOOOOOOOOOOOOOOOOOOOOOOOOOOOOOOOOOOOOOOOOOOOOOOOOOOOOOOOOOOOOOOOOOOOOOOOOOOOOOOOOOOOOOOOOOOOOOOOOOOOOOOOOOOO",
"OOOOOOOOOOOOOOOOOOOOOOOOOOOOOOOOOOOOOOOOOOOOOOOOOOOOOOOOOOOOOOOOOOOOOOOOOOOOOOOOOOOOOOOOOOOOOOOOOOOOOOOOOOOOOOOOOOOOOOOOOOOOOOOO",
"OOOOOOOOOOOOOOOOOOOOOOOOOOOOOOOOOOOOOOOOOOOOOOOOOOOOOOOOOOOOOOOOOOOOOOOOOOOOOOOOOOOOOOOOOOOOOOOOOOOOOOOOOOOOOOOOOOOOOOOOOOOOOOOO",
"OOOOOOOOOOOOOOOOOOOOOOOOOOOOOOOOOOOOOOOOOOOOOOOOOOOOOOOOOOOOOOOOOOOOOOOOOOOOOOOOOOOOOOOOOOOOOOOOOOOOOOOOOOOOOOOOOOOOOOOOOOOOOOOO"
};
