/* XPM */
static char *result[] = {
/* columns rows colors chars-per-pixel */
"128 128 10 1 ",
"  c black",
". c #252525",
"X c #343333",
"o c #214433",
"O c #2B3D53",
"+ c #573964",
"@ c #1D6642",
"# c #297970",
"$ c #A0821B",
"% c #496C97",
/* pixels */
"OOOOOOOOOOOOOOOOOOOOOOOOOOOOOOOOOOOOOOOOOOOOOOOOOOOOOOOOOOOOOOOOOOOOOOOOOOOOOOOOOOOOOOOOOOOOOOOOOOOOOOOOOOOOOOOOOOOOOOOOOOOOOOOO",
"OOOOOOOOOOOOOOOOOOOOOOOOOOOOOOOOOOOOOOOOOOOOOOOOOOOOOOOOOOOOOOOOOOOOOOOOOOOOOOOOOOOOOOOOOOOOOOOOOOOOOOOOOOOOOOOOOOOOOOOOOOOOOOOO",
"OOOOOOOOOOOOOOOOOOOOOOOOOOOOOOOOOOOOOOOOOOOOOOOOOOOOOOOOOOOOOOOOOOOOOOOOOOOOOOOOOOOOOOOOOOOOOOOOOOOOOOOOOOOOOOOOOOOOOOOOOOOOOOOO",
"OOOOOOOOOOOOOOOOOOOOOOOOOOOOOOOOOOOOOOOOOOOOOOOOOOOOOOOOOOOOOOOOOOOOOOOOOOOOOOOOOOOOOOOOOOOOOOOOOOOOOOOOOOOOOOOOOOOOOOOOOOOOOOOO",
"OOOOOOOOOOOOOOOOOOOOOOOOOOOOOOOOOOOOOOOOOOOOOOOOOOOOOOOOOOOOOOOOOOOOOOOOOOOOOOOOOOOOOOOOOOOOOOOO%%%%OOOOOOOOOOOOOOOOOOOOOOOOOOOO",
"OOOOOOOOOOOOOOOOOOOOOOOOOOOOOOOOOOOOOOOOOOOOOOOOOOOOOOOOOOOOOOOOOOOOOOOOOOOOOOOOOOOOOOOOOOOOOOOO%%%%OOOOOOOOOOOOOOOOOOOOOOOOOOOO",
"OOOOOOOOOOOOOOOOOOOOOOOOOOOOOOOOOOOOOOOOOOOOOOOOOOOOOOOOOOOOOOOOOOOOOOOOOOOOOOOOOOOOOOOOOOOOOOOO%%%%OOOOOOOOOOOOOOOOOOOOOOOOOOOO",
"OOOOOOOOOOOOOOOOOOOOOOOOOOOOOOOOOOOOOOOOOOOOOOOOOOOOOOOOOOOOOOOOOOOOOOOOOOOOOOOOOOOOOOOOOOOOOOOO%%%%OOOOOOOOOOOOOOOOOOOOOOOOOOOO",
"OOOOOOOOOOOOOOOOOOOOOOOOOOOOOOOOOOOOOOOOOOOOOOOOOOOOOOOOOOOO%%%%%%%%%%%%%%%%OOOOOOOOOOOOOOOOOOOO%%%%OOOOOOOOOOOOOOOOOOOOOOOOOOOO",
"OOOOOOOOOOOOOOOOOOOOOOOOOOOOOOOOOOOOOOOOOOOOOOOOOOOOOOOOOOOO%%%%%%%%%%%%%%%%OOOOOOOOOOOOOOOOOOOO%%%%OOOOOOOOOOOOOOOOOOOOOOOOOOOO",
"OOOOOOOOOOOOOOOOOOOOOOOOOOOOOOOOOOOOOOOOOOOOOOOOOOOOOOOOOOOO%%%%%%%%%%%%%%%%OOOOOOOOOOOOOOOOOOOO%%%%OOOOOOOOOOOOOOOOOOOOOOOOOOOO",
"OOOOOOOOOOOOOOOOOOOOOOOOOOOOOOOOOOOOOOOOOOOOOOOOOOOOOOOOOOOO%%%%%%%%%%%%%%%%OOOOOOOOOOOOOOOOOOOO%%%%OOOOOOOOOOOOOOOOOOOOOOOOOOOO",
"OOOOOOOOOOOOOOOOOOOOOOOOOOOOOOOOOOOOOOOOOOOOOOOOOOOOOOOO%%%%%%%%OOOOOOOOOOOOOOOOOOOOOOOOOOOOOOOO%%%%OOOOOOOOOOOOOOOOOOOOOOOOOOOO",
"OOOOOOOOOOOOOOOOOOOOOOOOOOOOOOOOOOOOOOOOOOOOOOOOOOOOOOOO%%%%%%%%OOOOOOOOOOOOOOOOOOOOOOOOOOOOOOOO%%%%OOOOOOOOOOOOOOOOOOOOOOOOOOOO",
"OOOOOOOOOOOOOOOOOOOOOOOOOOOOOOOOOOOOOOOOOOOOOOOOOOOOOOOO%%%%%%%%OOOOOOOOOOOOOOOOOOOOOOOOOOOOOOOO%%%%OOOOOOOOOOOOOOOOOOOOOOOOOOOO",
"OOOOOOOOOOOOOOOOOOOOOOOOOOOOOOOOOOOOOOOOOOOOOOOOOOOOOOOO%%%%%%%%OOOOOOOOOOOOOOOOOOOOOOOOOOOOOOOO%%%%OOOOOOOOOOOOOOOOOOOOOOOOOOOO",
"OOOOOOOOOOOO%%%%%%%%OOOOOOOOOOOOOOOOOOOOOOOOOOOOOOOOOOOOOOOOOOOOOOOOOOOOOOOOOOOOOOOOOOOOOOOOOOOOOOOOOOOOOOOOOOOOOOOOOOOOOOOOOOOO",
"OOOOOOOOOOOO%%%%%%%%OOOOOOOOOOOOOOOOOOOOOOOOOOOOOOOOOOOOOOOOOOOOOOOOOOOOOOOOOOOOOOOOOOOOOOOOOOOOOOOOOOOOOOOOOOOOOOOOOOOOOOOOOOOO",
"OOOOOOOOOOOO%%%%%%%%OOOOOOOOOOOOOOOOOOOOOOOOOOOOOOOOOOOOOOOOOOOOOOOOOOOOOOOOOOOOOOOOOOOOOOOOOOOOOOOOOOOOOOOOOOOOOOOOOOOOOOOOOOOO",
"OOOOOOOOOOOO%%%%%%%%OOOOOOOOOOOOOOOOOOOOOOOOOOOOOOOOOOOOOOOOOOOOOOOOOOOOOOOOOOOOOOOOOOOOOOOOOOOOOOOOOOOOOOOOOOOOOOOOOOOOOOOOOOOO",
"OOOOOOOO%%%%OOOOOOOOOOOOOOOOOOOOOOOOOOOOOOOOOOOOOOOOOOOOOOOOOOOOOOOOOOOOOOOOOOOOOOOOOOOOOOOOOOOOOOOOOOOOOOOOOOOOOOOOOOOOOOOOOOOO",
"OOOOOOOO%%%%OOOOOOOOOOOOOOOOOOOOOOOOOOOOOOOOOOOOOOOOOOOOOOOOOOOOOOOOOOOOOOOOOOOOOOOOOOOOOOOOOOOOOOOOOOOOOOOOOOOOOOOOOOOOOOOOOOOO",
"OOOOOOOO%%%%OOOOOOOOOOOOOOOOOOOOOOOOOOOOOOOOOOOOOOOOOOOOOOOOOOOOOOOOOOOOOOOOOOOOOOOOOOOOOOOOOOOOOOOOOOOOOOOOOOOOOOOOOOOOOOOOOOOO",
"OOOOOOOO%%%%OOOOOOOOOOOOOOOOOOOOOOOOOOOOOOOOOOOOOOOOOOOOOOOOOOOOOOOOOOOOOOOOOOOOOOOOOOOOOOOOOOOOOOOOOOOOOOOOOOOOOOOOOOOOOOOOOOOO",
"OOOO%%%%%%%%OOOOOOOOOOOOOOOOOOOOOOOOOOOOOOOOOOOOOOOOOOOOOOOOOOOOOOOOOOOOOOOOOOOOOOOOOOOOOOOOOOOOOOOOOOOOOOOOOOOOOOOO%%%%OOOOOOOO",
"OOOO%%%%%%%%OOOOOOOOOOOOOOOOOOOOOOOOOOOOOOOOOOOOOOOOOOOOOOOOOOOOOOOOOOOOOOOOOOOOOOOOOOOOOOOOOOOOOOOOOOOOOOOOOOOOOOOO%%%%OOOOOOOO",
"OOOO%%%%%%%%OOOOOOOOOOOOOOOOOOOOOOOOOOOOOOOOOOOOOOOOOOOOOOOOOOOOOOOOOOOOOOOOOOOOOOOOOOOOOOOOOOOOOOOOOOOOOOOOOOOOOOOO%%%%OOOOOOOO",
"OOOO%%%%%%%%OOOOOOOOOOOOOOOOOOOOOOOOOOOOOOOOOOOOOOOOOOOOOOOOOOOOOOOOOOOOOOOOOOOOOOOOOOOOOOOOOOOOOOOOOOOOOOOOOOOOOOOO%%%%OOOOOOOO",
"OOOOOOOOOOOOOOOOOOOOOOOOOOOOOOOOOOOOOOOOOOOOOOOO%%%%OOOOOOOOOOOOOOOOOOOOOOOOOOOOOOOOOOOOOOOOOOOOOOOOOOOOOOOOOOOOOOOO%%%%OOOOOOOO",
"OOOOOOOOOOOOOOOOOOOOOOOOOOOOOOOOOOOOOOOOOOOOOOOO%%%%OOOOOOOOOOOOOOOOOOOOOOOOOOOOOOOOOOOOOOOOOOOOOOOOOOOOOOOOOOOOOOOO%%%%OOOOOOOO",
"OOOOOOOOOOOOOOOOOOOOOOOOOOOOOOOOOOOOOOOOOOOOOOOO%%%%OOOOOOOOOOOOOOOOOOOOOOOOOOOOOOOOOOOOOOOOOOOOOOOOOOOOOOOOOOOOOOOO%%%%OOOOOOOO",
"OOOOOOOOOOOOOOOOOOOOOOOOOOOOOOOOOOOOOOOOOOOOOOOO%%%%OOOOOOOOOOOOOOOOOOOOOOOOOOOOOOOOOOOOOOOOOOOOOOOOOOOOOOOOOOOOOOOO%%%%OOOOOOOO",
"OOOOOOOOOOOOOOOOOOOOXXXXOOOOOOOOOOOO....OOOOOOOOOOOO%%%%%%%%%%%%OOOOOOOOOOOOOOOOOOOOOOOOOOOOOOOOXXXX++++OOOOOOOO%%%%%%%%OOOOOOOO",
"OOOOOOOOOOOOOOOOOOOOXXXXOOOOOOOOOOOO....OOOOOOOOOOOO%%%%%%%%%%%%OOOOOOOOOOOOOOOOOOOOOOOOOOOOOOOOXXXX++++OOOOOOOO%%%%%%%%OOOOOOOO",
"OOOOOOOOOOOOOOOOOOOOXXXXOOOOOOOOOOOO....OOOOOOOOOOOO%%%%%%%%%%%%OOOOOOOOOOOOOOOOOOOOOOOOOOOOOOOOXXXX++++OOOOOOOO%%%%%%%%OOOOOOOO",
"OOOOOOOOOOOOOOOOOOOOXXXXOOOOOOOOOOOO....OOOOOOOOOOOO%%%%%%%%%%%%OOOOOOOOOOOOOOOOOOOOOOOOOOOOOOOOXXXX++++OOOOOOOO%%%%%%%%OOOOOOOO",
"OOOOOOOOOOOOOOOOOOOOXXXXXXXXOOOOOOOO........OOOOOOOOOOOOOOOOOOOOOOOOOOOOOOOOOOOOOOOOOOOOOOOOXXXXXXXX++++OOOOOOOOOOOO%%%%OOOOOOOO",
"OOOOOOOOOOOOOOOOOOOOXXXXXXXXOOOOOOOO........OOOOOOOOOOOOOOOOOOOOOOOOOOOOOOOOOOOOOOOOOOOOOOOOXXXXXXXX++++OOOOOOOOOOOO%%%%OOOOOOOO",
"OOOOOOOOOOOOOOOOOOOOXXXXXXXXOOOOOOOO........OOOOOOOOOOOOOOOOOOOOOOOOOOOOOOOOOOOOOOOOOOOOOOOOXXXXXXXX++++OOOOOOOOOOOO%%%%OOOOOOOO",
"OOOOOOOOOOOOOOOOOOOOXXXXXXXXOOOOOOOO........OOOOOOOOOOOOOOOOOOOOOOOOOOOOOOOOOOOOOOOOOOOOOOOOXXXXXXXX++++OOOOOOOOOOOO%%%%OOOOOOOO",
"OOOOOOOOOOOOOOOOOOOOXXXXXXXXOOOOOOOO........OOOOOOOOOOOOOOOOOOOOOOOOOOOOOOOOOOOOOOOOOOOOOOOOXXXXXXXXXXXXOOOOOOOOOOOOOOOOOOOOOOOO",
"OOOOOOOOOOOOOOOOOOOOXXXXXXXXOOOOOOOO........OOOOOOOOOOOOOOOOOOOOOOOOOOOOOOOOOOOOOOOOOOOOOOOOXXXXXXXXXXXXOOOOOOOOOOOOOOOOOOOOOOOO",
"OOOOOOOOOOOOOOOOOOOOXXXXXXXXOOOOOOOO........OOOOOOOOOOOOOOOOOOOOOOOOOOOOOOOOOOOOOOOOOOOOOOOOXXXXXXXXXXXXOOOOOOOOOOOOOOOOOOOOOOOO",
"OOOOOOOOOOOOOOOOOOOOXXXXXXXXOOOOOOOO........OOOOOOOOOOOOOOOOOOOOOOOOOOOOOOOOOOOOOOOOOOOOOOOOXXXXXXXXXXXXOOOOOOOOOOOOOOOOOOOOOOOO",
"OOOOOOOOOOOOOOOOOOOOXXXXXXXXXXXXOOOO............OOOOOOOOOOOOOOOOOOOOOOOOOOOOOOOOOOOOOOOOXXXXXXXXXXXXXXXXOOOOOOOOOOOOOOOOOOOOOOOO",
"OOOOOOOOOOOOOOOOOOOOXXXXXXXXXXXXOOOO............OOOOOOOOOOOOOOOOOOOOOOOOOOOOOOOOOOOOOOOOXXXXXXXXXXXXXXXXOOOOOOOOOOOOOOOOOOOOOOOO",
"OOOOOOOOOOOOOOOOOOOOXXXXXXXXXXXXOOOO............OOOOOOOOOOOOOOOOOOOOOOOOOOOOOOOOOOOOOOOOXXXXXXXXXXXXXXXXOOOOOOOOOOOOOOOOOOOOOOOO",
"OOOOOOOOOOOOOOOOOOOOXXXXXXXXXXXXOOOO............OOOOOOOOOOOOOOOOOOOOOOOOOOOOOOOOOOOOOOOOXXXXXXXXXXXXXXXXOOOOOOOOOOOOOOOOOOOOOOOO",
"OOOOOOOOOOOOOOOOOOOOXXXX$$$$XXXXXXXXXXXXXXXXXXXXXXXXXXXXXXXXXXXXXXXX$$$$XXXXXXXXXXXXXXXXXXXX++++XXXXXXXXOOOOOOOOOOOOOOOOOOOOOOOO",
"OOOOOOOOOOOOOOOOOOOOXXXX$$$$XXXXXXXXXXXXXXXXXXXXXXXXXXXXXXXXXXXXXXXX$$$$XXXXXXXXXXXXXXXXXXXX++++XXXXXXXXOOOOOOOOOOOOOOOOOOOOOOOO",
"OOOOOOOOOOOOOOOOOOOOXXXX$$$$XXXXXXXXXXXXXXXXXXXXXXXXXXXXXXXXXXXXXXXX$$$$XXXXXXXXXXXXXXXXXXXX++++XXXXXXXXOOOOOOOOOOOOOOOOOOOOOOOO",
"OOOOOOOOOOOOOOOOOOOOXXXX$$$$XXXXXXXXXXXXXXXXXXXXXXXXXXXXXXXXXXXXXXXX$$$$XXXXXXXXXXXXXXXXXXXX++++XXXXXXXXOOOOOOOOOOOOOOOOOOOOOOOO",
"OOOOOOOOOOOOOOOOOOOOXXXXXXXXXXXXXXXXXXXXXXXXXXXXXXXXXXXXXXXXXXXX$$$$XXXXXXXXXXXXXXXXXXXXXXXXXXXXXXXXOOOOOOOOOOOOOOOOOOOOOOOOOOOO",
"OOOOOOOOOOOOOOOOOOOOXXXXXXXXXXXXXXXXXXXXXXXXXXXXXXXXXXXXXXXXXXXX$$$$XXXXXXXXXXXXXXXXXXXXXXXXXXXXXXXXOOOOOOOOOOOOOOOOOOOOOOOOOOOO",
"OOOOOOOOOOOOOOOOOOOOXXXXXXXXXXXXXXXXXXXXXXXXXXXXXXXXXXXXXXXXXXXX$$$$XXXXXXXXXXXXXXXXXXXXXXXXXXXXXXXXOOOOOOOOOOOOOOOOOOOOOOOOOOOO",
"OOOOOOOOOOOOOOOOOOOOXXXXXXXXXXXXXXXXXXXXXXXXXXXXXXXXXXXXXXXXXXXX$$$$XXXXXXXXXXXXXXXXXXXXXXXXXXXXXXXXOOOOOOOOOOOOOOOOOOOOOOOOOOOO",
"####################++++XXXXXXXXXXXXXXXXXXXXXXXXXXXXXXXXXXXX$$$$XXXXXXXXXXXXXXXXXXXX    XXXXXXXXXXXXOOOOOOOOOOOOOOOOOOOOOOOOOOOO",
"####################++++XXXXXXXXXXXXXXXXXXXXXXXXXXXXXXXXXXXX$$$$XXXXXXXXXXXXXXXXXXXX    XXXXXXXXXXXXOOOOOOOOOOOOOOOOOOOOOOOOOOOO",
"####################++++XXXXXXXXXXXXXXXXXXXXXXXXXXXXXXXXXXXX$$$$XXXXXXXXXXXXXXXXXXXX    XXXXXXXXXXXXOOOOOOOOOOOOOOOOOOOOOOOOOOOO",
"####################++++XXXXXXXXXXXXXXXXXXXXXXXXXXXXXXXXXXXX$$$$XXXXXXXXXXXXXXXXXXXX    XXXXXXXXXXXXOOOOOOOOOOOOOOOOOOOOOOOOOOOO",
"####################++++XXXXXXXXXXXXXXXXXXXXXXXXXXXX$$$$$$$$XXXXXXXXXXXXXXXX++++++++++++XXXXXXXXXXXXXXXXXXXXXXXX++++OOOOOOOOOOOO",
"####################++++XXXXXXXXXXXXXXXXXXXXXXXXXXXX$$$$$$$$XXXXXXXXXXXXXXXX++++++++++++XXXXXXXXXXXXXXXXXXXXXXXX++++OOOOOOOOOOOO",
"####################++++XXXXXXXXXXXXXXXXXXXXXXXXXXXX$$$$$$$$XXXXXXXXXXXXXXXX++++++++++++XXXXXXXXXXXXXXXXXXXXXXXX++++OOOOOOOOOOOO",
"####################++++XXXXXXXXXXXXXXXXXXXXXXXXXXXX$$$$$$$$XXXXXXXXXXXXXXXX++++++++++++XXXXXXXXXXXXXXXXXXXXXXXX++++OOOOOOOOOOOO",
"########################XXXXXXXXXXXXXXXXXXXXXXXXXXXX$$$$$$$$XXXXXXXXXXXXXXXX++++++++++++XXXXXXXXXXXXXXXXXXXXXXXX++++OOOOOOOOOOOO",
"########################XXXXXXXXXXXXXXXXXXXXXXXXXXXX$$$$$$$$XXXXXXXXXXXXXXXX++++++++++++XXXXXXXXXXXXXXXXXXXXXXXX++++OOOOOOOOOOOO",
"########################XXXXXXXXXXXXXXXXXXXXXXXXXXXX$$$$$$$$XXXXXXXXXXXXXXXX++++++++++++XXXXXXXXXXXXXXXXXXXXXXXX++++OOOOOOOOOOOO",
"########################XXXXXXXXXXXXXXXXXXXXXXXXXXXX$$$$$$$$XXXXXXXXXXXXXXXX++++++++++++XXXXXXXXXXXXXXXXXXXXXXXX++++OOOOOOOOOOOO",
"ooooooooooooooooooooooooooooXXXXXXXXXXXXXXXXXXXXXXXXXXXXXXXX$$$$XXXXXXXXXXXXXXXXXXXX    XXXXXXXXXXXXOOOOOOOOOOOOOOOOOOOOOOOOOOOO",
"ooooooooooooooooooooooooooooXXXXXXXXXXXXXXXXXXXXXXXXXXXXXXXX$$$$XXXXXXXXXXXXXXXXXXXX    XXXXXXXXXXXXOOOOOOOOOOOOOOOOOOOOOOOOOOOO",
"ooooooooooooooooooooooooooooXXXXXXXXXXXXXXXXXXXXXXXXXXXXXXXX$$$$XXXXXXXXXXXXXXXXXXXX    XXXXXXXXXXXXOOOOOOOOOOOOOOOOOOOOOOOOOOOO",
"ooooooooooooooooooooooooooooXXXXXXXXXXXXXXXXXXXXXXXXXXXXXXXX$$$$XXXXXXXXXXXXXXXXXXXX    XXXXXXXXXXXXOOOOOOOOOOOOOOOOOOOOOOOOOOOO",
"ooooooooooooooooooooooooooooXXXXXXXXXXXXXXXXXXXXXXXXXXXXXXXXXXXX$$$$XXXXXXXXXXXXXXXXXXXXXXXXXXXXXXXXOOOOOOOOOOOOOOOOOOOOOOOOOOOO",
"ooooooooooooooooooooooooooooXXXXXXXXXXXXXXXXXXXXXXXXXXXXXXXXXXXX$$$$XXXXXXXXXXXXXXXXXXXXXXXXXXXXXXXXOOOOOOOOOOOOOOOOOOOOOOOOOOOO",
"ooooooooooooooooooooooooooooXXXXXXXXXXXXXXXXXXXXXXXXXXXXXXXXXXXX$$$$XXXXXXXXXXXXXXXXXXXXXXXXXXXXXXXXOOOOOOOOOOOOOOOOOOOOOOOOOOOO",
"ooooooooooooooooooooooooooooXXXXXXXXXXXXXXXXXXXXXXXXXXXXXXXXXXXX$$$$XXXXXXXXXXXXXXXXXXXXXXXXXXXXXXXXOOOOOOOOOOOOOOOOOOOOOOOOOOOO",
"oooooooo@@@@ooooooooooooooooooooooooXXXXXXXXXXXXXXXXXXXXXXXXXXXXXXXX$$$$XXXXXXXXXXXXXXXXXXXX++++XXXXXXXXOOOOOOOOOOOOOOOOOOOOOOOO",
"oooooooo@@@@ooooooooooooooooooooooooXXXXXXXXXXXXXXXXXXXXXXXXXXXXXXXX$$$$XXXXXXXXXXXXXXXXXXXX++++XXXXXXXXOOOOOOOOOOOOOOOOOOOOOOOO",
"oooooooo@@@@ooooooooooooooooooooooooXXXXXXXXXXXXXXXXXXXXXXXXXXXXXXXX$$$$XXXXXXXXXXXXXXXXXXXX++++XXXXXXXXOOOOOOOOOOOOOOOOOOOOOOOO",
"oooooooo@@@@ooooooooooooooooooooooooXXXXXXXXXXXXXXXXXXXXXXXXXXXXXXXX$$$$XXXXXXXXXXXXXXXXXXXX++++XXXXXXXXOOOOOOOOOOOOOOOOOOOOOOOO",
"oooooooo@@@@oooooooooooooooooooooooooooooooooooooooooooooooo############OOOOOOOOOOOOOOOOXXXXXXXXXXXXXXXXOOOOOOOOOOOOOOOOOOOOOOOO",
"oooooooo@@@@oooooooooooooooooooooooooooooooooooooooooooooooo############OOOOOOOOOOOOOOOOXXXXXXXXXXXXXXXXOOOOOOOOOOOOOOOOOOOOOOOO",
"oooooooo@@@@oooooooooooooooooooooooooooooooooooooooooooooooo############OOOOOOOOOOOOOOOOXXXXXXXXXXXXXXXXOOOOOOOOOOOOOOOOOOOOOOOO",
"oooooooo@@@@oooooooooooooooooooooooooooooooooooooooooooooooo############OOOOOOOOOOOOOOOOXXXXXXXXXXXXXXXXOOOOOOOOOOOOOOOOOOOOOOOO",
"oooooooo@@@@oooooooooooooooooooooooooooooooooooooooooooooooo############OOOOOOOOOOOOOOOOOOOOXXXXXXXXXXXXOOOOOOOOOOOO%%%%OOOOOOOO",
"oooooooo@@@@oooooooooooooooooooooooooooooooooooooooooooooooo############OOOOOOOOOOOOOOOOOOOOXXXXXXXXXXXXOOOOOOOOOOOO%%%%OOOOOOOO",
"oooooooo@@@@oooooooooooooooooooooooooooooooooooooooooooooooo############OOOOOOOOOOOOOOOOOOOOXXXXXXXXXXXXOOOOOOOOOOOO%%%%OOOOOOOO",
"oooooooo@@@@oooooooooooooooooooooooooooooooooooooooooooooooo############OOOOOOOOOOOOOOOOOOOOXXXXXXXXXXXXOOOOOOOOOOOO%%%%OOOOOOOO",
"oooooooooooooooooooo@@@@oooooooooooooooooooooooo@@@@oooooooo############OOOOOOOOOOOOOOOOOOOOXXXXXXXX++++OOOOOOOOOOOO%%%%OOOOOOOO",
"oooooooooooooooooooo@@@@oooooooooooooooooooooooo@@@@oooooooo############OOOOOOOOOOOOOOOOOOOOXXXXXXXX++++OOOOOOOOOOOO%%%%OOOOOOOO",
"oooooooooooooooooooo@@@@oooooooooooooooooooooooo@@@@oooooooo############OOOOOOOOOOOOOOOOOOOOXXXXXXXX++++OOOOOOOOOOOO%%%%OOOOOOOO",
"oooooooooooooooooooo@@@@oooooooooooooooooooooooo@@@@oooooooo############OOOOOOOOOOOOOOOOOOOOXXXXXXXX++++OOOOOOOOOOOO%%%%OOOOOOOO",
"oooo@@@@oooooooooooo@@@@oooooooooooooooo@@@@@@@@@@@@oooooooo############OOOOOOOO%%%%OOOOOOOOOOOOXXXX++++OOOOOOOOOOOO%%%%OOOOOOOO",
"oooo@@@@oooooooooooo@@@@oooooooooooooooo@@@@@@@@@@@@oooooooo############OOOOOOOO%%%%OOOOOOOOOOOOXXXX++++OOOOOOOOOOOO%%%%OOOOOOOO",
"oooo@@@@oooooooooooo@@@@oooooooooooooooo@@@@@@@@@@@@oooooooo############OOOOOOOO%%%%OOOOOOOOOOOOXXXX++++OOOOOOOOOOOO%%%%OOOOOOOO",
"oooo@@@@oooooooooooo@@@@oooooooooooooooo@@@@@@@@@@@@oooooooo############OOOOOOOO%%%%OOOOOOOOOOOOXXXX++++OOOOOOOOOOOO%%%%OOOOOOOO",
"oooo@@@@oooooooooooo@@@@oooooooooooooooo@@@@oooooooooooooooo############OOOOOOOO%%%%OOOOOOOOOOOOOOOOOOOOOOOOOOOOOOOO%%%%OOOOOOOO",
"oooo@@@@oooooooooooo@@@@oooooooooooooooo@@@@oooooooooooooooo############OOOOOOOO%%%%OOOOOOOOOOOOOOOOOOOOOOOOOOOOOOOO%%%%OOOOOOOO",
"oooo@@@@oooooooooooo@@@@oooooooooooooooo@@@@oooooooooooooooo############OOOOOOOO%%%%OOOOOOOOOOOOOOOOOOOOOOOOOOOOOOOO%%%%OOOOOOOO",
"oooo@@@@oooooooooooo@@@@oooooooooooooooo@@@@oooooooooooooooo############OOOOOOOO%%%%OOOOOOOOOOOOOOOOOOOOOOOOOOOOOOOO%%%%OOOOOOOO",
"oooo@@@@oooooooooooo@@@@oooooooooooooooooooooooooooooooooooo############OOOOOOOO%%%%OOOOOOOOOOOOOOOOOOOOOOOOOOOOOOOO%%%%OOOOOOOO",
"oooo@@@@oooooooooooo@@@@oooooooooooooooooooooooooooooooooooo############OOOOOOOO%%%%OOOOOOOOOOOOOOOOOOOOOOOOOOOOOOOO%%%%OOOOOOOO",
"oooo@@@@oooooooooooo@@@@oooooooooooooooooooooooooooooooooooo############OOOOOOOO%%%%OOOOOOOOOOOOOOOOOOOOOOOOOOOOOOOO%%%%OOOOOOOO",
"oooo@@@@oooooooooooo@@@@oooooooooooooooooooooooooooooooooooo############OOOOOOOO%%%%OOOOOOOOOOOOOOOOOOOOOOOOOOOOOOOO%%%%OOOOOOOO",
"oooo@@@@oooooooooooooooooooooooooooooooooooooooooooooooooooo############OOOOOOOO%%%%OOOOOOOOOOOOOOOOOOOOOOOOOOOOOOOO%%%%OOOOOOOO",
"oooo@@@@oooooooooooooooooooooooooooooooooooooooooooooooooooo############OOOOOOOO%%%%OOOOOOOOOOOOOOOOOOOOOOOOOOOOOOOO%%%%OOOOOOOO",
"oooo@@@@oooooooooooooooooooooooooooooooooooooooooooooooooooo############OOOOOOOO%%%%OOOOOOOOOOOOOOOOOOOOOOOOOOOOOOOO%%%%OOOOOOOO",
"oooo@@@@oooooooooooooooooooooooooooooooooooooooooooooooooooo############OOOOOOOO%%%%OOOOOOOOOOOOOOOOOOOOOOOOOOOOOOOO%%%%OOOOOOOO",
"oooooooo@@@@oooooooooooooooooooooooooooooooooooooooooooooooo############OOOOOOOOOOOO%%%%%%%%OOOOOOOOOOOOOOOOOOOOOOOOOOOOOOOOOOOO",
"oooooooo@@@@oooooooooooooooooooooooooooooooooooooooooooooooo############OOOOOOOOOOOO%%%%%%%%OOOOOOOOOOOOOOOOOOOOOOOOOOOOOOOOOOOO",
"oooooooo@@@@oooooooooooooooooooooooooooooooooooooooooooooooo############OOOOOOOOOOOO%%%%%%%%OOOOOOOOOOOOOOOOOOOOOOOOOOOOOOOOOOOO",
"oooooooo@@@@oooooooooooooooooooooooooooooooooooooooooooooooo############OOOOOOOOOOOO%%%%%%%%OOOOOOOOOOOOOOOOOOOOOOOOOOOOOOOOOOOO",
"oooo@@@@oooo@@@@oooooooooooooooooooooooooooooooooooooooooooo############OOOOOOOOOOOOOOOOOOOO%%%%OOOOOOOOOOOOOOOOOOOOOOOOOOOOOOOO",
"oooo@@@@oooo@@@@oooooooooooooooooooooooooooooooooooooooooooo############OOOOOOOOOOOOOOOOOOOO%%%%OOOOOOOOOOOOOOOOOOOOOOOOOOOOOOOO",
"oooo@@@@oooo@@@@oooooooooooooooooooooooooooooooooooooooooooo############OOOOOOOOOOOOOOOOOOOO%%%%OOOOOOOOOOOOOOOOOOOOOOOOOOOOOOOO",
"oooo@@@@oooo@@@@oooooooooooooooooooooooooooooooooooooooooooo############OOOOOOOOOOOOOOOOOOOO%%%%OOOOOOOOOOOOOOOOOOOOOOOOOOOOOOOO",
"oooooooooooooooooooooooooooooooooooo@@@@@@@@@@@@oooooooooooo############OOOOOOOOOOOOOOOOOOOOOOOOOOOOOOOOOOOOOOOOOOOOOOOOOOOOOOOO",
"oooooooooooooooooooooooooooooooooooo@@@@@@@@@@@@oooooooooooo############OOOOOOOOOOOOOOOOOOOOOOOOOOOOOOOOOOOOOOOOOOOOOOOOOOOOOOOO",
"oooooooooooooooooooooooooooooooooooo@@@@@@@@@@@@oooooooooooo############OOOOOOOOOOOOOOOOOOOOOOOOOOOOOOOOOOOOOOOOOOOOOOOOOOOOOOOO",
"oooooooooooooooooooooooooooooooooooo@@@@@@@@@@@@oooooooooooo############OOOOOOOOOOOOOOOOOOOOOOOOOOOOOOOOOOOOOOOOOOOOOOOOOOOOOOOO",
"oooooooooooooooooooooooooooooooooooo@@@@oooooooooooooooooooo############OOOOOOOOOOOOOOOOOOOOOOOOOOOOOOOOOOOOOOOOOOOOOOOOOOOOOOOO",
"oooooooooooooooooooooooooooooooooooo@@@@oooooooooooooooooooo############OOOOOOOOOOOOOOOOOOOOOOOOOOOOOOOOOOOOOOOOOOOOOOOOOOOOOOOO",
"oooooooooooooooooooooooooooooooooooo@@@@oooooooooooooooooooo############OOOOOOOOOOOOOOOOOOOOOOOOOOOOOOOOOOOOOOOOOOOOOOOOOOOOOOOO",
"oooooooooooooooooooooooooooooooooooo@@@@oooooooooooooooooooo############OOOOOOOOOOOOOOOOOOOOOOOOOOOOOOOOOOOOOOOOOOOOOOOOOOOOOOOO",
"oooooooooooooooooooooooooooooooooooooooooooooooooooooooooooo############OOOOOOOOOOOOOOOOOOOOOOOOOOOOOOOOOOOOOOOOOOOOOOOOOOOOOOOO",
"oooooooooooooooooooooooooooooooooooooooooooooooooooooooooooo############OOOOOOOOOOOOOOOOOOOOOOOOOOOOOOOOOOOOOOOOOOOOOOOOOOOOOOOO",
"oooooooooooooooooooooooooooooooooooooooooooooooooooooooooooo############OOOOOOOOOOOOOOOOOOOOOOOOOOOOOOOOOOOOOOOOOOOOOOOOOOOOOOOO",
"oooooooooooooooooooooooooooooooooooooooooooooooooooooooooooo############OOOOOOOOOOOOOOOOOOOOOOOOOOOOOOOOOOOOOOOOOOOOOOOOOOOOOOOO"
};
