/* XPM */
static char *result[] = {
/* columns rows colors chars-per-pixel */
"128 128 10 1 ",
"  c black",
". c #252525",
"X c #343333",
"o c #214433",
"O c #2B3D53",
"+ c #573964",
"@ c #1D6642",
"# c #297970",
"$ c #A0821B",
"% c #496C97",
/* pixels */
"OOOOOOOOOOOOOOOOOOOOOOOOOOOOOOOOOOOOOOOOOOOOOOOOOOOOOOOOOOOOOOOOOOOOOOOOOOOOOOOOOOOOOOOOOOOOOOOOOOOOOOOOOOOOOOOOOOOOOOOOOOOOOOOO",
"OOOOOOOOOOOOOOOOOOOOOOOOOOOOOOOOOOOOOOOOOOOOOOOOOOOOOOOOOOOOOOOOOOOOOOOOOOOOOOOOOOOOOOOOOOOOOOOOOOOOOOOOOOOOOOOOOOOOOOOOOOOOOOOO",
"OOOOOOOOOOOOOOOOOOOOOOOOOOOOOOOOOOOOOOOOOOOOOOOOOOOOOOOOOOOOOOOOOOOOOOOOOOOOOOOOOOOOOOOOOOOOOOOOOOOOOOOOOOOOOOOOOOOOOOOOOOOOOOOO",
"OOOOOOOOOOOOOOOOOOOOOOOOOOOOOOOOOOOOOOOOOOOOOOOOOOOOOOOOOOOOOOOOOOOOOOOOOOOOOOOOOOOOOOOOOOOOOOOOOOOOOOOOOOOOOOOOOOOOOOOOOOOOOOOO",
"OOOOOOOOOOOOOOOOOOOOOOOOOOOOOOOOOOOOOOOOOOOOOOOOOOOOOOOOOOOOOOOOOOOOOOOOOOOOOOOOOOOOOOOOOOOOOOOOOOOOOOOOOOOOOOOOOOOOOOOOOOOOOOOO",
"OOOOOOOOOOOOOOOOOOOOOOOOOOOOOOOOOOOOOOOOOOOOOOOOOOOOOOOOOOOOOOOOOOOOOOOOOOOOOOOOOOOOOOOOOOOOOOOOOOOOOOOOOOOOOOOOOOOOOOOOOOOOOOOO",
"OOOOOOOOOOOOOOOOOOOOOOOOOOOOOOOOOOOOOOOOOOOOOOOOOOOOOOOOOOOOOOOOOOOOOOOOOOOOOOOOOOOOOOOOOOOOOOOOOOOOOOOOOOOOOOOOOOOOOOOOOOOOOOOO",
"OOOOOOOOOOOOOOOOOOOOOOOOOOOOOOOOOOOOOOOOOOOOOOOOOOOOOOOOOOOOOOOOOOOOOOOOOOOOOOOOOOOOOOOOOOOOOOOOOOOOOOOOOOOOOOOOOOOOOOOOOOOOOOOO",
"OOOOOOOOOOOOOOOOOOOOOOOOOOOOOOOOOOOOOOOOOOOOOOOOOOOOOOOOOOOOOOOO%%%%%%%%%%%%OOOOOOOOOOOOOOOOOOOOOOOOOOOOOOOOOOOOOOOOOOOOOOOOOOOO",
"OOOOOOOOOOOOOOOOOOOOOOOOOOOOOOOOOOOOOOOOOOOOOOOOOOOOOOOOOOOOOOOO%%%%%%%%%%%%OOOOOOOOOOOOOOOOOOOOOOOOOOOOOOOOOOOOOOOOOOOOOOOOOOOO",
"OOOOOOOOOOOOOOOOOOOOOOOOOOOOOOOOOOOOOOOOOOOOOOOOOOOOOOOOOOOOOOOO%%%%%%%%%%%%OOOOOOOOOOOOOOOOOOOOOOOOOOOOOOOOOOOOOOOOOOOOOOOOOOOO",
"OOOOOOOOOOOOOOOOOOOOOOOOOOOOOOOOOOOOOOOOOOOOOOOOOOOOOOOOOOOOOOOO%%%%%%%%%%%%OOOOOOOOOOOOOOOOOOOOOOOOOOOOOOOOOOOOOOOOOOOOOOOOOOOO",
"OOOOOOOO%%%%%%%%OOOOOOOOOOOOOOOOOOOOOOOO%%%%%%%%%%%%OOOOOOOOOOOOOOOOOOOO%%%%OOOOOOOOOOOOOOOO%%%%OOOOOOOOOOOOOOOOOOOOOOOOOOOOOOOO",
"OOOOOOOO%%%%%%%%OOOOOOOOOOOOOOOOOOOOOOOO%%%%%%%%%%%%OOOOOOOOOOOOOOOOOOOO%%%%OOOOOOOOOOOOOOOO%%%%OOOOOOOOOOOOOOOOOOOOOOOOOOOOOOOO",
"OOOOOOOO%%%%%%%%OOOOOOOOOOOOOOOOOOOOOOOO%%%%%%%%%%%%OOOOOOOOOOOOOOOOOOOO%%%%OOOOOOOOOOOOOOOO%%%%OOOOOOOOOOOOOOOOOOOOOOOOOOOOOOOO",
"OOOOOOOO%%%%%%%%OOOOOOOOOOOOOOOOOOOOOOOO%%%%%%%%%%%%OOOOOOOOOOOOOOOOOOOO%%%%OOOOOOOOOOOOOOOO%%%%OOOOOOOOOOOOOOOOOOOOOOOOOOOOOOOO",
"OOOOOOOO%%%%OOOOOOOOOOOOOOOOOOOO%%%%%%%%%%%%OOOOOOOOOOOOOOOOOOOOOOOOOOOOOOOOOOOOOOOOOOOOOOOO%%%%%%%%OOOOOOOOOOOOOOOO%%%%OOOOOOOO",
"OOOOOOOO%%%%OOOOOOOOOOOOOOOOOOOO%%%%%%%%%%%%OOOOOOOOOOOOOOOOOOOOOOOOOOOOOOOOOOOOOOOOOOOOOOOO%%%%%%%%OOOOOOOOOOOOOOOO%%%%OOOOOOOO",
"OOOOOOOO%%%%OOOOOOOOOOOOOOOOOOOO%%%%%%%%%%%%OOOOOOOOOOOOOOOOOOOOOOOOOOOOOOOOOOOOOOOOOOOOOOOO%%%%%%%%OOOOOOOOOOOOOOOO%%%%OOOOOOOO",
"OOOOOOOO%%%%OOOOOOOOOOOOOOOOOOOO%%%%%%%%%%%%OOOOOOOOOOOOOOOOOOOOOOOOOOOOOOOOOOOOOOOOOOOOOOOO%%%%%%%%OOOOOOOOOOOOOOOO%%%%OOOOOOOO",
"%%%%%%%%%%%%OOOOOOOOOOOOOOOOOOOOOOOOOOOOOOOOOOOOOOOOOOOOOOOOOOOOOOOOOOOOOOOOOOOOOOOOOOOOOOOOOOOO%%%%OOOOOOOOOOOOOOOO%%%%OOOOOOOO",
"%%%%%%%%%%%%OOOOOOOOOOOOOOOOOOOOOOOOOOOOOOOOOOOOOOOOOOOOOOOOOOOOOOOOOOOOOOOOOOOOOOOOOOOOOOOOOOOO%%%%OOOOOOOOOOOOOOOO%%%%OOOOOOOO",
"%%%%%%%%%%%%OOOOOOOOOOOOOOOOOOOOOOOOOOOOOOOOOOOOOOOOOOOOOOOOOOOOOOOOOOOOOOOOOOOOOOOOOOOOOOOOOOOO%%%%OOOOOOOOOOOOOOOO%%%%OOOOOOOO",
"%%%%%%%%%%%%OOOOOOOOOOOOOOOOOOOOOOOOOOOOOOOOOOOOOOOOOOOOOOOOOOOOOOOOOOOOOOOOOOOOOOOOOOOOOOOOOOOO%%%%OOOOOOOOOOOOOOOO%%%%OOOOOOOO",
"OOOOOOOOOOOOOOOOOOOOOOOOOOOOOOOOOOOOOOOOOOOOOOOOOOOOOOOOOOOOOOOOOOOOOOOOOOOOOOOOOOOOOOOOOOOOOOOOOOOOOOOOOOOOOOOOOOOO%%%%OOOOOOOO",
"OOOOOOOOOOOOOOOOOOOOOOOOOOOOOOOOOOOOOOOOOOOOOOOOOOOOOOOOOOOOOOOOOOOOOOOOOOOOOOOOOOOOOOOOOOOOOOOOOOOOOOOOOOOOOOOOOOOO%%%%OOOOOOOO",
"OOOOOOOOOOOOOOOOOOOOOOOOOOOOOOOOOOOOOOOOOOOOOOOOOOOOOOOOOOOOOOOOOOOOOOOOOOOOOOOOOOOOOOOOOOOOOOOOOOOOOOOOOOOOOOOOOOOO%%%%OOOOOOOO",
"OOOOOOOOOOOOOOOOOOOOOOOOOOOOOOOOOOOOOOOOOOOOOOOOOOOOOOOOOOOOOOOOOOOOOOOOOOOOOOOOOOOOOOOOOOOOOOOOOOOOOOOOOOOOOOOOOOOO%%%%OOOOOOOO",
"OOOOOOOOOOOOOOOOOOOOOOOOOOOOOOOOOOOOOOOOOOOOOOOOOOOOOOOOOOOOOOOOOOOOOOOOOOOOOOOOOOOOOOOOOOOOOOOOOOOOOOOOOOOOOOOOOOOOOOOO%%%%OOOO",
"OOOOOOOOOOOOOOOOOOOOOOOOOOOOOOOOOOOOOOOOOOOOOOOOOOOOOOOOOOOOOOOOOOOOOOOOOOOOOOOOOOOOOOOOOOOOOOOOOOOOOOOOOOOOOOOOOOOOOOOO%%%%OOOO",
"OOOOOOOOOOOOOOOOOOOOOOOOOOOOOOOOOOOOOOOOOOOOOOOOOOOOOOOOOOOOOOOOOOOOOOOOOOOOOOOOOOOOOOOOOOOOOOOOOOOOOOOOOOOOOOOOOOOOOOOO%%%%OOOO",
"OOOOOOOOOOOOOOOOOOOOOOOOOOOOOOOOOOOOOOOOOOOOOOOOOOOOOOOOOOOOOOOOOOOOOOOOOOOOOOOOOOOOOOOOOOOOOOOOOOOOOOOOOOOOOOOOOOOOOOOO%%%%OOOO",
"OOOOOOOOOOOOOOOOOOOOXXXXOOOOOOOOOOOO....OOOOOOOOOOOOOOOOOOOO%%%%OOOOOOOOOOOOOOOOOOOOOOOOOOOOOOOOOOOOXXXX++++OOOOOOOOOOOO%%%%OOOO",
"OOOOOOOOOOOOOOOOOOOOXXXXOOOOOOOOOOOO....OOOOOOOOOOOOOOOOOOOO%%%%OOOOOOOOOOOOOOOOOOOOOOOOOOOOOOOOOOOOXXXX++++OOOOOOOOOOOO%%%%OOOO",
"OOOOOOOOOOOOOOOOOOOOXXXXOOOOOOOOOOOO....OOOOOOOOOOOOOOOOOOOO%%%%OOOOOOOOOOOOOOOOOOOOOOOOOOOOOOOOOOOOXXXX++++OOOOOOOOOOOO%%%%OOOO",
"OOOOOOOOOOOOOOOOOOOOXXXXOOOOOOOOOOOO....OOOOOOOOOOOOOOOOOOOO%%%%OOOOOOOOOOOOOOOOOOOOOOOOOOOOOOOOOOOOXXXX++++OOOOOOOOOOOO%%%%OOOO",
"OOOOOOOOOOOOOOOOOOOOXXXXXXXXOOOOOOOO........OOOOOOOOOOOOOOOO%%%%%%%%OOOOOOOOOOOOOOOOOOOOOOOOOOOOXXXXXXXX++++OOOOOOOOOOOO%%%%OOOO",
"OOOOOOOOOOOOOOOOOOOOXXXXXXXXOOOOOOOO........OOOOOOOOOOOOOOOO%%%%%%%%OOOOOOOOOOOOOOOOOOOOOOOOOOOOXXXXXXXX++++OOOOOOOOOOOO%%%%OOOO",
"OOOOOOOOOOOOOOOOOOOOXXXXXXXXOOOOOOOO........OOOOOOOOOOOOOOOO%%%%%%%%OOOOOOOOOOOOOOOOOOOOOOOOOOOOXXXXXXXX++++OOOOOOOOOOOO%%%%OOOO",
"OOOOOOOOOOOOOOOOOOOOXXXXXXXXOOOOOOOO........OOOOOOOOOOOOOOOO%%%%%%%%OOOOOOOOOOOOOOOOOOOOOOOOOOOOXXXXXXXX++++OOOOOOOOOOOO%%%%OOOO",
"OOOOOOOOOOOOOOOOOOOOXXXXXXXXOOOOOOOO........OOOOOOOOOOOOOOOOOOOOOOOOOOOOOOOOOOOOOOOOOOOOOOOOOOOOXXXXXXXXXXXXOOOOOOOOOOOOOOOOOOOO",
"OOOOOOOOOOOOOOOOOOOOXXXXXXXXOOOOOOOO........OOOOOOOOOOOOOOOOOOOOOOOOOOOOOOOOOOOOOOOOOOOOOOOOOOOOXXXXXXXXXXXXOOOOOOOOOOOOOOOOOOOO",
"OOOOOOOOOOOOOOOOOOOOXXXXXXXXOOOOOOOO........OOOOOOOOOOOOOOOOOOOOOOOOOOOOOOOOOOOOOOOOOOOOOOOOOOOOXXXXXXXXXXXXOOOOOOOOOOOOOOOOOOOO",
"OOOOOOOOOOOOOOOOOOOOXXXXXXXXOOOOOOOO........OOOOOOOOOOOOOOOOOOOOOOOOOOOOOOOOOOOOOOOOOOOOOOOOOOOOXXXXXXXXXXXXOOOOOOOOOOOOOOOOOOOO",
"OOOOOOOOOOOOOOOOOOOOXXXXXXXXXXXXOOOO............OOOOOOOOOOOOOOOOOOOOOOOOOOOOOOOOOOOOOOOOOOOOXXXXXXXXXXXXXXXXOOOOOOOOOOOOOOOOOOOO",
"OOOOOOOOOOOOOOOOOOOOXXXXXXXXXXXXOOOO............OOOOOOOOOOOOOOOOOOOOOOOOOOOOOOOOOOOOOOOOOOOOXXXXXXXXXXXXXXXXOOOOOOOOOOOOOOOOOOOO",
"OOOOOOOOOOOOOOOOOOOOXXXXXXXXXXXXOOOO............OOOOOOOOOOOOOOOOOOOOOOOOOOOOOOOOOOOOOOOOOOOOXXXXXXXXXXXXXXXXOOOOOOOOOOOOOOOOOOOO",
"OOOOOOOOOOOOOOOOOOOOXXXXXXXXXXXXOOOO............OOOOOOOOOOOOOOOOOOOOOOOOOOOOOOOOOOOOOOOOOOOOXXXXXXXXXXXXXXXXOOOOOOOOOOOOOOOOOOOO",
"OOOOOOOOOOOOOOOOOOOOXXXX$$$$XXXXXXXXXXXXXXXXXXXXXXXXXXXXXXXXXXXXXXXXXXXX$$$$XXXXXXXXXXXXXXXXXXXX++++XXXXXXXXOOOOOOOOOOOOOOOOOOOO",
"OOOOOOOOOOOOOOOOOOOOXXXX$$$$XXXXXXXXXXXXXXXXXXXXXXXXXXXXXXXXXXXXXXXXXXXX$$$$XXXXXXXXXXXXXXXXXXXX++++XXXXXXXXOOOOOOOOOOOOOOOOOOOO",
"OOOOOOOOOOOOOOOOOOOOXXXX$$$$XXXXXXXXXXXXXXXXXXXXXXXXXXXXXXXXXXXXXXXXXXXX$$$$XXXXXXXXXXXXXXXXXXXX++++XXXXXXXXOOOOOOOOOOOOOOOOOOOO",
"OOOOOOOOOOOOOOOOOOOOXXXX$$$$XXXXXXXXXXXXXXXXXXXXXXXXXXXXXXXXXXXXXXXXXXXX$$$$XXXXXXXXXXXXXXXXXXXX++++XXXXXXXXOOOOOOOOOOOOOOOOOOOO",
"OOOOOOOOOOOOOOOOOOOOXXXXXXXXXXXXXXXXXXXXXXXXXXXXXXXXXXXXXXXXXXXXXXXX$$$$XXXXXXXXXXXXXXXXXXXXXXXXXXXXXXXXOOOOOOOOOOOOOOOOOOOOOOOO",
"OOOOOOOOOOOOOOOOOOOOXXXXXXXXXXXXXXXXXXXXXXXXXXXXXXXXXXXXXXXXXXXXXXXX$$$$XXXXXXXXXXXXXXXXXXXXXXXXXXXXXXXXOOOOOOOOOOOOOOOOOOOOOOOO",
"OOOOOOOOOOOOOOOOOOOOXXXXXXXXXXXXXXXXXXXXXXXXXXXXXXXXXXXXXXXXXXXXXXXX$$$$XXXXXXXXXXXXXXXXXXXXXXXXXXXXXXXXOOOOOOOOOOOOOOOOOOOOOOOO",
"OOOOOOOOOOOOOOOOOOOOXXXXXXXXXXXXXXXXXXXXXXXXXXXXXXXXXXXXXXXXXXXXXXXX$$$$XXXXXXXXXXXXXXXXXXXXXXXXXXXXXXXXOOOOOOOOOOOOOOOOOOOOOOOO",
"####################++++XXXXXXXXXXXXXXXXXXXXXXXXXXXXXXXXXXXXXXXX$$$$XXXXXXXXXXXXXXXXXXXX    XXXXXXXXXXXXOOOOOOOOOOOOOOOOOOOOOOOO",
"####################++++XXXXXXXXXXXXXXXXXXXXXXXXXXXXXXXXXXXXXXXX$$$$XXXXXXXXXXXXXXXXXXXX    XXXXXXXXXXXXOOOOOOOOOOOOOOOOOOOOOOOO",
"####################++++XXXXXXXXXXXXXXXXXXXXXXXXXXXXXXXXXXXXXXXX$$$$XXXXXXXXXXXXXXXXXXXX    XXXXXXXXXXXXOOOOOOOOOOOOOOOOOOOOOOOO",
"####################++++XXXXXXXXXXXXXXXXXXXXXXXXXXXXXXXXXXXXXXXX$$$$XXXXXXXXXXXXXXXXXXXX    XXXXXXXXXXXXOOOOOOOOOOOOOOOOOOOOOOOO",
"####################++++XXXXXXXXXXXXXXXXXXXXXXXXXXXXXXXX$$$$$$$$XXXXXXXXXXXXXXXX++++++++++++XXXXXXXXXXXXXXXXXXXXXXXX++++OOOOOOOO",
"####################++++XXXXXXXXXXXXXXXXXXXXXXXXXXXXXXXX$$$$$$$$XXXXXXXXXXXXXXXX++++++++++++XXXXXXXXXXXXXXXXXXXXXXXX++++OOOOOOOO",
"####################++++XXXXXXXXXXXXXXXXXXXXXXXXXXXXXXXX$$$$$$$$XXXXXXXXXXXXXXXX++++++++++++XXXXXXXXXXXXXXXXXXXXXXXX++++OOOOOOOO",
"####################++++XXXXXXXXXXXXXXXXXXXXXXXXXXXXXXXX$$$$$$$$XXXXXXXXXXXXXXXX++++++++++++XXXXXXXXXXXXXXXXXXXXXXXX++++OOOOOOOO",
"########################XXXXXXXXXXXXXXXXXXXXXXXXXXXXXXXX$$$$$$$$XXXXXXXXXXXXXXXX++++++++++++XXXXXXXXXXXXXXXXXXXXXXXX++++OOOOOOOO",
"########################XXXXXXXXXXXXXXXXXXXXXXXXXXXXXXXX$$$$$$$$XXXXXXXXXXXXXXXX++++++++++++XXXXXXXXXXXXXXXXXXXXXXXX++++OOOOOOOO",
"########################XXXXXXXXXXXXXXXXXXXXXXXXXXXXXXXX$$$$$$$$XXXXXXXXXXXXXXXX++++++++++++XXXXXXXXXXXXXXXXXXXXXXXX++++OOOOOOOO",
"########################XXXXXXXXXXXXXXXXXXXXXXXXXXXXXXXX$$$$$$$$XXXXXXXXXXXXXXXX++++++++++++XXXXXXXXXXXXXXXXXXXXXXXX++++OOOOOOOO",
"ooooooooooooooooooooooooooooXXXXXXXXXXXXXXXXXXXXXXXXXXXXXXXXXXXX$$$$XXXXXXXXXXXXXXXXXXXX    XXXXXXXXXXXXOOOOOOOOOOOOOOOOOOOOOOOO",
"ooooooooooooooooooooooooooooXXXXXXXXXXXXXXXXXXXXXXXXXXXXXXXXXXXX$$$$XXXXXXXXXXXXXXXXXXXX    XXXXXXXXXXXXOOOOOOOOOOOOOOOOOOOOOOOO",
"ooooooooooooooooooooooooooooXXXXXXXXXXXXXXXXXXXXXXXXXXXXXXXXXXXX$$$$XXXXXXXXXXXXXXXXXXXX    XXXXXXXXXXXXOOOOOOOOOOOOOOOOOOOOOOOO",
"ooooooooooooooooooooooooooooXXXXXXXXXXXXXXXXXXXXXXXXXXXXXXXXXXXX$$$$XXXXXXXXXXXXXXXXXXXX    XXXXXXXXXXXXOOOOOOOOOOOOOOOOOOOOOOOO",
"ooooooooooooooooooooooooooooXXXXXXXXXXXXXXXXXXXXXXXXXXXXXXXXXXXXXXXX$$$$XXXXXXXXXXXXXXXXXXXXXXXXXXXXXXXXOOOOOOOOOOOOOOOOOOOOOOOO",
"ooooooooooooooooooooooooooooXXXXXXXXXXXXXXXXXXXXXXXXXXXXXXXXXXXXXXXX$$$$XXXXXXXXXXXXXXXXXXXXXXXXXXXXXXXXOOOOOOOOOOOOOOOOOOOOOOOO",
"ooooooooooooooooooooooooooooXXXXXXXXXXXXXXXXXXXXXXXXXXXXXXXXXXXXXXXX$$$$XXXXXXXXXXXXXXXXXXXXXXXXXXXXXXXXOOOOOOOOOOOOOOOOOOOOOOOO",
"ooooooooooooooooooooooooooooXXXXXXXXXXXXXXXXXXXXXXXXXXXXXXXXXXXXXXXX$$$$XXXXXXXXXXXXXXXXXXXXXXXXXXXXXXXXOOOOOOOOOOOOOOOOOOOOOOOO",
"ooooooooooooooooooooooooooooooooooooXXXXXXXXXXXXXXXXXXXXXXXXXXXXXXXXXXXX$$$$XXXXXXXXXXXXXXXXXXXX++++XXXXXXXXOOOOOOOOOOOOOOOOOOOO",
"ooooooooooooooooooooooooooooooooooooXXXXXXXXXXXXXXXXXXXXXXXXXXXXXXXXXXXX$$$$XXXXXXXXXXXXXXXXXXXX++++XXXXXXXXOOOOOOOOOOOOOOOOOOOO",
"ooooooooooooooooooooooooooooooooooooXXXXXXXXXXXXXXXXXXXXXXXXXXXXXXXXXXXX$$$$XXXXXXXXXXXXXXXXXXXX++++XXXXXXXXOOOOOOOOOOOOOOOOOOOO",
"ooooooooooooooooooooooooooooooooooooXXXXXXXXXXXXXXXXXXXXXXXXXXXXXXXXXXXX$$$$XXXXXXXXXXXXXXXXXXXX++++XXXXXXXXOOOOOOOOOOOOOOOOOOOO",
"oooooooooooooooooooooooooooooooooooooooooooooooooooooooooooo############OOOOOOOOOOOOOOOOOOOOXXXXXXXXXXXXXXXXOOOOOOOOOOOOOOOOOOOO",
"oooooooooooooooooooooooooooooooooooooooooooooooooooooooooooo############OOOOOOOOOOOOOOOOOOOOXXXXXXXXXXXXXXXXOOOOOOOOOOOOOOOOOOOO",
"oooooooooooooooooooooooooooooooooooooooooooooooooooooooooooo############OOOOOOOOOOOOOOOOOOOOXXXXXXXXXXXXXXXXOOOOOOOOOOOOOOOOOOOO",
"oooooooooooooooooooooooooooooooooooooooooooooooooooooooooooo############OOOOOOOOOOOOOOOOOOOOXXXXXXXXXXXXXXXXOOOOOOOOOOOOOOOOOOOO",
"oooooooooooo@@@@oooooooooooooooooooooooooooooooo@@@@@@@@oooo############OOOOOOOOOOOOOOOOOOOOOOOOXXXXXXXXXXXXOOOOOOOOOOOOOOOOOOOO",
"oooooooooooo@@@@oooooooooooooooooooooooooooooooo@@@@@@@@oooo############OOOOOOOOOOOOOOOOOOOOOOOOXXXXXXXXXXXXOOOOOOOOOOOOOOOOOOOO",
"oooooooooooo@@@@oooooooooooooooooooooooooooooooo@@@@@@@@oooo############OOOOOOOOOOOOOOOOOOOOOOOOXXXXXXXXXXXXOOOOOOOOOOOOOOOOOOOO",
"oooooooooooo@@@@oooooooooooooooooooooooooooooooo@@@@@@@@oooo############OOOOOOOOOOOOOOOOOOOOOOOOXXXXXXXXXXXXOOOOOOOOOOOOOOOOOOOO",
"oooooooo@@@@oooooooooooooooooooooooooooooooo@@@@@@@@oooooooo############OOOOOOOOOOOOOOOOOOOOOOOOXXXXXXXX++++OOOOOOOOOOOOOOOOOOOO",
"oooooooo@@@@oooooooooooooooooooooooooooooooo@@@@@@@@oooooooo############OOOOOOOOOOOOOOOOOOOOOOOOXXXXXXXX++++OOOOOOOOOOOOOOOOOOOO",
"oooooooo@@@@oooooooooooooooooooooooooooooooo@@@@@@@@oooooooo############OOOOOOOOOOOOOOOOOOOOOOOOXXXXXXXX++++OOOOOOOOOOOOOOOOOOOO",
"oooooooo@@@@oooooooooooooooooooooooooooooooo@@@@@@@@oooooooo############OOOOOOOOOOOOOOOOOOOOOOOOXXXXXXXX++++OOOOOOOOOOOOOOOOOOOO",
"oooooooo@@@@oooooooooooooooooooooooo@@@@@@@@oooooooooooooooo############OOOOOOOOOOOOOOOOOOOOOOOOOOOOXXXX++++OOOOOOOOOOOO%%%%OOOO",
"oooooooo@@@@oooooooooooooooooooooooo@@@@@@@@oooooooooooooooo############OOOOOOOOOOOOOOOOOOOOOOOOOOOOXXXX++++OOOOOOOOOOOO%%%%OOOO",
"oooooooo@@@@oooooooooooooooooooooooo@@@@@@@@oooooooooooooooo############OOOOOOOOOOOOOOOOOOOOOOOOOOOOXXXX++++OOOOOOOOOOOO%%%%OOOO",
"oooooooo@@@@oooooooooooooooooooooooo@@@@@@@@oooooooooooooooo############OOOOOOOOOOOOOOOOOOOOOOOOOOOOXXXX++++OOOOOOOOOOOO%%%%OOOO",
"oooooooo@@@@oooooooooooooooooooooooo@@@@oooooooooooooooooooo############OOOOOOOOOOOOOOOOOOOOOOOOOOOOOOOOOOOOOOOOOOOOOOOO%%%%OOOO",
"oooooooo@@@@oooooooooooooooooooooooo@@@@oooooooooooooooooooo############OOOOOOOOOOOOOOOOOOOOOOOOOOOOOOOOOOOOOOOOOOOOOOOO%%%%OOOO",
"oooooooo@@@@oooooooooooooooooooooooo@@@@oooooooooooooooooooo############OOOOOOOOOOOOOOOOOOOOOOOOOOOOOOOOOOOOOOOOOOOOOOOO%%%%OOOO",
"oooooooo@@@@oooooooooooooooooooooooo@@@@oooooooooooooooooooo############OOOOOOOOOOOOOOOOOOOOOOOOOOOOOOOOOOOOOOOOOOOOOOOO%%%%OOOO",
"oooooooo@@@@oooooooooooooooooooooooooooooooooooooooooooooooo############OOOOOOOOOOOO%%%%OOOOOOOOOOOOOOOOOOOOOOOOOOOO%%%%%%%%OOOO",
"oooooooo@@@@oooooooooooooooooooooooooooooooooooooooooooooooo############OOOOOOOOOOOO%%%%OOOOOOOOOOOOOOOOOOOOOOOOOOOO%%%%%%%%OOOO",
"oooooooo@@@@oooooooooooooooooooooooooooooooooooooooooooooooo############OOOOOOOOOOOO%%%%OOOOOOOOOOOOOOOOOOOOOOOOOOOO%%%%%%%%OOOO",
"oooooooo@@@@oooooooooooooooooooooooooooooooooooooooooooooooo############OOOOOOOOOOOO%%%%OOOOOOOOOOOOOOOOOOOOOOOOOOOO%%%%%%%%OOOO",
"oooooooo@@@@oooooooooooooooooooooooooooooooooooooooo@@@@oooo############OOOOOOOOOOOO%%%%%%%%OOOOOOOOOOOOOOOOOOOOOOOO%%%%OOOOOOOO",
"oooooooo@@@@oooooooooooooooooooooooooooooooooooooooo@@@@oooo############OOOOOOOOOOOO%%%%%%%%OOOOOOOOOOOOOOOOOOOOOOOO%%%%OOOOOOOO",
"oooooooo@@@@oooooooooooooooooooooooooooooooooooooooo@@@@oooo############OOOOOOOOOOOO%%%%%%%%OOOOOOOOOOOOOOOOOOOOOOOO%%%%OOOOOOOO",
"oooooooo@@@@oooooooooooooooooooooooooooooooooooooooo@@@@oooo############OOOOOOOOOOOO%%%%%%%%OOOOOOOOOOOOOOOOOOOOOOOO%%%%OOOOOOOO",
"oooooooooooo@@@@oooooooooooooooooooooooooooooooo@@@@oooooooo############OOOOOOOOOOOOOOOO%%%%OOOOOOOOOOOOOOOOOOOO%%%%%%%%OOOOOOOO",
"oooooooooooo@@@@oooooooooooooooooooooooooooooooo@@@@oooooooo############OOOOOOOOOOOOOOOO%%%%OOOOOOOOOOOOOOOOOOOO%%%%%%%%OOOOOOOO",
"oooooooooooo@@@@oooooooooooooooooooooooooooooooo@@@@oooooooo############OOOOOOOOOOOOOOOO%%%%OOOOOOOOOOOOOOOOOOOO%%%%%%%%OOOOOOOO",
"oooooooooooo@@@@oooooooooooooooooooooooooooooooo@@@@oooooooo############OOOOOOOOOOOOOOOO%%%%OOOOOOOOOOOOOOOOOOOO%%%%%%%%OOOOOOOO",
"oooooooooooo@@@@oooooooooooo@@@@oooooooooooooooooooooooooooo############OOOOOOOOOOOO%%%%%%%%OOOOOOOOOOOOOOOOOOOO%%%%OOOOOOOOOOOO",
"oooooooooooo@@@@oooooooooooo@@@@oooooooooooooooooooooooooooo############OOOOOOOOOOOO%%%%%%%%OOOOOOOOOOOOOOOOOOOO%%%%OOOOOOOOOOOO",
"oooooooooooo@@@@oooooooooooo@@@@oooooooooooooooooooooooooooo############OOOOOOOOOOOO%%%%%%%%OOOOOOOOOOOOOOOOOOOO%%%%OOOOOOOOOOOO",
"oooooooooooo@@@@oooooooooooo@@@@oooooooooooooooooooooooooooo############OOOOOOOOOOOO%%%%%%%%OOOOOOOOOOOOOOOOOOOO%%%%OOOOOOOOOOOO",
"oooooooooooooooooooooooo@@@@@@@@oooooooooooooooooooooooooooo############OOOOOOOOOOOO%%%%OOOOOOOOOOOOOOOOOOOOOOOOOOOOOOOOOOOOOOOO",
"oooooooooooooooooooooooo@@@@@@@@oooooooooooooooooooooooooooo############OOOOOOOOOOOO%%%%OOOOOOOOOOOOOOOOOOOOOOOOOOOOOOOOOOOOOOOO",
"oooooooooooooooooooooooo@@@@@@@@oooooooooooooooooooooooooooo############OOOOOOOOOOOO%%%%OOOOOOOOOOOOOOOOOOOOOOOOOOOOOOOOOOOOOOOO",
"oooooooooooooooooooooooo@@@@@@@@oooooooooooooooooooooooooooo############OOOOOOOOOOOO%%%%OOOOOOOOOOOOOOOOOOOOOOOOOOOOOOOOOOOOOOOO",
"oooooooooooooooooooooooooooooooooooooooooooooooooooooooooooo############OOOOOOOOOOOOOOOOOOOOOOOOOOOOOOOOOOOOOOOOOOOOOOOOOOOOOOOO",
"oooooooooooooooooooooooooooooooooooooooooooooooooooooooooooo############OOOOOOOOOOOOOOOOOOOOOOOOOOOOOOOOOOOOOOOOOOOOOOOOOOOOOOOO",
"oooooooooooooooooooooooooooooooooooooooooooooooooooooooooooo############OOOOOOOOOOOOOOOOOOOOOOOOOOOOOOOOOOOOOOOOOOOOOOOOOOOOOOOO",
"oooooooooooooooooooooooooooooooooooooooooooooooooooooooooooo############OOOOOOOOOOOOOOOOOOOOOOOOOOOOOOOOOOOOOOOOOOOOOOOOOOOOOOOO",
"oooooooooooooooooooooooooooooooooooooooooooooooooooooooooooo############OOOOOOOOOOOOOOOOOOOOOOOOOOOOOOOOOOOOOOOOOOOOOOOOOOOOOOOO",
"oooooooooooooooooooooooooooooooooooooooooooooooooooooooooooo############OOOOOOOOOOOOOOOOOOOOOOOOOOOOOOOOOOOOOOOOOOOOOOOOOOOOOOOO",
"oooooooooooooooooooooooooooooooooooooooooooooooooooooooooooo############OOOOOOOOOOOOOOOOOOOOOOOOOOOOOOOOOOOOOOOOOOOOOOOOOOOOOOOO",
"oooooooooooooooooooooooooooooooooooooooooooooooooooooooooooo############OOOOOOOOOOOOOOOOOOOOOOOOOOOOOOOOOOOOOOOOOOOOOOOOOOOOOOOO"
};
