/* XPM */
static char *result[] = {
/* columns rows colors chars-per-pixel */
"128 128 10 1 ",
"  c black",
". c #252525",
"X c #343333",
"o c #214433",
"O c #2B3D53",
"+ c #573964",
"@ c #1D6642",
"# c #297970",
"$ c #A0821B",
"% c #496C97",
/* pixels */
"OOOOOOOOOOOOOOOOOOOOOOOOOOOOOOOOOOOOOOOOOOOOOOOOOOOOOOOOOOOOOOOOOOOOOOOOOOOOOOOOOOOOOOOOOOOOOOOOOOOOOOOOOOOOOOOOOOOOOOOOOOOOOOOO",
"OOOOOOOOOOOOOOOOOOOOOOOOOOOOOOOOOOOOOOOOOOOOOOOOOOOOOOOOOOOOOOOOOOOOOOOOOOOOOOOOOOOOOOOOOOOOOOOOOOOOOOOOOOOOOOOOOOOOOOOOOOOOOOOO",
"OOOOOOOOOOOOOOOOOOOOOOOOOOOOOOOOOOOOOOOOOOOOOOOOOOOOOOOOOOOOOOOOOOOOOOOOOOOOOOOOOOOOOOOOOOOOOOOOOOOOOOOOOOOOOOOOOOOOOOOOOOOOOOOO",
"OOOOOOOOOOOOOOOOOOOOOOOOOOOOOOOOOOOOOOOOOOOOOOOOOOOOOOOOOOOOOOOOOOOOOOOOOOOOOOOOOOOOOOOOOOOOOOOOOOOOOOOOOOOOOOOOOOOOOOOOOOOOOOOO",
"OOOOOOOOOOOOOOOOOOOOOOOOOOOO%%%%%%%%%%%%OOOOOOOOOOOOOOOOOOOOOOOOOOOOOOOOOOOOOOOOOOOOOOOOOOOO%%%%%%%%%%%%OOOOOOOOOOOOOOOOOOOOOOOO",
"OOOOOOOOOOOOOOOOOOOOOOOOOOOO%%%%%%%%%%%%OOOOOOOOOOOOOOOOOOOOOOOOOOOOOOOOOOOOOOOOOOOOOOOOOOOO%%%%%%%%%%%%OOOOOOOOOOOOOOOOOOOOOOOO",
"OOOOOOOOOOOOOOOOOOOOOOOOOOOO%%%%%%%%%%%%OOOOOOOOOOOOOOOOOOOOOOOOOOOOOOOOOOOOOOOOOOOOOOOOOOOO%%%%%%%%%%%%OOOOOOOOOOOOOOOOOOOOOOOO",
"OOOOOOOOOOOOOOOOOOOOOOOOOOOO%%%%%%%%%%%%OOOOOOOOOOOOOOOOOOOOOOOOOOOOOOOOOOOOOOOOOOOOOOOOOOOO%%%%%%%%%%%%OOOOOOOOOOOOOOOOOOOOOOOO",
"OOOOOOOOOOOOOOOO%%%%%%%%%%%%OOOOOOOOOOOOOOOOOOOOOOOOOOOOOOOO++++++++OOOOOOOOOOOOOOOOOOOOOOOOOOOOOOOO%%%%%%%%%%%%OOOOOOOOOOOOOOOO",
"OOOOOOOOOOOOOOOO%%%%%%%%%%%%OOOOOOOOOOOOOOOOOOOOOOOOOOOOOOOO++++++++OOOOOOOOOOOOOOOOOOOOOOOOOOOOOOOO%%%%%%%%%%%%OOOOOOOOOOOOOOOO",
"OOOOOOOOOOOOOOOO%%%%%%%%%%%%OOOOOOOOOOOOOOOOOOOOOOOOOOOOOOOO++++++++OOOOOOOOOOOOOOOOOOOOOOOOOOOOOOOO%%%%%%%%%%%%OOOOOOOOOOOOOOOO",
"OOOOOOOOOOOOOOOO%%%%%%%%%%%%OOOOOOOOOOOOOOOOOOOOOOOOOOOOOOOO++++++++OOOOOOOOOOOOOOOOOOOOOOOOOOOOOOOO%%%%%%%%%%%%OOOOOOOOOOOOOOOO",
"OOOOOOOOOOOOOOOOOOOOOOOOOOOOOOOOOOOOOOOOOOOOOOOOOOOOOOOOOOOOXXXXXXXXOOOOOOOOOOOOOOOOOOOOOOOOOOOOOOOOOOOOOOOO%%%%%%%%OOOOOOOOOOOO",
"OOOOOOOOOOOOOOOOOOOOOOOOOOOOOOOOOOOOOOOOOOOOOOOOOOOOOOOOOOOOXXXXXXXXOOOOOOOOOOOOOOOOOOOOOOOOOOOOOOOOOOOOOOOO%%%%%%%%OOOOOOOOOOOO",
"OOOOOOOOOOOOOOOOOOOOOOOOOOOOOOOOOOOOOOOOOOOOOOOOOOOOOOOOOOOOXXXXXXXXOOOOOOOOOOOOOOOOOOOOOOOOOOOOOOOOOOOOOOOO%%%%%%%%OOOOOOOOOOOO",
"OOOOOOOOOOOOOOOOOOOOOOOOOOOOOOOOOOOOOOOOOOOOOOOOOOOOOOOOOOOOXXXXXXXXOOOOOOOOOOOOOOOOOOOOOOOOOOOOOOOOOOOOOOOO%%%%%%%%OOOOOOOOOOOO",
"OOOOOOOOOOOOOOOOOOOOOOOOOOOOOOOOOOOOOOOOOOOOOOOOOOOOOOOOOOOOXXXXXXXXOOOOOOOOOOOOOOOOOOOOOOOOOOOOOOOOOOOOOOOOOOOOOOOOOOOOOOOOOOOO",
"OOOOOOOOOOOOOOOOOOOOOOOOOOOOOOOOOOOOOOOOOOOOOOOOOOOOOOOOOOOOXXXXXXXXOOOOOOOOOOOOOOOOOOOOOOOOOOOOOOOOOOOOOOOOOOOOOOOOOOOOOOOOOOOO",
"OOOOOOOOOOOOOOOOOOOOOOOOOOOOOOOOOOOOOOOOOOOOOOOOOOOOOOOOOOOOXXXXXXXXOOOOOOOOOOOOOOOOOOOOOOOOOOOOOOOOOOOOOOOOOOOOOOOOOOOOOOOOOOOO",
"OOOOOOOOOOOOOOOOOOOOOOOOOOOOOOOOOOOOOOOOOOOOOOOOOOOOOOOOOOOOXXXXXXXXOOOOOOOOOOOOOOOOOOOOOOOOOOOOOOOOOOOOOOOOOOOOOOOOOOOOOOOOOOOO",
"OOOOOOOOOOOOOOOOOOOOOOOOOOOOOOOO++++++++XXXXXXXXXXXXOOOOOOOOXXXXXXXXOOOOOOOOXXXXXXXXXXXX++++++++OOOOOOOOOOOOOOOOOOOOOOOOOOOOOOOO",
"OOOOOOOOOOOOOOOOOOOOOOOOOOOOOOOO++++++++XXXXXXXXXXXXOOOOOOOOXXXXXXXXOOOOOOOOXXXXXXXXXXXX++++++++OOOOOOOOOOOOOOOOOOOOOOOOOOOOOOOO",
"OOOOOOOOOOOOOOOOOOOOOOOOOOOOOOOO++++++++XXXXXXXXXXXXOOOOOOOOXXXXXXXXOOOOOOOOXXXXXXXXXXXX++++++++OOOOOOOOOOOOOOOOOOOOOOOOOOOOOOOO",
"OOOOOOOOOOOOOOOOOOOOOOOOOOOOOOOO++++++++XXXXXXXXXXXXOOOOOOOOXXXXXXXXOOOOOOOOXXXXXXXXXXXX++++++++OOOOOOOOOOOOOOOOOOOOOOOOOOOOOOOO",
"OOOOOOOOOOOOOOOOOOOOOOOOOOOOOOOOXXXXXXXXXXXXXXXXXXXXXXXXXXXXXXXXXXXXXXXXXXXXXXXXXXXXXXXXXXXXXXXXOOOOOOOOOOOOOOOOOOOOOOOOOOOOOOOO",
"OOOOOOOOOOOOOOOOOOOOOOOOOOOOOOOOXXXXXXXXXXXXXXXXXXXXXXXXXXXXXXXXXXXXXXXXXXXXXXXXXXXXXXXXXXXXXXXXOOOOOOOOOOOOOOOOOOOOOOOOOOOOOOOO",
"OOOOOOOOOOOOOOOOOOOOOOOOOOOOOOOOXXXXXXXXXXXXXXXXXXXXXXXXXXXXXXXXXXXXXXXXXXXXXXXXXXXXXXXXXXXXXXXXOOOOOOOOOOOOOOOOOOOOOOOOOOOOOOOO",
"OOOOOOOOOOOOOOOOOOOOOOOOOOOOOOOOXXXXXXXXXXXXXXXXXXXXXXXXXXXXXXXXXXXXXXXXXXXXXXXXXXXXXXXXXXXXXXXXOOOOOOOOOOOOOOOOOOOOOOOOOOOOOOOO",
"OOOOOOOOOOOOOOOO%%%%%%%%OOOOOOOOOOOOXXXXXXXXXXXX++++XXXXXXXXXXXXXXXXXXXXXXXX++++XXXXXXXXXXXXOOOOOOOOOOOOOOOOOOOOOOOOOOOOOOOOOOOO",
"OOOOOOOOOOOOOOOO%%%%%%%%OOOOOOOOOOOOXXXXXXXXXXXX++++XXXXXXXXXXXXXXXXXXXXXXXX++++XXXXXXXXXXXXOOOOOOOOOOOOOOOOOOOOOOOOOOOOOOOOOOOO",
"OOOOOOOOOOOOOOOO%%%%%%%%OOOOOOOOOOOOXXXXXXXXXXXX++++XXXXXXXXXXXXXXXXXXXXXXXX++++XXXXXXXXXXXXOOOOOOOOOOOOOOOOOOOOOOOOOOOOOOOOOOOO",
"OOOOOOOOOOOOOOOO%%%%%%%%OOOOOOOOOOOOXXXXXXXXXXXX++++XXXXXXXXXXXXXXXXXXXXXXXX++++XXXXXXXXXXXXOOOOOOOOOOOOOOOOOOOOOOOOOOOOOOOOOOOO",
"OOOOOOOOOOOO%%%%%%%%OOOOOOOOOOOOOOOOOOOOOOOOXXXXXXXXXXXXXXXXXXXXXXXXXXXXXXXXXXXXXXXXOOOOOOOOOOOOOOOOOOOOOOOOOOOOOOOOOOOOOOOOOOOO",
"OOOOOOOOOOOO%%%%%%%%OOOOOOOOOOOOOOOOOOOOOOOOXXXXXXXXXXXXXXXXXXXXXXXXXXXXXXXXXXXXXXXXOOOOOOOOOOOOOOOOOOOOOOOOOOOOOOOOOOOOOOOOOOOO",
"OOOOOOOOOOOO%%%%%%%%OOOOOOOOOOOOOOOOOOOOOOOOXXXXXXXXXXXXXXXXXXXXXXXXXXXXXXXXXXXXXXXXOOOOOOOOOOOOOOOOOOOOOOOOOOOOOOOOOOOOOOOOOOOO",
"OOOOOOOOOOOO%%%%%%%%OOOOOOOOOOOOOOOOOOOOOOOOXXXXXXXXXXXXXXXXXXXXXXXXXXXXXXXXXXXXXXXXOOOOOOOOOOOOOOOOOOOOOOOOOOOOOOOOOOOOOOOOOOOO",
"OOOOOOOOOOOOOOOOOOOOOOOOOOOOOOOOOOOOOOOOOOOOOOOOXXXXXXXX    ++++++++    XXXXXXXXOOOOOOOOOOOOOOOOOOOOOOOO%%%%%%%%%%%%OOOOOOOOOOOO",
"OOOOOOOOOOOOOOOOOOOOOOOOOOOOOOOOOOOOOOOOOOOOOOOOXXXXXXXX    ++++++++    XXXXXXXXOOOOOOOOOOOOOOOOOOOOOOOO%%%%%%%%%%%%OOOOOOOOOOOO",
"OOOOOOOOOOOOOOOOOOOOOOOOOOOOOOOOOOOOOOOOOOOOOOOOXXXXXXXX    ++++++++    XXXXXXXXOOOOOOOOOOOOOOOOOOOOOOOO%%%%%%%%%%%%OOOOOOOOOOOO",
"OOOOOOOOOOOOOOOOOOOOOOOOOOOOOOOOOOOOOOOOOOOOOOOOXXXXXXXX    ++++++++    XXXXXXXXOOOOOOOOOOOOOOOOOOOOOOOO%%%%%%%%%%%%OOOOOOOOOOOO",
"OOOOOOOOOOOOOOOOOOOOOOOOOOOOOOOOOOOOOOOOOOOOOOOOXXXXXXXXXXXX++++++++XXXXXXXXXXXXOOOOOOOOOOOOOOOOOOOO%%%%%%%%OOOO%%%%%%%%OOOOOOOO",
"OOOOOOOOOOOOOOOOOOOOOOOOOOOOOOOOOOOOOOOOOOOOOOOOXXXXXXXXXXXX++++++++XXXXXXXXXXXXOOOOOOOOOOOOOOOOOOOO%%%%%%%%OOOO%%%%%%%%OOOOOOOO",
"OOOOOOOOOOOOOOOOOOOOOOOOOOOOOOOOOOOOOOOOOOOOOOOOXXXXXXXXXXXX++++++++XXXXXXXXXXXXOOOOOOOOOOOOOOOOOOOO%%%%%%%%OOOO%%%%%%%%OOOOOOOO",
"OOOOOOOOOOOOOOOOOOOOOOOOOOOOOOOOOOOOOOOOOOOOOOOOXXXXXXXXXXXX++++++++XXXXXXXXXXXXOOOOOOOOOOOOOOOOOOOO%%%%%%%%OOOO%%%%%%%%OOOOOOOO",
"OOOOOOOOOOOOOOOOOOOOOOOOOOOOOOOOOOOOOOOOOOOOOOOOXXXXXXXXXXXX++++++++XXXXXXXXXXXXOOOOOOOOOOOOOOOOOOOOOOOOOOOOOOOOOOOOOOOOOOOOOOOO",
"OOOOOOOOOOOOOOOOOOOOOOOOOOOOOOOOOOOOOOOOOOOOOOOOXXXXXXXXXXXX++++++++XXXXXXXXXXXXOOOOOOOOOOOOOOOOOOOOOOOOOOOOOOOOOOOOOOOOOOOOOOOO",
"OOOOOOOOOOOOOOOOOOOOOOOOOOOOOOOOOOOOOOOOOOOOOOOOXXXXXXXXXXXX++++++++XXXXXXXXXXXXOOOOOOOOOOOOOOOOOOOOOOOOOOOOOOOOOOOOOOOOOOOOOOOO",
"OOOOOOOOOOOOOOOOOOOOOOOOOOOOOOOOOOOOOOOOOOOOOOOOXXXXXXXXXXXX++++++++XXXXXXXXXXXXOOOOOOOOOOOOOOOOOOOOOOOOOOOOOOOOOOOOOOOOOOOOOOOO",
"OOOOOOOOOOOOOOOOOOOOOOOOOOOOOOOOOOOOOOOOOOOOOOOOXXXXXXXXXXXXXXXXXXXXXXXXXXXXXXXXOOOOOOOOOOOOOOOOOOOOOOOOOOOOOOOOOOOOOOOOOOOOOOOO",
"OOOOOOOOOOOOOOOOOOOOOOOOOOOOOOOOOOOOOOOOOOOOOOOOXXXXXXXXXXXXXXXXXXXXXXXXXXXXXXXXOOOOOOOOOOOOOOOOOOOOOOOOOOOOOOOOOOOOOOOOOOOOOOOO",
"OOOOOOOOOOOOOOOOOOOOOOOOOOOOOOOOOOOOOOOOOOOOOOOOXXXXXXXXXXXXXXXXXXXXXXXXXXXXXXXXOOOOOOOOOOOOOOOOOOOOOOOOOOOOOOOOOOOOOOOOOOOOOOOO",
"OOOOOOOOOOOOOOOOOOOOOOOOOOOOOOOOOOOOOOOOOOOOOOOOXXXXXXXXXXXXXXXXXXXXXXXXXXXXXXXXOOOOOOOOOOOOOOOOOOOOOOOOOOOOOOOOOOOOOOOOOOOOOOOO",
"OOOOOOOO%%%%%%%%OOOOOOOOOOOOOOOOOOOOOOOOOOOOOOOO$$$$XXXXXXXXXXXXXXXXXXXXXXXX$$$$OOOOOOOOOOOOOOOOOOOOOOOOOOOOOOOOOOOOOOOOOOOOOOOO",
"OOOOOOOO%%%%%%%%OOOOOOOOOOOOOOOOOOOOOOOOOOOOOOOO$$$$XXXXXXXXXXXXXXXXXXXXXXXX$$$$OOOOOOOOOOOOOOOOOOOOOOOOOOOOOOOOOOOOOOOOOOOOOOOO",
"OOOOOOOO%%%%%%%%OOOOOOOOOOOOOOOOOOOOOOOOOOOOOOOO$$$$XXXXXXXXXXXXXXXXXXXXXXXX$$$$OOOOOOOOOOOOOOOOOOOOOOOOOOOOOOOOOOOOOOOOOOOOOOOO",
"OOOOOOOO%%%%%%%%OOOOOOOOOOOOOOOOOOOOOOOOOOOOOOOO$$$$XXXXXXXXXXXXXXXXXXXXXXXX$$$$OOOOOOOOOOOOOOOOOOOOOOOOOOOOOOOOOOOOOOOOOOOOOOOO",
"OOOOOOOO%%%%OOOOOOOOOOOOOOOOOOOOOOOOOOOOOOOOOOOOXXXX$$$$XXXXXXXXXXXXXXXX$$$$XXXX################################################",
"OOOOOOOO%%%%OOOOOOOOOOOOOOOOOOOOOOOOOOOOOOOOOOOOXXXX$$$$XXXXXXXXXXXXXXXX$$$$XXXX################################################",
"OOOOOOOO%%%%OOOOOOOOOOOOOOOOOOOOOOOOOOOOOOOOOOOOXXXX$$$$XXXXXXXXXXXXXXXX$$$$XXXX################################################",
"OOOOOOOO%%%%OOOOOOOOOOOOOOOOOOOOOOOOOOOOOOOOOOOOXXXX$$$$XXXXXXXXXXXXXXXX$$$$XXXX################################################",
"OOOOOOOO%%%%OOOOOOOOOOOOOOOOOOOOOOOO%%%%OOOOOOOOXXXXXXXX$$$$XXXXXXXX$$$$XXXXXXXX################################################",
"OOOOOOOO%%%%OOOOOOOOOOOOOOOOOOOOOOOO%%%%OOOOOOOOXXXXXXXX$$$$XXXXXXXX$$$$XXXXXXXX################################################",
"OOOOOOOO%%%%OOOOOOOOOOOOOOOOOOOOOOOO%%%%OOOOOOOOXXXXXXXX$$$$XXXXXXXX$$$$XXXXXXXX################################################",
"OOOOOOOO%%%%OOOOOOOOOOOOOOOOOOOOOOOO%%%%OOOOOOOOXXXXXXXX$$$$XXXXXXXX$$$$XXXXXXXX################################################",
"OOOOOOOOOOOOOOOOOOOOOOOOOOOOOOOO%%%%%%%%OOOOOOOOXXXXXXXXXXXX$$$$$$$$XXXXXXXXXXXX################################################",
"OOOOOOOOOOOOOOOOOOOOOOOOOOOOOOOO%%%%%%%%OOOOOOOOXXXXXXXXXXXX$$$$$$$$XXXXXXXXXXXX################################################",
"OOOOOOOOOOOOOOOOOOOOOOOOOOOOOOOO%%%%%%%%OOOOOOOOXXXXXXXXXXXX$$$$$$$$XXXXXXXXXXXX################################################",
"OOOOOOOOOOOOOOOOOOOOOOOOOOOOOOOO%%%%%%%%OOOOOOOOXXXXXXXXXXXX$$$$$$$$XXXXXXXXXXXX################################################",
"OOOOOOOOOOOOOOOOOOOOOOOOOOOOOOOOOOOOOOOOOOOOOOOOXXXXXXXXXXXX$$$$$$$$XXXXXXXXXXXXoooooooooooooooooooooooooooooooooooooooooooooooo",
"OOOOOOOOOOOOOOOOOOOOOOOOOOOOOOOOOOOOOOOOOOOOOOOOXXXXXXXXXXXX$$$$$$$$XXXXXXXXXXXXoooooooooooooooooooooooooooooooooooooooooooooooo",
"OOOOOOOOOOOOOOOOOOOOOOOOOOOOOOOOOOOOOOOOOOOOOOOOXXXXXXXXXXXX$$$$$$$$XXXXXXXXXXXXoooooooooooooooooooooooooooooooooooooooooooooooo",
"OOOOOOOOOOOOOOOOOOOOOOOOOOOOOOOOOOOOOOOOOOOOOOOOXXXXXXXXXXXX$$$$$$$$XXXXXXXXXXXXoooooooooooooooooooooooooooooooooooooooooooooooo",
"OOOOOOOOOOOOOOOOOOOOOOOOOOOOOOOOOOOOOOOOOOOOOOOOXXXXXXXXXXXXXXXXXXXXXXXXXXXXXXXXoooo@@@@oooooooooooooooo@@@@oooooooooooooooooooo",
"OOOOOOOOOOOOOOOOOOOOOOOOOOOOOOOOOOOOOOOOOOOOOOOOXXXXXXXXXXXXXXXXXXXXXXXXXXXXXXXXoooo@@@@oooooooooooooooo@@@@oooooooooooooooooooo",
"OOOOOOOOOOOOOOOOOOOOOOOOOOOOOOOOOOOOOOOOOOOOOOOOXXXXXXXXXXXXXXXXXXXXXXXXXXXXXXXXoooo@@@@oooooooooooooooo@@@@oooooooooooooooooooo",
"OOOOOOOOOOOOOOOOOOOOOOOOOOOOOOOOOOOOOOOOOOOOOOOOXXXXXXXXXXXXXXXXXXXXXXXXXXXXXXXXoooo@@@@oooooooooooooooo@@@@oooooooooooooooooooo",
"OOOOOOOOOOOO%%%%OOOOOOOOOOOOOOOOOOOOOOOOOOOOOOOOXXXXXXXXXXXXXXXXXXXXXXXXXXXXXXXXoooo@@@@@@@@oooooooooooooooo@@@@oooooooooooooooo",
"OOOOOOOOOOOO%%%%OOOOOOOOOOOOOOOOOOOOOOOOOOOOOOOOXXXXXXXXXXXXXXXXXXXXXXXXXXXXXXXXoooo@@@@@@@@oooooooooooooooo@@@@oooooooooooooooo",
"OOOOOOOOOOOO%%%%OOOOOOOOOOOOOOOOOOOOOOOOOOOOOOOOXXXXXXXXXXXXXXXXXXXXXXXXXXXXXXXXoooo@@@@@@@@oooooooooooooooo@@@@oooooooooooooooo",
"OOOOOOOOOOOO%%%%OOOOOOOOOOOOOOOOOOOOOOOOOOOOOOOOXXXXXXXXXXXXXXXXXXXXXXXXXXXXXXXXoooo@@@@@@@@oooooooooooooooo@@@@oooooooooooooooo",
"OOOOOOOOOOOO%%%%OOOOOOOOOOOOOOOOOOOOOOOOOOOO....XXXXXXXXXXXXXXXXXXXXXXXXXXXXXXXXoooooooo@@@@oooooooooooooooooooooooooooooooooooo",
"OOOOOOOOOOOO%%%%OOOOOOOOOOOOOOOOOOOOOOOOOOOO....XXXXXXXXXXXXXXXXXXXXXXXXXXXXXXXXoooooooo@@@@oooooooooooooooooooooooooooooooooooo",
"OOOOOOOOOOOO%%%%OOOOOOOOOOOOOOOOOOOOOOOOOOOO....XXXXXXXXXXXXXXXXXXXXXXXXXXXXXXXXoooooooo@@@@oooooooooooooooooooooooooooooooooooo",
"OOOOOOOOOOOO%%%%OOOOOOOOOOOOOOOOOOOOOOOOOOOO....XXXXXXXXXXXXXXXXXXXXXXXXXXXXXXXXoooooooo@@@@oooooooooooooooooooooooooooooooooooo",
"OOOOOOOOOOOO%%%%%%%%OOOOOOOOOOOOOOOO............XXXXXXXXXXXXXXXXXXXXXXXXXXXXXXXXoooooooooooo@@@@oooooooooooooooooooooooooooooooo",
"OOOOOOOOOOOO%%%%%%%%OOOOOOOOOOOOOOOO............XXXXXXXXXXXXXXXXXXXXXXXXXXXXXXXXoooooooooooo@@@@oooooooooooooooooooooooooooooooo",
"OOOOOOOOOOOO%%%%%%%%OOOOOOOOOOOOOOOO............XXXXXXXXXXXXXXXXXXXXXXXXXXXXXXXXoooooooooooo@@@@oooooooooooooooooooooooooooooooo",
"OOOOOOOOOOOO%%%%%%%%OOOOOOOOOOOOOOOO............XXXXXXXXXXXXXXXXXXXXXXXXXXXXXXXXoooooooooooo@@@@oooooooooooooooooooooooooooooooo",
"OOOOOOOOOOOOOOOO%%%%OOOOOOOOOOOO................XXXXXXXXXXXXXXXXXXXXXXXXXXXXXXXXoooooooooooo@@@@@@@@oooooooooooooooooooooooooooo",
"OOOOOOOOOOOOOOOO%%%%OOOOOOOOOOOO................XXXXXXXXXXXXXXXXXXXXXXXXXXXXXXXXoooooooooooo@@@@@@@@oooooooooooooooooooooooooooo",
"OOOOOOOOOOOOOOOO%%%%OOOOOOOOOOOO................XXXXXXXXXXXXXXXXXXXXXXXXXXXXXXXXoooooooooooo@@@@@@@@oooooooooooooooooooooooooooo",
"OOOOOOOOOOOOOOOO%%%%OOOOOOOOOOOO................XXXXXXXXXXXXXXXXXXXXXXXXXXXXXXXXoooooooooooo@@@@@@@@oooooooooooooooooooooooooooo",
"OOOOOOOOOOOOOOOO%%%%OOOOOOOOOOOOOOOOOOOOOOOOOOOOXXXXXXXXXXXXXXXXXXXXXXXXXXXXoooooooooooooooooooooooooooooooooooooooooooooooooooo",
"OOOOOOOOOOOOOOOO%%%%OOOOOOOOOOOOOOOOOOOOOOOOOOOOXXXXXXXXXXXXXXXXXXXXXXXXXXXXoooooooooooooooooooooooooooooooooooooooooooooooooooo",
"OOOOOOOOOOOOOOOO%%%%OOOOOOOOOOOOOOOOOOOOOOOOOOOOXXXXXXXXXXXXXXXXXXXXXXXXXXXXoooooooooooooooooooooooooooooooooooooooooooooooooooo",
"OOOOOOOOOOOOOOOO%%%%OOOOOOOOOOOOOOOOOOOOOOOOOOOOXXXXXXXXXXXXXXXXXXXXXXXXXXXXoooooooooooooooooooooooooooooooooooooooooooooooooooo",
"OOOOOOOOOOOOOOOOOOOOOOOOOOOOOOOOOOOOOOOOOOOOXXXXXXXXXXXXXXXXXXXXXXXXXXXXXXXXoooooooooooooooooooooooooooooooooooo@@@@@@@@oooooooo",
"OOOOOOOOOOOOOOOOOOOOOOOOOOOOOOOOOOOOOOOOOOOOXXXXXXXXXXXXXXXXXXXXXXXXXXXXXXXXoooooooooooooooooooooooooooooooooooo@@@@@@@@oooooooo",
"OOOOOOOOOOOOOOOOOOOOOOOOOOOOOOOOOOOOOOOOOOOOXXXXXXXXXXXXXXXXXXXXXXXXXXXXXXXXoooooooooooooooooooooooooooooooooooo@@@@@@@@oooooooo",
"OOOOOOOOOOOOOOOOOOOOOOOOOOOOOOOOOOOOOOOOOOOOXXXXXXXXXXXXXXXXXXXXXXXXXXXXXXXXoooooooooooooooooooooooooooooooooooo@@@@@@@@oooooooo",
"OOOOOOOOOOOOOOOOOOOOOOOOOOOOOOOOOOOOXXXXXXXXXXXX$$$$XXXXXXXXXXXXXXXXoooooooooooooooooooooooooooooooooooooooooooooooo@@@@oooooooo",
"OOOOOOOOOOOOOOOOOOOOOOOOOOOOOOOOOOOOXXXXXXXXXXXX$$$$XXXXXXXXXXXXXXXXoooooooooooooooooooooooooooooooooooooooooooooooo@@@@oooooooo",
"OOOOOOOOOOOOOOOOOOOOOOOOOOOOOOOOOOOOXXXXXXXXXXXX$$$$XXXXXXXXXXXXXXXXoooooooooooooooooooooooooooooooooooooooooooooooo@@@@oooooooo",
"OOOOOOOOOOOOOOOOOOOOOOOOOOOOOOOOOOOOXXXXXXXXXXXX$$$$XXXXXXXXXXXXXXXXoooooooooooooooooooooooooooooooooooooooooooooooo@@@@oooooooo",
"OOOOOOOOOOOOOOOOOOOOOOOOOOOOOOOOXXXXXXXXXXXXXXXXXXXXXXXX++++++++####oooooooooooooooooooooooooooooooooooooooooooooooooooooooooooo",
"OOOOOOOOOOOOOOOOOOOOOOOOOOOOOOOOXXXXXXXXXXXXXXXXXXXXXXXX++++++++####oooooooooooooooooooooooooooooooooooooooooooooooooooooooooooo",
"OOOOOOOOOOOOOOOOOOOOOOOOOOOOOOOOXXXXXXXXXXXXXXXXXXXXXXXX++++++++####oooooooooooooooooooooooooooooooooooooooooooooooooooooooooooo",
"OOOOOOOOOOOOOOOOOOOOOOOOOOOOOOOOXXXXXXXXXXXXXXXXXXXXXXXX++++++++####oooooooooooooooooooooooooooooooooooooooooooooooooooooooooooo",
"OOOOOOOOOOOOOOOOOOOOOOOOOOOOOOOOOOOOOOOOOOOOOOOOOOOOOOOO############oooooooooooooooooooooooooooooooooooooooooooooooooooooooooooo",
"OOOOOOOOOOOOOOOOOOOOOOOOOOOOOOOOOOOOOOOOOOOOOOOOOOOOOOOO############oooooooooooooooooooooooooooooooooooooooooooooooooooooooooooo",
"OOOOOOOOOOOOOOOOOOOOOOOOOOOOOOOOOOOOOOOOOOOOOOOOOOOOOOOO############oooooooooooooooooooooooooooooooooooooooooooooooooooooooooooo",
"OOOOOOOOOOOOOOOOOOOOOOOOOOOOOOOOOOOOOOOOOOOOOOOOOOOOOOOO############oooooooooooooooooooooooooooooooooooooooooooooooooooooooooooo",
"OOOOOOOOOOOO%%%%OOOOOOOOOOOOOOOOOOOOOOOOOOOOOOOOOOOOOOOO############oooooooooooooooo@@@@oooooooooooooooooooo@@@@@@@@oooooooooooo",
"OOOOOOOOOOOO%%%%OOOOOOOOOOOOOOOOOOOOOOOOOOOOOOOOOOOOOOOO############oooooooooooooooo@@@@oooooooooooooooooooo@@@@@@@@oooooooooooo",
"OOOOOOOOOOOO%%%%OOOOOOOOOOOOOOOOOOOOOOOOOOOOOOOOOOOOOOOO############oooooooooooooooo@@@@oooooooooooooooooooo@@@@@@@@oooooooooooo",
"OOOOOOOOOOOO%%%%OOOOOOOOOOOOOOOOOOOOOOOOOOOOOOOOOOOOOOOO############oooooooooooooooo@@@@oooooooooooooooooooo@@@@@@@@oooooooooooo",
"OOOOOOOOOOOO%%%%%%%%%%%%OOOOOOOOOOOOOOOOOOOOOOOOOOOOOOOO############oooooooooooooooooooo@@@@@@@@@@@@@@@@@@@@oooooooooooooooooooo",
"OOOOOOOOOOOO%%%%%%%%%%%%OOOOOOOOOOOOOOOOOOOOOOOOOOOOOOOO############oooooooooooooooooooo@@@@@@@@@@@@@@@@@@@@oooooooooooooooooooo",
"OOOOOOOOOOOO%%%%%%%%%%%%OOOOOOOOOOOOOOOOOOOOOOOOOOOOOOOO############oooooooooooooooooooo@@@@@@@@@@@@@@@@@@@@oooooooooooooooooooo",
"OOOOOOOOOOOO%%%%%%%%%%%%OOOOOOOOOOOOOOOOOOOOOOOOOOOOOOOO############oooooooooooooooooooo@@@@@@@@@@@@@@@@@@@@oooooooooooooooooooo",
"OOOOOOOOOOOOOOOOOOOO%%%%OOOOOOOOOOOOOOOOOOOOOOOOOOOOOOOO############oooooooooooooooooooooooooooooooooooooooooooooooooooooooooooo",
"OOOOOOOOOOOOOOOOOOOO%%%%OOOOOOOOOOOOOOOOOOOOOOOOOOOOOOOO############oooooooooooooooooooooooooooooooooooooooooooooooooooooooooooo",
"OOOOOOOOOOOOOOOOOOOO%%%%OOOOOOOOOOOOOOOOOOOOOOOOOOOOOOOO############oooooooooooooooooooooooooooooooooooooooooooooooooooooooooooo",
"OOOOOOOOOOOOOOOOOOOO%%%%OOOOOOOOOOOOOOOOOOOOOOOOOOOOOOOO############oooooooooooooooooooooooooooooooooooooooooooooooooooooooooooo",
"OOOOOOOOOOOOOOOOOOOO%%%%OOOOOOOOOOOOOOOOOOOOOOOOOOOOOOOO############oooooooooooooooooooooooooooooooooooooooooooooooooooooooooooo",
"OOOOOOOOOOOOOOOOOOOO%%%%OOOOOOOOOOOOOOOOOOOOOOOOOOOOOOOO############oooooooooooooooooooooooooooooooooooooooooooooooooooooooooooo",
"OOOOOOOOOOOOOOOOOOOO%%%%OOOOOOOOOOOOOOOOOOOOOOOOOOOOOOOO############oooooooooooooooooooooooooooooooooooooooooooooooooooooooooooo",
"OOOOOOOOOOOOOOOOOOOO%%%%OOOOOOOOOOOOOOOOOOOOOOOOOOOOOOOO############oooooooooooooooooooooooooooooooooooooooooooooooooooooooooooo"
};
