/* XPM */
static char *result[] = {
/* columns rows colors chars-per-pixel */
"128 128 10 1 ",
"  c black",
". c #252525",
"X c #343333",
"o c #214433",
"O c #2B3D53",
"+ c #573964",
"@ c #1D6642",
"# c #297970",
"$ c #A0821B",
"% c #496C97",
/* pixels */
"OOOOOOOOOOOOOOOOOOOOOOOOOOOOOOOOOOOOOOOOOOOOOOOOOOOOOOOOOOOOOOOOOOOOOOOOOOOOOOOOOOOOOOOOOOOOOOOOOOOOOOOOOOOOOOOOOOOOOOOOOOOOOOOO",
"OOOOOOOOOOOOOOOOOOOOOOOOOOOOOOOOOOOOOOOOOOOOOOOOOOOOOOOOOOOOOOOOOOOOOOOOOOOOOOOOOOOOOOOOOOOOOOOOOOOOOOOOOOOOOOOOOOOOOOOOOOOOOOOO",
"OOOOOOOOOOOOOOOOOOOOOOOOOOOOOOOOOOOOOOOOOOOOOOOOOOOOOOOOOOOOOOOOOOOOOOOOOOOOOOOOOOOOOOOOOOOOOOOOOOOOOOOOOOOOOOOOOOOOOOOOOOOOOOOO",
"OOOOOOOOOOOOOOOOOOOOOOOOOOOOOOOOOOOOOOOOOOOOOOOOOOOOOOOOOOOOOOOOOOOOOOOOOOOOOOOOOOOOOOOOOOOOOOOOOOOOOOOOOOOOOOOOOOOOOOOOOOOOOOOO",
"OOOOOOOOOOOOOOOOOOOOOOOOOOOOOOOOOOOOOOOOOOOOOOOOOOOOOOOOOOOOOOOOOOOOOOOOOOOOOOOOOOOOOOOOOOOOOOOOOOOOOOOOOOOOOOOOOOOOOOOOOOOOOOOO",
"OOOOOOOOOOOOOOOOOOOOOOOOOOOOOOOOOOOOOOOOOOOOOOOOOOOOOOOOOOOOOOOOOOOOOOOOOOOOOOOOOOOOOOOOOOOOOOOOOOOOOOOOOOOOOOOOOOOOOOOOOOOOOOOO",
"OOOOOOOOOOOOOOOOOOOOOOOOOOOOOOOOOOOOOOOOOOOOOOOOOOOOOOOOOOOOOOOOOOOOOOOOOOOOOOOOOOOOOOOOOOOOOOOOOOOOOOOOOOOOOOOOOOOOOOOOOOOOOOOO",
"OOOOOOOOOOOOOOOOOOOOOOOOOOOOOOOOOOOOOOOOOOOOOOOOOOOOOOOOOOOOOOOOOOOOOOOOOOOOOOOOOOOOOOOOOOOOOOOOOOOOOOOOOOOOOOOOOOOOOOOOOOOOOOOO",
"OOOOOOOOOOOOOOOOOOOOOOOO%%%%%%%%%%%%%%%%OOOOOOOOOOOOOOOOOOOOOOOOOOOOOOOOOOOOOOOOOOOO%%%%%%%%%%%%%%%%%%%%%%%%OOOOOOOOOOOOOOOOOOOO",
"OOOOOOOOOOOOOOOOOOOOOOOO%%%%%%%%%%%%%%%%OOOOOOOOOOOOOOOOOOOOOOOOOOOOOOOOOOOOOOOOOOOO%%%%%%%%%%%%%%%%%%%%%%%%OOOOOOOOOOOOOOOOOOOO",
"OOOOOOOOOOOOOOOOOOOOOOOO%%%%%%%%%%%%%%%%OOOOOOOOOOOOOOOOOOOOOOOOOOOOOOOOOOOOOOOOOOOO%%%%%%%%%%%%%%%%%%%%%%%%OOOOOOOOOOOOOOOOOOOO",
"OOOOOOOOOOOOOOOOOOOOOOOO%%%%%%%%%%%%%%%%OOOOOOOOOOOOOOOOOOOOOOOOOOOOOOOOOOOOOOOOOOOO%%%%%%%%%%%%%%%%%%%%%%%%OOOOOOOOOOOOOOOOOOOO",
"OOOOOOOOOOOOOOOOOOOOOOOOOOOOOOOO%%%%OOOOOOOOOOOOOOOOOOOOOOOO++++++++OOOOOOOOOOOOOOOOOOOOOOOOOOOOOOOOOOOOOOOOOOOOOOOOOOOOOOOOOOOO",
"OOOOOOOOOOOOOOOOOOOOOOOOOOOOOOOO%%%%OOOOOOOOOOOOOOOOOOOOOOOO++++++++OOOOOOOOOOOOOOOOOOOOOOOOOOOOOOOOOOOOOOOOOOOOOOOOOOOOOOOOOOOO",
"OOOOOOOOOOOOOOOOOOOOOOOOOOOOOOOO%%%%OOOOOOOOOOOOOOOOOOOOOOOO++++++++OOOOOOOOOOOOOOOOOOOOOOOOOOOOOOOOOOOOOOOOOOOOOOOOOOOOOOOOOOOO",
"OOOOOOOOOOOOOOOOOOOOOOOOOOOOOOOO%%%%OOOOOOOOOOOOOOOOOOOOOOOO++++++++OOOOOOOOOOOOOOOOOOOOOOOOOOOOOOOOOOOOOOOOOOOOOOOOOOOOOOOOOOOO",
"OOOOOOOOOOOOOOOOOOOOOOOOOOOOOOOOOOOOOOOOOOOOOOOOOOOOOOOOOOOOXXXXXXXXOOOOOOOOOOOOOOOOOOOOOOOOOOOOOOOOOOOOOOOOOOOOOOOOOOOOOOOOOOOO",
"OOOOOOOOOOOOOOOOOOOOOOOOOOOOOOOOOOOOOOOOOOOOOOOOOOOOOOOOOOOOXXXXXXXXOOOOOOOOOOOOOOOOOOOOOOOOOOOOOOOOOOOOOOOOOOOOOOOOOOOOOOOOOOOO",
"OOOOOOOOOOOOOOOOOOOOOOOOOOOOOOOOOOOOOOOOOOOOOOOOOOOOOOOOOOOOXXXXXXXXOOOOOOOOOOOOOOOOOOOOOOOOOOOOOOOOOOOOOOOOOOOOOOOOOOOOOOOOOOOO",
"OOOOOOOOOOOOOOOOOOOOOOOOOOOOOOOOOOOOOOOOOOOOOOOOOOOOOOOOOOOOXXXXXXXXOOOOOOOOOOOOOOOOOOOOOOOOOOOOOOOOOOOOOOOOOOOOOOOOOOOOOOOOOOOO",
"OOOOOOOOOOOOOOOOOOOOOOOOOOOOOOOOOOOOOOOOOOOOOOOOOOOOOOOOOOOOXXXXXXXXOOOOOOOOOOOOOOOOOOOOOOOOOOOOOOOOOOOOOOOOOOOOOOOOOOOOOOOOOOOO",
"OOOOOOOOOOOOOOOOOOOOOOOOOOOOOOOOOOOOOOOOOOOOOOOOOOOOOOOOOOOOXXXXXXXXOOOOOOOOOOOOOOOOOOOOOOOOOOOOOOOOOOOOOOOOOOOOOOOOOOOOOOOOOOOO",
"OOOOOOOOOOOOOOOOOOOOOOOOOOOOOOOOOOOOOOOOOOOOOOOOOOOOOOOOOOOOXXXXXXXXOOOOOOOOOOOOOOOOOOOOOOOOOOOOOOOOOOOOOOOOOOOOOOOOOOOOOOOOOOOO",
"OOOOOOOOOOOOOOOOOOOOOOOOOOOOOOOOOOOOOOOOOOOOOOOOOOOOOOOOOOOOXXXXXXXXOOOOOOOOOOOOOOOOOOOOOOOOOOOOOOOOOOOOOOOOOOOOOOOOOOOOOOOOOOOO",
"OOOOOOOOOOOOOOOOOOOOOOOOOOOOOOOO++++++++XXXXXXXXXXXXOOOOOOOOXXXXXXXXOOOOOOOOXXXXXXXXXXXX++++++++OOOOOOOOOOOOOOOOOOOOOOOOOOOOOOOO",
"OOOOOOOOOOOOOOOOOOOOOOOOOOOOOOOO++++++++XXXXXXXXXXXXOOOOOOOOXXXXXXXXOOOOOOOOXXXXXXXXXXXX++++++++OOOOOOOOOOOOOOOOOOOOOOOOOOOOOOOO",
"OOOOOOOOOOOOOOOOOOOOOOOOOOOOOOOO++++++++XXXXXXXXXXXXOOOOOOOOXXXXXXXXOOOOOOOOXXXXXXXXXXXX++++++++OOOOOOOOOOOOOOOOOOOOOOOOOOOOOOOO",
"OOOOOOOOOOOOOOOOOOOOOOOOOOOOOOOO++++++++XXXXXXXXXXXXOOOOOOOOXXXXXXXXOOOOOOOOXXXXXXXXXXXX++++++++OOOOOOOOOOOOOOOOOOOOOOOOOOOOOOOO",
"OOOO%%%%%%%%%%%%OOOOOOOOOOOOOOOOXXXXXXXXXXXXXXXXXXXXXXXXXXXXXXXXXXXXXXXXXXXXXXXXXXXXXXXXXXXXXXXXOOOOOOOOOOOOOOOOOOOOOOOOOOOOOOOO",
"OOOO%%%%%%%%%%%%OOOOOOOOOOOOOOOOXXXXXXXXXXXXXXXXXXXXXXXXXXXXXXXXXXXXXXXXXXXXXXXXXXXXXXXXXXXXXXXXOOOOOOOOOOOOOOOOOOOOOOOOOOOOOOOO",
"OOOO%%%%%%%%%%%%OOOOOOOOOOOOOOOOXXXXXXXXXXXXXXXXXXXXXXXXXXXXXXXXXXXXXXXXXXXXXXXXXXXXXXXXXXXXXXXXOOOOOOOOOOOOOOOOOOOOOOOOOOOOOOOO",
"OOOO%%%%%%%%%%%%OOOOOOOOOOOOOOOOXXXXXXXXXXXXXXXXXXXXXXXXXXXXXXXXXXXXXXXXXXXXXXXXXXXXXXXXXXXXXXXXOOOOOOOOOOOOOOOOOOOOOOOOOOOOOOOO",
"OOOOOOOOOOOOOOOOOOOOOOOOOOOOOOOOOOOOXXXXXXXXXXXX++++XXXXXXXXXXXXXXXXXXXXXXXX++++XXXXXXXXXXXXOOOOOOOOOOOOOOOOOOOO%%%%OOOOOOOOOOOO",
"OOOOOOOOOOOOOOOOOOOOOOOOOOOOOOOOOOOOXXXXXXXXXXXX++++XXXXXXXXXXXXXXXXXXXXXXXX++++XXXXXXXXXXXXOOOOOOOOOOOOOOOOOOOO%%%%OOOOOOOOOOOO",
"OOOOOOOOOOOOOOOOOOOOOOOOOOOOOOOOOOOOXXXXXXXXXXXX++++XXXXXXXXXXXXXXXXXXXXXXXX++++XXXXXXXXXXXXOOOOOOOOOOOOOOOOOOOO%%%%OOOOOOOOOOOO",
"OOOOOOOOOOOOOOOOOOOOOOOOOOOOOOOOOOOOXXXXXXXXXXXX++++XXXXXXXXXXXXXXXXXXXXXXXX++++XXXXXXXXXXXXOOOOOOOOOOOOOOOOOOOO%%%%OOOOOOOOOOOO",
"OOOOOOOOOOOOOOOOOOOOOOOOOOOOOOOOOOOOOOOOOOOOXXXXXXXXXXXXXXXXXXXXXXXXXXXXXXXXXXXXXXXXOOOOOOOOOOOOOOOOOOOOOOOO%%%%OOOOOOOOOOOOOOOO",
"OOOOOOOOOOOOOOOOOOOOOOOOOOOOOOOOOOOOOOOOOOOOXXXXXXXXXXXXXXXXXXXXXXXXXXXXXXXXXXXXXXXXOOOOOOOOOOOOOOOOOOOOOOOO%%%%OOOOOOOOOOOOOOOO",
"OOOOOOOOOOOOOOOOOOOOOOOOOOOOOOOOOOOOOOOOOOOOXXXXXXXXXXXXXXXXXXXXXXXXXXXXXXXXXXXXXXXXOOOOOOOOOOOOOOOOOOOOOOOO%%%%OOOOOOOOOOOOOOOO",
"OOOOOOOOOOOOOOOOOOOOOOOOOOOOOOOOOOOOOOOOOOOOXXXXXXXXXXXXXXXXXXXXXXXXXXXXXXXXXXXXXXXXOOOOOOOOOOOOOOOOOOOOOOOO%%%%OOOOOOOOOOOOOOOO",
"OOOOOOOOOOOOOOOOOOOOOOOOOOOOOOOOOOOOOOOOOOOOOOOOXXXXXXXX    ++++++++    XXXXXXXXOOOOOOOOOOOOOOOOOOOOOOOOOOOO%%%%OOOOOOOOOOOOOOOO",
"OOOOOOOOOOOOOOOOOOOOOOOOOOOOOOOOOOOOOOOOOOOOOOOOXXXXXXXX    ++++++++    XXXXXXXXOOOOOOOOOOOOOOOOOOOOOOOOOOOO%%%%OOOOOOOOOOOOOOOO",
"OOOOOOOOOOOOOOOOOOOOOOOOOOOOOOOOOOOOOOOOOOOOOOOOXXXXXXXX    ++++++++    XXXXXXXXOOOOOOOOOOOOOOOOOOOOOOOOOOOO%%%%OOOOOOOOOOOOOOOO",
"OOOOOOOOOOOOOOOOOOOOOOOOOOOOOOOOOOOOOOOOOOOOOOOOXXXXXXXX    ++++++++    XXXXXXXXOOOOOOOOOOOOOOOOOOOOOOOOOOOO%%%%OOOOOOOOOOOOOOOO",
"OOOOOOOOOOOOOOOOOOOOOOOOOOOOOOOOOOOOOOOOOOOOOOOOXXXXXXXXXXXX++++++++XXXXXXXXXXXXOOOOOOOOOOOO%%%%%%%%%%%%%%%%OOOOOOOOOOOOOOOOOOOO",
"OOOOOOOOOOOOOOOOOOOOOOOOOOOOOOOOOOOOOOOOOOOOOOOOXXXXXXXXXXXX++++++++XXXXXXXXXXXXOOOOOOOOOOOO%%%%%%%%%%%%%%%%OOOOOOOOOOOOOOOOOOOO",
"OOOOOOOOOOOOOOOOOOOOOOOOOOOOOOOOOOOOOOOOOOOOOOOOXXXXXXXXXXXX++++++++XXXXXXXXXXXXOOOOOOOOOOOO%%%%%%%%%%%%%%%%OOOOOOOOOOOOOOOOOOOO",
"OOOOOOOOOOOOOOOOOOOOOOOOOOOOOOOOOOOOOOOOOOOOOOOOXXXXXXXXXXXX++++++++XXXXXXXXXXXXOOOOOOOOOOOO%%%%%%%%%%%%%%%%OOOOOOOOOOOOOOOOOOOO",
"OOOOOOOOOOOOOOOOOOOOOOOOOOOOOOOOOOOOOOOOOOOOOOOOXXXXXXXXXXXX++++++++XXXXXXXXXXXXOOOOOOOOOOOOOOOOOOOOOOOOOOOOOOOOOOOOOOOOOOOOOOOO",
"OOOOOOOOOOOOOOOOOOOOOOOOOOOOOOOOOOOOOOOOOOOOOOOOXXXXXXXXXXXX++++++++XXXXXXXXXXXXOOOOOOOOOOOOOOOOOOOOOOOOOOOOOOOOOOOOOOOOOOOOOOOO",
"OOOOOOOOOOOOOOOOOOOOOOOOOOOOOOOOOOOOOOOOOOOOOOOOXXXXXXXXXXXX++++++++XXXXXXXXXXXXOOOOOOOOOOOOOOOOOOOOOOOOOOOOOOOOOOOOOOOOOOOOOOOO",
"OOOOOOOOOOOOOOOOOOOOOOOOOOOOOOOOOOOOOOOOOOOOOOOOXXXXXXXXXXXX++++++++XXXXXXXXXXXXOOOOOOOOOOOOOOOOOOOOOOOOOOOOOOOOOOOOOOOOOOOOOOOO",
"OOOOOOOO%%%%OOOOOOOOOOOOOOOOOOOOOOOOOOOOOOOOOOOOXXXXXXXXXXXXXXXXXXXXXXXXXXXXXXXXOOOOOOOOOOOOOOOOOOOOOOOOOOOOOOOOOOOOOOOOOOOOOOOO",
"OOOOOOOO%%%%OOOOOOOOOOOOOOOOOOOOOOOOOOOOOOOOOOOOXXXXXXXXXXXXXXXXXXXXXXXXXXXXXXXXOOOOOOOOOOOOOOOOOOOOOOOOOOOOOOOOOOOOOOOOOOOOOOOO",
"OOOOOOOO%%%%OOOOOOOOOOOOOOOOOOOOOOOOOOOOOOOOOOOOXXXXXXXXXXXXXXXXXXXXXXXXXXXXXXXXOOOOOOOOOOOOOOOOOOOOOOOOOOOOOOOOOOOOOOOOOOOOOOOO",
"OOOOOOOO%%%%OOOOOOOOOOOOOOOOOOOOOOOOOOOOOOOOOOOOXXXXXXXXXXXXXXXXXXXXXXXXXXXXXXXXOOOOOOOOOOOOOOOOOOOOOOOOOOOOOOOOOOOOOOOOOOOOOOOO",
"OOOOOOOO%%%%OOOOOOOOOOOOOOOOOOOOOOOOOOOOOOOOOOOO$$$$XXXXXXXXXXXXXXXXXXXXXXXX$$$$################################################",
"OOOOOOOO%%%%OOOOOOOOOOOOOOOOOOOOOOOOOOOOOOOOOOOO$$$$XXXXXXXXXXXXXXXXXXXXXXXX$$$$################################################",
"OOOOOOOO%%%%OOOOOOOOOOOOOOOOOOOOOOOOOOOOOOOOOOOO$$$$XXXXXXXXXXXXXXXXXXXXXXXX$$$$################################################",
"OOOOOOOO%%%%OOOOOOOOOOOOOOOOOOOOOOOOOOOOOOOOOOOO$$$$XXXXXXXXXXXXXXXXXXXXXXXX$$$$################################################",
"OOOOOOOO%%%%OOOOOOOOOOOOOOOOOOOOOOOOOOOOOOOOOOOOXXXX$$$$XXXXXXXXXXXXXXXX$$$$XXXX################################################",
"OOOOOOOO%%%%OOOOOOOOOOOOOOOOOOOOOOOOOOOOOOOOOOOOXXXX$$$$XXXXXXXXXXXXXXXX$$$$XXXX################################################",
"OOOOOOOO%%%%OOOOOOOOOOOOOOOOOOOOOOOOOOOOOOOOOOOOXXXX$$$$XXXXXXXXXXXXXXXX$$$$XXXX################################################",
"OOOOOOOO%%%%OOOOOOOOOOOOOOOOOOOOOOOOOOOOOOOOOOOOXXXX$$$$XXXXXXXXXXXXXXXX$$$$XXXX################################################",
"OOOOOOOO%%%%%%%%OOOOOOOOOOOOOOOO%%%%OOOOOOOOOOOOXXXXXXXX$$$$XXXXXXXX$$$$XXXXXXXX################################################",
"OOOOOOOO%%%%%%%%OOOOOOOOOOOOOOOO%%%%OOOOOOOOOOOOXXXXXXXX$$$$XXXXXXXX$$$$XXXXXXXX################################################",
"OOOOOOOO%%%%%%%%OOOOOOOOOOOOOOOO%%%%OOOOOOOOOOOOXXXXXXXX$$$$XXXXXXXX$$$$XXXXXXXX################################################",
"OOOOOOOO%%%%%%%%OOOOOOOOOOOOOOOO%%%%OOOOOOOOOOOOXXXXXXXX$$$$XXXXXXXX$$$$XXXXXXXX################################################",
"OOOOOOOOOOOO%%%%OOOOOOOOOOOOOOOO%%%%OOOOOOOOOOOOXXXXXXXXXXXX$$$$$$$$XXXXXXXXXXXXoooooooooooooooooooooooooooooooooooooooooooooooo",
"OOOOOOOOOOOO%%%%OOOOOOOOOOOOOOOO%%%%OOOOOOOOOOOOXXXXXXXXXXXX$$$$$$$$XXXXXXXXXXXXoooooooooooooooooooooooooooooooooooooooooooooooo",
"OOOOOOOOOOOO%%%%OOOOOOOOOOOOOOOO%%%%OOOOOOOOOOOOXXXXXXXXXXXX$$$$$$$$XXXXXXXXXXXXoooooooooooooooooooooooooooooooooooooooooooooooo",
"OOOOOOOOOOOO%%%%OOOOOOOOOOOOOOOO%%%%OOOOOOOOOOOOXXXXXXXXXXXX$$$$$$$$XXXXXXXXXXXXoooooooooooooooooooooooooooooooooooooooooooooooo",
"OOOOOOOOOOOOOOOOOOOOOOOOOOOOOOOO%%%%OOOOOOOOOOOOXXXXXXXXXXXX$$$$$$$$XXXXXXXXXXXXoooooooooooooooooooooooooooooooooooooooooooooooo",
"OOOOOOOOOOOOOOOOOOOOOOOOOOOOOOOO%%%%OOOOOOOOOOOOXXXXXXXXXXXX$$$$$$$$XXXXXXXXXXXXoooooooooooooooooooooooooooooooooooooooooooooooo",
"OOOOOOOOOOOOOOOOOOOOOOOOOOOOOOOO%%%%OOOOOOOOOOOOXXXXXXXXXXXX$$$$$$$$XXXXXXXXXXXXoooooooooooooooooooooooooooooooooooooooooooooooo",
"OOOOOOOOOOOOOOOOOOOOOOOOOOOOOOOO%%%%OOOOOOOOOOOOXXXXXXXXXXXX$$$$$$$$XXXXXXXXXXXXoooooooooooooooooooooooooooooooooooooooooooooooo",
"OOOOOOOOOOOOOOOOOOOOOOOOOOOO%%%%OOOOOOOOOOOOOOOOXXXXXXXXXXXXXXXXXXXXXXXXXXXXXXXXoooooooo@@@@@@@@oooooooooooooooooooooooooooooooo",
"OOOOOOOOOOOOOOOOOOOOOOOOOOOO%%%%OOOOOOOOOOOOOOOOXXXXXXXXXXXXXXXXXXXXXXXXXXXXXXXXoooooooo@@@@@@@@oooooooooooooooooooooooooooooooo",
"OOOOOOOOOOOOOOOOOOOOOOOOOOOO%%%%OOOOOOOOOOOOOOOOXXXXXXXXXXXXXXXXXXXXXXXXXXXXXXXXoooooooo@@@@@@@@oooooooooooooooooooooooooooooooo",
"OOOOOOOOOOOOOOOOOOOOOOOOOOOO%%%%OOOOOOOOOOOOOOOOXXXXXXXXXXXXXXXXXXXXXXXXXXXXXXXXoooooooo@@@@@@@@oooooooooooooooooooooooooooooooo",
"OOOOOOOOOOOOOOOOOOOOOOOOOOOOOOOOOOOOOOOOOOOO....XXXXXXXXXXXXXXXXXXXXXXXXXXXXXXXXoooooooooooo@@@@oooooooooooooooooooo@@@@oooooooo",
"OOOOOOOOOOOOOOOOOOOOOOOOOOOOOOOOOOOOOOOOOOOO....XXXXXXXXXXXXXXXXXXXXXXXXXXXXXXXXoooooooooooo@@@@oooooooooooooooooooo@@@@oooooooo",
"OOOOOOOOOOOOOOOOOOOOOOOOOOOOOOOOOOOOOOOOOOOO....XXXXXXXXXXXXXXXXXXXXXXXXXXXXXXXXoooooooooooo@@@@oooooooooooooooooooo@@@@oooooooo",
"OOOOOOOOOOOOOOOOOOOOOOOOOOOOOOOOOOOOOOOOOOOO....XXXXXXXXXXXXXXXXXXXXXXXXXXXXXXXXoooooooooooo@@@@oooooooooooooooooooo@@@@oooooooo",
"OOOOOOOOOOOOOOOOOOOOOOOOOOOOOOOOOOOO............XXXXXXXXXXXXXXXXXXXXXXXXXXXXXXXXoooooooooooo@@@@@@@@oooooooooooooooo@@@@oooooooo",
"OOOOOOOOOOOOOOOOOOOOOOOOOOOOOOOOOOOO............XXXXXXXXXXXXXXXXXXXXXXXXXXXXXXXXoooooooooooo@@@@@@@@oooooooooooooooo@@@@oooooooo",
"OOOOOOOOOOOOOOOOOOOOOOOOOOOOOOOOOOOO............XXXXXXXXXXXXXXXXXXXXXXXXXXXXXXXXoooooooooooo@@@@@@@@oooooooooooooooo@@@@oooooooo",
"OOOOOOOOOOOOOOOOOOOOOOOOOOOOOOOOOOOO............XXXXXXXXXXXXXXXXXXXXXXXXXXXXXXXXoooooooooooo@@@@@@@@oooooooooooooooo@@@@oooooooo",
"OOOOOOOOOOOOOOOOOOOOOOOOOOOOOOOO................XXXXXXXXXXXXXXXXXXXXXXXXXXXXXXXXoooooooooooooooooooooooooooooooooooo@@@@@@@@oooo",
"OOOOOOOOOOOOOOOOOOOOOOOOOOOOOOOO................XXXXXXXXXXXXXXXXXXXXXXXXXXXXXXXXoooooooooooooooooooooooooooooooooooo@@@@@@@@oooo",
"OOOOOOOOOOOOOOOOOOOOOOOOOOOOOOOO................XXXXXXXXXXXXXXXXXXXXXXXXXXXXXXXXoooooooooooooooooooooooooooooooooooo@@@@@@@@oooo",
"OOOOOOOOOOOOOOOOOOOOOOOOOOOOOOOO................XXXXXXXXXXXXXXXXXXXXXXXXXXXXXXXXoooooooooooooooooooooooooooooooooooo@@@@@@@@oooo",
"OOOOOOOOOOOOOOOOOOOOOOOOOOOOOOOOOOOOOOOOOOOOOOOOXXXXXXXXXXXXXXXXXXXXXXXXXXXXoooooooooooooooooooooooooooooooooooooooooooooooooooo",
"OOOOOOOOOOOOOOOOOOOOOOOOOOOOOOOOOOOOOOOOOOOOOOOOXXXXXXXXXXXXXXXXXXXXXXXXXXXXoooooooooooooooooooooooooooooooooooooooooooooooooooo",
"OOOOOOOOOOOOOOOOOOOOOOOOOOOOOOOOOOOOOOOOOOOOOOOOXXXXXXXXXXXXXXXXXXXXXXXXXXXXoooooooooooooooooooooooooooooooooooooooooooooooooooo",
"OOOOOOOOOOOOOOOOOOOOOOOOOOOOOOOOOOOOOOOOOOOOOOOOXXXXXXXXXXXXXXXXXXXXXXXXXXXXoooooooooooooooooooooooooooooooooooooooooooooooooooo",
"OOOOOOOOOOOOOOOOOOOOOOOOOOOOOOOOOOOOOOOOOOOOXXXXXXXXXXXXXXXXXXXXXXXXXXXXXXXXoooooooooooooooooooooooooooooooooooooooooooooooooooo",
"OOOOOOOOOOOOOOOOOOOOOOOOOOOOOOOOOOOOOOOOOOOOXXXXXXXXXXXXXXXXXXXXXXXXXXXXXXXXoooooooooooooooooooooooooooooooooooooooooooooooooooo",
"OOOOOOOOOOOOOOOOOOOOOOOOOOOOOOOOOOOOOOOOOOOOXXXXXXXXXXXXXXXXXXXXXXXXXXXXXXXXoooooooooooooooooooooooooooooooooooooooooooooooooooo",
"OOOOOOOOOOOOOOOOOOOOOOOOOOOOOOOOOOOOOOOOOOOOXXXXXXXXXXXXXXXXXXXXXXXXXXXXXXXXoooooooooooooooooooooooooooooooooooooooooooooooooooo",
"OOOOOOOOOOOOOOOOOOOOOOOOOOOOOOOOOOOOXXXXXXXXXXXX$$$$XXXXXXXXXXXXXXXXoooooooooooooooooooooooooooooooooooooooooooooooooooooooooooo",
"OOOOOOOOOOOOOOOOOOOOOOOOOOOOOOOOOOOOXXXXXXXXXXXX$$$$XXXXXXXXXXXXXXXXoooooooooooooooooooooooooooooooooooooooooooooooooooooooooooo",
"OOOOOOOOOOOOOOOOOOOOOOOOOOOOOOOOOOOOXXXXXXXXXXXX$$$$XXXXXXXXXXXXXXXXoooooooooooooooooooooooooooooooooooooooooooooooooooooooooooo",
"OOOOOOOOOOOOOOOOOOOOOOOOOOOOOOOOOOOOXXXXXXXXXXXX$$$$XXXXXXXXXXXXXXXXoooooooooooooooooooooooooooooooooooooooooooooooooooooooooooo",
"OOOOOOOOOOOOOOOOOOOOOOOOOOOOOOOOXXXXXXXXXXXXXXXXXXXXXXXX++++++++####oooooooooooooooooooo@@@@@@@@@@@@@@@@oooooooooooooooooooooooo",
"OOOOOOOOOOOOOOOOOOOOOOOOOOOOOOOOXXXXXXXXXXXXXXXXXXXXXXXX++++++++####oooooooooooooooooooo@@@@@@@@@@@@@@@@oooooooooooooooooooooooo",
"OOOOOOOOOOOOOOOOOOOOOOOOOOOOOOOOXXXXXXXXXXXXXXXXXXXXXXXX++++++++####oooooooooooooooooooo@@@@@@@@@@@@@@@@oooooooooooooooooooooooo",
"OOOOOOOOOOOOOOOOOOOOOOOOOOOOOOOOXXXXXXXXXXXXXXXXXXXXXXXX++++++++####oooooooooooooooooooo@@@@@@@@@@@@@@@@oooooooooooooooooooooooo",
"OOOOOOOOOOOOOOOO%%%%OOOOOOOOOOOOOOOOOOOOOOOOOOOOOOOOOOOO############oooooooooooooooooooooooooooooooooooooooooooooooooooooooooooo",
"OOOOOOOOOOOOOOOO%%%%OOOOOOOOOOOOOOOOOOOOOOOOOOOOOOOOOOOO############oooooooooooooooooooooooooooooooooooooooooooooooooooooooooooo",
"OOOOOOOOOOOOOOOO%%%%OOOOOOOOOOOOOOOOOOOOOOOOOOOOOOOOOOOO############oooooooooooooooooooooooooooooooooooooooooooooooooooooooooooo",
"OOOOOOOOOOOOOOOO%%%%OOOOOOOOOOOOOOOOOOOOOOOOOOOOOOOOOOOO############oooooooooooooooooooooooooooooooooooooooooooooooooooooooooooo",
"OOOOOOOOOOOOOOOO%%%%OOOOOOOOOOOOOOOOOOOOOOOOOOOOOOOOOOOO############oooooooooooooooooooooooooooooooooooooooooooo@@@@oooooooooooo",
"OOOOOOOOOOOOOOOO%%%%OOOOOOOOOOOOOOOOOOOOOOOOOOOOOOOOOOOO############oooooooooooooooooooooooooooooooooooooooooooo@@@@oooooooooooo",
"OOOOOOOOOOOOOOOO%%%%OOOOOOOOOOOOOOOOOOOOOOOOOOOOOOOOOOOO############oooooooooooooooooooooooooooooooooooooooooooo@@@@oooooooooooo",
"OOOOOOOOOOOOOOOO%%%%OOOOOOOOOOOOOOOOOOOOOOOOOOOOOOOOOOOO############oooooooooooooooooooooooooooooooooooooooooooo@@@@oooooooooooo",
"OOOOOOOOOOOOOOOOOOOO%%%%%%%%OOOOOOOOOOOOOOOOOOOOOOOOOOOO############oooooooo@@@@@@@@@@@@oooooooooooooooooooo@@@@oooooooooooooooo",
"OOOOOOOOOOOOOOOOOOOO%%%%%%%%OOOOOOOOOOOOOOOOOOOOOOOOOOOO############oooooooo@@@@@@@@@@@@oooooooooooooooooooo@@@@oooooooooooooooo",
"OOOOOOOOOOOOOOOOOOOO%%%%%%%%OOOOOOOOOOOOOOOOOOOOOOOOOOOO############oooooooo@@@@@@@@@@@@oooooooooooooooooooo@@@@oooooooooooooooo",
"OOOOOOOOOOOOOOOOOOOO%%%%%%%%OOOOOOOOOOOOOOOOOOOOOOOOOOOO############oooooooo@@@@@@@@@@@@oooooooooooooooooooo@@@@oooooooooooooooo",
"OOOOOOOOOOOOOOOOOOOOOOOO%%%%OOOOOOOOOOOOOOOOOOOOOOOOOOOO############oooooooooooooooooooooooo@@@@@@@@@@@@@@@@oooo@@@@oooooooooooo",
"OOOOOOOOOOOOOOOOOOOOOOOO%%%%OOOOOOOOOOOOOOOOOOOOOOOOOOOO############oooooooooooooooooooooooo@@@@@@@@@@@@@@@@oooo@@@@oooooooooooo",
"OOOOOOOOOOOOOOOOOOOOOOOO%%%%OOOOOOOOOOOOOOOOOOOOOOOOOOOO############oooooooooooooooooooooooo@@@@@@@@@@@@@@@@oooo@@@@oooooooooooo",
"OOOOOOOOOOOOOOOOOOOOOOOO%%%%OOOOOOOOOOOOOOOOOOOOOOOOOOOO############oooooooooooooooooooooooo@@@@@@@@@@@@@@@@oooo@@@@oooooooooooo",
"OOOOOOOOOOOOOOOOOOOOOOOOOOOOOOOOOOOOOOOOOOOOOOOOOOOOOOOO############oooooooooooooooooooooooooooooooooooooooooooooooooooooooooooo",
"OOOOOOOOOOOOOOOOOOOOOOOOOOOOOOOOOOOOOOOOOOOOOOOOOOOOOOOO############oooooooooooooooooooooooooooooooooooooooooooooooooooooooooooo",
"OOOOOOOOOOOOOOOOOOOOOOOOOOOOOOOOOOOOOOOOOOOOOOOOOOOOOOOO############oooooooooooooooooooooooooooooooooooooooooooooooooooooooooooo",
"OOOOOOOOOOOOOOOOOOOOOOOOOOOOOOOOOOOOOOOOOOOOOOOOOOOOOOOO############oooooooooooooooooooooooooooooooooooooooooooooooooooooooooooo"
};
