/* XPM */
static char *result[] = {
/* columns rows colors chars-per-pixel */
"128 128 4 1 ",
"  c black",
". c #4C2269",
"X c #702BA1",
"o c None",
/* pixels */
"oooooooooooooooooooooooooooooooooooooooooooooooooooooooooooooooooooooooooooooooooooooooooooooooooooooooooooooooooooooooooooooooo",
"oooooooooooooooooooooooooooooooooooooooooooooooooooooooooooooooooooooooooooooooooooooooooooooooooooooooooooooooooooooooooooooooo",
"oooooooooooooooooooooooooooooooooooooooooooooooooooooooooooooooooooooooooooooooooooooooooooooooooooooooooooooooooooooooooooooooo",
"oooooooooooooooooooooooooooooooooooooooooooooooooooooooooooooooooooooooooooooooooooooooooooooooooooooooooooooooooooooooooooooooo",
"oooooooooooooooooooooooooooooooooooooooooooooooooooooooooooooooooooooooooooooooooooooooooooooooooooooooooooooooooooooooooooooooo",
"oooooooooooooooooooooooooooooooooooooooooooooooooooooooooooooooooooooooooooooooooooooooooooooooooooooooooooooooooooooooooooooooo",
"oooooooooooooooooooooooooooooooooooooooooooooooooooooooooooooooooooooooooooooooooooooooooooooooooooooooooooooooooooooooooooooooo",
"oooooooooooooooooooooooooooooooooooooooooooooooooooooooooooooooooooooooooooooooooooooooooooooooooooooooooooooooooooooooooooooooo",
"oooooooooooooooooooooooooooooooooooooooooooooooooooooooooooooooooooooooooooooooooooooooooooooooooooooooooooooooooooooooooooooooo",
"oooooooooooooooooooooooooooooooooooooooooooooooooooooooooooooooooooooooooooooooooooooooooooooooooooooooooooooooooooooooooooooooo",
"oooooooooooooooooooooooooooooooooooooooooooooooooooooooooooooooooooooooooooooooooooooooooooooooooooooooooooooooooooooooooooooooo",
"oooooooooooooooooooooooooooooooooooooooooooooooooooooooooooooooooooooooooooooooooooooooooooooooooooooooooooooooooooooooooooooooo",
"oooooooooooooooooooooooooooooooooooooooooooooooooooooooooooooooooooooooooooooooooooooooooooooooooooooooooooooooooooooooooooooooo",
"oooooooooooooooooooooooooooooooooooooooooooooooooooooooooooooooooooooooooooooooooooooooooooooooooooooooooooooooooooooooooooooooo",
"oooooooooooooooooooooooooooooooooooooooooooooooooooooooooooooooooooooooooooooooooooooooooooooooooooooooooooooooooooooooooooooooo",
"oooooooooooooooooooooooooooooooooooooooooooooooooooooooooooooooooooooooooooooooooooooooooooooooooooooooooooooooooooooooooooooooo",
"oooooooooooooooooooooooooooooooooooooooooooooooooooooooooooooooooooooooooooooooooooooooooooooooooooooooooooooooooooooooooooooooo",
"oooooooooooooooooooooooooooooooooooooooooooooooooooooooooooooooooooooooooooooooooooooooooooooooooooooooooooooooooooooooooooooooo",
"oooooooooooooooooooooooooooooooooooooooooooooooooooooooooooooooooooooooooooooooooooooooooooooooooooooooooooooooooooooooooooooooo",
"oooooooooooooooooooooooooooooooooooooooooooooooooooooooooooooooooooooooooooooooooooooooooooooooooooooooooooooooooooooooooooooooo",
"oooooooooooooooooooooooooooooooooooooooooooooooooooooooo....oooooooooooooooooooooooooooooooooooooooooooooooooooooooooooooooooooo",
"oooooooooooooooooooooooooooooooooooooooooooooooooooooooo....oooooooooooooooooooooooooooooooooooooooooooooooooooooooooooooooooooo",
"oooooooooooooooooooooooooooooooooooooooooooooooooooooooo....oooooooooooooooooooooooooooooooooooooooooooooooooooooooooooooooooooo",
"oooooooooooooooooooooooooooooooooooooooooooooooooooooooo....oooooooooooooooooooooooooooooooooooooooooooooooooooooooooooooooooooo",
"ooooooooooooooooooooooooooooooooooooooooooooooooooooooooooooooooXXXXXXXXoooooooooooooooooooooooooooooooooooooooooooooooooooooooo",
"ooooooooooooooooooooooooooooooooooooooooooooooooooooooooooooooooXXXXXXXXoooooooooooooooooooooooooooooooooooooooooooooooooooooooo",
"ooooooooooooooooooooooooooooooooooooooooooooooooooooooooooooooooXXXXXXXXoooooooooooooooooooooooooooooooooooooooooooooooooooooooo",
"ooooooooooooooooooooooooooooooooooooooooooooooooooooooooooooooooXXXXXXXXoooooooooooooooooooooooooooooooooooooooooooooooooooooooo",
"oooooooooooooooooooooooooooooooooooooooooooooooooooooooo....oooooooooooo....                    oooooooooooooooooooooooooooooooo",
"oooooooooooooooooooooooooooooooooooooooooooooooooooooooo....oooooooooooo....                    oooooooooooooooooooooooooooooooo",
"oooooooooooooooooooooooooooooooooooooooooooooooooooooooo....oooooooooooo....                    oooooooooooooooooooooooooooooooo",
"oooooooooooooooooooooooooooooooooooooooooooooooooooooooo....oooooooooooo....                    oooooooooooooooooooooooooooooooo",
"oooooooooooooooooooooooooooooooooooooooooooooooooooooooo............XXXXXXXX    XXXXXXXXXXXXXXXX        oooooooooooooooooooooooo",
"oooooooooooooooooooooooooooooooooooooooooooooooooooooooo............XXXXXXXX    XXXXXXXXXXXXXXXX        oooooooooooooooooooooooo",
"oooooooooooooooooooooooooooooooooooooooooooooooooooooooo............XXXXXXXX    XXXXXXXXXXXXXXXX        oooooooooooooooooooooooo",
"oooooooooooooooooooooooooooooooooooooooooooooooooooooooo............XXXXXXXX    XXXXXXXXXXXXXXXX        oooooooooooooooooooooooo",
"oooooooooooo                            oooooooooooooooooooooooooooooooo    XXXXXXXX    XXXXXXXXXXXXXXXX    oooooooooooooooooooo",
"oooooooooooo                            oooooooooooooooooooooooooooooooo    XXXXXXXX    XXXXXXXXXXXXXXXX    oooooooooooooooooooo",
"oooooooooooo                            oooooooooooooooooooooooooooooooo    XXXXXXXX    XXXXXXXXXXXXXXXX    oooooooooooooooooooo",
"oooooooooooo                            oooooooooooooooooooooooooooooooo    XXXXXXXX    XXXXXXXXXXXXXXXX    oooooooooooooooooooo",
"oooooooo    XXXXXXXXXXXXXXXXXXXXXXXXXXXX                        oooo        XXXXXXXXXXXXXXXXXXXXXXXXXXXXXXXX    oooooooooooooooo",
"oooooooo    XXXXXXXXXXXXXXXXXXXXXXXXXXXX                        oooo        XXXXXXXXXXXXXXXXXXXXXXXXXXXXXXXX    oooooooooooooooo",
"oooooooo    XXXXXXXXXXXXXXXXXXXXXXXXXXXX                        oooo        XXXXXXXXXXXXXXXXXXXXXXXXXXXXXXXX    oooooooooooooooo",
"oooooooo    XXXXXXXXXXXXXXXXXXXXXXXXXXXX                        oooo        XXXXXXXXXXXXXXXXXXXXXXXXXXXXXXXX    oooooooooooooooo",
"oooooooo    XXXXXXXXXXXXXXXXXXXXXXXXXXXXXXXXXXXXXXXXXXXXXXXXXXXX        XXXXXXXXXXXXXXXXXXXXXXXX            oooooooooooooooooooo",
"oooooooo    XXXXXXXXXXXXXXXXXXXXXXXXXXXXXXXXXXXXXXXXXXXXXXXXXXXX        XXXXXXXXXXXXXXXXXXXXXXXX            oooooooooooooooooooo",
"oooooooo    XXXXXXXXXXXXXXXXXXXXXXXXXXXXXXXXXXXXXXXXXXXXXXXXXXXX        XXXXXXXXXXXXXXXXXXXXXXXX            oooooooooooooooooooo",
"oooooooo    XXXXXXXXXXXXXXXXXXXXXXXXXXXXXXXXXXXXXXXXXXXXXXXXXXXX        XXXXXXXXXXXXXXXXXXXXXXXX            oooooooooooooooooooo",
"oooooooooooo        XXXXXXXXXXXXXXXXXXXXXXXXXXXXXXXXXXXXXXXXXXXXXXXX    XXXXXXXXXXXXXXXX        oooooooooooooooooooooooooooooooo",
"oooooooooooo        XXXXXXXXXXXXXXXXXXXXXXXXXXXXXXXXXXXXXXXXXXXXXXXX    XXXXXXXXXXXXXXXX        oooooooooooooooooooooooooooooooo",
"oooooooooooo        XXXXXXXXXXXXXXXXXXXXXXXXXXXXXXXXXXXXXXXXXXXXXXXX    XXXXXXXXXXXXXXXX        oooooooooooooooooooooooooooooooo",
"oooooooooooo        XXXXXXXXXXXXXXXXXXXXXXXXXXXXXXXXXXXXXXXXXXXXXXXX    XXXXXXXXXXXXXXXX        oooooooooooooooooooooooooooooooo",
"oooooooooooooooooooo        XXXXXXXXXXXXXXXXXXXXXXXXXXXXXXXXXXXXXXXXXXXXXXXXXXXXXXXX    oooooooooooooooooooooooooooooooooooooooo",
"oooooooooooooooooooo        XXXXXXXXXXXXXXXXXXXXXXXXXXXXXXXXXXXXXXXXXXXXXXXXXXXXXXXX    oooooooooooooooooooooooooooooooooooooooo",
"oooooooooooooooooooo        XXXXXXXXXXXXXXXXXXXXXXXXXXXXXXXXXXXXXXXXXXXXXXXXXXXXXXXX    oooooooooooooooooooooooooooooooooooooooo",
"oooooooooooooooooooo        XXXXXXXXXXXXXXXXXXXXXXXXXXXXXXXXXXXXXXXXXXXXXXXXXXXXXXXX    oooooooooooooooooooooooooooooooooooooooo",
"oooooooooooooooooooooooooooo        XXXXXXXXXXXXXXXXXXXXXXXXXXXXXXXXXXXXXXXXXXXXXXXX....    oooooooooooooooooooooooooooooooooooo",
"oooooooooooooooooooooooooooo        XXXXXXXXXXXXXXXXXXXXXXXXXXXXXXXXXXXXXXXXXXXXXXXX....    oooooooooooooooooooooooooooooooooooo",
"oooooooooooooooooooooooooooo        XXXXXXXXXXXXXXXXXXXXXXXXXXXXXXXXXXXXXXXXXXXXXXXX....    oooooooooooooooooooooooooooooooooooo",
"oooooooooooooooooooooooooooo        XXXXXXXXXXXXXXXXXXXXXXXXXXXXXXXXXXXXXXXXXXXXXXXX....    oooooooooooooooooooooooooooooooooooo",
"oooooooooooooooooooooooooooooooooooo    XXXXXXXXXXXXXXXXXXXXXXXXXXXXXXXXXXXXXXXXXXXX........    oooooooooooooooooooooooooooooooo",
"oooooooooooooooooooooooooooooooooooo    XXXXXXXXXXXXXXXXXXXXXXXXXXXXXXXXXXXXXXXXXXXX........    oooooooooooooooooooooooooooooooo",
"oooooooooooooooooooooooooooooooooooo    XXXXXXXXXXXXXXXXXXXXXXXXXXXXXXXXXXXXXXXXXXXX........    oooooooooooooooooooooooooooooooo",
"oooooooooooooooooooooooooooooooooooo    XXXXXXXXXXXXXXXXXXXXXXXXXXXXXXXXXXXXXXXXXXXX........    oooooooooooooooooooooooooooooooo",
"oooooooooooooooooooooooooooooooooooooooo        XXXXXXXXXXXXXXXXXXXXXXXXXXXXXXXX................    oooooooooooooooooooooooooooo",
"oooooooooooooooooooooooooooooooooooooooo        XXXXXXXXXXXXXXXXXXXXXXXXXXXXXXXX................    oooooooooooooooooooooooooooo",
"oooooooooooooooooooooooooooooooooooooooo        XXXXXXXXXXXXXXXXXXXXXXXXXXXXXXXX................    oooooooooooooooooooooooooooo",
"oooooooooooooooooooooooooooooooooooooooo        XXXXXXXXXXXXXXXXXXXXXXXXXXXXXXXX................    oooooooooooooooooooooooooooo",
"oooooooooooooooooooooooooooooooooooooooooooo    XXXXXXXXXXXXXXXXXXXXXXXXXXXX....................    oooooooooooooooooooooooooooo",
"oooooooooooooooooooooooooooooooooooooooooooo    XXXXXXXXXXXXXXXXXXXXXXXXXXXX....................    oooooooooooooooooooooooooooo",
"oooooooooooooooooooooooooooooooooooooooooooo    XXXXXXXXXXXXXXXXXXXXXXXXXXXX....................    oooooooooooooooooooooooooooo",
"oooooooooooooooooooooooooooooooooooooooooooo    XXXXXXXXXXXXXXXXXXXXXXXXXXXX....................    oooooooooooooooooooooooooooo",
"oooooooooooooooooooo............oooooooooooo        XXXXXXXXXXXXXXXXXXXXXXXX........................    oooooooooooooooooooooooo",
"oooooooooooooooooooo............oooooooooooo        XXXXXXXXXXXXXXXXXXXXXXXX........................    oooooooooooooooooooooooo",
"oooooooooooooooooooo............oooooooooooo        XXXXXXXXXXXXXXXXXXXXXXXX........................    oooooooooooooooooooooooo",
"oooooooooooooooooooo............oooooooooooo        XXXXXXXXXXXXXXXXXXXXXXXX........................    oooooooooooooooooooooooo",
"ooooooooooooooooXXXXXXXXXXXXXXXXXXXX        XXXXXXXXXXXXXXXXXXXXXXXXXXXX................................    oooooooooooooooooooo",
"ooooooooooooooooXXXXXXXXXXXXXXXXXXXX        XXXXXXXXXXXXXXXXXXXXXXXXXXXX................................    oooooooooooooooooooo",
"ooooooooooooooooXXXXXXXXXXXXXXXXXXXX        XXXXXXXXXXXXXXXXXXXXXXXXXXXX................................    oooooooooooooooooooo",
"ooooooooooooooooXXXXXXXXXXXXXXXXXXXX        XXXXXXXXXXXXXXXXXXXXXXXXXXXX................................    oooooooooooooooooooo",
"ooooooooooooooooooooooooooooooooXXXX    XXXXXXXXXXXXXXXXXXXX............        ........................    oooooooooooooooooooo",
"ooooooooooooooooooooooooooooooooXXXX    XXXXXXXXXXXXXXXXXXXX............        ........................    oooooooooooooooooooo",
"ooooooooooooooooooooooooooooooooXXXX    XXXXXXXXXXXXXXXXXXXX............        ........................    oooooooooooooooooooo",
"ooooooooooooooooooooooooooooooooXXXX    XXXXXXXXXXXXXXXXXXXX............        ........................    oooooooooooooooooooo",
"oooooooooooooooooooo....oooooooooooo                XXXXXXXX            oooooooo    ........................    oooooooooooooooo",
"oooooooooooooooooooo....oooooooooooo                XXXXXXXX            oooooooo    ........................    oooooooooooooooo",
"oooooooooooooooooooo....oooooooooooo                XXXXXXXX            oooooooo    ........................    oooooooooooooooo",
"oooooooooooooooooooo....oooooooooooo                XXXXXXXX            oooooooo    ........................    oooooooooooooooo",
"ooooooooooooooooooooXXXXXXXXoooooooooooooooooooo                oooooooooooooooooooo    ....................    oooooooooooooooo",
"ooooooooooooooooooooXXXXXXXXoooooooooooooooooooo                oooooooooooooooooooo    ....................    oooooooooooooooo",
"ooooooooooooooooooooXXXXXXXXoooooooooooooooooooo                oooooooooooooooooooo    ....................    oooooooooooooooo",
"ooooooooooooooooooooXXXXXXXXoooooooooooooooooooo                oooooooooooooooooooo    ....................    oooooooooooooooo",
"oooooooooooooooooooooooooooooooooooooooooooo............oooooooooooooooooooooooooooooooo    ....................    oooooooooooo",
"oooooooooooooooooooooooooooooooooooooooooooo............oooooooooooooooooooooooooooooooo    ....................    oooooooooooo",
"oooooooooooooooooooooooooooooooooooooooooooo............oooooooooooooooooooooooooooooooo    ....................    oooooooooooo",
"oooooooooooooooooooooooooooooooooooooooooooo............oooooooooooooooooooooooooooooooo    ....................    oooooooooooo",
"oooooooooooooooooooooooooooooooooooo........oooo........oooooooooooooooooooooooooooooooooooo        ............    oooooooooooo",
"oooooooooooooooooooooooooooooooooooo........oooo........oooooooooooooooooooooooooooooooooooo        ............    oooooooooooo",
"oooooooooooooooooooooooooooooooooooo........oooo........oooooooooooooooooooooooooooooooooooo        ............    oooooooooooo",
"oooooooooooooooooooooooooooooooooooo........oooo........oooooooooooooooooooooooooooooooooooo        ............    oooooooooooo",
"oooooooooooooooooooooooo............ooooooooooooooooXXXXXXXXoooooooooooooooooooooooooooooooooooooooo                oooooooooooo",
"oooooooooooooooooooooooo............ooooooooooooooooXXXXXXXXoooooooooooooooooooooooooooooooooooooooo                oooooooooooo",
"oooooooooooooooooooooooo............ooooooooooooooooXXXXXXXXoooooooooooooooooooooooooooooooooooooooo                oooooooooooo",
"oooooooooooooooooooooooo............ooooooooooooooooXXXXXXXXoooooooooooooooooooooooooooooooooooooooo                oooooooooooo",
"oooooooooooooooooooooooooooo....XXXXooooooooXXXXXXXXXXXXoooooooooooooooooooooooooooooooooooooooooooooooooooooooooooooooooooooooo",
"oooooooooooooooooooooooooooo....XXXXooooooooXXXXXXXXXXXXoooooooooooooooooooooooooooooooooooooooooooooooooooooooooooooooooooooooo",
"oooooooooooooooooooooooooooo....XXXXooooooooXXXXXXXXXXXXoooooooooooooooooooooooooooooooooooooooooooooooooooooooooooooooooooooooo",
"oooooooooooooooooooooooooooo....XXXXooooooooXXXXXXXXXXXXoooooooooooooooooooooooooooooooooooooooooooooooooooooooooooooooooooooooo",
"oooooooooooooooooooo........XXXXoooooooooooooooooooooooooooooooooooooooooooooooooooooooooooooooooooooooooooooooooooooooooooooooo",
"oooooooooooooooooooo........XXXXoooooooooooooooooooooooooooooooooooooooooooooooooooooooooooooooooooooooooooooooooooooooooooooooo",
"oooooooooooooooooooo........XXXXoooooooooooooooooooooooooooooooooooooooooooooooooooooooooooooooooooooooooooooooooooooooooooooooo",
"oooooooooooooooooooo........XXXXoooooooooooooooooooooooooooooooooooooooooooooooooooooooooooooooooooooooooooooooooooooooooooooooo",
"oooooooooooooooooooooooooooooooooooooooooooooooooooooooooooooooooooooooooooooooooooooooooooooooooooooooooooooooooooooooooooooooo",
"oooooooooooooooooooooooooooooooooooooooooooooooooooooooooooooooooooooooooooooooooooooooooooooooooooooooooooooooooooooooooooooooo",
"oooooooooooooooooooooooooooooooooooooooooooooooooooooooooooooooooooooooooooooooooooooooooooooooooooooooooooooooooooooooooooooooo",
"oooooooooooooooooooooooooooooooooooooooooooooooooooooooooooooooooooooooooooooooooooooooooooooooooooooooooooooooooooooooooooooooo",
"oooooooooooooooooooooooooooooooooooooooooooooooooooooooooooooooooooooooooooooooooooooooooooooooooooooooooooooooooooooooooooooooo",
"oooooooooooooooooooooooooooooooooooooooooooooooooooooooooooooooooooooooooooooooooooooooooooooooooooooooooooooooooooooooooooooooo",
"oooooooooooooooooooooooooooooooooooooooooooooooooooooooooooooooooooooooooooooooooooooooooooooooooooooooooooooooooooooooooooooooo",
"oooooooooooooooooooooooooooooooooooooooooooooooooooooooooooooooooooooooooooooooooooooooooooooooooooooooooooooooooooooooooooooooo",
"oooooooooooooooooooooooooooooooooooooooooooooooooooooooooooooooooooooooooooooooooooooooooooooooooooooooooooooooooooooooooooooooo",
"oooooooooooooooooooooooooooooooooooooooooooooooooooooooooooooooooooooooooooooooooooooooooooooooooooooooooooooooooooooooooooooooo",
"oooooooooooooooooooooooooooooooooooooooooooooooooooooooooooooooooooooooooooooooooooooooooooooooooooooooooooooooooooooooooooooooo",
"oooooooooooooooooooooooooooooooooooooooooooooooooooooooooooooooooooooooooooooooooooooooooooooooooooooooooooooooooooooooooooooooo",
"oooooooooooooooooooooooooooooooooooooooooooooooooooooooooooooooooooooooooooooooooooooooooooooooooooooooooooooooooooooooooooooooo",
"oooooooooooooooooooooooooooooooooooooooooooooooooooooooooooooooooooooooooooooooooooooooooooooooooooooooooooooooooooooooooooooooo",
"oooooooooooooooooooooooooooooooooooooooooooooooooooooooooooooooooooooooooooooooooooooooooooooooooooooooooooooooooooooooooooooooo",
"oooooooooooooooooooooooooooooooooooooooooooooooooooooooooooooooooooooooooooooooooooooooooooooooooooooooooooooooooooooooooooooooo"
};
