/* XPM */
static char *result[] = {
/* columns rows colors chars-per-pixel */
"128 128 4 1 ",
"  c black",
". c #4C2269",
"X c #702BA1",
"o c None",
/* pixels */
"oooooooooooooooooooooooooooooooooooooooooooooooooooooooooooooooooooooooooooooooooooooooooooooooooooooooooooooooooooooooooooooooo",
"oooooooooooooooooooooooooooooooooooooooooooooooooooooooooooooooooooooooooooooooooooooooooooooooooooooooooooooooooooooooooooooooo",
"oooooooooooooooooooooooooooooooooooooooooooooooooooooooooooooooooooooooooooooooooooooooooooooooooooooooooooooooooooooooooooooooo",
"oooooooooooooooooooooooooooooooooooooooooooooooooooooooooooooooooooooooooooooooooooooooooooooooooooooooooooooooooooooooooooooooo",
"oooooooooooooooooooooooooooooooooooooooooooooooooooooooooooooooooooooooooooooooooooooooooooooooooooooooooooooooooooooooooooooooo",
"oooooooooooooooooooooooooooooooooooooooooooooooooooooooooooooooooooooooooooooooooooooooooooooooooooooooooooooooooooooooooooooooo",
"oooooooooooooooooooooooooooooooooooooooooooooooooooooooooooooooooooooooooooooooooooooooooooooooooooooooooooooooooooooooooooooooo",
"oooooooooooooooooooooooooooooooooooooooooooooooooooooooooooooooooooooooooooooooooooooooooooooooooooooooooooooooooooooooooooooooo",
"oooooooooooooooooooooooooooooooooooooooooooooooooooooooooooooooooooooooooooooooooooooooooooooooooooooooooooooooooooooooooooooooo",
"oooooooooooooooooooooooooooooooooooooooooooooooooooooooooooooooooooooooooooooooooooooooooooooooooooooooooooooooooooooooooooooooo",
"oooooooooooooooooooooooooooooooooooooooooooooooooooooooooooooooooooooooooooooooooooooooooooooooooooooooooooooooooooooooooooooooo",
"oooooooooooooooooooooooooooooooooooooooooooooooooooooooooooooooooooooooooooooooooooooooooooooooooooooooooooooooooooooooooooooooo",
"oooooooooooooooooooooooooooooooooooooooooooooooooooooooooooooooooooooooooooooooooooooooooooooooooooooooooooooooooooooooooooooooo",
"oooooooooooooooooooooooooooooooooooooooooooooooooooooooooooooooooooooooooooooooooooooooooooooooooooooooooooooooooooooooooooooooo",
"oooooooooooooooooooooooooooooooooooooooooooooooooooooooooooooooooooooooooooooooooooooooooooooooooooooooooooooooooooooooooooooooo",
"oooooooooooooooooooooooooooooooooooooooooooooooooooooooooooooooooooooooooooooooooooooooooooooooooooooooooooooooooooooooooooooooo",
"oooooooooooooooooooooooooooooooooooooooooooooooooooooooooooooooooooooooooooooooooooooooooooooooooooooooooooooooooooooooooooooooo",
"oooooooooooooooooooooooooooooooooooooooooooooooooooooooooooooooooooooooooooooooooooooooooooooooooooooooooooooooooooooooooooooooo",
"oooooooooooooooooooooooooooooooooooooooooooooooooooooooooooooooooooooooooooooooooooooooooooooooooooooooooooooooooooooooooooooooo",
"oooooooooooooooooooooooooooooooooooooooooooooooooooooooooooooooooooooooooooooooooooooooooooooooooooooooooooooooooooooooooooooooo",
"oooooooooooooooooooooooooooooooooooooooooooooooooooooooooooooooooooo....oooooooooooooooooooooooooooooooooooooooooooooooooooooooo",
"oooooooooooooooooooooooooooooooooooooooooooooooooooooooooooooooooooo....oooooooooooooooooooooooooooooooooooooooooooooooooooooooo",
"oooooooooooooooooooooooooooooooooooooooooooooooooooooooooooooooooooo....oooooooooooooooooooooooooooooooooooooooooooooooooooooooo",
"oooooooooooooooooooooooooooooooooooooooooooooooooooooooooooooooooooo....oooooooooooooooooooooooooooooooooooooooooooooooooooooooo",
"ooooooooooooooooooooooooooooooooooooooooooooooooooooooooXXXXXXXXoooooooooooooooooooooooooooooooooooooooooooooooooooooooooooooooo",
"ooooooooooooooooooooooooooooooooooooooooooooooooooooooooXXXXXXXXoooooooooooooooooooooooooooooooooooooooooooooooooooooooooooooooo",
"ooooooooooooooooooooooooooooooooooooooooooooooooooooooooXXXXXXXXoooooooooooooooooooooooooooooooooooooooooooooooooooooooooooooooo",
"ooooooooooooooooooooooooooooooooooooooooooooooooooooooooXXXXXXXXoooooooooooooooooooooooooooooooooooooooooooooooooooooooooooooooo",
"oooooooooooooooooooooooooooooooo                    ....oooooooooooo....oooooooooooooooooooooooooooooooooooooooooooooooooooooooo",
"oooooooooooooooooooooooooooooooo                    ....oooooooooooo....oooooooooooooooooooooooooooooooooooooooooooooooooooooooo",
"oooooooooooooooooooooooooooooooo                    ....oooooooooooo....oooooooooooooooooooooooooooooooooooooooooooooooooooooooo",
"oooooooooooooooooooooooooooooooo                    ....oooooooooooo....oooooooooooooooooooooooooooooooooooooooooooooooooooooooo",
"oooooooooooooooooooooooo        XXXXXXXXXXXXXXXX    XXXXXXXX............oooooooooooooooooooooooooooooooooooooooooooooooooooooooo",
"oooooooooooooooooooooooo        XXXXXXXXXXXXXXXX    XXXXXXXX............oooooooooooooooooooooooooooooooooooooooooooooooooooooooo",
"oooooooooooooooooooooooo        XXXXXXXXXXXXXXXX    XXXXXXXX............oooooooooooooooooooooooooooooooooooooooooooooooooooooooo",
"oooooooooooooooooooooooo        XXXXXXXXXXXXXXXX    XXXXXXXX............oooooooooooooooooooooooooooooooooooooooooooooooooooooooo",
"oooooooooooooooooooo    XXXXXXXXXXXXXXXX    XXXXXXXX    oooooooooooooooooooooooooooooooo                            oooooooooooo",
"oooooooooooooooooooo    XXXXXXXXXXXXXXXX    XXXXXXXX    oooooooooooooooooooooooooooooooo                            oooooooooooo",
"oooooooooooooooooooo    XXXXXXXXXXXXXXXX    XXXXXXXX    oooooooooooooooooooooooooooooooo                            oooooooooooo",
"oooooooooooooooooooo    XXXXXXXXXXXXXXXX    XXXXXXXX    oooooooooooooooooooooooooooooooo                            oooooooooooo",
"oooooooooooooooo    XXXXXXXXXXXXXXXXXXXXXXXXXXXXXXXX        oooo                        XXXXXXXXXXXXXXXXXXXXXXXXXXXX    oooooooo",
"oooooooooooooooo    XXXXXXXXXXXXXXXXXXXXXXXXXXXXXXXX        oooo                        XXXXXXXXXXXXXXXXXXXXXXXXXXXX    oooooooo",
"oooooooooooooooo    XXXXXXXXXXXXXXXXXXXXXXXXXXXXXXXX        oooo                        XXXXXXXXXXXXXXXXXXXXXXXXXXXX    oooooooo",
"oooooooooooooooo    XXXXXXXXXXXXXXXXXXXXXXXXXXXXXXXX        oooo                        XXXXXXXXXXXXXXXXXXXXXXXXXXXX    oooooooo",
"oooooooooooooooooooo            XXXXXXXXXXXXXXXXXXXXXXXX        XXXXXXXXXXXXXXXXXXXXXXXXXXXXXXXXXXXXXXXXXXXXXXXXXXXX    oooooooo",
"oooooooooooooooooooo            XXXXXXXXXXXXXXXXXXXXXXXX        XXXXXXXXXXXXXXXXXXXXXXXXXXXXXXXXXXXXXXXXXXXXXXXXXXXX    oooooooo",
"oooooooooooooooooooo            XXXXXXXXXXXXXXXXXXXXXXXX        XXXXXXXXXXXXXXXXXXXXXXXXXXXXXXXXXXXXXXXXXXXXXXXXXXXX    oooooooo",
"oooooooooooooooooooo            XXXXXXXXXXXXXXXXXXXXXXXX        XXXXXXXXXXXXXXXXXXXXXXXXXXXXXXXXXXXXXXXXXXXXXXXXXXXX    oooooooo",
"oooooooooooooooooooooooooooooooo        XXXXXXXXXXXXXXXX    XXXXXXXXXXXXXXXXXXXXXXXXXXXXXXXXXXXXXXXXXXXXXXXX        oooooooooooo",
"oooooooooooooooooooooooooooooooo        XXXXXXXXXXXXXXXX    XXXXXXXXXXXXXXXXXXXXXXXXXXXXXXXXXXXXXXXXXXXXXXXX        oooooooooooo",
"oooooooooooooooooooooooooooooooo        XXXXXXXXXXXXXXXX    XXXXXXXXXXXXXXXXXXXXXXXXXXXXXXXXXXXXXXXXXXXXXXXX        oooooooooooo",
"oooooooooooooooooooooooooooooooo        XXXXXXXXXXXXXXXX    XXXXXXXXXXXXXXXXXXXXXXXXXXXXXXXXXXXXXXXXXXXXXXXX        oooooooooooo",
"oooooooooooooooooooooooooooooooooooooooo    XXXXXXXXXXXXXXXXXXXXXXXXXXXXXXXXXXXXXXXXXXXXXXXXXXXXXXXX        oooooooooooooooooooo",
"oooooooooooooooooooooooooooooooooooooooo    XXXXXXXXXXXXXXXXXXXXXXXXXXXXXXXXXXXXXXXXXXXXXXXXXXXXXXXX        oooooooooooooooooooo",
"oooooooooooooooooooooooooooooooooooooooo    XXXXXXXXXXXXXXXXXXXXXXXXXXXXXXXXXXXXXXXXXXXXXXXXXXXXXXXX        oooooooooooooooooooo",
"oooooooooooooooooooooooooooooooooooooooo    XXXXXXXXXXXXXXXXXXXXXXXXXXXXXXXXXXXXXXXXXXXXXXXXXXXXXXXX        oooooooooooooooooooo",
"oooooooooooooooooooooooooooooooooooo    ....XXXXXXXXXXXXXXXXXXXXXXXXXXXXXXXXXXXXXXXXXXXXXXXX        oooooooooooooooooooooooooooo",
"oooooooooooooooooooooooooooooooooooo    ....XXXXXXXXXXXXXXXXXXXXXXXXXXXXXXXXXXXXXXXXXXXXXXXX        oooooooooooooooooooooooooooo",
"oooooooooooooooooooooooooooooooooooo    ....XXXXXXXXXXXXXXXXXXXXXXXXXXXXXXXXXXXXXXXXXXXXXXXX        oooooooooooooooooooooooooooo",
"oooooooooooooooooooooooooooooooooooo    ....XXXXXXXXXXXXXXXXXXXXXXXXXXXXXXXXXXXXXXXXXXXXXXXX        oooooooooooooooooooooooooooo",
"oooooooooooooooooooooooooooooooo    ........XXXXXXXXXXXXXXXXXXXXXXXXXXXXXXXXXXXXXXXXXXXX    oooooooooooooooooooooooooooooooooooo",
"oooooooooooooooooooooooooooooooo    ........XXXXXXXXXXXXXXXXXXXXXXXXXXXXXXXXXXXXXXXXXXXX    oooooooooooooooooooooooooooooooooooo",
"oooooooooooooooooooooooooooooooo    ........XXXXXXXXXXXXXXXXXXXXXXXXXXXXXXXXXXXXXXXXXXXX    oooooooooooooooooooooooooooooooooooo",
"oooooooooooooooooooooooooooooooo    ........XXXXXXXXXXXXXXXXXXXXXXXXXXXXXXXXXXXXXXXXXXXX    oooooooooooooooooooooooooooooooooooo",
"oooooooooooooooooooooooooooo    ................XXXXXXXXXXXXXXXXXXXXXXXXXXXXXXXX        oooooooooooooooooooooooooooooooooooooooo",
"oooooooooooooooooooooooooooo    ................XXXXXXXXXXXXXXXXXXXXXXXXXXXXXXXX        oooooooooooooooooooooooooooooooooooooooo",
"oooooooooooooooooooooooooooo    ................XXXXXXXXXXXXXXXXXXXXXXXXXXXXXXXX        oooooooooooooooooooooooooooooooooooooooo",
"oooooooooooooooooooooooooooo    ................XXXXXXXXXXXXXXXXXXXXXXXXXXXXXXXX        oooooooooooooooooooooooooooooooooooooooo",
"oooooooooooooooooooooooooooo    ....................XXXXXXXXXXXXXXXXXXXXXXXXXXXX    oooooooooooooooooooooooooooooooooooooooooooo",
"oooooooooooooooooooooooooooo    ....................XXXXXXXXXXXXXXXXXXXXXXXXXXXX    oooooooooooooooooooooooooooooooooooooooooooo",
"oooooooooooooooooooooooooooo    ....................XXXXXXXXXXXXXXXXXXXXXXXXXXXX    oooooooooooooooooooooooooooooooooooooooooooo",
"oooooooooooooooooooooooooooo    ....................XXXXXXXXXXXXXXXXXXXXXXXXXXXX    oooooooooooooooooooooooooooooooooooooooooooo",
"oooooooooooooooooooooooo    ........................XXXXXXXXXXXXXXXXXXXXXXXX        oooooooooooo............oooooooooooooooooooo",
"oooooooooooooooooooooooo    ........................XXXXXXXXXXXXXXXXXXXXXXXX        oooooooooooo............oooooooooooooooooooo",
"oooooooooooooooooooooooo    ........................XXXXXXXXXXXXXXXXXXXXXXXX        oooooooooooo............oooooooooooooooooooo",
"oooooooooooooooooooooooo    ........................XXXXXXXXXXXXXXXXXXXXXXXX        oooooooooooo............oooooooooooooooooooo",
"oooooooooooooooooooo    ................................XXXXXXXXXXXXXXXXXXXXXXXXXXXX        XXXXXXXXXXXXXXXXXXXXoooooooooooooooo",
"oooooooooooooooooooo    ................................XXXXXXXXXXXXXXXXXXXXXXXXXXXX        XXXXXXXXXXXXXXXXXXXXoooooooooooooooo",
"oooooooooooooooooooo    ................................XXXXXXXXXXXXXXXXXXXXXXXXXXXX        XXXXXXXXXXXXXXXXXXXXoooooooooooooooo",
"oooooooooooooooooooo    ................................XXXXXXXXXXXXXXXXXXXXXXXXXXXX        XXXXXXXXXXXXXXXXXXXXoooooooooooooooo",
"oooooooooooooooooooo    ........................        ............XXXXXXXXXXXXXXXXXXXX    XXXXoooooooooooooooooooooooooooooooo",
"oooooooooooooooooooo    ........................        ............XXXXXXXXXXXXXXXXXXXX    XXXXoooooooooooooooooooooooooooooooo",
"oooooooooooooooooooo    ........................        ............XXXXXXXXXXXXXXXXXXXX    XXXXoooooooooooooooooooooooooooooooo",
"oooooooooooooooooooo    ........................        ............XXXXXXXXXXXXXXXXXXXX    XXXXoooooooooooooooooooooooooooooooo",
"oooooooooooooooo    ........................    oooooooo            XXXXXXXX                oooooooooooo....oooooooooooooooooooo",
"oooooooooooooooo    ........................    oooooooo            XXXXXXXX                oooooooooooo....oooooooooooooooooooo",
"oooooooooooooooo    ........................    oooooooo            XXXXXXXX                oooooooooooo....oooooooooooooooooooo",
"oooooooooooooooo    ........................    oooooooo            XXXXXXXX                oooooooooooo....oooooooooooooooooooo",
"oooooooooooooooo    ....................    oooooooooooooooooooo                ooooooooooooooooooooXXXXXXXXoooooooooooooooooooo",
"oooooooooooooooo    ....................    oooooooooooooooooooo                ooooooooooooooooooooXXXXXXXXoooooooooooooooooooo",
"oooooooooooooooo    ....................    oooooooooooooooooooo                ooooooooooooooooooooXXXXXXXXoooooooooooooooooooo",
"oooooooooooooooo    ....................    oooooooooooooooooooo                ooooooooooooooooooooXXXXXXXXoooooooooooooooooooo",
"oooooooooooo    ....................    oooooooooooooooooooooooooooooooo............oooooooooooooooooooooooooooooooooooooooooooo",
"oooooooooooo    ....................    oooooooooooooooooooooooooooooooo............oooooooooooooooooooooooooooooooooooooooooooo",
"oooooooooooo    ....................    oooooooooooooooooooooooooooooooo............oooooooooooooooooooooooooooooooooooooooooooo",
"oooooooooooo    ....................    oooooooooooooooooooooooooooooooo............oooooooooooooooooooooooooooooooooooooooooooo",
"oooooooooooo    ............        oooooooooooooooooooooooooooooooooooo........oooo........oooooooooooooooooooooooooooooooooooo",
"oooooooooooo    ............        oooooooooooooooooooooooooooooooooooo........oooo........oooooooooooooooooooooooooooooooooooo",
"oooooooooooo    ............        oooooooooooooooooooooooooooooooooooo........oooo........oooooooooooooooooooooooooooooooooooo",
"oooooooooooo    ............        oooooooooooooooooooooooooooooooooooo........oooo........oooooooooooooooooooooooooooooooooooo",
"oooooooooooo                ooooooooooooooooooooooooooooooooooooooooXXXXXXXXoooooooooooooooo............oooooooooooooooooooooooo",
"oooooooooooo                ooooooooooooooooooooooooooooooooooooooooXXXXXXXXoooooooooooooooo............oooooooooooooooooooooooo",
"oooooooooooo                ooooooooooooooooooooooooooooooooooooooooXXXXXXXXoooooooooooooooo............oooooooooooooooooooooooo",
"oooooooooooo                ooooooooooooooooooooooooooooooooooooooooXXXXXXXXoooooooooooooooo............oooooooooooooooooooooooo",
"ooooooooooooooooooooooooooooooooooooooooooooooooooooooooooooooooooooooooXXXXXXXXXXXXooooooooXXXX....oooooooooooooooooooooooooooo",
"ooooooooooooooooooooooooooooooooooooooooooooooooooooooooooooooooooooooooXXXXXXXXXXXXooooooooXXXX....oooooooooooooooooooooooooooo",
"ooooooooooooooooooooooooooooooooooooooooooooooooooooooooooooooooooooooooXXXXXXXXXXXXooooooooXXXX....oooooooooooooooooooooooooooo",
"ooooooooooooooooooooooooooooooooooooooooooooooooooooooooooooooooooooooooXXXXXXXXXXXXooooooooXXXX....oooooooooooooooooooooooooooo",
"ooooooooooooooooooooooooooooooooooooooooooooooooooooooooooooooooooooooooooooooooooooooooooooooooXXXX........oooooooooooooooooooo",
"ooooooooooooooooooooooooooooooooooooooooooooooooooooooooooooooooooooooooooooooooooooooooooooooooXXXX........oooooooooooooooooooo",
"ooooooooooooooooooooooooooooooooooooooooooooooooooooooooooooooooooooooooooooooooooooooooooooooooXXXX........oooooooooooooooooooo",
"ooooooooooooooooooooooooooooooooooooooooooooooooooooooooooooooooooooooooooooooooooooooooooooooooXXXX........oooooooooooooooooooo",
"oooooooooooooooooooooooooooooooooooooooooooooooooooooooooooooooooooooooooooooooooooooooooooooooooooooooooooooooooooooooooooooooo",
"oooooooooooooooooooooooooooooooooooooooooooooooooooooooooooooooooooooooooooooooooooooooooooooooooooooooooooooooooooooooooooooooo",
"oooooooooooooooooooooooooooooooooooooooooooooooooooooooooooooooooooooooooooooooooooooooooooooooooooooooooooooooooooooooooooooooo",
"oooooooooooooooooooooooooooooooooooooooooooooooooooooooooooooooooooooooooooooooooooooooooooooooooooooooooooooooooooooooooooooooo",
"oooooooooooooooooooooooooooooooooooooooooooooooooooooooooooooooooooooooooooooooooooooooooooooooooooooooooooooooooooooooooooooooo",
"oooooooooooooooooooooooooooooooooooooooooooooooooooooooooooooooooooooooooooooooooooooooooooooooooooooooooooooooooooooooooooooooo",
"oooooooooooooooooooooooooooooooooooooooooooooooooooooooooooooooooooooooooooooooooooooooooooooooooooooooooooooooooooooooooooooooo",
"oooooooooooooooooooooooooooooooooooooooooooooooooooooooooooooooooooooooooooooooooooooooooooooooooooooooooooooooooooooooooooooooo",
"oooooooooooooooooooooooooooooooooooooooooooooooooooooooooooooooooooooooooooooooooooooooooooooooooooooooooooooooooooooooooooooooo",
"oooooooooooooooooooooooooooooooooooooooooooooooooooooooooooooooooooooooooooooooooooooooooooooooooooooooooooooooooooooooooooooooo",
"oooooooooooooooooooooooooooooooooooooooooooooooooooooooooooooooooooooooooooooooooooooooooooooooooooooooooooooooooooooooooooooooo",
"oooooooooooooooooooooooooooooooooooooooooooooooooooooooooooooooooooooooooooooooooooooooooooooooooooooooooooooooooooooooooooooooo",
"oooooooooooooooooooooooooooooooooooooooooooooooooooooooooooooooooooooooooooooooooooooooooooooooooooooooooooooooooooooooooooooooo",
"oooooooooooooooooooooooooooooooooooooooooooooooooooooooooooooooooooooooooooooooooooooooooooooooooooooooooooooooooooooooooooooooo",
"oooooooooooooooooooooooooooooooooooooooooooooooooooooooooooooooooooooooooooooooooooooooooooooooooooooooooooooooooooooooooooooooo",
"oooooooooooooooooooooooooooooooooooooooooooooooooooooooooooooooooooooooooooooooooooooooooooooooooooooooooooooooooooooooooooooooo"
};
