/* XPM */
static char *result[] = {
/* columns rows colors chars-per-pixel */
"128 128 6 1 ",
"  c #002D70",
". c #B91410",
"X c #C2782C",
"o c #E0B65C",
"O c white",
"+ c None",
/* pixels */
"++++++++++++++++++++++++++++++++++++++++++++++++++++++++++++++++++++++++++++++++++++++++++++++++++++++++++++++++++++++++++++++++",
"++++++++++++++++++++++++++++++++++++++++++++++++++++++++++++++++++++++++++++++++++++++++++++++++++++++++++++++++++++++++++++++++",
"++++++++++++++++++++++++++++++++++++++++++++++++++++++++++++++++++++++++++++++++++++++++++++++++++++++++++++++++++++++++++++++++",
"++++++++++++++++++++++++++++++++++++++++++++++++++++++++++++++++++++++++++++++++++++++++++++++++++++++++++++++++++++++++++++++++",
"++++++++++++++++++++++++++++++++++++++++++++++++++++++++++++++++++++++++++++++++++++++++++++++++++++++++++++++++++++++++++++++++",
"++++++++++++++++++++++++++++++++++++++++++++++++++++++++++++++++++++++++++++++++++++++++++++++++++++++++++++++++++++++++++++++++",
"++++++++++++++++++++++++++++++++++++++++++++++++++++++++++++++++++++++++++++++++++++++++++++++++++++++++++++++++++++++++++++++++",
"++++++++++++++++++++++++++++++++++++++++++++++++++++++++++++++++++++++++++++++++++++++++++++++++++++++++++++++++++++++++++++++++",
"++++++++++++++++++++++++++++++++++++++++++++++++++++++++++++++++++++++++++++++++++++++++++++++++++++++++++++++++++++++++++++++++",
"++++++++++++++++++++++++++++++++++++++++++++++++++++++++++++++++++++++++++++++++++++++++++++++++++++++++++++++++++++++++++++++++",
"++++++++++++++++++++++++++++++++++++++++++++++++++++++++++++++++++++++++++++++++++++++++++++++++++++++++++++++++++++++++++++++++",
"++++++++++++++++++++++++++++++++++++++++++++++++++++++++++++++++++++++++++++++++++++++++++++++++++++++++++++++++++++++++++++++++",
"++++++++++++++++++++++++++++++++++++++++++++++++++++++++++++++++++++++++++++++++++++++++++++++++++++++++++++++++++++++++++++++++",
"++++++++++++++++++++++++++++++++++++++++++++++++++++++++++++++++++++++++++++++++++++++++++++++++++++++++++++++++++++++++++++++++",
"++++++++++++++++++++++++++++++++++++++++++++++++++++++++++++++++++++++++++++++++++++++++++++++++++++++++++++++++++++++++++++++++",
"++++++++++++++++++++++++++++++++++++++++++++++++++++++++++++++++++++++++++++++++++++++++++++++++++++++++++++++++++++++++++++++++",
"++++++++++++++++++++++++++++++++++++++++++++++++++++++++++++++++++++++++++++++++++++++++++++++++++++++++++++++++++++++++++++++++",
"++++++++++++++++++++++++++++++++++++++++++++++++++++++++++++++++++++++++++++++++++++++++++++++++++++++++++++++++++++++++++++++++",
"++++++++++++++++++++++++++++++++++++++++++++++++++++++++++++++++++++++++++++++++++++++++++++++++++++++++++++++++++++++++++++++++",
"++++++++++++++++++++++++++++++++++++++++++++++++++++++++++++++++++++++++++++++++++++++++++++++++++++++++++++++++++++++++++++++++",
"++++++++++++++++++++++++++++++++++++++++++++++++++++++++++++++++++++++++++++++++++++++++++++++++++++++++++++++++++++++++++++++++",
"++++++++++++++++++++++++++++++++++++++++++++++++++++++++++++++++++++++++++++++++++++++++++++++++++++++++++++++++++++++++++++++++",
"++++++++++++++++++++++++++++++++++++++++++++++++++++++++++++++++++++++++++++++++++++++++++++++++++++++++++++++++++++++++++++++++",
"++++++++++++++++++++++++++++++++++++++++++++++++++++++++++++++++++++++++++++++++++++++++++++++++++++++++++++++++++++++++++++++++",
"++++++++++++++++++++++++++++++++++++++++++++++++++++++++++++++++++++++++++++++++++++++++++++++++++++++++++++++++++++++++++++++++",
"++++++++++++++++++++++++++++++++++++++++++++++++++++++++++++++++++++++++++++++++++++++++++++++++++++++++++++++++++++++++++++++++",
"++++++++++++++++++++++++++++++++++++++++++++++++++++++++++++++++++++++++++++++++++++++++++++++++++++++++++++++++++++++++++++++++",
"++++++++++++++++++++++++++++++++++++++++++++++++++++++++++++++++++++++++++++++++++++++++++++++++++++++++++++++++++++++++++++++++",
"++++++++++++++++++++++++++++++++++++++++++++++++++++++++++++++++++++++++++++++++++++++++++++++++++++++++++++++++++++++++++++++++",
"++++++++++++++++++++++++++++++++++++++++++++++++++++++++++++++++++++++++++++++++++++++++++++++++++++++++++++++++++++++++++++++++",
"++++++++++++++++++++++++++++++++++++++++++++++++++++++++++++++++++++++++++++++++++++++++++++++++++++++++++++++++++++++++++++++++",
"++++++++++++++++++++++++++++++++++++++++++++++++++++++++++++++++++++++++++++++++++++++++++++++++++++++++++++++++++++++++++++++++",
"++++++++++++++++++++++++++++++++++++++++++++++++++++++++++++++++++++++++++++++++++++++++++++++++++++++++++++++++++++++++++++++++",
"++++++++++++++++++++++++++++++++++++++++++++++++++++++++++++++++++++++++++++++++++++++++++++++++++++++++++++++++++++++++++++++++",
"++++++++++++++++++++++++++++++++++++++++++++++++++++++++++++++++++++++++++++++++++++++++++++++++++++++++++++++++++++++++++++++++",
"++++++++++++++++++++++++++++++++++++++++++++++++++++++++++++++++++++++++++++++++++++++++++++++++++++++++++++++++++++++++++++++++",
"++++++++++++++++++++++++++++++++++++++++++++++++++++++++++++++++++++++++++++++++++++++++++++++++++++++++++++++++++++++++++++++++",
"++++++++++++++++++++++++++++++++++++++++++++++++++++++++++++++++++++++++++++++++++++++++++++++++++++++++++++++++++++++++++++++++",
"++++++++++++++++++++++++++++++++++++++++++++++++++++++++++++++++++++++++++++++++++++++++++++++++++++++++++++++++++++++++++++++++",
"++++++++++++++++++++++++++++++++++++++++++++++++++++++++++++++++++++++++++++++++++++++++++++++++++++++++++++++++++++++++++++++++",
"++++++++++++++++++++++++++++++++++++++++++++++++++++++++++++++++++++++++++++++++++++++++++++++++++++++++XXXXXXXX++++++++++++++++",
"++++++++++++++++++++++++++++++++++++++++++++++++++++++++++++++++++++++++++++++++++++++++++++++++++++++++XXXXXXXX++++++++++++++++",
"++++++++++++++++++++++++++++++++++++++++++++++++++++++++++++++++++++++++++++++++++++++++++++++++++++++++XXXXXXXX++++++++++++++++",
"++++++++++++++++++++++++++++++++++++++++++++++++++++++++++++++++++++++++++++++++++++++++++++++++++++++++XXXXXXXX++++++++++++++++",
"++++++++++++++++++++++++++++++++++++++++                OOOOOOOOOOOOOOOO................++++++++++++XXXXXXXXXXXXXXXX++++++++++++",
"++++++++++++++++++++++++++++++++++++++++                OOOOOOOOOOOOOOOO................++++++++++++XXXXXXXXXXXXXXXX++++++++++++",
"++++++++++++++++++++++++++++++++++++++++                OOOOOOOOOOOOOOOO................++++++++++++XXXXXXXXXXXXXXXX++++++++++++",
"++++++++++++++++++++++++++++++++++++++++                OOOOOOOOOOOOOOOO................++++++++++++XXXXXXXXXXXXXXXX++++++++++++",
"++++++++++++++++++++++++++++++++++++++++                OOOOOOOOOOOOOOOO................++++++++++++XXXXXXXXoooooooo++++++++++++",
"++++++++++++++++++++++++++++++++++++++++                OOOOOOOOOOOOOOOO................++++++++++++XXXXXXXXoooooooo++++++++++++",
"++++++++++++++++++++++++++++++++++++++++                OOOOOOOOOOOOOOOO................++++++++++++XXXXXXXXoooooooo++++++++++++",
"++++++++++++++++++++++++++++++++++++++++                OOOOOOOOOOOOOOOO................++++++++++++XXXXXXXXoooooooo++++++++++++",
"++++++++++++++++++++++++++++++++++++++++                OOOOOOOOOOOOOOOO................++++++++++++XXXXXXXXXXXXXXXX++++++++++++",
"++++++++++++++++++++++++++++++++++++++++                OOOOOOOOOOOOOOOO................++++++++++++XXXXXXXXXXXXXXXX++++++++++++",
"++++++++++++++++++++++++++++++++++++++++                OOOOOOOOOOOOOOOO................++++++++++++XXXXXXXXXXXXXXXX++++++++++++",
"++++++++++++++++++++++++++++++++++++++++                OOOOOOOOOOOOOOOO................++++++++++++XXXXXXXXXXXXXXXX++++++++++++",
"++++++++++++++++++++++++++++++++++++++++                OOOOOOOOOOOOOOOO................++++++++++++XXXXXXXXoooooooo++++++++++++",
"++++++++++++++++++++++++++++++++++++++++                OOOOOOOOOOOOOOOO................++++++++++++XXXXXXXXoooooooo++++++++++++",
"++++++++++++++++++++++++++++++++++++++++                OOOOOOOOOOOOOOOO................++++++++++++XXXXXXXXoooooooo++++++++++++",
"++++++++++++++++++++++++++++++++++++++++                OOOOOOOOOOOOOOOO................++++++++++++XXXXXXXXoooooooo++++++++++++",
"++++++++++++++++++++++++++++                            OOOOOOOOOOOOOOOO............................XXXXXXXXXXXXXXXX++++++++++++",
"++++++++++++++++++++++++++++                            OOOOOOOOOOOOOOOO............................XXXXXXXXXXXXXXXX++++++++++++",
"++++++++++++++++++++++++++++                            OOOOOOOOOOOOOOOO............................XXXXXXXXXXXXXXXX++++++++++++",
"++++++++++++++++++++++++++++                            OOOOOOOOOOOOOOOO............................XXXXXXXXXXXXXXXX++++++++++++",
"++++++++++++++++++++++++++++++++++++++++                OOOOOOOOOOOOOOOO................++++++++++++XXXXXXXXoooooooo++++++++++++",
"++++++++++++++++++++++++++++++++++++++++                OOOOOOOOOOOOOOOO................++++++++++++XXXXXXXXoooooooo++++++++++++",
"++++++++++++++++++++++++++++++++++++++++                OOOOOOOOOOOOOOOO................++++++++++++XXXXXXXXoooooooo++++++++++++",
"++++++++++++++++++++++++++++++++++++++++                OOOOOOOOOOOOOOOO................++++++++++++XXXXXXXXoooooooo++++++++++++",
"++++++++++++++++++++++++++++++++++++++++                OOOOOOOOOOOOOOOO................++++++++++++XXXXXXXXXXXXXXXX++++++++++++",
"++++++++++++++++++++++++++++++++++++++++                OOOOOOOOOOOOOOOO................++++++++++++XXXXXXXXXXXXXXXX++++++++++++",
"++++++++++++++++++++++++++++++++++++++++                OOOOOOOOOOOOOOOO................++++++++++++XXXXXXXXXXXXXXXX++++++++++++",
"++++++++++++++++++++++++++++++++++++++++                OOOOOOOOOOOOOOOO................++++++++++++XXXXXXXXXXXXXXXX++++++++++++",
"++++++++++++++++++++++++++++++++++++++++                OOOOOOOOOOOOOOOO................++++++++++++XXXXXXXXoooooooo++++++++++++",
"++++++++++++++++++++++++++++++++++++++++                OOOOOOOOOOOOOOOO................++++++++++++XXXXXXXXoooooooo++++++++++++",
"++++++++++++++++++++++++++++++++++++++++                OOOOOOOOOOOOOOOO................++++++++++++XXXXXXXXoooooooo++++++++++++",
"++++++++++++++++++++++++++++++++++++++++                OOOOOOOOOOOOOOOO................++++++++++++XXXXXXXXoooooooo++++++++++++",
"++++++++++++++++++++++++++++++++++++++++                OOOOOOOOOOOOOOOO................++++++++++++XXXXXXXXXXXXXXXX++++++++++++",
"++++++++++++++++++++++++++++++++++++++++                OOOOOOOOOOOOOOOO................++++++++++++XXXXXXXXXXXXXXXX++++++++++++",
"++++++++++++++++++++++++++++++++++++++++                OOOOOOOOOOOOOOOO................++++++++++++XXXXXXXXXXXXXXXX++++++++++++",
"++++++++++++++++++++++++++++++++++++++++                OOOOOOOOOOOOOOOO................++++++++++++XXXXXXXXXXXXXXXX++++++++++++",
"++++++++++++++++++++++++++++++++++++++++++++++++    ++++++++++++++++++++++++....++++++++++++++++++++++++XXXXXXXX++++++++++++++++",
"++++++++++++++++++++++++++++++++++++++++++++++++    ++++++++++++++++++++++++....++++++++++++++++++++++++XXXXXXXX++++++++++++++++",
"++++++++++++++++++++++++++++++++++++++++++++++++    ++++++++++++++++++++++++....++++++++++++++++++++++++XXXXXXXX++++++++++++++++",
"++++++++++++++++++++++++++++++++++++++++++++++++    ++++++++++++++++++++++++....++++++++++++++++++++++++XXXXXXXX++++++++++++++++",
"++++++++++++++++++++++++++++++++++++++++++++++++    ++++++++++++++++++++++++....++++++++++++++++++++++++++++++++++++++++++++++++",
"++++++++++++++++++++++++++++++++++++++++++++++++    ++++++++++++++++++++++++....++++++++++++++++++++++++++++++++++++++++++++++++",
"++++++++++++++++++++++++++++++++++++++++++++++++    ++++++++++++++++++++++++....++++++++++++++++++++++++++++++++++++++++++++++++",
"++++++++++++++++++++++++++++++++++++++++++++++++    ++++++++++++++++++++++++....++++++++++++++++++++++++++++++++++++++++++++++++",
"++++++++++++++++++++++++++++++++++++++++++++        ++++++++++++++++++++++++............++++++++++++++++++++++++++++++++++++++++",
"++++++++++++++++++++++++++++++++++++++++++++        ++++++++++++++++++++++++............++++++++++++++++++++++++++++++++++++++++",
"++++++++++++++++++++++++++++++++++++++++++++        ++++++++++++++++++++++++............++++++++++++++++++++++++++++++++++++++++",
"++++++++++++++++++++++++++++++++++++++++++++        ++++++++++++++++++++++++............++++++++++++++++++++++++++++++++++++++++",
"++++++++++++++++++++++++++++++++++++++++++++++++++++++++++++++++++++++++++++++++++++++++++++++++++++++++++++++++++++++++++++++++",
"++++++++++++++++++++++++++++++++++++++++++++++++++++++++++++++++++++++++++++++++++++++++++++++++++++++++++++++++++++++++++++++++",
"++++++++++++++++++++++++++++++++++++++++++++++++++++++++++++++++++++++++++++++++++++++++++++++++++++++++++++++++++++++++++++++++",
"++++++++++++++++++++++++++++++++++++++++++++++++++++++++++++++++++++++++++++++++++++++++++++++++++++++++++++++++++++++++++++++++",
"++++++++++++++++++++++++++++++++++++++++++++++++++++++++++++++++++++++++++++++++++++++++++++++++++++++++++++++++++++++++++++++++",
"++++++++++++++++++++++++++++++++++++++++++++++++++++++++++++++++++++++++++++++++++++++++++++++++++++++++++++++++++++++++++++++++",
"++++++++++++++++++++++++++++++++++++++++++++++++++++++++++++++++++++++++++++++++++++++++++++++++++++++++++++++++++++++++++++++++",
"++++++++++++++++++++++++++++++++++++++++++++++++++++++++++++++++++++++++++++++++++++++++++++++++++++++++++++++++++++++++++++++++",
"++++++++++++++++++++++++++++++++++++++++++++++++++++++++++++++++++++++++++++++++++++++++++++++++++++++++++++++++++++++++++++++++",
"++++++++++++++++++++++++++++++++++++++++++++++++++++++++++++++++++++++++++++++++++++++++++++++++++++++++++++++++++++++++++++++++",
"++++++++++++++++++++++++++++++++++++++++++++++++++++++++++++++++++++++++++++++++++++++++++++++++++++++++++++++++++++++++++++++++",
"++++++++++++++++++++++++++++++++++++++++++++++++++++++++++++++++++++++++++++++++++++++++++++++++++++++++++++++++++++++++++++++++",
"++++++++++++++++++++++++++++++++++++++++++++++++++++++++++++++++++++++++++++++++++++++++++++++++++++++++++++++++++++++++++++++++",
"++++++++++++++++++++++++++++++++++++++++++++++++++++++++++++++++++++++++++++++++++++++++++++++++++++++++++++++++++++++++++++++++",
"++++++++++++++++++++++++++++++++++++++++++++++++++++++++++++++++++++++++++++++++++++++++++++++++++++++++++++++++++++++++++++++++",
"++++++++++++++++++++++++++++++++++++++++++++++++++++++++++++++++++++++++++++++++++++++++++++++++++++++++++++++++++++++++++++++++",
"++++++++++++++++++++++++++++++++++++++++++++++++++++++++++++++++++++++++++++++++++++++++++++++++++++++++++++++++++++++++++++++++",
"++++++++++++++++++++++++++++++++++++++++++++++++++++++++++++++++++++++++++++++++++++++++++++++++++++++++++++++++++++++++++++++++",
"++++++++++++++++++++++++++++++++++++++++++++++++++++++++++++++++++++++++++++++++++++++++++++++++++++++++++++++++++++++++++++++++",
"++++++++++++++++++++++++++++++++++++++++++++++++++++++++++++++++++++++++++++++++++++++++++++++++++++++++++++++++++++++++++++++++",
"++++++++++++++++++++++++++++++++++++++++++++++++++++++++++++++++++++++++++++++++++++++++++++++++++++++++++++++++++++++++++++++++",
"++++++++++++++++++++++++++++++++++++++++++++++++++++++++++++++++++++++++++++++++++++++++++++++++++++++++++++++++++++++++++++++++",
"++++++++++++++++++++++++++++++++++++++++++++++++++++++++++++++++++++++++++++++++++++++++++++++++++++++++++++++++++++++++++++++++",
"++++++++++++++++++++++++++++++++++++++++++++++++++++++++++++++++++++++++++++++++++++++++++++++++++++++++++++++++++++++++++++++++",
"++++++++++++++++++++++++++++++++++++++++++++++++++++++++++++++++++++++++++++++++++++++++++++++++++++++++++++++++++++++++++++++++",
"++++++++++++++++++++++++++++++++++++++++++++++++++++++++++++++++++++++++++++++++++++++++++++++++++++++++++++++++++++++++++++++++",
"++++++++++++++++++++++++++++++++++++++++++++++++++++++++++++++++++++++++++++++++++++++++++++++++++++++++++++++++++++++++++++++++",
"++++++++++++++++++++++++++++++++++++++++++++++++++++++++++++++++++++++++++++++++++++++++++++++++++++++++++++++++++++++++++++++++",
"++++++++++++++++++++++++++++++++++++++++++++++++++++++++++++++++++++++++++++++++++++++++++++++++++++++++++++++++++++++++++++++++",
"++++++++++++++++++++++++++++++++++++++++++++++++++++++++++++++++++++++++++++++++++++++++++++++++++++++++++++++++++++++++++++++++",
"++++++++++++++++++++++++++++++++++++++++++++++++++++++++++++++++++++++++++++++++++++++++++++++++++++++++++++++++++++++++++++++++",
"++++++++++++++++++++++++++++++++++++++++++++++++++++++++++++++++++++++++++++++++++++++++++++++++++++++++++++++++++++++++++++++++",
"++++++++++++++++++++++++++++++++++++++++++++++++++++++++++++++++++++++++++++++++++++++++++++++++++++++++++++++++++++++++++++++++",
"++++++++++++++++++++++++++++++++++++++++++++++++++++++++++++++++++++++++++++++++++++++++++++++++++++++++++++++++++++++++++++++++",
"++++++++++++++++++++++++++++++++++++++++++++++++++++++++++++++++++++++++++++++++++++++++++++++++++++++++++++++++++++++++++++++++",
"++++++++++++++++++++++++++++++++++++++++++++++++++++++++++++++++++++++++++++++++++++++++++++++++++++++++++++++++++++++++++++++++"
};
