/* XPM */
static char *result[] = {
/* columns rows colors chars-per-pixel */
"128 128 9 1 ",
"  c black",
". c #343333",
"X c #214433",
"o c #2B3D53",
"O c #573964",
"+ c #1D6642",
"@ c #297970",
"# c #A0821B",
"$ c #496C97",
/* pixels */
"XXXXXXXXXXXXXXXXXXXXXXXXXXXXXXXXXXXXXXXXXXXXXXXXXXXXXXXX@@@@@@@@@@@@oooooooooooooooooooooooooooooooooooooooooooooooooooooooooooo",
"XXXXXXXXXXXXXXXXXXXXXXXXXXXXXXXXXXXXXXXXXXXXXXXXXXXXXXXX@@@@@@@@@@@@oooooooooooooooooooooooooooooooooooooooooooooooooooooooooooo",
"XXXXXXXXXXXXXXXXXXXXXXXXXXXXXXXXXXXXXXXXXXXXXXXXXXXXXXXX@@@@@@@@@@@@oooooooooooooooooooooooooooooooooooooooooooooooooooooooooooo",
"XXXXXXXXXXXXXXXXXXXXXXXXXXXXXXXXXXXXXXXXXXXXXXXXXXXXXXXX@@@@@@@@@@@@oooooooooooooooooooooooooooooooooooooooooooooooooooooooooooo",
"XXXXXXXXXXXXXXXXXXXXXXXXXXXX++++XXXXXXXXXXXXXXXXXXXXXXXX@@@@@@@@@@@@oooooooooooooooooooooooooooooooooooooooooooooooooooooooooooo",
"XXXXXXXXXXXXXXXXXXXXXXXXXXXX++++XXXXXXXXXXXXXXXXXXXXXXXX@@@@@@@@@@@@oooooooooooooooooooooooooooooooooooooooooooooooooooooooooooo",
"XXXXXXXXXXXXXXXXXXXXXXXXXXXX++++XXXXXXXXXXXXXXXXXXXXXXXX@@@@@@@@@@@@oooooooooooooooooooooooooooooooooooooooooooooooooooooooooooo",
"XXXXXXXXXXXXXXXXXXXXXXXXXXXX++++XXXXXXXXXXXXXXXXXXXXXXXX@@@@@@@@@@@@oooooooooooooooooooooooooooooooooooooooooooooooooooooooooooo",
"XXXXXXXXXXXXXXXXXXXXXXXXXXXX++++XXXXXXXXXXXXXXXXXXXXXXXX@@@@@@@@@@@@oooooooooooooooo$$$$oooooooooooooooooooooooooooooooooooooooo",
"XXXXXXXXXXXXXXXXXXXXXXXXXXXX++++XXXXXXXXXXXXXXXXXXXXXXXX@@@@@@@@@@@@oooooooooooooooo$$$$oooooooooooooooooooooooooooooooooooooooo",
"XXXXXXXXXXXXXXXXXXXXXXXXXXXX++++XXXXXXXXXXXXXXXXXXXXXXXX@@@@@@@@@@@@oooooooooooooooo$$$$oooooooooooooooooooooooooooooooooooooooo",
"XXXXXXXXXXXXXXXXXXXXXXXXXXXX++++XXXXXXXXXXXXXXXXXXXXXXXX@@@@@@@@@@@@oooooooooooooooo$$$$oooooooooooooooooooooooooooooooooooooooo",
"XXXXXXXXXXXXXXXXXXXX++++++++XXXXXXXXXXXX++++XXXXXXXXXXXX@@@@@@@@@@@@oooooooooooooooo$$$$oooooooooooooooooooooooooooooooooooooooo",
"XXXXXXXXXXXXXXXXXXXX++++++++XXXXXXXXXXXX++++XXXXXXXXXXXX@@@@@@@@@@@@oooooooooooooooo$$$$oooooooooooooooooooooooooooooooooooooooo",
"XXXXXXXXXXXXXXXXXXXX++++++++XXXXXXXXXXXX++++XXXXXXXXXXXX@@@@@@@@@@@@oooooooooooooooo$$$$oooooooooooooooooooooooooooooooooooooooo",
"XXXXXXXXXXXXXXXXXXXX++++++++XXXXXXXXXXXX++++XXXXXXXXXXXX@@@@@@@@@@@@oooooooooooooooo$$$$oooooooooooooooooooooooooooooooooooooooo",
"XXXXXXXXXXXXXXXXXXXX++++++++XXXXXXXXXXXXXXXXXXXXXXXXXXXX@@@@@@@@@@@@oooooooooooo$$$$$$$$oooooooooooooooooooooooo$$$$oooooooooooo",
"XXXXXXXXXXXXXXXXXXXX++++++++XXXXXXXXXXXXXXXXXXXXXXXXXXXX@@@@@@@@@@@@oooooooooooo$$$$$$$$oooooooooooooooooooooooo$$$$oooooooooooo",
"XXXXXXXXXXXXXXXXXXXX++++++++XXXXXXXXXXXXXXXXXXXXXXXXXXXX@@@@@@@@@@@@oooooooooooo$$$$$$$$oooooooooooooooooooooooo$$$$oooooooooooo",
"XXXXXXXXXXXXXXXXXXXX++++++++XXXXXXXXXXXXXXXXXXXXXXXXXXXX@@@@@@@@@@@@oooooooooooo$$$$$$$$oooooooooooooooooooooooo$$$$oooooooooooo",
"XXXXXXXXXXXXXXXXXXXXXXXXXXXXXXXXXXXXXXXXXXXXXXXXXXXXXXXX@@@@@@@@@@@@oooooooooooo$$$$oooooooooooooooooooooooooooo$$$$oooooooooooo",
"XXXXXXXXXXXXXXXXXXXXXXXXXXXXXXXXXXXXXXXXXXXXXXXXXXXXXXXX@@@@@@@@@@@@oooooooooooo$$$$oooooooooooooooooooooooooooo$$$$oooooooooooo",
"XXXXXXXXXXXXXXXXXXXXXXXXXXXXXXXXXXXXXXXXXXXXXXXXXXXXXXXX@@@@@@@@@@@@oooooooooooo$$$$oooooooooooooooooooooooooooo$$$$oooooooooooo",
"XXXXXXXXXXXXXXXXXXXXXXXXXXXXXXXXXXXXXXXXXXXXXXXXXXXXXXXX@@@@@@@@@@@@oooooooooooo$$$$oooooooooooooooooooooooooooo$$$$oooooooooooo",
"XXXXXXXXXXXXXXXX++++XXXXXXXXXXXXXXXXXXXXXXXXXXXXXXXXXXXX@@@@@@@@@@@@oooooooooooooooooooooooooooooooooooooooooooo$$$$oooooooooooo",
"XXXXXXXXXXXXXXXX++++XXXXXXXXXXXXXXXXXXXXXXXXXXXXXXXXXXXX@@@@@@@@@@@@oooooooooooooooooooooooooooooooooooooooooooo$$$$oooooooooooo",
"XXXXXXXXXXXXXXXX++++XXXXXXXXXXXXXXXXXXXXXXXXXXXXXXXXXXXX@@@@@@@@@@@@oooooooooooooooooooooooooooooooooooooooooooo$$$$oooooooooooo",
"XXXXXXXXXXXXXXXX++++XXXXXXXXXXXXXXXXXXXXXXXXXXXXXXXXXXXX@@@@@@@@@@@@oooooooooooooooooooooooooooooooooooooooooooo$$$$oooooooooooo",
"XXXXXXXXXXXX++++++++XXXXXXXXXXXXXXXXXXXXXXXXXXXXXXXXXXXX@@@@@@@@@@@@oooooooooooooooooooooooooooooooooooooooooooooooo$$$$oooooooo",
"XXXXXXXXXXXX++++++++XXXXXXXXXXXXXXXXXXXXXXXXXXXXXXXXXXXX@@@@@@@@@@@@oooooooooooooooooooooooooooooooooooooooooooooooo$$$$oooooooo",
"XXXXXXXXXXXX++++++++XXXXXXXXXXXXXXXXXXXXXXXXXXXXXXXXXXXX@@@@@@@@@@@@oooooooooooooooooooooooooooooooooooooooooooooooo$$$$oooooooo",
"XXXXXXXXXXXX++++++++XXXXXXXXXXXXXXXXXXXXXXXXXXXXXXXXXXXX@@@@@@@@@@@@oooooooooooooooooooooooooooooooooooooooooooooooo$$$$oooooooo",
"XXXXXXXXXXXXXXXXXXXX....XXXXXXXXXXXX++++XXXXXXXXXXXXXXXX@@@@@@@@@@@@oooooooooooooooooooooooooooo....OOOOoooooooooooo$$$$oooooooo",
"XXXXXXXXXXXXXXXXXXXX....XXXXXXXXXXXX++++XXXXXXXXXXXXXXXX@@@@@@@@@@@@oooooooooooooooooooooooooooo....OOOOoooooooooooo$$$$oooooooo",
"XXXXXXXXXXXXXXXXXXXX....XXXXXXXXXXXX++++XXXXXXXXXXXXXXXX@@@@@@@@@@@@oooooooooooooooooooooooooooo....OOOOoooooooooooo$$$$oooooooo",
"XXXXXXXXXXXXXXXXXXXX....XXXXXXXXXXXX++++XXXXXXXXXXXXXXXX@@@@@@@@@@@@oooooooooooooooooooooooooooo....OOOOoooooooooooo$$$$oooooooo",
"XXXXXXXXXXXXXXXXXXXX........XXXXXXXX++++++XXXXXXXXXXXXXX@@@@@@@@@@@@oooooooooooooooooooooooo........OOOOoooooooooooo$$$$oooooooo",
"XXXXXXXXXXXXXXXXXXXX........XXXXXXXX++++++XXXXXXXXXXXXXX@@@@@@@@@@@@oooooooooooooooooooooooo........OOOOoooooooooooo$$$$oooooooo",
"XXXXXXXXXXXXXXXXXXXX........XXXXXXXX++++++XXXXXXXXXXXXXX@@@@@@@@@@@@oooooooooooooooooooooooo........OOOOoooooooooooo$$$$oooooooo",
"XXXXXXXXXXXXXXXXXXXX........XXXXXXXX++++++XXXXXXXXXXXXXX@@@@@@@@@@@@oooooooooooooooooooooooo........OOOOoooooooooooo$$$$oooooooo",
"XXXXXXXXXXXXXXXXXXXX........XXXXXXXXXXXX++++XXXXXXXXXXXX@@@@@@@@@@@@oooooooooooooooooooooooo............oooooooooooooooooooooooo",
"XXXXXXXXXXXXXXXXXXXX........XXXXXXXXXXXX++++XXXXXXXXXXXX@@@@@@@@@@@@oooooooooooooooooooooooo............oooooooooooooooooooooooo",
"XXXXXXXXXXXXXXXXXXXX........XXXXXXXXXXXX++++XXXXXXXXXXXX@@@@@@@@@@@@oooooooooooooooooooooooo............oooooooooooooooooooooooo",
"XXXXXXXXXXXXXXXXXXXX........XXXXXXXXXXXX++++XXXXXXXXXXXX@@@@@@@@@@@@oooooooooooooooooooooooo............oooooooooooooooooooooooo",
"XXXXXXXX++++XXXXXXXX............XXXXXXXXXXXXXXXXXXXXXXXX@@@@@@@@@@@@oooooooooooooooooooo................oooooooooooooooooooooooo",
"XXXXXXXX++++XXXXXXXX............XXXXXXXXXXXXXXXXXXXXXXXX@@@@@@@@@@@@oooooooooooooooooooo................oooooooooooooooooooooooo",
"XXXXXXXX++++XXXXXXXX............XXXXXXXXXXXXXXXXXXXXXXXX@@@@@@@@@@@@oooooooooooooooooooo................oooooooooooooooooooooooo",
"XXXXXXXX++++XXXXXXXX............XXXXXXXXXXXXXXXXXXXXXXXX@@@@@@@@@@@@oooooooooooooooooooo................oooooooooooooooooooooooo",
"XXXXXXXX++++XXXXXXXX....####........................................####....................OOOO........oooooooooooooooooooooooo",
"XXXXXXXX++++XXXXXXXX....####........................................####....................OOOO........oooooooooooooooooooooooo",
"XXXXXXXX++++XXXXXXXX....####........................................####....................OOOO........oooooooooooooooooooooooo",
"XXXXXXXX++++XXXXXXXX....####........................................####....................OOOO........oooooooooooooooooooooooo",
"XXXXXXXX++++XXXXXXXX............................................####................................oooooooooooooooooooooooooooo",
"XXXXXXXX++++XXXXXXXX............................................####................................oooooooooooooooooooooooooooo",
"XXXXXXXX++++XXXXXXXX............................................####................................oooooooooooooooooooooooooooo",
"XXXXXXXX++++XXXXXXXX............................................####................................oooooooooooooooooooooooooooo",
"XXXXXXXX++++XXXXXXXXOOOO....................................####....................    ............oooooooooooooooooooooooooooo",
"XXXXXXXX++++XXXXXXXXOOOO....................................####....................    ............oooooooooooooooooooooooooooo",
"XXXXXXXX++++XXXXXXXXOOOO....................................####....................    ............oooooooooooooooooooooooooooo",
"XXXXXXXX++++XXXXXXXXOOOO....................................####....................    ............oooooooooooooooooooooooooooo",
"XXXXXXXX++++XXXXXXXXOOOO............................########................OOOOOOOOOOOO........................OOOOoooooooooooo",
"XXXXXXXX++++XXXXXXXXOOOO............................########................OOOOOOOOOOOO........................OOOOoooooooooooo",
"XXXXXXXX++++XXXXXXXXOOOO............................########................OOOOOOOOOOOO........................OOOOoooooooooooo",
"XXXXXXXX++++XXXXXXXXOOOO............................########................OOOOOOOOOOOO........................OOOOoooooooooooo",
"XXXXXXXXXXXXXXXXXXXXOOOO............................########................OOOOOOOOOOOO........................OOOOoooooooooooo",
"XXXXXXXXXXXXXXXXXXXXOOOO............................########................OOOOOOOOOOOO........................OOOOoooooooooooo",
"XXXXXXXXXXXXXXXXXXXXOOOO............................########................OOOOOOOOOOOO........................OOOOoooooooooooo",
"XXXXXXXXXXXXXXXXXXXXOOOO............................########................OOOOOOOOOOOO........................OOOOoooooooooooo",
"XXXXXXXXXXXXXXXXXXXXOOOO....................................####....................    ............oooooooooooooooooooooooooooo",
"XXXXXXXXXXXXXXXXXXXXOOOO....................................####....................    ............oooooooooooooooooooooooooooo",
"XXXXXXXXXXXXXXXXXXXXOOOO....................................####....................    ............oooooooooooooooooooooooooooo",
"XXXXXXXXXXXXXXXXXXXXOOOO....................................####....................    ............oooooooooooooooooooooooooooo",
"XXXXXXXXXXXXXXXXXXXX............................................####................................oooooooooooooooooooooooooooo",
"XXXXXXXXXXXXXXXXXXXX............................................####................................oooooooooooooooooooooooooooo",
"XXXXXXXXXXXXXXXXXXXX............................................####................................oooooooooooooooooooooooooooo",
"XXXXXXXXXXXXXXXXXXXX............................................####................................oooooooooooooooooooooooooooo",
"XXXXXXXXXXXXXXXXXXXX....####........................................####....................OOOO........oooooooooooooooooooooooo",
"XXXXXXXXXXXXXXXXXXXX....####........................................####....................OOOO........oooooooooooooooooooooooo",
"XXXXXXXXXXXXXXXXXXXX....####........................................####....................OOOO........oooooooooooooooooooooooo",
"XXXXXXXXXXXXXXXXXXXX....####........................................####....................OOOO........oooooooooooooooooooooooo",
"XXXXXXXXXXXXXXXXXXXX............XXXXXXXXXXXXXXXXXXXXXXXX@@@@@@@@@@@@oooooooooooooooooooo................oooooooooooooooooooooooo",
"XXXXXXXXXXXXXXXXXXXX............XXXXXXXXXXXXXXXXXXXXXXXX@@@@@@@@@@@@oooooooooooooooooooo................oooooooooooooooooooooooo",
"XXXXXXXXXXXXXXXXXXXX............XXXXXXXXXXXXXXXXXXXXXXXX@@@@@@@@@@@@oooooooooooooooooooo................oooooooooooooooooooooooo",
"XXXXXXXXXXXXXXXXXXXX............XXXXXXXXXXXXXXXXXXXXXXXX@@@@@@@@@@@@oooooooooooooooooooo................oooooooooooooooooooooooo",
"XXXXXXXX++++++++XXXX........XXXXXXXXXXXXXXXXXXXX++++++++@@@@@@@@@@@@oooooooooooooooooooooooo............oooooooooooooooooooooooo",
"XXXXXXXX++++++++XXXX........XXXXXXXXXXXXXXXXXXXX++++++++@@@@@@@@@@@@oooooooooooooooooooooooo............oooooooooooooooooooooooo",
"XXXXXXXX++++++++XXXX........XXXXXXXXXXXXXXXXXXXX++++++++@@@@@@@@@@@@oooooooooooooooooooooooo............oooooooooooooooooooooooo",
"XXXXXXXX++++++++XXXX........XXXXXXXXXXXXXXXXXXXX++++++++@@@@@@@@@@@@oooooooooooooooooooooooo............oooooooooooooooooooooooo",
"XXXXXXXX++++++++XXXX........XXXXXXXXXXXXXXXX++++++++XXXX@@@@@@@@@@@@oooooooooooooooooooooooo........OOOOoooooooooooooooooooooooo",
"XXXXXXXX++++++++XXXX........XXXXXXXXXXXXXXXX++++++++XXXX@@@@@@@@@@@@oooooooooooooooooooooooo........OOOOoooooooooooooooooooooooo",
"XXXXXXXX++++++++XXXX........XXXXXXXXXXXXXXXX++++++++XXXX@@@@@@@@@@@@oooooooooooooooooooooooo........OOOOoooooooooooooooooooooooo",
"XXXXXXXX++++++++XXXX........XXXXXXXXXXXXXXXX++++++++XXXX@@@@@@@@@@@@oooooooooooooooooooooooo........OOOOoooooooooooooooooooooooo",
"XXXXXXXX++++++++XXXX....XXXXXXXXXXXX++++++++XXXXXXXXXXXX@@@@@@@@@@@@oooooooooooooooooooooooooooo....OOOOoooooooooooo$$$$oooooooo",
"XXXXXXXX++++++++XXXX....XXXXXXXXXXXX++++++++XXXXXXXXXXXX@@@@@@@@@@@@oooooooooooooooooooooooooooo....OOOOoooooooooooo$$$$oooooooo",
"XXXXXXXX++++++++XXXX....XXXXXXXXXXXX++++++++XXXXXXXXXXXX@@@@@@@@@@@@oooooooooooooooooooooooooooo....OOOOoooooooooooo$$$$oooooooo",
"XXXXXXXX++++++++XXXX....XXXXXXXXXXXX++++++++XXXXXXXXXXXX@@@@@@@@@@@@oooooooooooooooooooooooooooo....OOOOoooooooooooo$$$$oooooooo",
"XXXXXXXX++++++++XXXXXXXXXXXXXXXXXXXX++++XXXXXXXXXXXXXXXX@@@@@@@@@@@@oooooooooooooooooooooooooooooooooooooooooooooooo$$$$oooooooo",
"XXXXXXXX++++++++XXXXXXXXXXXXXXXXXXXX++++XXXXXXXXXXXXXXXX@@@@@@@@@@@@oooooooooooooooooooooooooooooooooooooooooooooooo$$$$oooooooo",
"XXXXXXXX++++++++XXXXXXXXXXXXXXXXXXXX++++XXXXXXXXXXXXXXXX@@@@@@@@@@@@oooooooooooooooooooooooooooooooooooooooooooooooo$$$$oooooooo",
"XXXXXXXX++++++++XXXXXXXXXXXXXXXXXXXX++++XXXXXXXXXXXXXXXX@@@@@@@@@@@@oooooooooooooooooooooooooooooooooooooooooooooooo$$$$oooooooo",
"XXXXXXXX++++++++XXXXXXXXXXXXXXXXXXXXXXXXXXXXXXXXXXXXXXXX@@@@@@@@@@@@oooooooooooo$$$$oooooooooooooooooooooooooooo$$$$$$$$oooooooo",
"XXXXXXXX++++++++XXXXXXXXXXXXXXXXXXXXXXXXXXXXXXXXXXXXXXXX@@@@@@@@@@@@oooooooooooo$$$$oooooooooooooooooooooooooooo$$$$$$$$oooooooo",
"XXXXXXXX++++++++XXXXXXXXXXXXXXXXXXXXXXXXXXXXXXXXXXXXXXXX@@@@@@@@@@@@oooooooooooo$$$$oooooooooooooooooooooooooooo$$$$$$$$oooooooo",
"XXXXXXXX++++++++XXXXXXXXXXXXXXXXXXXXXXXXXXXXXXXXXXXXXXXX@@@@@@@@@@@@oooooooooooo$$$$oooooooooooooooooooooooooooo$$$$$$$$oooooooo",
"XXXXXXXX++++++++XXXXXXXXXXXXXXXXXXXXXXXXXXXXXXXXXXXX+++X@@@@@@@@@@@@oooooooooooo$$$$$$$$oooooooooooooooooooooooo$$$$oooooooooooo",
"XXXXXXXX++++++++XXXXXXXXXXXXXXXXXXXXXXXXXXXXXXXXXXXX+++X@@@@@@@@@@@@oooooooooooo$$$$$$$$oooooooooooooooooooooooo$$$$oooooooooooo",
"XXXXXXXX++++++++XXXXXXXXXXXXXXXXXXXXXXXXXXXXXXXXXXXX+++X@@@@@@@@@@@@oooooooooooo$$$$$$$$oooooooooooooooooooooooo$$$$oooooooooooo",
"XXXXXXXX++++++++XXXXXXXXXXXXXXXXXXXXXXXXXXXXXXXXXXXX+++X@@@@@@@@@@@@oooooooooooo$$$$$$$$oooooooooooooooooooooooo$$$$oooooooooooo",
"XXXXXXXXXXXX++++XXXXXXXXXXXXXXXXXXXXXXXXXXXXXXXX++++XXXX@@@@@@@@@@@@oooooooooooooooo$$$$oooooooooooooooooooo$$$$$$$$oooooooooooo",
"XXXXXXXXXXXX++++XXXXXXXXXXXXXXXXXXXXXXXXXXXXXXXX++++XXXX@@@@@@@@@@@@oooooooooooooooo$$$$oooooooooooooooooooo$$$$$$$$oooooooooooo",
"XXXXXXXXXXXX++++XXXXXXXXXXXXXXXXXXXXXXXXXXXXXXXX++++XXXX@@@@@@@@@@@@oooooooooooooooo$$$$oooooooooooooooooooo$$$$$$$$oooooooooooo",
"XXXXXXXXXXXX++++XXXXXXXXXXXXXXXXXXXXXXXXXXXXXXXX++++XXXX@@@@@@@@@@@@oooooooooooooooo$$$$oooooooooooooooooooo$$$$$$$$oooooooooooo",
"XXXXXXXXXXXX++++XXXXXXXXXXXX++++XXXXXXXXXXXXXXXXXXXXXXXX@@@@@@@@@@@@oooooooooooo$$$$$$$$oooooooooooooooooooo$$$$oooooooooooooooo",
"XXXXXXXXXXXX++++XXXXXXXXXXXX++++XXXXXXXXXXXXXXXXXXXXXXXX@@@@@@@@@@@@oooooooooooo$$$$$$$$oooooooooooooooooooo$$$$oooooooooooooooo",
"XXXXXXXXXXXX++++XXXXXXXXXXXX++++XXXXXXXXXXXXXXXXXXXXXXXX@@@@@@@@@@@@oooooooooooo$$$$$$$$oooooooooooooooooooo$$$$oooooooooooooooo",
"XXXXXXXXXXXX++++XXXXXXXXXXXX++++XXXXXXXXXXXXXXXXXXXXXXXX@@@@@@@@@@@@oooooooooooo$$$$$$$$oooooooooooooooooooo$$$$oooooooooooooooo",
"XXXXXXXXXXXXXXXXXXXXXXXX++++++++XXXXXXXXXXXXXXXXXXXXXXXX@@@@@@@@@@@@oooooooooooo$$$$oooooooooooooooooooooooooooooooooooooooooooo",
"XXXXXXXXXXXXXXXXXXXXXXXX++++++++XXXXXXXXXXXXXXXXXXXXXXXX@@@@@@@@@@@@oooooooooooo$$$$oooooooooooooooooooooooooooooooooooooooooooo",
"XXXXXXXXXXXXXXXXXXXXXXXX++++++++XXXXXXXXXXXXXXXXXXXXXXXX@@@@@@@@@@@@oooooooooooo$$$$oooooooooooooooooooooooooooooooooooooooooooo",
"XXXXXXXXXXXXXXXXXXXXXXXX++++++++XXXXXXXXXXXXXXXXXXXXXXXX@@@@@@@@@@@@oooooooooooo$$$$oooooooooooooooooooooooooooooooooooooooooooo",
"XXXXXXXXXXXXXXXXXXXXXXXXXXXXXXXXXXXXXXXXXXXXXXXXXXXXXXXX@@@@@@@@@@@@oooooooooooooooooooooooooooooooooooooooooooooooooooooooooooo",
"XXXXXXXXXXXXXXXXXXXXXXXXXXXXXXXXXXXXXXXXXXXXXXXXXXXXXXXX@@@@@@@@@@@@oooooooooooooooooooooooooooooooooooooooooooooooooooooooooooo",
"XXXXXXXXXXXXXXXXXXXXXXXXXXXXXXXXXXXXXXXXXXXXXXXXXXXXXXXX@@@@@@@@@@@@oooooooooooooooooooooooooooooooooooooooooooooooooooooooooooo",
"XXXXXXXXXXXXXXXXXXXXXXXXXXXXXXXXXXXXXXXXXXXXXXXXXXXXXXXX@@@@@@@@@@@@oooooooooooooooooooooooooooooooooooooooooooooooooooooooooooo",
"XXXXXXXXXXXXXXXXXXXXXXXXXXXXXXXXXXXXXXXXXXXXXXXXXXXXXXXX@@@@@@@@@@@@oooooooooooooooooooooooooooooooooooooooooooooooooooooooooooo",
"XXXXXXXXXXXXXXXXXXXXXXXXXXXXXXXXXXXXXXXXXXXXXXXXXXXXXXXX@@@@@@@@@@@@oooooooooooooooooooooooooooooooooooooooooooooooooooooooooooo",
"XXXXXXXXXXXXXXXXXXXXXXXXXXXXXXXXXXXXXXXXXXXXXXXXXXXXXXXX@@@@@@@@@@@@oooooooooooooooooooooooooooooooooooooooooooooooooooooooooooo",
"XXXXXXXXXXXXXXXXXXXXXXXXXXXXXXXXXXXXXXXXXXXXXXXXXXXXXXXX@@@@@@@@@@@@oooooooooooooooooooooooooooooooooooooooooooooooooooooooooooo"
};
