/* XPM */
static char *result[] = {
/* columns rows colors chars-per-pixel */
"128 128 9 1 ",
"  c black",
". c #343333",
"X c #214433",
"o c #2B3D53",
"O c #573964",
"+ c #1D6642",
"@ c #297970",
"# c #A0821B",
"$ c #496C97",
/* pixels */
"XXXXXXXXXXXXXXXXXXXXXXXXXXXXXXXXXXXXXXXXXXXXXXXXXXXXXXXXXXXXXXXXXXXXXXXXXXXXXXXXXXXXXXXXXXXXXXXXXXXXXXXXXXXXXXXXXXXXXXXXXXXXXXXX",
"XXXXXXXXXXXXXXXXXXXXXXXXXXXXXXXXXXXXXXXXXXXXXXXXXXXXXXXXXXXXXXXXXXXXXXXXXXXXXXXXXXXXXXXXXXXXXXXXXXXXXXXXXXXXXXXXXXXXXXXXXXXXXXXX",
"XXXXXXXXXXXXXXXXXXXXXXXXXXXXXXXXXXXXXXXXXXXXXXXXXXXXXXXXXXXXXXXXXXXXXXXXXXXXXXXXXXXXXXXXXXXXXXXXXXXXXXXXXXXXXXXXXXXXXXXXXXXXXXXX",
"XXXXXXXXXXXXXXXXXXXXXXXXXXXXXXXXXXXXXXXXXXXXXXXXXXXXXXXXXXXXXXXXXXXXXXXXXXXXXXXXXXXXXXXXXXXXXXXXXXXXXXXXXXXXXXXXXXXXXXXXXXXXXXXX",
"XXXXXXXXXXXXXXXXXXXXXXXXXXXXXXXXXXXXXXXXXXXXXXXXXXXXXXXXXXXXXXXXXXXXXXXXXXXXXXXXXXXXXXXXXXXXXXXXXXXXXXXXXXXXXXXXXXXXXXXXXXXXXXXX",
"XXXXXXXXXXXXXXXXXXXXXXXXXXXXXXXXXXXXXXXXXXXXXXXXXXXXXXXXXXXXXXXXXXXXXXXXXXXXXXXXXXXXXXXXXXXXXXXXXXXXXXXXXXXXXXXXXXXXXXXXXXXXXXXX",
"XXXXXXXXXXXXXXXXXXXXXXXXXXXXXXXXXXXXXXXXXXXXXXXXXXXXXXXXXXXXXXXXXXXXXXXXXXXXXXXXXXXXXXXXXXXXXXXXXXXXXXXXXXXXXXXXXXXXXXXXXXXXXXXX",
"XXXXXXXXXXXXXXXXXXXXXXXXXXXXXXXXXXXXXXXXXXXXXXXXXXXXXXXXXXXXXXXXXXXXXXXXXXXXXXXXXXXXXXXXXXXXXXXXXXXXXXXXXXXXXXXXXXXXXXXXXXXXXXXX",
"XXXXXXXXXXXXXXXXXXXXXXXXXXXXXXXXXXXXXXXXXXXX++++++++++++++++++++XXXXXXXXXXXXXXXXXXXX++++++++++++++++++++++++XXXXXXXXXXXXXXXXXXXX",
"XXXXXXXXXXXXXXXXXXXXXXXXXXXXXXXXXXXXXXXXXXXX++++++++++++++++++++XXXXXXXXXXXXXXXXXXXX++++++++++++++++++++++++XXXXXXXXXXXXXXXXXXXX",
"XXXXXXXXXXXXXXXXXXXXXXXXXXXXXXXXXXXXXXXXXXXX++++++++++++++++++++XXXXXXXXXXXXXXXXXXXX++++++++++++++++++++++++XXXXXXXXXXXXXXXXXXXX",
"XXXXXXXXXXXXXXXXXXXXXXXXXXXXXXXXXXXXXXXXXXXX++++++++++++++++++++XXXXXXXXXXXXXXXXXXXX++++++++++++++++++++++++XXXXXXXXXXXXXXXXXXXX",
"XXXXXXXXXXXXXXXXXXXXXXXXXXXX++++XXXXXXXXXXXXXXXXXXXXXXXXXXXXXXXXXXXXXXXXXXXXXXXXXXXX++++++++++++++++++++++++++++++++XXXXXXXXXXXX",
"XXXXXXXXXXXXXXXXXXXXXXXXXXXX++++XXXXXXXXXXXXXXXXXXXXXXXXXXXXXXXXXXXXXXXXXXXXXXXXXXXX++++++++++++++++++++++++++++++++XXXXXXXXXXXX",
"XXXXXXXXXXXXXXXXXXXXXXXXXXXX++++XXXXXXXXXXXXXXXXXXXXXXXXXXXXXXXXXXXXXXXXXXXXXXXXXXXX++++++++++++++++++++++++++++++++XXXXXXXXXXXX",
"XXXXXXXXXXXXXXXXXXXXXXXXXXXX++++XXXXXXXXXXXXXXXXXXXXXXXXXXXXXXXXXXXXXXXXXXXXXXXXXXXX++++++++++++++++++++++++++++++++XXXXXXXXXXXX",
"XXXXXXXXXXXXXXXXXXXXXXXX++++++++XXXXXXXXXXXXXXXXXXXXXXXXXXXXXXXXXXXXXXXXXXXXXXXXXXXXXXXXXXXXXXXXXXXXXXXXXXXXXXXXXXXXXXXXXXXXXXXX",
"XXXXXXXXXXXXXXXXXXXXXXXX++++++++XXXXXXXXXXXXXXXXXXXXXXXXXXXXXXXXXXXXXXXXXXXXXXXXXXXXXXXXXXXXXXXXXXXXXXXXXXXXXXXXXXXXXXXXXXXXXXXX",
"XXXXXXXXXXXXXXXXXXXXXXXX++++++++XXXXXXXXXXXXXXXXXXXXXXXXXXXXXXXXXXXXXXXXXXXXXXXXXXXXXXXXXXXXXXXXXXXXXXXXXXXXXXXXXXXXXXXXXXXXXXXX",
"XXXXXXXXXXXXXXXXXXXXXXXX++++++++XXXXXXXXXXXXXXXXXXXXXXXXXXXXXXXXXXXXXXXXXXXXXXXXXXXXXXXXXXXXXXXXXXXXXXXXXXXXXXXXXXXXXXXXXXXXXXXX",
"XXXXXXXXXXXX++++++++XXXXXXXXXXXX........................OOOOOOOOOOOOOOOO........................XXXXXXXXXXXXXXXXXXXXXXXXXXXXXXXX",
"XXXXXXXXXXXX++++++++XXXXXXXXXXXX........................OOOOOOOOOOOOOOOO........................XXXXXXXXXXXXXXXXXXXXXXXXXXXXXXXX",
"XXXXXXXXXXXX++++++++XXXXXXXXXXXX........................OOOOOOOOOOOOOOOO........................XXXXXXXXXXXXXXXXXXXXXXXXXXXXXXXX",
"XXXXXXXXXXXX++++++++XXXXXXXXXXXX........................OOOOOOOOOOOOOOOO........................XXXXXXXXXXXXXXXXXXXXXXXXXXXXXXXX",
"XXXXXXXXXXXX++++++++XXXXXXXXXXXXXXXX............####........................####............XXXXXXXXXXXXXXXXXXXXXXXX++++XXXXXXXX",
"XXXXXXXXXXXX++++++++XXXXXXXXXXXXXXXX............####........................####............XXXXXXXXXXXXXXXXXXXXXXXX++++XXXXXXXX",
"XXXXXXXXXXXX++++++++XXXXXXXXXXXXXXXX............####........................####............XXXXXXXXXXXXXXXXXXXXXXXX++++XXXXXXXX",
"XXXXXXXXXXXX++++++++XXXXXXXXXXXXXXXX............####........................####............XXXXXXXXXXXXXXXXXXXXXXXX++++XXXXXXXX",
"XXXX++++++++XXXXXXXXXXXXXXXXXXXXXXXXXXXXXXXX........................................XXXXXXXXXXXXXXXXXXXXXXXXXXXX++++++++XXXXXXXX",
"XXXX++++++++XXXXXXXXXXXXXXXXXXXXXXXXXXXXXXXX........................................XXXXXXXXXXXXXXXXXXXXXXXXXXXX++++++++XXXXXXXX",
"XXXX++++++++XXXXXXXXXXXXXXXXXXXXXXXXXXXXXXXX........................................XXXXXXXXXXXXXXXXXXXXXXXXXXXX++++++++XXXXXXXX",
"XXXX++++++++XXXXXXXXXXXXXXXXXXXXXXXXXXXXXXXX........................................XXXXXXXXXXXXXXXXXXXXXXXXXXXX++++++++XXXXXXXX",
"XXXXXXXXXXXXXXXXXXXXXXXXXXXXXXXXXXXXXXXXXXXXXXXX................................XXXXXXXXXXXXXXXXXXXXXXXXXXXXXXXXXXXXXXXXXXXXXXXX",
"XXXXXXXXXXXXXXXXXXXXXXXXXXXXXXXXXXXXXXXXXXXXXXXX................................XXXXXXXXXXXXXXXXXXXXXXXXXXXXXXXXXXXXXXXXXXXXXXXX",
"XXXXXXXXXXXXXXXXXXXXXXXXXXXXXXXXXXXXXXXXXXXXXXXX................................XXXXXXXXXXXXXXXXXXXXXXXXXXXXXXXXXXXXXXXXXXXXXXXX",
"XXXXXXXXXXXXXXXXXXXXXXXXXXXXXXXXXXXXXXXXXXXXXXXX................................XXXXXXXXXXXXXXXXXXXXXXXXXXXXXXXXXXXXXXXXXXXXXXXX",
"XXXXXXXXXXXX++++XXXXXXXXXXXXXXXXXXXX++++++++XXXX................................XXXXXXXXXXXX++++XXXXXXXXXXXXXXXXXXXXXXXXXXXXXXXX",
"XXXXXXXXXXXX++++XXXXXXXXXXXXXXXXXXXX++++++++XXXX................................XXXXXXXXXXXX++++XXXXXXXXXXXXXXXXXXXXXXXXXXXXXXXX",
"XXXXXXXXXXXX++++XXXXXXXXXXXXXXXXXXXX++++++++XXXX................................XXXXXXXXXXXX++++XXXXXXXXXXXXXXXXXXXXXXXXXXXXXXXX",
"XXXXXXXXXXXX++++XXXXXXXXXXXXXXXXXXXXXXXX++++XXXX................................XXXXXXXX++++XXXXXXXXXXXXXXXXXXXXXXXXXXXXXXXXXXXX",
"XXXXXXXXXXXX++++XXXXXXXXXXXXXXXXXXXXXXXX++++XXXX................................XXXXXXXX++++XXXXXXXXXXXXXXXXXXXXXXXXXXXXXXXXXXXX",
"XXXXXXXXXXXX++++XXXXXXXXXXXXXXXXXXXXXXXX++++XXXX................................XXXXXXXX++++XXXXXXXXXXXXXXXXXXXXXXXXXXXXXXXXXXXX",
"XXXXXXXXXXXX++++XXXXXXXXXXXXXXXXXXXXXXXX++++XXXX................................XXXXXXXX++++XXXXXXXXXXXXXXXXXXXXXXXXXXXXXXXXXXXX",
"XXXXXXXXXXXXXXXXXXXXXXXXXXXXXXXXXXXXXXXXXXXXXXXX................................XXXX++++++++XXXXXXXXXXXXXXXX++++XXXXXXXXXXXXXXXX",
"XXXXXXXXXXXXXXXXXXXXXXXXXXXXXXXXXXXXXXXXXXXXXXXX................................XXXX++++++++XXXXXXXXXXXXXXXX++++XXXXXXXXXXXXXXXX",
"XXXXXXXXXXXXXXXXXXXXXXXXXXXXXXXXXXXXXXXXXXXXXXXX................................XXXX++++++++XXXXXXXXXXXXXXXX++++XXXXXXXXXXXXXXXX",
"XXXXXXXXXXXXXXXXXXXXXXXXXXXXXXXXXXXXXXXXXXXXXXXX................................XXXX++++++++XXXXXXXXXXXXXXXX++++XXXXXXXXXXXXXXXX",
"XXXXXXXXXXXXXXXXXXXXXXXXXXXXXXXXXXXXXXXXXXXXXXXX................................XXXX++++XXXXXXXXXXXXXXXX++++XXXXXXXXXXXXXXXXXXXX",
"XXXXXXXXXXXXXXXXXXXXXXXXXXXXXXXXXXXXXXXXXXXXXXXX................................XXXX++++XXXXXXXXXXXXXXXX++++XXXXXXXXXXXXXXXXXXXX",
"XXXXXXXXXXXXXXXXXXXXXXXXXXXXXXXXXXXXXXXXXXXXXXXX................................XXXX++++XXXXXXXXXXXXXXXX++++XXXXXXXXXXXXXXXXXXXX",
"XXXXXXXXXXXXXXXXXXXXXXXXXXXXXXXXXXXXXXXXXXXXXXXX................................XXXX++++XXXXXXXXXXXXXXXX++++XXXXXXXXXXXXXXXXXXXX",
"XXXXXXXXXXXXXXXXXXXXXXXXXXXXXXXXXXXXXXXXXXXXXXXX............########............XXXXXXXXXXXXXXXXXXXXXXXXXXXXXXXXXXXXXXXXXXXXXXXX",
"XXXXXXXXXXXXXXXXXXXXXXXXXXXXXXXXXXXXXXXXXXXXXXXX............########............XXXXXXXXXXXXXXXXXXXXXXXXXXXXXXXXXXXXXXXXXXXXXXXX",
"XXXXXXXXXXXXXXXXXXXXXXXXXXXXXXXXXXXXXXXXXXXXXXXX............########............XXXXXXXXXXXXXXXXXXXXXXXXXXXXXXXXXXXXXXXXXXXXXXXX",
"XXXXXXXXXXXXXXXXXXXXXXXXXXXXXXXXXXXXXXXXXXXXXXXX............########............XXXXXXXXXXXXXXXXXXXXXXXXXXXXXXXXXXXXXXXXXXXXXXXX",
"@@@@@@@@@@@@@@@@@@@@@@@@@@@@@@@@@@@@@@@@@@@@@@@@............########............@@@@@@@@@@@@@@@@@@@@@@@@@@@@@@@@@@@@@@@@@@@@@@@@",
"@@@@@@@@@@@@@@@@@@@@@@@@@@@@@@@@@@@@@@@@@@@@@@@@............########............@@@@@@@@@@@@@@@@@@@@@@@@@@@@@@@@@@@@@@@@@@@@@@@@",
"@@@@@@@@@@@@@@@@@@@@@@@@@@@@@@@@@@@@@@@@@@@@@@@@............########............@@@@@@@@@@@@@@@@@@@@@@@@@@@@@@@@@@@@@@@@@@@@@@@@",
"@@@@@@@@@@@@@@@@@@@@@@@@@@@@@@@@@@@@@@@@@@@@@@@@............########............@@@@@@@@@@@@@@@@@@@@@@@@@@@@@@@@@@@@@@@@@@@@@@@@",
"@@@@@@@@@@@@@@@@@@@@@@@@@@@@@@@@@@@@@@@@@@@@@@@@........####........####........@@@@@@@@@@@@@@@@@@@@@@@@@@@@@@@@@@@@@@@@@@@@@@@@",
"@@@@@@@@@@@@@@@@@@@@@@@@@@@@@@@@@@@@@@@@@@@@@@@@........####........####........@@@@@@@@@@@@@@@@@@@@@@@@@@@@@@@@@@@@@@@@@@@@@@@@",
"@@@@@@@@@@@@@@@@@@@@@@@@@@@@@@@@@@@@@@@@@@@@@@@@........####........####........@@@@@@@@@@@@@@@@@@@@@@@@@@@@@@@@@@@@@@@@@@@@@@@@",
"@@@@@@@@@@@@@@@@@@@@@@@@@@@@@@@@@@@@@@@@@@@@@@@@........####........####........@@@@@@@@@@@@@@@@@@@@@@@@@@@@@@@@@@@@@@@@@@@@@@@@",
"@@@@@@@@@@@@@@@@@@@@@@@@@@@@@@@@@@@@@@@@@@@@@@@@....####................####....@@@@@@@@@@@@@@@@@@@@@@@@@@@@@@@@@@@@@@@@@@@@@@@@",
"@@@@@@@@@@@@@@@@@@@@@@@@@@@@@@@@@@@@@@@@@@@@@@@@....####................####....@@@@@@@@@@@@@@@@@@@@@@@@@@@@@@@@@@@@@@@@@@@@@@@@",
"@@@@@@@@@@@@@@@@@@@@@@@@@@@@@@@@@@@@@@@@@@@@@@@@....####................####....@@@@@@@@@@@@@@@@@@@@@@@@@@@@@@@@@@@@@@@@@@@@@@@@",
"@@@@@@@@@@@@@@@@@@@@@@@@@@@@@@@@@@@@@@@@@@@@@@@@....####................####....@@@@@@@@@@@@@@@@@@@@@@@@@@@@@@@@@@@@@@@@@@@@@@@@",
"oooooooooooooooooooooooooooooooooooooooooooooooo####........................####oooooooooooooooooooooooooooooooooooooooooooooooo",
"oooooooooooooooooooooooooooooooooooooooooooooooo####........................####oooooooooooooooooooooooooooooooooooooooooooooooo",
"oooooooooooooooooooooooooooooooooooooooooooooooo####........................####oooooooooooooooooooooooooooooooooooooooooooooooo",
"oooooooooooooooooooooooooooooooooooooooooooooooo####........................####oooooooooooooooooooooooooooooooooooooooooooooooo",
"oooooooooooooooooooooooooooooooooooooooooooooooo................................oooooooooooooooooooooooooooooooooooooooooooooooo",
"oooooooooooooooooooooooooooooooooooooooooooooooo................................oooooooooooooooooooooooooooooooooooooooooooooooo",
"oooooooooooooooooooooooooooooooooooooooooooooooo................................oooooooooooooooooooooooooooooooooooooooooooooooo",
"oooooooooooooooooooooooooooooooooooooooooooooooo................................oooooooooooooooooooooooooooooooooooooooooooooooo",
"oooooooooooooooooooooooooooooooooooooooooooooooo............OOOOOOOO............oooooooooooooooooooooooooooooooooooooooooooooooo",
"oooooooooooooooooooooooooooooooooooooooooooooooo............OOOOOOOO............oooooooooooooooooooooooooooooooooooooooooooooooo",
"oooooooooooooooooooooooooooooooooooooooooooooooo............OOOOOOOO............oooooooooooooooooooooooooooooooooooooooooooooooo",
"oooooooooooooooooooooooooooooooooooooooooooooooo............OOOOOOOO............oooooooooooooooooooooooooooooooooooooooooooooooo",
"oooooooooooooooo$$$$$$$$oooooooooooooooooooooooo............OOOOOOOO............oooooooooooooooooooo$$$$$$$$oooo$$$$$$$$oooooooo",
"oooooooooooooooo$$$$$$$$oooooooooooooooooooooooo............OOOOOOOO............oooooooooooooooooooo$$$$$$$$oooo$$$$$$$$oooooooo",
"oooooooooooooooo$$$$$$$$oooooooooooooooooooooooo............OOOOOOOO............oooooooooooooooooooo$$$$$$$$oooo$$$$$$$$oooooooo",
"oooooooooooooooo$$$$$$$$oooooooooooooooooooooooo............OOOOOOOO............oooooooooooooooooooo$$$$$$$$oooo$$$$$$$$oooooooo",
"oooooooo$$$$$$$$$$$$oooooooooooooooooooooooooooo........    OOOOOOOO    ........oooooooooooooooooooooooo$$$$$$$$$$$$oooooooooooo",
"oooooooo$$$$$$$$$$$$oooooooooooooooooooooooooooo........    OOOOOOOO    ........oooooooooooooooooooooooo$$$$$$$$$$$$oooooooooooo",
"oooooooo$$$$$$$$$$$$oooooooooooooooooooooooooooo........    OOOOOOOO    ........oooooooooooooooooooooooo$$$$$$$$$$$$oooooooooooo",
"oooooooo$$$$$$$$$$$$oooooooooooooooooooooooooooo........    OOOOOOOO    ........oooooooooooooooooooooooo$$$$$$$$$$$$oooooooooooo",
"oooooooooooooooooooooooooooooooooooooooooooo........................................oooooooooooooooooooooooooooooooooooooooooooo",
"oooooooooooooooooooooooooooooooooooooooooooo........................................oooooooooooooooooooooooooooooooooooooooooooo",
"oooooooooooooooooooooooooooooooooooooooooooo........................................oooooooooooooooooooooooooooooooooooooooooooo",
"oooooooooooooooooooooooooooooooooooooooooooo........................................oooooooooooooooooooooooooooooooooooooooooooo",
"oooooooooooooooooooooooooooooooooooo............OOOO........................OOOO............oooooooooooooooooooooooooooooooooooo",
"oooooooooooooooooooooooooooooooooooo............OOOO........................OOOO............oooooooooooooooooooooooooooooooooooo",
"oooooooooooooooooooooooooooooooooooo............OOOO........................OOOO............oooooooooooooooooooooooooooooooooooo",
"oooooooooooooooooooooooooooooooooooo............OOOO........................OOOO............oooooooooooooooooooooooooooooooooooo",
"oooooooooooooooooooooooooooooooo................................................................oooooooooooooooooooooooooooooooo",
"oooooooooooooooooooooooooooooooo................................................................oooooooooooooooooooooooooooooooo",
"oooooooooooooooooooooooooooooooo................................................................oooooooooooooooooooooooooooooooo",
"oooooooooooooooooooooooooooooooo................................................................oooooooooooooooooooooooooooooooo",
"ooooooooooooooooooooooooooooooooOOOOOOOO............oooooooo........oooooooo............OOOOOOOOoooooooooooooooooooooooooooooooo",
"ooooooooooooooooooooooooooooooooOOOOOOOO............oooooooo........oooooooo............OOOOOOOOoooooooooooooooooooooooooooooooo",
"ooooooooooooooooooooooooooooooooOOOOOOOO............oooooooo........oooooooo............OOOOOOOOoooooooooooooooooooooooooooooooo",
"ooooooooooooooooooooooooooooooooOOOOOOOO............oooooooo........oooooooo............OOOOOOOOoooooooooooooooooooooooooooooooo",
"oooooooooooooooooooooooooooooooooooooooooooooooooooooooooooo........oooooooooooooooooooooooooooooooooooooooooooooooooooooooooooo",
"oooooooooooooooooooooooooooooooooooooooooooooooooooooooooooo........oooooooooooooooooooooooooooooooooooooooooooooooooooooooooooo",
"oooooooooooooooooooooooooooooooooooooooooooooooooooooooooooo........oooooooooooooooooooooooooooooooooooooooooooooooooooooooooooo",
"oooooooooooooooooooooooooooooooooooooooooooooooooooooooooooo........oooooooooooooooooooooooooooooooooooooooooooooooooooooooooooo",
"oooooooooooooooooooooooooooooooooooooooooooooooooooooooooooo........oooooooooooooooooooooooooooooooooooooooo$$$$$$$$oooooooooooo",
"oooooooooooooooooooooooooooooooooooooooooooooooooooooooooooo........oooooooooooooooooooooooooooooooooooooooo$$$$$$$$oooooooooooo",
"oooooooooooooooooooooooooooooooooooooooooooooooooooooooooooo........oooooooooooooooooooooooooooooooooooooooo$$$$$$$$oooooooooooo",
"oooooooooooooooooooooooooooooooooooooooooooooooooooooooooooo........oooooooooooooooooooooooooooooooooooooooo$$$$$$$$oooooooooooo",
"oooooooooooooooo$$$$$$$$$$$$ooooooooooooooooooooooooooooooooOOOOOOOOoooooooooooooooooooooooooooooooo$$$$$$$$$$$$oooooooooooooooo",
"oooooooooooooooo$$$$$$$$$$$$ooooooooooooooooooooooooooooooooOOOOOOOOoooooooooooooooooooooooooooooooo$$$$$$$$$$$$oooooooooooooooo",
"oooooooooooooooo$$$$$$$$$$$$ooooooooooooooooooooooooooooooooOOOOOOOOoooooooooooooooooooooooooooooooo$$$$$$$$$$$$oooooooooooooooo",
"oooooooooooooooo$$$$$$$$$$$$ooooooooooooooooooooooooooooooooOOOOOOOOoooooooooooooooooooooooooooooooo$$$$$$$$$$$$oooooooooooooooo",
"oooooooooooooooooooooooooooo$$$$$$$$$$$$oooooooooooooooooooooooooooooooooooooooooooooooooooo$$$$$$$$$$$$oooooooooooooooooooooooo",
"oooooooooooooooooooooooooooo$$$$$$$$$$$$oooooooooooooooooooooooooooooooooooooooooooooooooooo$$$$$$$$$$$$oooooooooooooooooooooooo",
"oooooooooooooooooooooooooooo$$$$$$$$$$$$oooooooooooooooooooooooooooooooooooooooooooooooooooo$$$$$$$$$$$$oooooooooooooooooooooooo",
"oooooooooooooooooooooooooooo$$$$$$$$$$$$oooooooooooooooooooooooooooooooooooooooooooooooooooo$$$$$$$$$$$$oooooooooooooooooooooooo",
"oooooooooooooooooooooooooooooooooooooooooooooooooooooooooooooooooooooooooooooooooooooooooooooooooooooooooooooooooooooooooooooooo",
"oooooooooooooooooooooooooooooooooooooooooooooooooooooooooooooooooooooooooooooooooooooooooooooooooooooooooooooooooooooooooooooooo",
"oooooooooooooooooooooooooooooooooooooooooooooooooooooooooooooooooooooooooooooooooooooooooooooooooooooooooooooooooooooooooooooooo",
"oooooooooooooooooooooooooooooooooooooooooooooooooooooooooooooooooooooooooooooooooooooooooooooooooooooooooooooooooooooooooooooooo",
"oooooooooooooooooooooooooooooooooooooooooooooooooooooooooooooooooooooooooooooooooooooooooooooooooooooooooooooooooooooooooooooooo",
"oooooooooooooooooooooooooooooooooooooooooooooooooooooooooooooooooooooooooooooooooooooooooooooooooooooooooooooooooooooooooooooooo",
"oooooooooooooooooooooooooooooooooooooooooooooooooooooooooooooooooooooooooooooooooooooooooooooooooooooooooooooooooooooooooooooooo",
"oooooooooooooooooooooooooooooooooooooooooooooooooooooooooooooooooooooooooooooooooooooooooooooooooooooooooooooooooooooooooooooooo",
"oooooooooooooooooooooooooooooooooooooooooooooooooooooooooooooooooooooooooooooooooooooooooooooooooooooooooooooooooooooooooooooooo"
};
