/* XPM */
static char *result[] = {
/* columns rows colors chars-per-pixel */
"128 128 9 1 ",
"  c black",
". c #343333",
"X c #214433",
"o c #2B3D53",
"O c #573964",
"+ c #1D6642",
"@ c #297970",
"# c #A0821B",
"$ c #496C97",
/* pixels */
"oooooooooooooooooooooooooooooooooooooooooooooooooooooooo@@@@@@@@@@@@XXXXXXXXXXXXXXXXXXXXXXXXXXXXXXXXXXXXXXXXXXXXXXXXXXXXXXXXXXXX",
"oooooooooooooooooooooooooooooooooooooooooooooooooooooooo@@@@@@@@@@@@XXXXXXXXXXXXXXXXXXXXXXXXXXXXXXXXXXXXXXXXXXXXXXXXXXXXXXXXXXXX",
"oooooooooooooooooooooooooooooooooooooooooooooooooooooooo@@@@@@@@@@@@XXXXXXXXXXXXXXXXXXXXXXXXXXXXXXXXXXXXXXXXXXXXXXXXXXXXXXXXXXXX",
"oooooooooooooooooooooooooooooooooooooooooooooooooooooooo@@@@@@@@@@@@XXXXXXXXXXXXXXXXXXXXXXXXXXXXXXXXXXXXXXXXXXXXXXXXXXXXXXXXXXXX",
"oooooooooooooooooooooooooooooooooooooooooooooooooooooooo@@@@@@@@@@@@XXXXXXXXXXXXXXXXXXXXXXXXXXXXXXXXXXXXXXXXXXXXXXXXXXXXXXXXXXXX",
"oooooooooooooooooooooooooooooooooooooooooooooooooooooooo@@@@@@@@@@@@XXXXXXXXXXXXXXXXXXXXXXXXXXXXXXXXXXXXXXXXXXXXXXXXXXXXXXXXXXXX",
"oooooooooooooooooooooooooooooooooooooooooooooooooooooooo@@@@@@@@@@@@XXXXXXXXXXXXXXXXXXXXXXXXXXXXXXXXXXXXXXXXXXXXXXXXXXXXXXXXXXXX",
"oooooooooooooooooooooooooooooooooooooooooooooooooooooooo@@@@@@@@@@@@XXXXXXXXXXXXXXXXXXXXXXXXXXXXXXXXXXXXXXXXXXXXXXXXXXXXXXXXXXXX",
"oooooooooooooooooooooooooooooooooooooooo$$$$oooooooooooo@@@@@@@@@@@@XXXXXXXXXXXXXXXXXXXXXXXXXXXX++++++++XXXXXXXXXXXXXXXXXXXXXXXX",
"oooooooooooooooooooooooooooooooooooooooo$$$$oooooooooooo@@@@@@@@@@@@XXXXXXXXXXXXXXXXXXXXXXXXXXXX++++++++XXXXXXXXXXXXXXXXXXXXXXXX",
"oooooooooooooooooooooooooooooooooooooooo$$$$oooooooooooo@@@@@@@@@@@@XXXXXXXXXXXXXXXXXXXXXXXXXXXX++++++++XXXXXXXXXXXXXXXXXXXXXXXX",
"oooooooooooooooooooooooooooooooooooooooo$$$$oooooooooooo@@@@@@@@@@@@XXXXXXXXXXXXXXXXXXXXXXXXXXXX++++++++XXXXXXXXXXXXXXXXXXXXXXXX",
"oooooooooooo$$$$oooooooooooooooooooo$$$$$$$$oooooooooooo@@@@@@@@@@@@XXXXXXXXXXXXXXXXXXXXXXXXXXXX++++XXXXXXXXXXXX++++XXXXXXXXXXXX",
"oooooooooooo$$$$oooooooooooooooooooo$$$$$$$$oooooooooooo@@@@@@@@@@@@XXXXXXXXXXXXXXXXXXXXXXXXXXXX++++XXXXXXXXXXXX++++XXXXXXXXXXXX",
"oooooooooooo$$$$oooooooooooooooooooo$$$$$$$$oooooooooooo@@@@@@@@@@@@XXXXXXXXXXXXXXXXXXXXXXXXXXXX++++XXXXXXXXXXXX++++XXXXXXXXXXXX",
"oooooooooooo$$$$oooooooooooooooooooo$$$$$$$$oooooooooooo@@@@@@@@@@@@XXXXXXXXXXXXXXXXXXXXXXXXXXXX++++XXXXXXXXXXXX++++XXXXXXXXXXXX",
"oooooooo$$$$$$$$oooooooooooooooooooo$$$$oooooooooooooooo@@@@@@@@@@@@XXXXXXXX++++XXXXXXXXXXXXXXXXXXXXXXXXXXXXXXXX++++XXXXXXXXXXXX",
"oooooooo$$$$$$$$oooooooooooooooooooo$$$$oooooooooooooooo@@@@@@@@@@@@XXXXXXXX++++XXXXXXXXXXXXXXXXXXXXXXXXXXXXXXXX++++XXXXXXXXXXXX",
"oooooooo$$$$$$$$oooooooooooooooooooo$$$$oooooooooooooooo@@@@@@@@@@@@XXXXXXXX++++XXXXXXXXXXXXXXXXXXXXXXXXXXXXXXXX++++XXXXXXXXXXXX",
"oooooooo$$$$$$$$oooooooooooooooooooo$$$$oooooooooooooooo@@@@@@@@@@@@XXXXXXXX++++XXXXXXXXXXXXXXXXXXXXXXXXXXXXXXXX++++XXXXXXXXXXXX",
"oooooooo$$$$oooooooooooooooooooooooo$$$$$$$$oooooooooooo@@@@@@@@@@@@XXXX++++XXXXXXXXXXXXXXXXXXXXXXXXXXXXXXXXXXXX++++++++XXXXXXXX",
"oooooooo$$$$oooooooooooooooooooooooo$$$$$$$$oooooooooooo@@@@@@@@@@@@XXXX++++XXXXXXXXXXXXXXXXXXXXXXXXXXXXXXXXXXXX++++++++XXXXXXXX",
"oooooooo$$$$oooooooooooooooooooooooo$$$$$$$$oooooooooooo@@@@@@@@@@@@XXXX++++XXXXXXXXXXXXXXXXXXXXXXXXXXXXXXXXXXXX++++++++XXXXXXXX",
"oooooooo$$$$oooooooooooooooooooooooo$$$$$$$$oooooooooooo@@@@@@@@@@@@XXXX++++XXXXXXXXXXXXXXXXXXXXXXXXXXXXXXXXXXXX++++++++XXXXXXXX",
"oooo$$$$$$$$oooooooooooooooooooooooooooo$$$$oooooooooooo@@@@@@@@@@@@XXXXXXXXXXXXXXXXXXXXXXXXXXXXXXXXXXXXXXXXXXXX++++++++XXXXXXXX",
"oooo$$$$$$$$oooooooooooooooooooooooooooo$$$$oooooooooooo@@@@@@@@@@@@XXXXXXXXXXXXXXXXXXXXXXXXXXXXXXXXXXXXXXXXXXXX++++++++XXXXXXXX",
"oooo$$$$$$$$oooooooooooooooooooooooooooo$$$$oooooooooooo@@@@@@@@@@@@XXXXXXXXXXXXXXXXXXXXXXXXXXXXXXXXXXXXXXXXXXXX++++++++XXXXXXXX",
"oooo$$$$$$$$oooooooooooooooooooooooooooo$$$$oooooooooooo@@@@@@@@@@@@XXXXXXXXXXXXXXXXXXXXXXXXXXXXXXXXXXXXXXXXXXXX++++++++XXXXXXXX",
"oooo$$$$oooooooooooooooooooooooooooooooooooooooooooooooo@@@@@@@@@@@@XXXXXXXXXXXXXXXXXXXX++++XXXXXXXXXXXXXXXXXXXX++++++++XXXXXXXX",
"oooo$$$$oooooooooooooooooooooooooooooooooooooooooooooooo@@@@@@@@@@@@XXXXXXXXXXXXXXXXXXXX++++XXXXXXXXXXXXXXXXXXXX++++++++XXXXXXXX",
"oooo$$$$oooooooooooooooooooooooooooooooooooooooooooooooo@@@@@@@@@@@@XXXXXXXXXXXXXXXXXXXX++++XXXXXXXXXXXXXXXXXXXX++++++++XXXXXXXX",
"oooo$$$$oooooooooooooooooooooooooooooooooooooooooooooooo@@@@@@@@@@@@XXXXXXXXXXXXXXXXXXXX++++XXXXXXXXXXXXXXXXXXXX++++++++XXXXXXXX",
"oooo$$$$ooooooooooooOOOO....oooooooooooooooooooooooooooo@@@@@@@@@@@@XXXXXXXXXXXXXXXX++++++++XXXXXXXXXXXX....XXXX++++++++XXXXXXXX",
"oooo$$$$ooooooooooooOOOO....oooooooooooooooooooooooooooo@@@@@@@@@@@@XXXXXXXXXXXXXXXX++++++++XXXXXXXXXXXX....XXXX++++++++XXXXXXXX",
"oooo$$$$ooooooooooooOOOO....oooooooooooooooooooooooooooo@@@@@@@@@@@@XXXXXXXXXXXXXXXX++++++++XXXXXXXXXXXX....XXXX++++++++XXXXXXXX",
"oooo$$$$ooooooooooooOOOO....oooooooooooooooooooooooooooo@@@@@@@@@@@@XXXXXXXXXXXXXXXX++++++++XXXXXXXXXXXX....XXXX++++++++XXXXXXXX",
"ooooooooooooooooooooOOOO........oooooooooooooooooooooooo@@@@@@@@@@@@XXXXXXXX++++++++XXXXXXXXXXXXXXXX........XXXX++++++++XXXXXXXX",
"ooooooooooooooooooooOOOO........oooooooooooooooooooooooo@@@@@@@@@@@@XXXXXXXX++++++++XXXXXXXXXXXXXXXX........XXXX++++++++XXXXXXXX",
"ooooooooooooooooooooOOOO........oooooooooooooooooooooooo@@@@@@@@@@@@XXXXXXXX++++++++XXXXXXXXXXXXXXXX........XXXX++++++++XXXXXXXX",
"ooooooooooooooooooooOOOO........oooooooooooooooooooooooo@@@@@@@@@@@@XXXXXXXX++++++++XXXXXXXXXXXXXXXX........XXXX++++++++XXXXXXXX",
"oooooooooooooooooooo............oooooooooooooooooooooooo@@@@@@@@@@@@XXXX++++++++XXXXXXXXXXXXXXXXXXXX........XXXX++++++++XXXXXXXX",
"oooooooooooooooooooo............oooooooooooooooooooooooo@@@@@@@@@@@@XXXX++++++++XXXXXXXXXXXXXXXXXXXX........XXXX++++++++XXXXXXXX",
"oooooooooooooooooooo............oooooooooooooooooooooooo@@@@@@@@@@@@XXXX++++++++XXXXXXXXXXXXXXXXXXXX........XXXX++++++++XXXXXXXX",
"oooooooooooooooooooo............oooooooooooooooooooooooo@@@@@@@@@@@@XXXX++++++++XXXXXXXXXXXXXXXXXXXX........XXXX++++++++XXXXXXXX",
"oooooooooooooooooooo................oooooooooooooooooooo@@@@@@@@@@@@XXXXXXXXXXXXXXXXXXXXXXXXXXXX............XXXXXXXXXXXXXXXXXXXX",
"oooooooooooooooooooo................oooooooooooooooooooo@@@@@@@@@@@@XXXXXXXXXXXXXXXXXXXXXXXXXXXX............XXXXXXXXXXXXXXXXXXXX",
"oooooooooooooooooooo................oooooooooooooooooooo@@@@@@@@@@@@XXXXXXXXXXXXXXXXXXXXXXXXXXXX............XXXXXXXXXXXXXXXXXXXX",
"oooooooooooooooooooo................oooooooooooooooooooo@@@@@@@@@@@@XXXXXXXXXXXXXXXXXXXXXXXXXXXX............XXXXXXXXXXXXXXXXXXXX",
"oooooooooooooooooooo........OOOO....................####............................................####....XXXXXXXXXXXXXXXXXXXX",
"oooooooooooooooooooo........OOOO....................####............................................####....XXXXXXXXXXXXXXXXXXXX",
"oooooooooooooooooooo........OOOO....................####............................................####....XXXXXXXXXXXXXXXXXXXX",
"oooooooooooooooooooo........OOOO....................####............................................####....XXXXXXXXXXXXXXXXXXXX",
"oooooooooooooooooooooooo................................####................................................XXXXXXXXXXXXXXXXXXXX",
"oooooooooooooooooooooooo................................####................................................XXXXXXXXXXXXXXXXXXXX",
"oooooooooooooooooooooooo................................####................................................XXXXXXXXXXXXXXXXXXXX",
"oooooooooooooooooooooooo................................####................................................XXXXXXXXXXXXXXXXXXXX",
"oooooooooooooooooooooooo............    ....................####........................................OOOOXXXXXXXXXXXXXXXXXXXX",
"oooooooooooooooooooooooo............    ....................####........................................OOOOXXXXXXXXXXXXXXXXXXXX",
"oooooooooooooooooooooooo............    ....................####........................................OOOOXXXXXXXXXXXXXXXXXXXX",
"oooooooooooooooooooooooo............    ....................####........................................OOOOXXXXXXXXXXXXXXXXXXXX",
"ooooooooOOOO........................OOOOOOOOOOOO................########................................OOOOXXXXXXXXXXXXXXXXXXXX",
"ooooooooOOOO........................OOOOOOOOOOOO................########................................OOOOXXXXXXXXXXXXXXXXXXXX",
"ooooooooOOOO........................OOOOOOOOOOOO................########................................OOOOXXXXXXXXXXXXXXXXXXXX",
"ooooooooOOOO........................OOOOOOOOOOOO................########................................OOOOXXXXXXXXXXXXXXXXXXXX",
"ooooooooOOOO........................OOOOOOOOOOOO................########................................OOOOXXXXXXXX++++XXXXXXXX",
"ooooooooOOOO........................OOOOOOOOOOOO................########................................OOOOXXXXXXXX++++XXXXXXXX",
"ooooooooOOOO........................OOOOOOOOOOOO................########................................OOOOXXXXXXXX++++XXXXXXXX",
"ooooooooOOOO........................OOOOOOOOOOOO................########................................OOOOXXXXXXXX++++XXXXXXXX",
"oooooooooooooooooooooooo............    ....................####........................................OOOOXXXXXXXX++++XXXXXXXX",
"oooooooooooooooooooooooo............    ....................####........................................OOOOXXXXXXXX++++XXXXXXXX",
"oooooooooooooooooooooooo............    ....................####........................................OOOOXXXXXXXX++++XXXXXXXX",
"oooooooooooooooooooooooo............    ....................####........................................OOOOXXXXXXXX++++XXXXXXXX",
"oooooooooooooooooooooooo................................####................................................XXXXXXXX++++XXXXXXXX",
"oooooooooooooooooooooooo................................####................................................XXXXXXXX++++XXXXXXXX",
"oooooooooooooooooooooooo................................####................................................XXXXXXXX++++XXXXXXXX",
"oooooooooooooooooooooooo................................####................................................XXXXXXXX++++XXXXXXXX",
"oooooooooooooooooooo........OOOO....................####............................................####....XXXXXXXX++++XXXXXXXX",
"oooooooooooooooooooo........OOOO....................####............................................####....XXXXXXXX++++XXXXXXXX",
"oooooooooooooooooooo........OOOO....................####............................................####....XXXXXXXX++++XXXXXXXX",
"oooooooooooooooooooo........OOOO....................####............................................####....XXXXXXXX++++XXXXXXXX",
"oooooooooooooooooooo................oooooooooooooooooooo@@@@@@@@@@@@XXXXXXXXXXXXXXXXXXXXXXXXXXXX............XXXXXXXX++++XXXXXXXX",
"oooooooooooooooooooo................oooooooooooooooooooo@@@@@@@@@@@@XXXXXXXXXXXXXXXXXXXXXXXXXXXX............XXXXXXXX++++XXXXXXXX",
"oooooooooooooooooooo................oooooooooooooooooooo@@@@@@@@@@@@XXXXXXXXXXXXXXXXXXXXXXXXXXXX............XXXXXXXX++++XXXXXXXX",
"oooooooooooooooooooo................oooooooooooooooooooo@@@@@@@@@@@@XXXXXXXXXXXXXXXXXXXXXXXXXXXX............XXXXXXXX++++XXXXXXXX",
"oooooooooooooooooooo............oooooooooooooooooooooooo@@@@@@@@@@@@XXXXXXXXXXXX++++++++XXXXXXXXXXXX........XXXXXXXXXXXXXXXXXXXX",
"oooooooooooooooooooo............oooooooooooooooooooooooo@@@@@@@@@@@@XXXXXXXXXXXX++++++++XXXXXXXXXXXX........XXXXXXXXXXXXXXXXXXXX",
"oooooooooooooooooooo............oooooooooooooooooooooooo@@@@@@@@@@@@XXXXXXXXXXXX++++++++XXXXXXXXXXXX........XXXXXXXXXXXXXXXXXXXX",
"oooooooooooooooooooo............oooooooooooooooooooooooo@@@@@@@@@@@@XXXXXXXXXXXX++++++++XXXXXXXXXXXX........XXXXXXXXXXXXXXXXXXXX",
"oooo$$$$ooooooooooooOOOO........oooooooooooooooooooooooo@@@@@@@@@@@@XXXXXXXXXXXXXXXX++++++++XXXXXXXX........XXXXXXXXXXXXXXXXXXXX",
"oooo$$$$ooooooooooooOOOO........oooooooooooooooooooooooo@@@@@@@@@@@@XXXXXXXXXXXXXXXX++++++++XXXXXXXX........XXXXXXXXXXXXXXXXXXXX",
"oooo$$$$ooooooooooooOOOO........oooooooooooooooooooooooo@@@@@@@@@@@@XXXXXXXXXXXXXXXX++++++++XXXXXXXX........XXXXXXXXXXXXXXXXXXXX",
"oooo$$$$ooooooooooooOOOO........oooooooooooooooooooooooo@@@@@@@@@@@@XXXXXXXXXXXXXXXX++++++++XXXXXXXX........XXXXXXXXXXXXXXXXXXXX",
"oooo$$$$ooooooooooooOOOO....oooooooooooooooooooooooooooo@@@@@@@@@@@@XXXXXXXXXXXXXXXXXXXX++++XXXXXXXXXXXX....XXXXXXXXXXXXXXXXXXXX",
"oooo$$$$ooooooooooooOOOO....oooooooooooooooooooooooooooo@@@@@@@@@@@@XXXXXXXXXXXXXXXXXXXX++++XXXXXXXXXXXX....XXXXXXXXXXXXXXXXXXXX",
"oooo$$$$ooooooooooooOOOO....oooooooooooooooooooooooooooo@@@@@@@@@@@@XXXXXXXXXXXXXXXXXXXX++++XXXXXXXXXXXX....XXXXXXXXXXXXXXXXXXXX",
"oooo$$$$ooooooooooooOOOO....oooooooooooooooooooooooooooo@@@@@@@@@@@@XXXXXXXXXXXXXXXXXXXX++++XXXXXXXXXXXX....XXXXXXXXXXXXXXXXXXXX",
"oooo$$$$oooooooooooooooooooooooooooooooooooooooooooooooo@@@@@@@@@@@@XXXXXXXXXXXXXXXXXXXXXXXXXXXXXXXXXXXXXXXX++++++++XXXXXXXXXXXX",
"oooo$$$$oooooooooooooooooooooooooooooooooooooooooooooooo@@@@@@@@@@@@XXXXXXXXXXXXXXXXXXXXXXXXXXXXXXXXXXXXXXXX++++++++XXXXXXXXXXXX",
"oooo$$$$oooooooooooooooooooooooooooooooooooooooooooooooo@@@@@@@@@@@@XXXXXXXXXXXXXXXXXXXXXXXXXXXXXXXXXXXXXXXX++++++++XXXXXXXXXXXX",
"oooo$$$$oooooooooooooooooooooooooooooooooooooooooooooooo@@@@@@@@@@@@XXXXXXXXXXXXXXXXXXXXXXXXXXXXXXXXXXXXXXXX++++++++XXXXXXXXXXXX",
"oooooooo$$$$oooooooooooooooooooooooooooooooooooooooooooo@@@@@@@@@@@@XXXXXXXXXXXXXXXXXXXXXXXXXXXXXXXXXXXXXXXX++++XXXXXXXXXXXXXXXX",
"oooooooo$$$$oooooooooooooooooooooooooooooooooooooooooooo@@@@@@@@@@@@XXXXXXXXXXXXXXXXXXXXXXXXXXXXXXXXXXXXXXXX++++XXXXXXXXXXXXXXXX",
"oooooooo$$$$oooooooooooooooooooooooooooooooooooooooooooo@@@@@@@@@@@@XXXXXXXXXXXXXXXXXXXXXXXXXXXXXXXXXXXXXXXX++++XXXXXXXXXXXXXXXX",
"oooooooo$$$$oooooooooooooooooooooooooooooooooooooooooooo@@@@@@@@@@@@XXXXXXXXXXXXXXXXXXXXXXXXXXXXXXXXXXXXXXXX++++XXXXXXXXXXXXXXXX",
"oooooooo$$$$oooooooooooooooooooooooooooo$$$$oooooooooooo@@@@@@@@@@@@XXXXXXXXXXXXXXXXXXXXXXXXXXXXXXXXXXXXXXXXXXXXXXXXXXXXXXXXXXXX",
"oooooooo$$$$oooooooooooooooooooooooooooo$$$$oooooooooooo@@@@@@@@@@@@XXXXXXXXXXXXXXXXXXXXXXXXXXXXXXXXXXXXXXXXXXXXXXXXXXXXXXXXXXXX",
"oooooooo$$$$oooooooooooooooooooooooooooo$$$$oooooooooooo@@@@@@@@@@@@XXXXXXXXXXXXXXXXXXXXXXXXXXXXXXXXXXXXXXXXXXXXXXXXXXXXXXXXXXXX",
"oooooooo$$$$oooooooooooooooooooooooooooo$$$$oooooooooooo@@@@@@@@@@@@XXXXXXXXXXXXXXXXXXXXXXXXXXXXXXXXXXXXXXXXXXXXXXXXXXXXXXXXXXXX",
"oooooooo$$$$oooooooooooooooooooooooo$$$$$$$$oooooooooooo@@@@@@@@@@@@XXXXXXXXXXXXXXXXXXXXXXXXXXXXXXXX++++++++XXXXXXXXXXXXXXXXXXXX",
"oooooooo$$$$oooooooooooooooooooooooo$$$$$$$$oooooooooooo@@@@@@@@@@@@XXXXXXXXXXXXXXXXXXXXXXXXXXXXXXXX++++++++XXXXXXXXXXXXXXXXXXXX",
"oooooooo$$$$oooooooooooooooooooooooo$$$$$$$$oooooooooooo@@@@@@@@@@@@XXXXXXXXXXXXXXXXXXXXXXXXXXXXXXXX++++++++XXXXXXXXXXXXXXXXXXXX",
"oooooooo$$$$oooooooooooooooooooooooo$$$$$$$$oooooooooooo@@@@@@@@@@@@XXXXXXXXXXXXXXXXXXXXXXXXXXXXXXXX++++++++XXXXXXXXXXXXXXXXXXXX",
"oooooooooooooooooooooooooooooooooooo$$$$oooooooooooooooo@@@@@@@@@@@@XXXXXXXXXXXX++++++++XXXXXXXXXXXX++++++++XXXXXXXXXXXXXXXXXXXX",
"oooooooooooooooooooooooooooooooooooo$$$$oooooooooooooooo@@@@@@@@@@@@XXXXXXXXXXXX++++++++XXXXXXXXXXXX++++++++XXXXXXXXXXXXXXXXXXXX",
"oooooooooooooooooooooooooooooooooooo$$$$oooooooooooooooo@@@@@@@@@@@@XXXXXXXXXXXX++++++++XXXXXXXXXXXX++++++++XXXXXXXXXXXXXXXXXXXX",
"oooooooooooooooooooooooooooooooooooo$$$$oooooooooooooooo@@@@@@@@@@@@XXXXXXXXXXXX++++++++XXXXXXXXXXXX++++++++XXXXXXXXXXXXXXXXXXXX",
"oooooooooooooooooooooooooooooooooooo$$$$oooooooooooooooo@@@@@@@@@@@@XXXXXXXXXXXXXXXXXXXXXXXXXXXX++++XXXXXXXXXXXXXXXXXXXXXXXXXXXX",
"oooooooooooooooooooooooooooooooooooo$$$$oooooooooooooooo@@@@@@@@@@@@XXXXXXXXXXXXXXXXXXXXXXXXXXXX++++XXXXXXXXXXXXXXXXXXXXXXXXXXXX",
"oooooooooooooooooooooooooooooooooooo$$$$oooooooooooooooo@@@@@@@@@@@@XXXXXXXXXXXXXXXXXXXXXXXXXXXX++++XXXXXXXXXXXXXXXXXXXXXXXXXXXX",
"oooooooooooooooooooooooooooooooooooo$$$$oooooooooooooooo@@@@@@@@@@@@XXXXXXXXXXXXXXXXXXXXXXXXXXXX++++XXXXXXXXXXXXXXXXXXXXXXXXXXXX",
"oooooooooooooooooooooooooooooooooooooooooooooooooooooooo@@@@@@@@@@@@XXXXXXXXXXXXXXXXXXXXXXXXXXXX++++XXXXXXXXXXXXXXXXXXXXXXXXXXXX",
"oooooooooooooooooooooooooooooooooooooooooooooooooooooooo@@@@@@@@@@@@XXXXXXXXXXXXXXXXXXXXXXXXXXXX++++XXXXXXXXXXXXXXXXXXXXXXXXXXXX",
"oooooooooooooooooooooooooooooooooooooooooooooooooooooooo@@@@@@@@@@@@XXXXXXXXXXXXXXXXXXXXXXXXXXXX++++XXXXXXXXXXXXXXXXXXXXXXXXXXXX",
"oooooooooooooooooooooooooooooooooooooooooooooooooooooooo@@@@@@@@@@@@XXXXXXXXXXXXXXXXXXXXXXXXXXXX++++XXXXXXXXXXXXXXXXXXXXXXXXXXXX",
"oooooooooooooooooooooooooooooooooooooooooooooooooooooooo@@@@@@@@@@@@XXXXXXXXXXXXXXXXXXXXXXXXXXXXXXXXXXXXXXXXXXXXXXXXXXXXXXXXXXXX",
"oooooooooooooooooooooooooooooooooooooooooooooooooooooooo@@@@@@@@@@@@XXXXXXXXXXXXXXXXXXXXXXXXXXXXXXXXXXXXXXXXXXXXXXXXXXXXXXXXXXXX",
"oooooooooooooooooooooooooooooooooooooooooooooooooooooooo@@@@@@@@@@@@XXXXXXXXXXXXXXXXXXXXXXXXXXXXXXXXXXXXXXXXXXXXXXXXXXXXXXXXXXXX",
"oooooooooooooooooooooooooooooooooooooooooooooooooooooooo@@@@@@@@@@@@XXXXXXXXXXXXXXXXXXXXXXXXXXXXXXXXXXXXXXXXXXXXXXXXXXXXXXXXXXXX"
};
