/* XPM */
static char *result[] = {
/* columns rows colors chars-per-pixel */
"128 128 9 1 ",
"  c black",
". c #343333",
"X c #214433",
"o c #2B3D53",
"O c #573964",
"+ c #1D6642",
"@ c #297970",
"# c #A0821B",
"$ c #496C97",
/* pixels */
"XXXXXXXXXXXXXXXXXXXXXXXXXXXXXXXXXXXXXXXXXXXXXXXXXXXXXXXXXXXX@@@@@@@@@@@@oooooooooooooooooooooooooooooooooooooooooooooooooooooooo",
"XXXXXXXXXXXXXXXXXXXXXXXXXXXXXXXXXXXXXXXXXXXXXXXXXXXXXXXXXXXX@@@@@@@@@@@@oooooooooooooooooooooooooooooooooooooooooooooooooooooooo",
"XXXXXXXXXXXXXXXXXXXXXXXXXXXXXXXXXXXXXXXXXXXXXXXXXXXXXXXXXXXX@@@@@@@@@@@@oooooooooooooooooooooooooooooooooooooooooooooooooooooooo",
"XXXXXXXXXXXXXXXXXXXXXXXXXXXXXXXXXXXXXXXXXXXXXXXXXXXXXXXXXXXX@@@@@@@@@@@@oooooooooooooooooooooooooooooooooooooooooooooooooooooooo",
"XXXXXXXXXXXXXXXXXXXXXXXXXXXXXXXXXXXXXXXXXXXXXXXXXXXXXXXXXXXX@@@@@@@@@@@@oooooooooooooooooooooooooooooooooooooooooooooooooooooooo",
"XXXXXXXXXXXXXXXXXXXXXXXXXXXXXXXXXXXXXXXXXXXXXXXXXXXXXXXXXXXX@@@@@@@@@@@@oooooooooooooooooooooooooooooooooooooooooooooooooooooooo",
"XXXXXXXXXXXXXXXXXXXXXXXXXXXXXXXXXXXXXXXXXXXXXXXXXXXXXXXXXXXX@@@@@@@@@@@@oooooooooooooooooooooooooooooooooooooooooooooooooooooooo",
"XXXXXXXXXXXXXXXXXXXXXXXXXXXXXXXXXXXXXXXXXXXXXXXXXXXXXXXXXXXX@@@@@@@@@@@@oooooooooooooooooooooooooooooooooooooooooooooooooooooooo",
"XXXXXXXXXXXXXXXXXXXXXXXX++++++++XXXXXXXXXXXXXXXXXXXXXXXXXXXX@@@@@@@@@@@@oooooooooooo$$$$oooooooooooooooooooooooooooooooooooooooo",
"XXXXXXXXXXXXXXXXXXXXXXXX++++++++XXXXXXXXXXXXXXXXXXXXXXXXXXXX@@@@@@@@@@@@oooooooooooo$$$$oooooooooooooooooooooooooooooooooooooooo",
"XXXXXXXXXXXXXXXXXXXXXXXX++++++++XXXXXXXXXXXXXXXXXXXXXXXXXXXX@@@@@@@@@@@@oooooooooooo$$$$oooooooooooooooooooooooooooooooooooooooo",
"XXXXXXXXXXXXXXXXXXXXXXXX++++++++XXXXXXXXXXXXXXXXXXXXXXXXXXXX@@@@@@@@@@@@oooooooooooo$$$$oooooooooooooooooooooooooooooooooooooooo",
"XXXXXXXXXXXX++++XXXXXXXXXXXX++++XXXXXXXXXXXXXXXXXXXXXXXXXXXX@@@@@@@@@@@@oooooooooooo$$$$$$$$oooooooooooooooooooo$$$$oooooooooooo",
"XXXXXXXXXXXX++++XXXXXXXXXXXX++++XXXXXXXXXXXXXXXXXXXXXXXXXXXX@@@@@@@@@@@@oooooooooooo$$$$$$$$oooooooooooooooooooo$$$$oooooooooooo",
"XXXXXXXXXXXX++++XXXXXXXXXXXX++++XXXXXXXXXXXXXXXXXXXXXXXXXXXX@@@@@@@@@@@@oooooooooooo$$$$$$$$oooooooooooooooooooo$$$$oooooooooooo",
"XXXXXXXXXXXX++++XXXXXXXXXXXX++++XXXXXXXXXXXXXXXXXXXXXXXXXXXX@@@@@@@@@@@@oooooooooooo$$$$$$$$oooooooooooooooooooo$$$$oooooooooooo",
"XXXXXXXXXXXX++++XXXXXXXXXXXXXXXXXXXXXXXXXXXXXXXX++++XXXXXXXX@@@@@@@@@@@@oooooooooooooooo$$$$oooooooooooooooooooo$$$$$$$$oooooooo",
"XXXXXXXXXXXX++++XXXXXXXXXXXXXXXXXXXXXXXXXXXXXXXX++++XXXXXXXX@@@@@@@@@@@@oooooooooooooooo$$$$oooooooooooooooooooo$$$$$$$$oooooooo",
"XXXXXXXXXXXX++++XXXXXXXXXXXXXXXXXXXXXXXXXXXXXXXX++++XXXXXXXX@@@@@@@@@@@@oooooooooooooooo$$$$oooooooooooooooooooo$$$$$$$$oooooooo",
"XXXXXXXXXXXX++++XXXXXXXXXXXXXXXXXXXXXXXXXXXXXXXX++++XXXXXXXX@@@@@@@@@@@@oooooooooooooooo$$$$oooooooooooooooooooo$$$$$$$$oooooooo",
"XXXXXXXX++++++++XXXXXXXXXXXXXXXXXXXXXXXXXXXXXXXXXXXX++++XXXX@@@@@@@@@@@@oooooooooooo$$$$$$$$oooooooooooooooooooooooo$$$$oooooooo",
"XXXXXXXX++++++++XXXXXXXXXXXXXXXXXXXXXXXXXXXXXXXXXXXX++++XXXX@@@@@@@@@@@@oooooooooooo$$$$$$$$oooooooooooooooooooooooo$$$$oooooooo",
"XXXXXXXX++++++++XXXXXXXXXXXXXXXXXXXXXXXXXXXXXXXXXXXX++++XXXX@@@@@@@@@@@@oooooooooooo$$$$$$$$oooooooooooooooooooooooo$$$$oooooooo",
"XXXXXXXX++++++++XXXXXXXXXXXXXXXXXXXXXXXXXXXXXXXXXXXX++++XXXX@@@@@@@@@@@@oooooooooooo$$$$$$$$oooooooooooooooooooooooo$$$$oooooooo",
"XXXXXXXX++++++++XXXXXXXXXXXXXXXXXXXXXXXXXXXXXXXXXXXXXXXXXXXX@@@@@@@@@@@@oooooooooooo$$$$oooooooooooooooooooooooooooo$$$$$$$$oooo",
"XXXXXXXX++++++++XXXXXXXXXXXXXXXXXXXXXXXXXXXXXXXXXXXXXXXXXXXX@@@@@@@@@@@@oooooooooooo$$$$oooooooooooooooooooooooooooo$$$$$$$$oooo",
"XXXXXXXX++++++++XXXXXXXXXXXXXXXXXXXXXXXXXXXXXXXXXXXXXXXXXXXX@@@@@@@@@@@@oooooooooooo$$$$oooooooooooooooooooooooooooo$$$$$$$$oooo",
"XXXXXXXX++++++++XXXXXXXXXXXXXXXXXXXXXXXXXXXXXXXXXXXXXXXXXXXX@@@@@@@@@@@@oooooooooooo$$$$oooooooooooooooooooooooooooo$$$$$$$$oooo",
"XXXXXXXX++++++++XXXXXXXXXXXXXXXXXXXX++++XXXXXXXXXXXXXXXXXXXX@@@@@@@@@@@@oooooooooooooooooooooooooooooooooooooooooooooooo$$$$oooo",
"XXXXXXXX++++++++XXXXXXXXXXXXXXXXXXXX++++XXXXXXXXXXXXXXXXXXXX@@@@@@@@@@@@oooooooooooooooooooooooooooooooooooooooooooooooo$$$$oooo",
"XXXXXXXX++++++++XXXXXXXXXXXXXXXXXXXX++++XXXXXXXXXXXXXXXXXXXX@@@@@@@@@@@@oooooooooooooooooooooooooooooooooooooooooooooooo$$$$oooo",
"XXXXXXXX++++++++XXXXXXXXXXXXXXXXXXXX++++XXXXXXXXXXXXXXXXXXXX@@@@@@@@@@@@oooooooooooooooooooooooooooooooooooooooooooooooo$$$$oooo",
"XXXXXXXX++++++++XXXX....XXXXXXXXXXXX++++++++XXXXXXXXXXXXXXXX@@@@@@@@@@@@oooooooooooooooooooooooooooo....OOOOoooooooooooo$$$$oooo",
"XXXXXXXX++++++++XXXX....XXXXXXXXXXXX++++++++XXXXXXXXXXXXXXXX@@@@@@@@@@@@oooooooooooooooooooooooooooo....OOOOoooooooooooo$$$$oooo",
"XXXXXXXX++++++++XXXX....XXXXXXXXXXXX++++++++XXXXXXXXXXXXXXXX@@@@@@@@@@@@oooooooooooooooooooooooooooo....OOOOoooooooooooo$$$$oooo",
"XXXXXXXX++++++++XXXX....XXXXXXXXXXXX++++++++XXXXXXXXXXXXXXXX@@@@@@@@@@@@oooooooooooooooooooooooooooo....OOOOoooooooooooo$$$$oooo",
"XXXXXXXX++++++++XXXX........XXXXXXXXXXXXXXXX++++++++XXXXXXXX@@@@@@@@@@@@oooooooooooooooooooooooo........OOOOoooooooooooooooooooo",
"XXXXXXXX++++++++XXXX........XXXXXXXXXXXXXXXX++++++++XXXXXXXX@@@@@@@@@@@@oooooooooooooooooooooooo........OOOOoooooooooooooooooooo",
"XXXXXXXX++++++++XXXX........XXXXXXXXXXXXXXXX++++++++XXXXXXXX@@@@@@@@@@@@oooooooooooooooooooooooo........OOOOoooooooooooooooooooo",
"XXXXXXXX++++++++XXXX........XXXXXXXXXXXXXXXX++++++++XXXXXXXX@@@@@@@@@@@@oooooooooooooooooooooooo........OOOOoooooooooooooooooooo",
"XXXXXXXX++++++++XXXX........XXXXXXXXXXXXXXXXXXXX++++++++XXXX@@@@@@@@@@@@oooooooooooooooooooooooo............oooooooooooooooooooo",
"XXXXXXXX++++++++XXXX........XXXXXXXXXXXXXXXXXXXX++++++++XXXX@@@@@@@@@@@@oooooooooooooooooooooooo............oooooooooooooooooooo",
"XXXXXXXX++++++++XXXX........XXXXXXXXXXXXXXXXXXXX++++++++XXXX@@@@@@@@@@@@oooooooooooooooooooooooo............oooooooooooooooooooo",
"XXXXXXXX++++++++XXXX........XXXXXXXXXXXXXXXXXXXX++++++++XXXX@@@@@@@@@@@@oooooooooooooooooooooooo............oooooooooooooooooooo",
"XXXXXXXXXXXXXXXXXXXX............XXXXXXXXXXXXXXXXXXXXXXXXXXXX@@@@@@@@@@@@oooooooooooooooooooo................oooooooooooooooooooo",
"XXXXXXXXXXXXXXXXXXXX............XXXXXXXXXXXXXXXXXXXXXXXXXXXX@@@@@@@@@@@@oooooooooooooooooooo................oooooooooooooooooooo",
"XXXXXXXXXXXXXXXXXXXX............XXXXXXXXXXXXXXXXXXXXXXXXXXXX@@@@@@@@@@@@oooooooooooooooooooo................oooooooooooooooooooo",
"XXXXXXXXXXXXXXXXXXXX............XXXXXXXXXXXXXXXXXXXXXXXXXXXX@@@@@@@@@@@@oooooooooooooooooooo................oooooooooooooooooooo",
"XXXXXXXXXXXXXXXXXXXX....####............................................####....................OOOO........oooooooooooooooooooo",
"XXXXXXXXXXXXXXXXXXXX....####............................................####....................OOOO........oooooooooooooooooooo",
"XXXXXXXXXXXXXXXXXXXX....####............................................####....................OOOO........oooooooooooooooooooo",
"XXXXXXXXXXXXXXXXXXXX....####............................................####....................OOOO........oooooooooooooooooooo",
"XXXXXXXXXXXXXXXXXXXX................................................####................................oooooooooooooooooooooooo",
"XXXXXXXXXXXXXXXXXXXX................................................####................................oooooooooooooooooooooooo",
"XXXXXXXXXXXXXXXXXXXX................................................####................................oooooooooooooooooooooooo",
"XXXXXXXXXXXXXXXXXXXX................................................####................................oooooooooooooooooooooooo",
"XXXXXXXXXXXXXXXXXXXXOOOO........................................####....................    ............oooooooooooooooooooooooo",
"XXXXXXXXXXXXXXXXXXXXOOOO........................................####....................    ............oooooooooooooooooooooooo",
"XXXXXXXXXXXXXXXXXXXXOOOO........................................####....................    ............oooooooooooooooooooooooo",
"XXXXXXXXXXXXXXXXXXXXOOOO........................................####....................    ............oooooooooooooooooooooooo",
"XXXXXXXXXXXXXXXXXXXXOOOO................................########................OOOOOOOOOOOO........................OOOOoooooooo",
"XXXXXXXXXXXXXXXXXXXXOOOO................................########................OOOOOOOOOOOO........................OOOOoooooooo",
"XXXXXXXXXXXXXXXXXXXXOOOO................................########................OOOOOOOOOOOO........................OOOOoooooooo",
"XXXXXXXXXXXXXXXXXXXXOOOO................................########................OOOOOOOOOOOO........................OOOOoooooooo",
"XXXXXXXX++++XXXXXXXXOOOO................................########................OOOOOOOOOOOO........................OOOOoooooooo",
"XXXXXXXX++++XXXXXXXXOOOO................................########................OOOOOOOOOOOO........................OOOOoooooooo",
"XXXXXXXX++++XXXXXXXXOOOO................................########................OOOOOOOOOOOO........................OOOOoooooooo",
"XXXXXXXX++++XXXXXXXXOOOO................................########................OOOOOOOOOOOO........................OOOOoooooooo",
"XXXXXXXX++++XXXXXXXXOOOO........................................####....................    ............oooooooooooooooooooooooo",
"XXXXXXXX++++XXXXXXXXOOOO........................................####....................    ............oooooooooooooooooooooooo",
"XXXXXXXX++++XXXXXXXXOOOO........................................####....................    ............oooooooooooooooooooooooo",
"XXXXXXXX++++XXXXXXXXOOOO........................................####....................    ............oooooooooooooooooooooooo",
"XXXXXXXX++++XXXXXXXX................................................####................................oooooooooooooooooooooooo",
"XXXXXXXX++++XXXXXXXX................................................####................................oooooooooooooooooooooooo",
"XXXXXXXX++++XXXXXXXX................................................####................................oooooooooooooooooooooooo",
"XXXXXXXX++++XXXXXXXX................................................####................................oooooooooooooooooooooooo",
"XXXXXXXX++++XXXXXXXX....####............................................####....................OOOO........oooooooooooooooooooo",
"XXXXXXXX++++XXXXXXXX....####............................................####....................OOOO........oooooooooooooooooooo",
"XXXXXXXX++++XXXXXXXX....####............................................####....................OOOO........oooooooooooooooooooo",
"XXXXXXXX++++XXXXXXXX....####............................................####....................OOOO........oooooooooooooooooooo",
"XXXXXXXX++++XXXXXXXX............XXXXXXXXXXXXXXXXXXXXXXXXXXXX@@@@@@@@@@@@oooooooooooooooooooo................oooooooooooooooooooo",
"XXXXXXXX++++XXXXXXXX............XXXXXXXXXXXXXXXXXXXXXXXXXXXX@@@@@@@@@@@@oooooooooooooooooooo................oooooooooooooooooooo",
"XXXXXXXX++++XXXXXXXX............XXXXXXXXXXXXXXXXXXXXXXXXXXXX@@@@@@@@@@@@oooooooooooooooooooo................oooooooooooooooooooo",
"XXXXXXXX++++XXXXXXXX............XXXXXXXXXXXXXXXXXXXXXXXXXXXX@@@@@@@@@@@@oooooooooooooooooooo................oooooooooooooooooooo",
"XXXXXXXXXXXXXXXXXXXX........XXXXXXXXXXXX++++++++XXXXXXXXXXXX@@@@@@@@@@@@oooooooooooooooooooooooo............oooooooooooooooooooo",
"XXXXXXXXXXXXXXXXXXXX........XXXXXXXXXXXX++++++++XXXXXXXXXXXX@@@@@@@@@@@@oooooooooooooooooooooooo............oooooooooooooooooooo",
"XXXXXXXXXXXXXXXXXXXX........XXXXXXXXXXXX++++++++XXXXXXXXXXXX@@@@@@@@@@@@oooooooooooooooooooooooo............oooooooooooooooooooo",
"XXXXXXXXXXXXXXXXXXXX........XXXXXXXXXXXX++++++++XXXXXXXXXXXX@@@@@@@@@@@@oooooooooooooooooooooooo............oooooooooooooooooooo",
"XXXXXXXXXXXXXXXXXXXX........XXXXXXXX++++++++XXXXXXXXXXXXXXXX@@@@@@@@@@@@oooooooooooooooooooooooo........OOOOoooooooooooo$$$$oooo",
"XXXXXXXXXXXXXXXXXXXX........XXXXXXXX++++++++XXXXXXXXXXXXXXXX@@@@@@@@@@@@oooooooooooooooooooooooo........OOOOoooooooooooo$$$$oooo",
"XXXXXXXXXXXXXXXXXXXX........XXXXXXXX++++++++XXXXXXXXXXXXXXXX@@@@@@@@@@@@oooooooooooooooooooooooo........OOOOoooooooooooo$$$$oooo",
"XXXXXXXXXXXXXXXXXXXX........XXXXXXXX++++++++XXXXXXXXXXXXXXXX@@@@@@@@@@@@oooooooooooooooooooooooo........OOOOoooooooooooo$$$$oooo",
"XXXXXXXXXXXXXXXXXXXX....XXXXXXXXXXXX++++XXXXXXXXXXXXXXXXXXXX@@@@@@@@@@@@oooooooooooooooooooooooooooo....OOOOoooooooooooo$$$$oooo",
"XXXXXXXXXXXXXXXXXXXX....XXXXXXXXXXXX++++XXXXXXXXXXXXXXXXXXXX@@@@@@@@@@@@oooooooooooooooooooooooooooo....OOOOoooooooooooo$$$$oooo",
"XXXXXXXXXXXXXXXXXXXX....XXXXXXXXXXXX++++XXXXXXXXXXXXXXXXXXXX@@@@@@@@@@@@oooooooooooooooooooooooooooo....OOOOoooooooooooo$$$$oooo",
"XXXXXXXXXXXXXXXXXXXX....XXXXXXXXXXXX++++XXXXXXXXXXXXXXXXXXXX@@@@@@@@@@@@oooooooooooooooooooooooooooo....OOOOoooooooooooo$$$$oooo",
"XXXXXXXXXXXX++++++++XXXXXXXXXXXXXXXXXXXXXXXXXXXXXXXXXXXXXXXX@@@@@@@@@@@@oooooooooooooooooooooooooooooooooooooooooooooooo$$$$oooo",
"XXXXXXXXXXXX++++++++XXXXXXXXXXXXXXXXXXXXXXXXXXXXXXXXXXXXXXXX@@@@@@@@@@@@oooooooooooooooooooooooooooooooooooooooooooooooo$$$$oooo",
"XXXXXXXXXXXX++++++++XXXXXXXXXXXXXXXXXXXXXXXXXXXXXXXXXXXXXXXX@@@@@@@@@@@@oooooooooooooooooooooooooooooooooooooooooooooooo$$$$oooo",
"XXXXXXXXXXXX++++++++XXXXXXXXXXXXXXXXXXXXXXXXXXXXXXXXXXXXXXXX@@@@@@@@@@@@oooooooooooooooooooooooooooooooooooooooooooooooo$$$$oooo",
"XXXXXXXXXXXXXXXX++++XXXXXXXXXXXXXXXXXXXXXXXXXXXXXXXXXXXXXXXX@@@@@@@@@@@@oooooooooooooooooooooooooooooooooooooooooooo$$$$oooooooo",
"XXXXXXXXXXXXXXXX++++XXXXXXXXXXXXXXXXXXXXXXXXXXXXXXXXXXXXXXXX@@@@@@@@@@@@oooooooooooooooooooooooooooooooooooooooooooo$$$$oooooooo",
"XXXXXXXXXXXXXXXX++++XXXXXXXXXXXXXXXXXXXXXXXXXXXXXXXXXXXXXXXX@@@@@@@@@@@@oooooooooooooooooooooooooooooooooooooooooooo$$$$oooooooo",
"XXXXXXXXXXXXXXXX++++XXXXXXXXXXXXXXXXXXXXXXXXXXXXXXXXXXXXXXXX@@@@@@@@@@@@oooooooooooooooooooooooooooooooooooooooooooo$$$$oooooooo",
"XXXXXXXXXXXXXXXXXXXXXXXXXXXXXXXXXXXXXXXXXXXXXXXXXXXXXXXXXXXX@@@@@@@@@@@@oooooooooooo$$$$oooooooooooooooooooooooooooo$$$$oooooooo",
"XXXXXXXXXXXXXXXXXXXXXXXXXXXXXXXXXXXXXXXXXXXXXXXXXXXXXXXXXXXX@@@@@@@@@@@@oooooooooooo$$$$oooooooooooooooooooooooooooo$$$$oooooooo",
"XXXXXXXXXXXXXXXXXXXXXXXXXXXXXXXXXXXXXXXXXXXXXXXXXXXXXXXXXXXX@@@@@@@@@@@@oooooooooooo$$$$oooooooooooooooooooooooooooo$$$$oooooooo",
"XXXXXXXXXXXXXXXXXXXXXXXXXXXXXXXXXXXXXXXXXXXXXXXXXXXXXXXXXXXX@@@@@@@@@@@@oooooooooooo$$$$oooooooooooooooooooooooooooo$$$$oooooooo",
"XXXXXXXXXXXXXXXXXXXX++++++++XXXXXXXXXXXXXXXXXXXXXXXXXXXXXXXX@@@@@@@@@@@@oooooooooooo$$$$$$$$oooooooooooooooooooooooo$$$$oooooooo",
"XXXXXXXXXXXXXXXXXXXX++++++++XXXXXXXXXXXXXXXXXXXXXXXXXXXXXXXX@@@@@@@@@@@@oooooooooooo$$$$$$$$oooooooooooooooooooooooo$$$$oooooooo",
"XXXXXXXXXXXXXXXXXXXX++++++++XXXXXXXXXXXXXXXXXXXXXXXXXXXXXXXX@@@@@@@@@@@@oooooooooooo$$$$$$$$oooooooooooooooooooooooo$$$$oooooooo",
"XXXXXXXXXXXXXXXXXXXX++++++++XXXXXXXXXXXXXXXXXXXXXXXXXXXXXXXX@@@@@@@@@@@@oooooooooooo$$$$$$$$oooooooooooooooooooooooo$$$$oooooooo",
"XXXXXXXXXXXXXXXXXXXX++++++++XXXXXXXXXXXX++++++++XXXXXXXXXXXX@@@@@@@@@@@@oooooooooooooooo$$$$oooooooooooooooooooooooooooooooooooo",
"XXXXXXXXXXXXXXXXXXXX++++++++XXXXXXXXXXXX++++++++XXXXXXXXXXXX@@@@@@@@@@@@oooooooooooooooo$$$$oooooooooooooooooooooooooooooooooooo",
"XXXXXXXXXXXXXXXXXXXX++++++++XXXXXXXXXXXX++++++++XXXXXXXXXXXX@@@@@@@@@@@@oooooooooooooooo$$$$oooooooooooooooooooooooooooooooooooo",
"XXXXXXXXXXXXXXXXXXXX++++++++XXXXXXXXXXXX++++++++XXXXXXXXXXXX@@@@@@@@@@@@oooooooooooooooo$$$$oooooooooooooooooooooooooooooooooooo",
"XXXXXXXXXXXXXXXXXXXXXXXXXXXX++++XXXXXXXXXXXXXXXXXXXXXXXXXXXX@@@@@@@@@@@@oooooooooooooooo$$$$oooooooooooooooooooooooooooooooooooo",
"XXXXXXXXXXXXXXXXXXXXXXXXXXXX++++XXXXXXXXXXXXXXXXXXXXXXXXXXXX@@@@@@@@@@@@oooooooooooooooo$$$$oooooooooooooooooooooooooooooooooooo",
"XXXXXXXXXXXXXXXXXXXXXXXXXXXX++++XXXXXXXXXXXXXXXXXXXXXXXXXXXX@@@@@@@@@@@@oooooooooooooooo$$$$oooooooooooooooooooooooooooooooooooo",
"XXXXXXXXXXXXXXXXXXXXXXXXXXXX++++XXXXXXXXXXXXXXXXXXXXXXXXXXXX@@@@@@@@@@@@oooooooooooooooo$$$$oooooooooooooooooooooooooooooooooooo",
"XXXXXXXXXXXXXXXXXXXXXXXXXXXX++++XXXXXXXXXXXXXXXXXXXXXXXXXXXX@@@@@@@@@@@@oooooooooooooooooooooooooooooooooooooooooooooooooooooooo",
"XXXXXXXXXXXXXXXXXXXXXXXXXXXX++++XXXXXXXXXXXXXXXXXXXXXXXXXXXX@@@@@@@@@@@@oooooooooooooooooooooooooooooooooooooooooooooooooooooooo",
"XXXXXXXXXXXXXXXXXXXXXXXXXXXX++++XXXXXXXXXXXXXXXXXXXXXXXXXXXX@@@@@@@@@@@@oooooooooooooooooooooooooooooooooooooooooooooooooooooooo",
"XXXXXXXXXXXXXXXXXXXXXXXXXXXX++++XXXXXXXXXXXXXXXXXXXXXXXXXXXX@@@@@@@@@@@@oooooooooooooooooooooooooooooooooooooooooooooooooooooooo",
"XXXXXXXXXXXXXXXXXXXXXXXXXXXXXXXXXXXXXXXXXXXXXXXXXXXXXXXXXXXX@@@@@@@@@@@@oooooooooooooooooooooooooooooooooooooooooooooooooooooooo",
"XXXXXXXXXXXXXXXXXXXXXXXXXXXXXXXXXXXXXXXXXXXXXXXXXXXXXXXXXXXX@@@@@@@@@@@@oooooooooooooooooooooooooooooooooooooooooooooooooooooooo",
"XXXXXXXXXXXXXXXXXXXXXXXXXXXXXXXXXXXXXXXXXXXXXXXXXXXXXXXXXXXX@@@@@@@@@@@@oooooooooooooooooooooooooooooooooooooooooooooooooooooooo",
"XXXXXXXXXXXXXXXXXXXXXXXXXXXXXXXXXXXXXXXXXXXXXXXXXXXXXXXXXXXX@@@@@@@@@@@@oooooooooooooooooooooooooooooooooooooooooooooooooooooooo"
};
