/* XPM */
static char *result[] = {
/* columns rows colors chars-per-pixel */
"128 128 9 1 ",
"  c black",
". c #343333",
"X c #214433",
"o c #2B3D53",
"O c #573964",
"+ c #1D6642",
"@ c #297970",
"# c #A0821B",
"$ c #496C97",
/* pixels */
"XXXXXXXXXXXXXXXXXXXXXXXXXXXXXXXXXXXXXXXXXXXXXXXXXXXXXXXXXXXXXXXXXXXXXXXXXXXXXXXXXXXXXXXXXXXXXXXXXXXXXXXXXXXXXXXXXXXXXXXXXXXXXXXX",
"XXXXXXXXXXXXXXXXXXXXXXXXXXXXXXXXXXXXXXXXXXXXXXXXXXXXXXXXXXXXXXXXXXXXXXXXXXXXXXXXXXXXXXXXXXXXXXXXXXXXXXXXXXXXXXXXXXXXXXXXXXXXXXXX",
"XXXXXXXXXXXXXXXXXXXXXXXXXXXXXXXXXXXXXXXXXXXXXXXXXXXXXXXXXXXXXXXXXXXXXXXXXXXXXXXXXXXXXXXXXXXXXXXXXXXXXXXXXXXXXXXXXXXXXXXXXXXXXXXX",
"XXXXXXXXXXXXXXXXXXXXXXXXXXXXXXXXXXXXXXXXXXXXXXXXXXXXXXXXXXXXXXXXXXXXXXXXXXXXXXXXXXXXXXXXXXXXXXXXXXXXXXXXXXXXXXXXXXXXXXXXXXXXXXXX",
"XXXXXXXXXXXXXXXXXXXXXXXXXXXXXXXXXXXXXXXXXXXXXXXXXXXXXXXXXXXXXXXXXXXXXXXXXXXXXXXXXXXXXXXXXXXXXXXXXXXXXXXXXXXXXXXXXXXXXXXXXXXXXXXX",
"XXXXXXXXXXXXXXXXXXXXXXXXXXXXXXXXXXXXXXXXXXXXXXXXXXXXXXXXXXXXXXXXXXXXXXXXXXXXXXXXXXXXXXXXXXXXXXXXXXXXXXXXXXXXXXXXXXXXXXXXXXXXXXXX",
"XXXXXXXXXXXXXXXXXXXXXXXXXXXXXXXXXXXXXXXXXXXXXXXXXXXXXXXXXXXXXXXXXXXXXXXXXXXXXXXXXXXXXXXXXXXXXXXXXXXXXXXXXXXXXXXXXXXXXXXXXXXXXXXX",
"XXXXXXXXXXXXXXXXXXXXXXXXXXXXXXXXXXXXXXXXXXXXXXXXXXXXXXXXXXXXXXXXXXXXXXXXXXXXXXXXXXXXXXXXXXXXXXXXXXXXXXXXXXXXXXXXXXXXXXXXXXXXXXXX",
"XXXXXXXXXXXXXXXXXXXX++++++++++++++++++++++++XXXXXXXXXXXXXXXXXXXX++++++++++++++++++++XXXXXXXXXXXXXXXXXXXXXXXXXXXXXXXXXXXXXXXXXXXX",
"XXXXXXXXXXXXXXXXXXXX++++++++++++++++++++++++XXXXXXXXXXXXXXXXXXXX++++++++++++++++++++XXXXXXXXXXXXXXXXXXXXXXXXXXXXXXXXXXXXXXXXXXXX",
"XXXXXXXXXXXXXXXXXXXX++++++++++++++++++++++++XXXXXXXXXXXXXXXXXXXX++++++++++++++++++++XXXXXXXXXXXXXXXXXXXXXXXXXXXXXXXXXXXXXXXXXXXX",
"XXXXXXXXXXXXXXXXXXXX++++++++++++++++++++++++XXXXXXXXXXXXXXXXXXXX++++++++++++++++++++XXXXXXXXXXXXXXXXXXXXXXXXXXXXXXXXXXXXXXXXXXXX",
"XXXXXXXXXXXX++++++++++++++++++++++++++++++++XXXXXXXXXXXXXXXXXXXXXXXXXXXXXXXXXXXXXXXXXXXXXXXXXXXX++++XXXXXXXXXXXXXXXXXXXXXXXXXXXX",
"XXXXXXXXXXXX++++++++++++++++++++++++++++++++XXXXXXXXXXXXXXXXXXXXXXXXXXXXXXXXXXXXXXXXXXXXXXXXXXXX++++XXXXXXXXXXXXXXXXXXXXXXXXXXXX",
"XXXXXXXXXXXX++++++++++++++++++++++++++++++++XXXXXXXXXXXXXXXXXXXXXXXXXXXXXXXXXXXXXXXXXXXXXXXXXXXX++++XXXXXXXXXXXXXXXXXXXXXXXXXXXX",
"XXXXXXXXXXXX++++++++++++++++++++++++++++++++XXXXXXXXXXXXXXXXXXXXXXXXXXXXXXXXXXXXXXXXXXXXXXXXXXXX++++XXXXXXXXXXXXXXXXXXXXXXXXXXXX",
"XXXXXXXXXXXXXXXXXXXXXXXXXXXXXXXXXXXXXXXXXXXXXXXXXXXXXXXXXXXXXXXXXXXXXXXXXXXXXXXXXXXXXXXXXXXXXXXX++++++++XXXXXXXXXXXXXXXXXXXXXXXX",
"XXXXXXXXXXXXXXXXXXXXXXXXXXXXXXXXXXXXXXXXXXXXXXXXXXXXXXXXXXXXXXXXXXXXXXXXXXXXXXXXXXXXXXXXXXXXXXXX++++++++XXXXXXXXXXXXXXXXXXXXXXXX",
"XXXXXXXXXXXXXXXXXXXXXXXXXXXXXXXXXXXXXXXXXXXXXXXXXXXXXXXXXXXXXXXXXXXXXXXXXXXXXXXXXXXXXXXXXXXXXXXX++++++++XXXXXXXXXXXXXXXXXXXXXXXX",
"XXXXXXXXXXXXXXXXXXXXXXXXXXXXXXXXXXXXXXXXXXXXXXXXXXXXXXXXXXXXXXXXXXXXXXXXXXXXXXXXXXXXXXXXXXXXXXXX++++++++XXXXXXXXXXXXXXXXXXXXXXXX",
"XXXXXXXXXXXXXXXXXXXXXXXXXXXXXXXX........................OOOOOOOOOOOOOOOO........................XXXXXXXXXXXX++++++++XXXXXXXXXXXX",
"XXXXXXXXXXXXXXXXXXXXXXXXXXXXXXXX........................OOOOOOOOOOOOOOOO........................XXXXXXXXXXXX++++++++XXXXXXXXXXXX",
"XXXXXXXXXXXXXXXXXXXXXXXXXXXXXXXX........................OOOOOOOOOOOOOOOO........................XXXXXXXXXXXX++++++++XXXXXXXXXXXX",
"XXXXXXXXXXXXXXXXXXXXXXXXXXXXXXXX........................OOOOOOOOOOOOOOOO........................XXXXXXXXXXXX++++++++XXXXXXXXXXXX",
"XXXXXXXX++++XXXXXXXXXXXXXXXXXXXXXXXX............####........................####............XXXXXXXXXXXXXXXX++++++++XXXXXXXXXXXX",
"XXXXXXXX++++XXXXXXXXXXXXXXXXXXXXXXXX............####........................####............XXXXXXXXXXXXXXXX++++++++XXXXXXXXXXXX",
"XXXXXXXX++++XXXXXXXXXXXXXXXXXXXXXXXX............####........................####............XXXXXXXXXXXXXXXX++++++++XXXXXXXXXXXX",
"XXXXXXXX++++XXXXXXXXXXXXXXXXXXXXXXXX............####........................####............XXXXXXXXXXXXXXXX++++++++XXXXXXXXXXXX",
"XXXXXXXX++++++++XXXXXXXXXXXXXXXXXXXXXXXXXXXX........................................XXXXXXXXXXXXXXXXXXXXXXXXXXXXXXXX++++++++XXXX",
"XXXXXXXX++++++++XXXXXXXXXXXXXXXXXXXXXXXXXXXX........................................XXXXXXXXXXXXXXXXXXXXXXXXXXXXXXXX++++++++XXXX",
"XXXXXXXX++++++++XXXXXXXXXXXXXXXXXXXXXXXXXXXX........................................XXXXXXXXXXXXXXXXXXXXXXXXXXXXXXXX++++++++XXXX",
"XXXXXXXX++++++++XXXXXXXXXXXXXXXXXXXXXXXXXXXX........................................XXXXXXXXXXXXXXXXXXXXXXXXXXXXXXXX++++++++XXXX",
"XXXXXXXXXXXXXXXXXXXXXXXXXXXXXXXXXXXXXXXXXXXXXXXX................................XXXXXXXXXXXXXXXXXXXXXXXXXXXXXXXXXXXXXXXXXXXXXXXX",
"XXXXXXXXXXXXXXXXXXXXXXXXXXXXXXXXXXXXXXXXXXXXXXXX................................XXXXXXXXXXXXXXXXXXXXXXXXXXXXXXXXXXXXXXXXXXXXXXXX",
"XXXXXXXXXXXXXXXXXXXXXXXXXXXXXXXXXXXXXXXXXXXXXXXX................................XXXXXXXXXXXXXXXXXXXXXXXXXXXXXXXXXXXXXXXXXXXXXXXX",
"XXXXXXXXXXXXXXXXXXXXXXXXXXXXXXXXXXXXXXXXXXXXXXXX................................XXXXXXXXXXXXXXXXXXXXXXXXXXXXXXXXXXXXXXXXXXXXXXXX",
"XXXXXXXXXXXXXXXXXXXXXXXXXXXX++++++++XXXXXXXXXXXX................................XXXXXXXX++++++++XXXXXXXXXXXXXXXXXXXXXXXXXXXXXXXX",
"XXXXXXXXXXXXXXXXXXXXXXXXXXXX++++++++XXXXXXXXXXXX................................XXXXXXXX++++++++XXXXXXXXXXXXXXXXXXXXXXXXXXXXXXXX",
"XXXXXXXXXXXXXXXXXXXXXXXXXXXX++++++++XXXXXXXXXXXX................................XXXXXXXX++++++++XXXXXXXXXXXXXXXXXXXXXXXXXXXXXXXX",
"XXXXXXXXXXXXXXXXXXXXXXXXXXXX++++++++XXXXXXXXXXXX................................XXXXXXXX++++++++XXXXXXXXXXXXXXXXXXXXXXXXXXXXXXXX",
"XXXXXXXXXXXXXXXXXXXXXXXXXXXXXXXX++++XXXXXXXXXXXX................................XXXX++++++++XXXXXXXXXXXXXXXXXXXX++++XXXXXXXXXXXX",
"XXXXXXXXXXXXXXXXXXXXXXXXXXXXXXXX++++XXXXXXXXXXXX................................XXXX++++++++XXXXXXXXXXXXXXXXXXXX++++XXXXXXXXXXXX",
"XXXXXXXXXXXXXXXXXXXXXXXXXXXXXXXX++++XXXXXXXXXXXX................................XXXX++++++++XXXXXXXXXXXXXXXXXXXX++++XXXXXXXXXXXX",
"XXXXXXXXXXXXXXXXXXXXXXXXXXXXXXXX++++XXXXXXXXXXXX................................XXXX++++++++XXXXXXXXXXXXXXXXXXXX++++XXXXXXXXXXXX",
"XXXXXXXXXXXXXXXXXXXXXXXXXXXXXXXXXXXX++++XXXXXXXX................................XXXX++++XXXXXXXXXXXXXXXXXXXXXXXX++++XXXXXXXXXXXX",
"XXXXXXXXXXXXXXXXXXXXXXXXXXXXXXXXXXXX++++XXXXXXXX................................XXXX++++XXXXXXXXXXXXXXXXXXXXXXXX++++XXXXXXXXXXXX",
"XXXXXXXXXXXXXXXXXXXXXXXXXXXXXXXXXXXX++++XXXXXXXX................................XXXX++++XXXXXXXXXXXXXXXXXXXXXXXX++++XXXXXXXXXXXX",
"XXXXXXXXXXXXXXXXXXXXXXXXXXXXXXXXXXXX++++XXXXXXXX................................XXXX++++XXXXXXXXXXXXXXXXXXXXXXXX++++XXXXXXXXXXXX",
"XXXXXXXXXXXXXXXX++++XXXXXXXXXXXXXXXX++++++++XXXX................................XXXXXXXXXXXXXXXXXXXXXXXXXXXXXXXXXXXXXXXXXXXXXXXX",
"XXXXXXXXXXXXXXXX++++XXXXXXXXXXXXXXXX++++++++XXXX................................XXXXXXXXXXXXXXXXXXXXXXXXXXXXXXXXXXXXXXXXXXXXXXXX",
"XXXXXXXXXXXXXXXX++++XXXXXXXXXXXXXXXX++++++++XXXX................................XXXXXXXXXXXXXXXXXXXXXXXXXXXXXXXXXXXXXXXXXXXXXXXX",
"XXXXXXXXXXXXXXXX++++XXXXXXXXXXXXXXXX++++++++XXXX................................XXXXXXXXXXXXXXXXXXXXXXXXXXXXXXXXXXXXXXXXXXXXXXXX",
"XXXXXXXXXXXXXXXXXXXX++++XXXXXXXXXXXXXXXX++++XXXX................................XXXXXXXXXXXXXXXXXXXXXXXXXXXXXXXXXXXXXXXXXXXXXXXX",
"XXXXXXXXXXXXXXXXXXXX++++XXXXXXXXXXXXXXXX++++XXXX................................XXXXXXXXXXXXXXXXXXXXXXXXXXXXXXXXXXXXXXXXXXXXXXXX",
"XXXXXXXXXXXXXXXXXXXX++++XXXXXXXXXXXXXXXX++++XXXX................................XXXXXXXXXXXXXXXXXXXXXXXXXXXXXXXXXXXXXXXXXXXXXXXX",
"XXXXXXXXXXXXXXXXXXXX++++XXXXXXXXXXXXXXXX++++XXXX................................XXXXXXXXXXXXXXXXXXXXXXXXXXXXXXXXXXXXXXXXXXXXXXXX",
"XXXXXXXXXXXXXXXXXXXXXXXXXXXXXXXXXXXXXXXXXXXXXXXX............########............XXXXXXXXXXXXXXXXXXXXXXXXXXXXXXXXXXXXXXXXXXXXXXXX",
"XXXXXXXXXXXXXXXXXXXXXXXXXXXXXXXXXXXXXXXXXXXXXXXX............########............XXXXXXXXXXXXXXXXXXXXXXXXXXXXXXXXXXXXXXXXXXXXXXXX",
"XXXXXXXXXXXXXXXXXXXXXXXXXXXXXXXXXXXXXXXXXXXXXXXX............########............XXXXXXXXXXXXXXXXXXXXXXXXXXXXXXXXXXXXXXXXXXXXXXXX",
"XXXXXXXXXXXXXXXXXXXXXXXXXXXXXXXXXXXXXXXXXXXXXXXX............########............XXXXXXXXXXXXXXXXXXXXXXXXXXXXXXXXXXXXXXXXXXXXXXXX",
"@@@@@@@@@@@@@@@@@@@@@@@@@@@@@@@@@@@@@@@@@@@@@@@@............########............@@@@@@@@@@@@@@@@@@@@@@@@@@@@@@@@@@@@@@@@@@@@@@@@",
"@@@@@@@@@@@@@@@@@@@@@@@@@@@@@@@@@@@@@@@@@@@@@@@@............########............@@@@@@@@@@@@@@@@@@@@@@@@@@@@@@@@@@@@@@@@@@@@@@@@",
"@@@@@@@@@@@@@@@@@@@@@@@@@@@@@@@@@@@@@@@@@@@@@@@@............########............@@@@@@@@@@@@@@@@@@@@@@@@@@@@@@@@@@@@@@@@@@@@@@@@",
"@@@@@@@@@@@@@@@@@@@@@@@@@@@@@@@@@@@@@@@@@@@@@@@@............########............@@@@@@@@@@@@@@@@@@@@@@@@@@@@@@@@@@@@@@@@@@@@@@@@",
"@@@@@@@@@@@@@@@@@@@@@@@@@@@@@@@@@@@@@@@@@@@@@@@@........####........####........@@@@@@@@@@@@@@@@@@@@@@@@@@@@@@@@@@@@@@@@@@@@@@@@",
"@@@@@@@@@@@@@@@@@@@@@@@@@@@@@@@@@@@@@@@@@@@@@@@@........####........####........@@@@@@@@@@@@@@@@@@@@@@@@@@@@@@@@@@@@@@@@@@@@@@@@",
"@@@@@@@@@@@@@@@@@@@@@@@@@@@@@@@@@@@@@@@@@@@@@@@@........####........####........@@@@@@@@@@@@@@@@@@@@@@@@@@@@@@@@@@@@@@@@@@@@@@@@",
"@@@@@@@@@@@@@@@@@@@@@@@@@@@@@@@@@@@@@@@@@@@@@@@@........####........####........@@@@@@@@@@@@@@@@@@@@@@@@@@@@@@@@@@@@@@@@@@@@@@@@",
"@@@@@@@@@@@@@@@@@@@@@@@@@@@@@@@@@@@@@@@@@@@@@@@@....####................####....@@@@@@@@@@@@@@@@@@@@@@@@@@@@@@@@@@@@@@@@@@@@@@@@",
"@@@@@@@@@@@@@@@@@@@@@@@@@@@@@@@@@@@@@@@@@@@@@@@@....####................####....@@@@@@@@@@@@@@@@@@@@@@@@@@@@@@@@@@@@@@@@@@@@@@@@",
"@@@@@@@@@@@@@@@@@@@@@@@@@@@@@@@@@@@@@@@@@@@@@@@@....####................####....@@@@@@@@@@@@@@@@@@@@@@@@@@@@@@@@@@@@@@@@@@@@@@@@",
"@@@@@@@@@@@@@@@@@@@@@@@@@@@@@@@@@@@@@@@@@@@@@@@@....####................####....@@@@@@@@@@@@@@@@@@@@@@@@@@@@@@@@@@@@@@@@@@@@@@@@",
"oooooooooooooooooooooooooooooooooooooooooooooooo####........................####oooooooooooooooooooooooooooooooooooooooooooooooo",
"oooooooooooooooooooooooooooooooooooooooooooooooo####........................####oooooooooooooooooooooooooooooooooooooooooooooooo",
"oooooooooooooooooooooooooooooooooooooooooooooooo####........................####oooooooooooooooooooooooooooooooooooooooooooooooo",
"oooooooooooooooooooooooooooooooooooooooooooooooo####........................####oooooooooooooooooooooooooooooooooooooooooooooooo",
"oooooooooooooooooooooooooooooooooooooooooooooooo................................oooooooooooooooooooooooooooooooooooooooooooooooo",
"oooooooooooooooooooooooooooooooooooooooooooooooo................................oooooooooooooooooooooooooooooooooooooooooooooooo",
"oooooooooooooooooooooooooooooooooooooooooooooooo................................oooooooooooooooooooooooooooooooooooooooooooooooo",
"oooooooooooooooooooooooooooooooooooooooooooooooo................................oooooooooooooooooooooooooooooooooooooooooooooooo",
"oooooooooooooooooooooooooooooooooooooooooooooooo............OOOOOOOO............oooooooooooooooooooooooooooooooooooooooooooooooo",
"oooooooooooooooooooooooooooooooooooooooooooooooo............OOOOOOOO............oooooooooooooooooooooooooooooooooooooooooooooooo",
"oooooooooooooooooooooooooooooooooooooooooooooooo............OOOOOOOO............oooooooooooooooooooooooooooooooooooooooooooooooo",
"oooooooooooooooooooooooooooooooooooooooooooooooo............OOOOOOOO............oooooooooooooooooooooooooooooooooooooooooooooooo",
"oooooooo$$$$$$$$oooo$$$$$$$$oooooooooooooooooooo............OOOOOOOO............oooooooooooooooooooooooo$$$$$$$$oooooooooooooooo",
"oooooooo$$$$$$$$oooo$$$$$$$$oooooooooooooooooooo............OOOOOOOO............oooooooooooooooooooooooo$$$$$$$$oooooooooooooooo",
"oooooooo$$$$$$$$oooo$$$$$$$$oooooooooooooooooooo............OOOOOOOO............oooooooooooooooooooooooo$$$$$$$$oooooooooooooooo",
"oooooooo$$$$$$$$oooo$$$$$$$$oooooooooooooooooooo............OOOOOOOO............oooooooooooooooooooooooo$$$$$$$$oooooooooooooooo",
"oooooooooooo$$$$$$$$$$$$oooooooooooooooooooooooo........    OOOOOOOO    ........oooooooooooooooooooooooooooo$$$$$$$$$$$$oooooooo",
"oooooooooooo$$$$$$$$$$$$oooooooooooooooooooooooo........    OOOOOOOO    ........oooooooooooooooooooooooooooo$$$$$$$$$$$$oooooooo",
"oooooooooooo$$$$$$$$$$$$oooooooooooooooooooooooo........    OOOOOOOO    ........oooooooooooooooooooooooooooo$$$$$$$$$$$$oooooooo",
"oooooooooooo$$$$$$$$$$$$oooooooooooooooooooooooo........    OOOOOOOO    ........oooooooooooooooooooooooooooo$$$$$$$$$$$$oooooooo",
"oooooooooooooooooooooooooooooooooooooooooooo........................................oooooooooooooooooooooooooooooooooooooooooooo",
"oooooooooooooooooooooooooooooooooooooooooooo........................................oooooooooooooooooooooooooooooooooooooooooooo",
"oooooooooooooooooooooooooooooooooooooooooooo........................................oooooooooooooooooooooooooooooooooooooooooooo",
"oooooooooooooooooooooooooooooooooooooooooooo........................................oooooooooooooooooooooooooooooooooooooooooooo",
"oooooooooooooooooooooooooooooooooooo............OOOO........................OOOO............oooooooooooooooooooooooooooooooooooo",
"oooooooooooooooooooooooooooooooooooo............OOOO........................OOOO............oooooooooooooooooooooooooooooooooooo",
"oooooooooooooooooooooooooooooooooooo............OOOO........................OOOO............oooooooooooooooooooooooooooooooooooo",
"oooooooooooooooooooooooooooooooooooo............OOOO........................OOOO............oooooooooooooooooooooooooooooooooooo",
"oooooooooooooooooooooooooooooooo................................................................oooooooooooooooooooooooooooooooo",
"oooooooooooooooooooooooooooooooo................................................................oooooooooooooooooooooooooooooooo",
"oooooooooooooooooooooooooooooooo................................................................oooooooooooooooooooooooooooooooo",
"oooooooooooooooooooooooooooooooo................................................................oooooooooooooooooooooooooooooooo",
"ooooooooooooooooooooooooooooooooOOOOOOOO............oooooooo........oooooooo............OOOOOOOOoooooooooooooooooooooooooooooooo",
"ooooooooooooooooooooooooooooooooOOOOOOOO............oooooooo........oooooooo............OOOOOOOOoooooooooooooooooooooooooooooooo",
"ooooooooooooooooooooooooooooooooOOOOOOOO............oooooooo........oooooooo............OOOOOOOOoooooooooooooooooooooooooooooooo",
"ooooooooooooooooooooooooooooooooOOOOOOOO............oooooooo........oooooooo............OOOOOOOOoooooooooooooooooooooooooooooooo",
"oooooooooooooooooooooooooooooooooooooooooooooooooooooooooooo........oooooooooooooooooooooooooooooooooooooooooooooooooooooooooooo",
"oooooooooooooooooooooooooooooooooooooooooooooooooooooooooooo........oooooooooooooooooooooooooooooooooooooooooooooooooooooooooooo",
"oooooooooooooooooooooooooooooooooooooooooooooooooooooooooooo........oooooooooooooooooooooooooooooooooooooooooooooooooooooooooooo",
"oooooooooooooooooooooooooooooooooooooooooooooooooooooooooooo........oooooooooooooooooooooooooooooooooooooooooooooooooooooooooooo",
"oooooooooooo$$$$$$$$oooooooooooooooooooooooooooooooooooooooo........oooooooooooooooooooooooooooooooooooooooooooooooooooooooooooo",
"oooooooooooo$$$$$$$$oooooooooooooooooooooooooooooooooooooooo........oooooooooooooooooooooooooooooooooooooooooooooooooooooooooooo",
"oooooooooooo$$$$$$$$oooooooooooooooooooooooooooooooooooooooo........oooooooooooooooooooooooooooooooooooooooooooooooooooooooooooo",
"oooooooooooo$$$$$$$$oooooooooooooooooooooooooooooooooooooooo........oooooooooooooooooooooooooooooooooooooooooooooooooooooooooooo",
"oooooooooooooooo$$$$$$$$$$$$ooooooooooooooooooooooooooooooooOOOOOOOOoooooooooooooooooooooooooooooooo$$$$$$$$$$$$oooooooooooooooo",
"oooooooooooooooo$$$$$$$$$$$$ooooooooooooooooooooooooooooooooOOOOOOOOoooooooooooooooooooooooooooooooo$$$$$$$$$$$$oooooooooooooooo",
"oooooooooooooooo$$$$$$$$$$$$ooooooooooooooooooooooooooooooooOOOOOOOOoooooooooooooooooooooooooooooooo$$$$$$$$$$$$oooooooooooooooo",
"oooooooooooooooo$$$$$$$$$$$$ooooooooooooooooooooooooooooooooOOOOOOOOoooooooooooooooooooooooooooooooo$$$$$$$$$$$$oooooooooooooooo",
"oooooooooooooooooooooooo$$$$$$$$$$$$oooooooooooooooooooooooooooooooooooooooooooooooooooo$$$$$$$$$$$$oooooooooooooooooooooooooooo",
"oooooooooooooooooooooooo$$$$$$$$$$$$oooooooooooooooooooooooooooooooooooooooooooooooooooo$$$$$$$$$$$$oooooooooooooooooooooooooooo",
"oooooooooooooooooooooooo$$$$$$$$$$$$oooooooooooooooooooooooooooooooooooooooooooooooooooo$$$$$$$$$$$$oooooooooooooooooooooooooooo",
"oooooooooooooooooooooooo$$$$$$$$$$$$oooooooooooooooooooooooooooooooooooooooooooooooooooo$$$$$$$$$$$$oooooooooooooooooooooooooooo",
"oooooooooooooooooooooooooooooooooooooooooooooooooooooooooooooooooooooooooooooooooooooooooooooooooooooooooooooooooooooooooooooooo",
"oooooooooooooooooooooooooooooooooooooooooooooooooooooooooooooooooooooooooooooooooooooooooooooooooooooooooooooooooooooooooooooooo",
"oooooooooooooooooooooooooooooooooooooooooooooooooooooooooooooooooooooooooooooooooooooooooooooooooooooooooooooooooooooooooooooooo",
"oooooooooooooooooooooooooooooooooooooooooooooooooooooooooooooooooooooooooooooooooooooooooooooooooooooooooooooooooooooooooooooooo"
};
