/* XPM */
static char *result[] = {
/* columns rows colors chars-per-pixel */
"128 128 9 1 ",
"  c black",
". c #343333",
"X c #214433",
"ooooo c #2B3D53",
"OOOOO c #573964",
"+ c #1D6642",
"@ c #297970",
"# c #A0821B",
"$ c #496C97",
/* pixels */
"oooooooooooooooooooooooooooooooooooooooooooooooooooooooooooo@@@@@@@@@@@@XXXXXXXXXXXXXXXXXXXXXXXXXXXXXXXXXXXXXXXXXXXXXXXXXXXXXXXX",
"oooooooooooooooooooooooooooooooooooooooooooooooooooooooooooo@@@@@@@@@@@@XXXXXXXXXXXXXXXXXXXXXXXXXXXXXXXXXXXXXXXXXXXXXXXXXXXXXXXX",
"oooooooooooooooooooooooooooooooooooooooooooooooooooooooooooo@@@@@@@@@@@@XXXXXXXXXXXXXXXXXXXXXXXXXXXXXXXXXXXXXXXXXXXXXXXXXXXXXXXX",
"oooooooooooooooooooooooooooooooooooooooooooooooooooooooooooo@@@@@@@@@@@@XXXXXXXXXXXXXXXXXXXXXXXXXXXXXXXXXXXXXXXXXXXXXXXXXXXXXXXX",
"oooooooooooooooooooooooooooooooooooooooooooooooooooooooooooo@@@@@@@@@@@@XXXXXXXXXXXXXXXXXXXXXXXX++++XXXXXXXXXXXXXXXXXXXXXXXXXXXX",
"oooooooooooooooooooooooooooooooooooooooooooooooooooooooooooo@@@@@@@@@@@@XXXXXXXXXXXXXXXXXXXXXXXX++++XXXXXXXXXXXXXXXXXXXXXXXXXXXX",
"oooooooooooooooooooooooooooooooooooooooooooooooooooooooooooo@@@@@@@@@@@@XXXXXXXXXXXXXXXXXXXXXXXX++++XXXXXXXXXXXXXXXXXXXXXXXXXXXX",
"oooooooooooooooooooooooooooooooooooooooooooooooooooooooooooo@@@@@@@@@@@@XXXXXXXXXXXXXXXXXXXXXXXX++++XXXXXXXXXXXXXXXXXXXXXXXXXXXX",
"oooooooooooooooooooooooooooooooooooooooo$$$$oooooooooooooooo@@@@@@@@@@@@XXXXXXXXXXXXXXXXXXXXXXXX++++XXXXXXXXXXXXXXXXXXXXXXXXXXXX",
"oooooooooooooooooooooooooooooooooooooooo$$$$oooooooooooooooo@@@@@@@@@@@@XXXXXXXXXXXXXXXXXXXXXXXX++++XXXXXXXXXXXXXXXXXXXXXXXXXXXX",
"oooooooooooooooooooooooooooooooooooooooo$$$$oooooooooooooooo@@@@@@@@@@@@XXXXXXXXXXXXXXXXXXXXXXXX++++XXXXXXXXXXXXXXXXXXXXXXXXXXXX",
"oooooooooooooooooooooooooooooooooooooooo$$$$oooooooooooooooo@@@@@@@@@@@@XXXXXXXXXXXXXXXXXXXXXXXX++++XXXXXXXXXXXXXXXXXXXXXXXXXXXX",
"oooooooooooooooooooooooooooooooooooooooo$$$$oooooooooooooooo@@@@@@@@@@@@XXXXXXXXXXXX++++++XXXXXXXXXX++++++++XXXXXXXXXXXXXXXXXXXX",
"oooooooooooooooooooooooooooooooooooooooo$$$$oooooooooooooooo@@@@@@@@@@@@XXXXXXXXXXXX++++++XXXXXXXXXX++++++++XXXXXXXXXXXXXXXXXXXX",
"oooooooooooooooooooooooooooooooooooooooo$$$$oooooooooooooooo@@@@@@@@@@@@XXXXXXXXXXXX++++++XXXXXXXXXX++++++++XXXXXXXXXXXXXXXXXXXX",
"oooooooooooooooooooooooooooooooooooooooo$$$$oooooooooooooooo@@@@@@@@@@@@XXXXXXXXXXXX++++++XXXXXXXXXX++++++++XXXXXXXXXXXXXXXXXXXX",
"oooooooooooo$$$$oooooooooooooooooooooooo$$$$$$$$oooooooooooo@@@@@@@@@@@@XXXXXXXXXXXXXXXXXXXXXXXXXXXX++++++++XXXXXXXXXXXXXXXXXXXX",
"oooooooooooo$$$$oooooooooooooooooooooooo$$$$$$$$oooooooooooo@@@@@@@@@@@@XXXXXXXXXXXXXXXXXXXXXXXXXXXX++++++++XXXXXXXXXXXXXXXXXXXX",
"oooooooooooo$$$$oooooooooooooooooooooooo$$$$$$$$oooooooooooo@@@@@@@@@@@@XXXXXXXXXXXXXXXXXXXXXXXXXXXX++++++++XXXXXXXXXXXXXXXXXXXX",
"oooooooooooo$$$$oooooooooooooooooooooooo$$$$$$$$oooooooooooo@@@@@@@@@@@@XXXXXXXXXXXXXXXXXXXXXXXXXXXX++++++++XXXXXXXXXXXXXXXXXXXX",
"oooooooooooo$$$$oooooooooooooooooooooooooooo$$$$oooooooooooo@@@@@@@@@@@@XXXXXXXXXXXXXXXXXXXXXXXXXXXXXXXXXXXXXXXXXXXXXXXXXXXXXXXX",
"oooooooooooo$$$$oooooooooooooooooooooooooooo$$$$oooooooooooo@@@@@@@@@@@@XXXXXXXXXXXXXXXXXXXXXXXXXXXXXXXXXXXXXXXXXXXXXXXXXXXXXXXX",
"oooooooooooo$$$$oooooooooooooooooooooooooooo$$$$oooooooooooo@@@@@@@@@@@@XXXXXXXXXXXXXXXXXXXXXXXXXXXXXXXXXXXXXXXXXXXXXXXXXXXXXXXX",
"oooooooooooo$$$$oooooooooooooooooooooooooooo$$$$oooooooooooo@@@@@@@@@@@@XXXXXXXXXXXXXXXXXXXXXXXXXXXXXXXXXXXXXXXXXXXXXXXXXXXXXXXX",
"oooooooooooo$$$$oooooooooooooooooooooooooooooooooooooooooooo@@@@@@@@@@@@XXXXXXXXXXXXXXXXXXXXXXXXXXXXXXXXXXXX++++XXXXXXXXXXXXXXXX",
"oooooooooooo$$$$oooooooooooooooooooooooooooooooooooooooooooo@@@@@@@@@@@@XXXXXXXXXXXXXXXXXXXXXXXXXXXXXXXXXXXX++++XXXXXXXXXXXXXXXX",
"oooooooooooo$$$$oooooooooooooooooooooooooooooooooooooooooooo@@@@@@@@@@@@XXXXXXXXXXXXXXXXXXXXXXXXXXXXXXXXXXXX++++XXXXXXXXXXXXXXXX",
"oooooooooooo$$$$oooooooooooooooooooooooooooooooooooooooooooo@@@@@@@@@@@@XXXXXXXXXXXXXXXXXXXXXXXXXXXXXXXXXXXX++++XXXXXXXXXXXXXXXX",
"oooooooo$$$$oooooooooooooooooooooooooooooooooooooooooooooooo@@@@@@@@@@@@XXXXXXXXXXXXXXXXXXXXXXXXXXXXXXXXXXXX++++++++XXXXXXXXXXXX",
"oooooooo$$$$oooooooooooooooooooooooooooooooooooooooooooooooo@@@@@@@@@@@@XXXXXXXXXXXXXXXXXXXXXXXXXXXXXXXXXXXX++++++++XXXXXXXXXXXX",
"oooooooo$$$$oooooooooooooooooooooooooooooooooooooooooooooooo@@@@@@@@@@@@XXXXXXXXXXXXXXXXXXXXXXXXXXXXXXXXXXXX++++++++XXXXXXXXXXXX",
"oooooooo$$$$oooooooooooooooooooooooooooooooooooooooooooooooo@@@@@@@@@@@@XXXXXXXXXXXXXXXXXXXXXXXXXXXXXXXXXXXX++++++++XXXXXXXXXXXX",
"oooooooo$$$$ooooooooooooOOOO....oooooooooooooooooooooooooooo@@@@@@@@@@@@XXXXXXXXXXXXXXXXXX++XXXXXXXXXXXX....XXXXXXXXXXXXXXXXXXXX",
"oooooooo$$$$ooooooooooooOOOO....oooooooooooooooooooooooooooo@@@@@@@@@@@@XXXXXXXXXXXXXXXXXX++XXXXXXXXXXXX....XXXXXXXXXXXXXXXXXXXX",
"oooooooo$$$$ooooooooooooOOOO....oooooooooooooooooooooooooooo@@@@@@@@@@@@XXXXXXXXXXXXXXXXXX++XXXXXXXXXXXX....XXXXXXXXXXXXXXXXXXXX",
"oooooooo$$$$ooooooooooooOOOO....oooooooooooooooooooooooooooo@@@@@@@@@@@@XXXXXXXXXXXXXXXXXX++XXXXXXXXXXXX....XXXXXXXXXXXXXXXXXXXX",
"oooooooo$$$$ooooooooooooOOOO........oooooooooooooooooooooooo@@@@@@@@@@@@XXXXXXXXXXXXXXXX++++XXXXXXXX........XXXXXXXXXXXXXXXXXXXX",
"oooooooo$$$$ooooooooooooOOOO........oooooooooooooooooooooooo@@@@@@@@@@@@XXXXXXXXXXXXXXXX++++XXXXXXXX........XXXXXXXXXXXXXXXXXXXX",
"oooooooo$$$$ooooooooooooOOOO........oooooooooooooooooooooooo@@@@@@@@@@@@XXXXXXXXXXXXXXXX++++XXXXXXXX........XXXXXXXXXXXXXXXXXXXX",
"oooooooo$$$$ooooooooooooOOOO........oooooooooooooooooooooooo@@@@@@@@@@@@XXXXXXXXXXXXXXXX++++XXXXXXXX........XXXXXXXXXXXXXXXXXXXX",
"oooooooooooooooooooooooo............oooooooooooooooooooooooo@@@@@@@@@@@@XXXXXXXXXXXX++++++XXXXXXXXXX........XXXXXXXXXXXXXXXXXXXX",
"oooooooooooooooooooooooo............oooooooooooooooooooooooo@@@@@@@@@@@@XXXXXXXXXXXX++++++XXXXXXXXXX........XXXXXXXXXXXXXXXXXXXX",
"oooooooooooooooooooooooo............oooooooooooooooooooooooo@@@@@@@@@@@@XXXXXXXXXXXX++++++XXXXXXXXXX........XXXXXXXXXXXXXXXXXXXX",
"oooooooooooooooooooooooo............oooooooooooooooooooooooo@@@@@@@@@@@@XXXXXXXXXXXX++++++XXXXXXXXXX........XXXXXXXXXXXXXXXXXXXX",
"oooooooooooooooooooooooo................oooooooooooooooooooo@@@@@@@@@@@@XXXXXXXXXXXXXXXXXXXXXXXX............XXXXXXXX++++XXXXXXXX",
"oooooooooooooooooooooooo................oooooooooooooooooooo@@@@@@@@@@@@XXXXXXXXXXXXXXXXXXXXXXXX............XXXXXXXX++++XXXXXXXX",
"oooooooooooooooooooooooo................oooooooooooooooooooo@@@@@@@@@@@@XXXXXXXXXXXXXXXXXXXXXXXX............XXXXXXXX++++XXXXXXXX",
"oooooooooooooooooooooooo................oooooooooooooooooooo@@@@@@@@@@@@XXXXXXXXXXXXXXXXXXXXXXXX............XXXXXXXX++++XXXXXXXX",
"oooooooooooooooooooooooo........OOOO....................####........................................####....XXXXXXXX++++XXXXXXXX",
"oooooooooooooooooooooooo........OOOO....................####........................................####....XXXXXXXX++++XXXXXXXX",
"oooooooooooooooooooooooo........OOOO....................####........................................####....XXXXXXXX++++XXXXXXXX",
"oooooooooooooooooooooooo........OOOO....................####........................................####....XXXXXXXX++++XXXXXXXX",
"oooooooooooooooooooooooooooo................................####............................................XXXXXXXX++++XXXXXXXX",
"oooooooooooooooooooooooooooo................................####............................................XXXXXXXX++++XXXXXXXX",
"oooooooooooooooooooooooooooo................................####............................................XXXXXXXX++++XXXXXXXX",
"oooooooooooooooooooooooooooo................................####............................................XXXXXXXX++++XXXXXXXX",
"oooooooooooooooooooooooooooo............    ....................####....................................OOOOXXXXXXXX++++XXXXXXXX",
"oooooooooooooooooooooooooooo............    ....................####....................................OOOOXXXXXXXX++++XXXXXXXX",
"oooooooooooooooooooooooooooo............    ....................####....................................OOOOXXXXXXXX++++XXXXXXXX",
"oooooooooooooooooooooooooooo............    ....................####....................................OOOOXXXXXXXX++++XXXXXXXX",
"ooooooooooooOOOO........................OOOOOOOOOOOO................########............................OOOOXXXXXXXX++++XXXXXXXX",
"ooooooooooooOOOO........................OOOOOOOOOOOO................########............................OOOOXXXXXXXX++++XXXXXXXX",
"ooooooooooooOOOO........................OOOOOOOOOOOO................########............................OOOOXXXXXXXX++++XXXXXXXX",
"ooooooooooooOOOO........................OOOOOOOOOOOO................########............................OOOOXXXXXXXX++++XXXXXXXX",
"ooooooooooooOOOO........................OOOOOOOOOOOO................########............................OOOOXXXXXXXXXXXXXXXXXXXX",
"ooooooooooooOOOO........................OOOOOOOOOOOO................########............................OOOOXXXXXXXXXXXXXXXXXXXX",
"ooooooooooooOOOO........................OOOOOOOOOOOO................########............................OOOOXXXXXXXXXXXXXXXXXXXX",
"ooooooooooooOOOO........................OOOOOOOOOOOO................########............................OOOOXXXXXXXXXXXXXXXXXXXX",
"oooooooooooooooooooooooooooo............    ....................####....................................OOOOXXXXXXXXXXXXXXXXXXXX",
"oooooooooooooooooooooooooooo............    ....................####....................................OOOOXXXXXXXXXXXXXXXXXXXX",
"oooooooooooooooooooooooooooo............    ....................####....................................OOOOXXXXXXXXXXXXXXXXXXXX",
"oooooooooooooooooooooooooooo............    ....................####....................................OOOOXXXXXXXXXXXXXXXXXXXX",
"oooooooooooooooooooooooooooo................................####............................................XXXXXXXXXXXXXXXXXXXX",
"oooooooooooooooooooooooooooo................................####............................................XXXXXXXXXXXXXXXXXXXX",
"oooooooooooooooooooooooooooo................................####............................................XXXXXXXXXXXXXXXXXXXX",
"oooooooooooooooooooooooooooo................................####............................................XXXXXXXXXXXXXXXXXXXX",
"oooooooooooooooooooooooo........OOOO....................####........................................####....XXXXXXXXXXXXXXXXXXXX",
"oooooooooooooooooooooooo........OOOO....................####........................................####....XXXXXXXXXXXXXXXXXXXX",
"oooooooooooooooooooooooo........OOOO....................####........................................####....XXXXXXXXXXXXXXXXXXXX",
"oooooooooooooooooooooooo........OOOO....................####........................................####....XXXXXXXXXXXXXXXXXXXX",
"oooooooooooooooooooooooo................oooooooooooooooooooo@@@@@@@@@@@@XXXXXXXXXXXXXXXXXXXXXXXX............XXXXXXXXXXXXXXXXXXXX",
"oooooooooooooooooooooooo................oooooooooooooooooooo@@@@@@@@@@@@XXXXXXXXXXXXXXXXXXXXXXXX............XXXXXXXXXXXXXXXXXXXX",
"oooooooooooooooooooooooo................oooooooooooooooooooo@@@@@@@@@@@@XXXXXXXXXXXXXXXXXXXXXXXX............XXXXXXXXXXXXXXXXXXXX",
"oooooooooooooooooooooooo................oooooooooooooooooooo@@@@@@@@@@@@XXXXXXXXXXXXXXXXXXXXXXXX............XXXXXXXXXXXXXXXXXXXX",
"oooooooooooooooooooooooo............oooooooooooooooooooooooo@@@@@@@@@@@@XXXX++++++++XXXXXXXXXXXXXXXX........XXXX++++++++XXXXXXXX",
"oooooooooooooooooooooooo............oooooooooooooooooooooooo@@@@@@@@@@@@XXXX++++++++XXXXXXXXXXXXXXXX........XXXX++++++++XXXXXXXX",
"oooooooooooooooooooooooo............oooooooooooooooooooooooo@@@@@@@@@@@@XXXX++++++++XXXXXXXXXXXXXXXX........XXXX++++++++XXXXXXXX",
"oooooooooooooooooooooooo............oooooooooooooooooooooooo@@@@@@@@@@@@XXXX++++++++XXXXXXXXXXXXXXXX........XXXX++++++++XXXXXXXX",
"ooooooooooooooooooooooooOOOO........oooooooooooooooooooooooo@@@@@@@@@@@@XXXXXXXX++++++++XXXXXXXXXXXX........XXXX++++++++XXXXXXXX",
"ooooooooooooooooooooooooOOOO........oooooooooooooooooooooooo@@@@@@@@@@@@XXXXXXXX++++++++XXXXXXXXXXXX........XXXX++++++++XXXXXXXX",
"ooooooooooooooooooooooooOOOO........oooooooooooooooooooooooo@@@@@@@@@@@@XXXXXXXX++++++++XXXXXXXXXXXX........XXXX++++++++XXXXXXXX",
"ooooooooooooooooooooooooOOOO........oooooooooooooooooooooooo@@@@@@@@@@@@XXXXXXXX++++++++XXXXXXXXXXXX........XXXX++++++++XXXXXXXX",
"oooooooo$$$$ooooooooooooOOOO....oooooooooooooooooooooooooooo@@@@@@@@@@@@XXXXXXXXXXXXXXXX++++XXXXXXXXXXXX....XXXX++++++++XXXXXXXX",
"oooooooo$$$$ooooooooooooOOOO....oooooooooooooooooooooooooooo@@@@@@@@@@@@XXXXXXXXXXXXXXXX++++XXXXXXXXXXXX....XXXX++++++++XXXXXXXX",
"oooooooo$$$$ooooooooooooOOOO....oooooooooooooooooooooooooooo@@@@@@@@@@@@XXXXXXXXXXXXXXXX++++XXXXXXXXXXXX....XXXX++++++++XXXXXXXX",
"oooooooo$$$$ooooooooooooOOOO....oooooooooooooooooooooooooooo@@@@@@@@@@@@XXXXXXXXXXXXXXXX++++XXXXXXXXXXXX....XXXX++++++++XXXXXXXX",
"oooooooo$$$$oooooooooooooooooooooooooooooooooooooooooooooooo@@@@@@@@@@@@XXXXXXXXXXXXXXXXXX++XXXXXXXXXXXXXXXXXXXX++++++++XXXXXXXX",
"oooooooo$$$$oooooooooooooooooooooooooooooooooooooooooooooooo@@@@@@@@@@@@XXXXXXXXXXXXXXXXXX++XXXXXXXXXXXXXXXXXXXX++++++++XXXXXXXX",
"oooooooo$$$$oooooooooooooooooooooooooooooooooooooooooooooooo@@@@@@@@@@@@XXXXXXXXXXXXXXXXXX++XXXXXXXXXXXXXXXXXXXX++++++++XXXXXXXX",
"oooooooo$$$$oooooooooooooooooooooooooooooooooooooooooooooooo@@@@@@@@@@@@XXXXXXXXXXXXXXXXXX++XXXXXXXXXXXXXXXXXXXX++++++++XXXXXXXX",
"oooooooo$$$$$$$$oooooooooooooooooooooooooooo$$$$oooooooooooo@@@@@@@@@@@@XXXXXXXXXXXXXXXXXXXXXXXXXXXXXXXXXXXXXXXX++++++++XXXXXXXX",
"oooooooo$$$$$$$$oooooooooooooooooooooooooooo$$$$oooooooooooo@@@@@@@@@@@@XXXXXXXXXXXXXXXXXXXXXXXXXXXXXXXXXXXXXXXX++++++++XXXXXXXX",
"oooooooo$$$$$$$$oooooooooooooooooooooooooooo$$$$oooooooooooo@@@@@@@@@@@@XXXXXXXXXXXXXXXXXXXXXXXXXXXXXXXXXXXXXXXX++++++++XXXXXXXX",
"oooooooo$$$$$$$$oooooooooooooooooooooooooooo$$$$oooooooooooo@@@@@@@@@@@@XXXXXXXXXXXXXXXXXXXXXXXXXXXXXXXXXXXXXXXX++++++++XXXXXXXX",
"oooooooooooo$$$$oooooooooooooooooooooooo$$$$$$$$oooooooooooo@@@@@@@@@@@@XXXX++++XXXXXXXXXXXXXXXXXXXXXXXXXXXXXXXX++++++++XXXXXXXX",
"oooooooooooo$$$$oooooooooooooooooooooooo$$$$$$$$oooooooooooo@@@@@@@@@@@@XXXX++++XXXXXXXXXXXXXXXXXXXXXXXXXXXXXXXX++++++++XXXXXXXX",
"oooooooooooo$$$$oooooooooooooooooooooooo$$$$$$$$oooooooooooo@@@@@@@@@@@@XXXX++++XXXXXXXXXXXXXXXXXXXXXXXXXXXXXXXX++++++++XXXXXXXX",
"oooooooooooo$$$$oooooooooooooooooooooooo$$$$$$$$oooooooooooo@@@@@@@@@@@@XXXX++++XXXXXXXXXXXXXXXXXXXXXXXXXXXXXXXX++++++++XXXXXXXX",
"oooooooooooo$$$$$$$$oooooooooooooooooooo$$$$oooooooooooooooo@@@@@@@@@@@@XXXXXXXX++++XXXXXXXXXXXXXXXXXXXXXXXXXXXX++++XXXXXXXXXXXX",
"oooooooooooo$$$$$$$$oooooooooooooooooooo$$$$oooooooooooooooo@@@@@@@@@@@@XXXXXXXX++++XXXXXXXXXXXXXXXXXXXXXXXXXXXX++++XXXXXXXXXXXX",
"oooooooooooo$$$$$$$$oooooooooooooooooooo$$$$oooooooooooooooo@@@@@@@@@@@@XXXXXXXX++++XXXXXXXXXXXXXXXXXXXXXXXXXXXX++++XXXXXXXXXXXX",
"oooooooooooo$$$$$$$$oooooooooooooooooooo$$$$oooooooooooooooo@@@@@@@@@@@@XXXXXXXX++++XXXXXXXXXXXXXXXXXXXXXXXXXXXX++++XXXXXXXXXXXX",
"oooooooooooooooo$$$$oooooooooooooooooooo$$$$$$$$oooooooooooo@@@@@@@@@@@@XXXXXXXXXXXXXXXXXXXXXXXX++++XXXXXXXXXXXX++++XXXXXXXXXXXX",
"oooooooooooooooo$$$$oooooooooooooooooooo$$$$$$$$oooooooooooo@@@@@@@@@@@@XXXXXXXXXXXXXXXXXXXXXXXX++++XXXXXXXXXXXX++++XXXXXXXXXXXX",
"oooooooooooooooo$$$$oooooooooooooooooooo$$$$$$$$oooooooooooo@@@@@@@@@@@@XXXXXXXXXXXXXXXXXXXXXXXX++++XXXXXXXXXXXX++++XXXXXXXXXXXX",
"oooooooooooooooo$$$$oooooooooooooooooooo$$$$$$$$oooooooooooo@@@@@@@@@@@@XXXXXXXXXXXXXXXXXXXXXXXX++++XXXXXXXXXXXX++++XXXXXXXXXXXX",
"oooooooooooooooooooooooooooooooooooooooooooo$$$$oooooooooooo@@@@@@@@@@@@XXXXXXXXXXXXXXXXXXXXXXXX++++++++XXXXXXXXXXXXXXXXXXXXXXXX",
"oooooooooooooooooooooooooooooooooooooooooooo$$$$oooooooooooo@@@@@@@@@@@@XXXXXXXXXXXXXXXXXXXXXXXX++++++++XXXXXXXXXXXXXXXXXXXXXXXX",
"oooooooooooooooooooooooooooooooooooooooooooo$$$$oooooooooooo@@@@@@@@@@@@XXXXXXXXXXXXXXXXXXXXXXXX++++++++XXXXXXXXXXXXXXXXXXXXXXXX",
"oooooooooooooooooooooooooooooooooooooooooooo$$$$oooooooooooo@@@@@@@@@@@@XXXXXXXXXXXXXXXXXXXXXXXX++++++++XXXXXXXXXXXXXXXXXXXXXXXX",
"oooooooooooooooooooooooooooooooooooooooooooooooooooooooooooo@@@@@@@@@@@@XXXXXXXXXXXXXXXXXXXXXXXXXXXXXXXXXXXXXXXXXXXXXXXXXXXXXXXX",
"oooooooooooooooooooooooooooooooooooooooooooooooooooooooooooo@@@@@@@@@@@@XXXXXXXXXXXXXXXXXXXXXXXXXXXXXXXXXXXXXXXXXXXXXXXXXXXXXXXX",
"oooooooooooooooooooooooooooooooooooooooooooooooooooooooooooo@@@@@@@@@@@@XXXXXXXXXXXXXXXXXXXXXXXXXXXXXXXXXXXXXXXXXXXXXXXXXXXXXXXX",
"oooooooooooooooooooooooooooooooooooooooooooooooooooooooooooo@@@@@@@@@@@@XXXXXXXXXXXXXXXXXXXXXXXXXXXXXXXXXXXXXXXXXXXXXXXXXXXXXXXX",
"oooooooooooooooooooooooooooooooooooooooooooooooooooooooooooo@@@@@@@@@@@@XXXXXXXXXXXXXXXXXXXXXXXXXXXXXXXXXXXXXXXXXXXXXXXXXXXXXXXX",
"oooooooooooooooooooooooooooooooooooooooooooooooooooooooooooo@@@@@@@@@@@@XXXXXXXXXXXXXXXXXXXXXXXXXXXXXXXXXXXXXXXXXXXXXXXXXXXXXXXX",
"oooooooooooooooooooooooooooooooooooooooooooooooooooooooooooo@@@@@@@@@@@@XXXXXXXXXXXXXXXXXXXXXXXXXXXXXXXXXXXXXXXXXXXXXXXXXXXXXXXX",
"oooooooooooooooooooooooooooooooooooooooooooooooooooooooooooo@@@@@@@@@@@@XXXXXXXXXXXXXXXXXXXXXXXXXXXXXXXXXXXXXXXXXXXXXXXXXXXXXXXX"
};
