/* XPM */
static char *result[] = {
/* columns rows colors chars-per-pixel */
"128 128 9 1 ",
"  c black",
". c #343333",
"X c #214433",
"o c #2B3D53",
"O c #573964",
"+ c #1D6642",
"@ c #297970",
"# c #A0821B",
"$ c #496C97",
/* pixels */
"oooooooooooooooooooooooooooooooooooooooooooooooooooooooooooooooooooooooooooooooooooooooooooooooooooooooooooooooooooooooooooooooo",
"oooooooooooooooooooooooooooooooooooooooooooooooooooooooooooooooooooooooooooooooooooooooooooooooooooooooooooooooooooooooooooooooo",
"oooooooooooooooooooooooooooooooooooooooooooooooooooooooooooooooooooooooooooooooooooooooooooooooooooooooooooooooooooooooooooooooo",
"oooooooooooooooooooooooooooooooooooooooooooooooooooooooooooooooooooooooooooooooooooooooooooooooooooooooooooooooooooooooooooooooo",
"oooooooooooooooooooooooo$$$$$$$$$$$$oooooooooooooooooooooooooooooooooooooooooooooooooooo$$$$$$$$$$$$oooooooooooooooooooooooooooo",
"oooooooooooooooooooooooo$$$$$$$$$$$$oooooooooooooooooooooooooooooooooooooooooooooooooooo$$$$$$$$$$$$oooooooooooooooooooooooooooo",
"oooooooooooooooooooooooo$$$$$$$$$$$$oooooooooooooooooooooooooooooooooooooooooooooooooooo$$$$$$$$$$$$oooooooooooooooooooooooooooo",
"oooooooooooooooooooooooo$$$$$$$$$$$$oooooooooooooooooooooooooooooooooooooooooooooooooooo$$$$$$$$$$$$oooooooooooooooooooooooooooo",
"oooooooooooooooo$$$$$$$$$$$$ooooooooooooooooooooooooooooooooOOOOOOOOoooooooooooooooooooooooooooooooo$$$$$$$$$$$$oooooooooooooooo",
"oooooooooooooooo$$$$$$$$$$$$ooooooooooooooooooooooooooooooooOOOOOOOOoooooooooooooooooooooooooooooooo$$$$$$$$$$$$oooooooooooooooo",
"oooooooooooooooo$$$$$$$$$$$$ooooooooooooooooooooooooooooooooOOOOOOOOoooooooooooooooooooooooooooooooo$$$$$$$$$$$$oooooooooooooooo",
"oooooooooooooooo$$$$$$$$$$$$ooooooooooooooooooooooooooooooooOOOOOOOOoooooooooooooooooooooooooooooooo$$$$$$$$$$$$oooooooooooooooo",
"oooooooooooo$$$$$$$$oooooooooooooooooooooooooooooooooooooooo........oooooooooooooooooooooooooooooooooooooooooooooooooooooooooooo",
"oooooooooooo$$$$$$$$oooooooooooooooooooooooooooooooooooooooo........oooooooooooooooooooooooooooooooooooooooooooooooooooooooooooo",
"oooooooooooo$$$$$$$$oooooooooooooooooooooooooooooooooooooooo........oooooooooooooooooooooooooooooooooooooooooooooooooooooooooooo",
"oooooooooooo$$$$$$$$oooooooooooooooooooooooooooooooooooooooo........oooooooooooooooooooooooooooooooooooooooooooooooooooooooooooo",
"oooooooooooooooooooooooooooooooooooooooooooooooooooooooooooo........oooooooooooooooooooooooooooooooooooooooooooooooooooooooooooo",
"oooooooooooooooooooooooooooooooooooooooooooooooooooooooooooo........oooooooooooooooooooooooooooooooooooooooooooooooooooooooooooo",
"oooooooooooooooooooooooooooooooooooooooooooooooooooooooooooo........oooooooooooooooooooooooooooooooooooooooooooooooooooooooooooo",
"oooooooooooooooooooooooooooooooooooooooooooooooooooooooooooo........oooooooooooooooooooooooooooooooooooooooooooooooooooooooooooo",
"ooooooooooooooooooooooooooooooooOOOOOOOO............oooooooo........oooooooo............OOOOOOOOoooooooooooooooooooooooooooooooo",
"ooooooooooooooooooooooooooooooooOOOOOOOO............oooooooo........oooooooo............OOOOOOOOoooooooooooooooooooooooooooooooo",
"ooooooooooooooooooooooooooooooooOOOOOOOO............oooooooo........oooooooo............OOOOOOOOoooooooooooooooooooooooooooooooo",
"ooooooooooooooooooooooooooooooooOOOOOOOO............oooooooo........oooooooo............OOOOOOOOoooooooooooooooooooooooooooooooo",
"oooooooooooooooooooooooooooooooo................................................................oooooooooooooooooooooooooooooooo",
"oooooooooooooooooooooooooooooooo................................................................oooooooooooooooooooooooooooooooo",
"oooooooooooooooooooooooooooooooo................................................................oooooooooooooooooooooooooooooooo",
"oooooooooooooooooooooooooooooooo................................................................oooooooooooooooooooooooooooooooo",
"oooooooooooooooooooooooooooooooooooo............OOOO........................OOOO............oooooooooooooooooooooooooooooooooooo",
"oooooooooooooooooooooooooooooooooooo............OOOO........................OOOO............oooooooooooooooooooooooooooooooooooo",
"oooooooooooooooooooooooooooooooooooo............OOOO........................OOOO............oooooooooooooooooooooooooooooooooooo",
"oooooooooooooooooooooooooooooooooooo............OOOO........................OOOO............oooooooooooooooooooooooooooooooooooo",
"oooooooooooooooooooooooooooooooooooooooooooo........................................oooooooooooooooooooooooooooooooooooooooooooo",
"oooooooooooooooooooooooooooooooooooooooooooo........................................oooooooooooooooooooooooooooooooooooooooooooo",
"oooooooooooooooooooooooooooooooooooooooooooo........................................oooooooooooooooooooooooooooooooooooooooooooo",
"oooooooooooooooooooooooooooooooooooooooooooo........................................oooooooooooooooooooooooooooooooooooooooooooo",
"oooooooooooo$$$$$$$$$$$$oooooooooooooooooooooooo........    OOOOOOOO    ........oooooooooooooooooooooooooooo$$$$$$$$$$$$oooooooo",
"oooooooooooo$$$$$$$$$$$$oooooooooooooooooooooooo........    OOOOOOOO    ........oooooooooooooooooooooooooooo$$$$$$$$$$$$oooooooo",
"oooooooooooo$$$$$$$$$$$$oooooooooooooooooooooooo........    OOOOOOOO    ........oooooooooooooooooooooooooooo$$$$$$$$$$$$oooooooo",
"oooooooooooo$$$$$$$$$$$$oooooooooooooooooooooooo........    OOOOOOOO    ........oooooooooooooooooooooooooooo$$$$$$$$$$$$oooooooo",
"oooooooo$$$$$$$$oooo$$$$$$$$oooooooooooooooooooo............OOOOOOOO............oooooooooooooooooooooooo$$$$$$$$oooooooooooooooo",
"oooooooo$$$$$$$$oooo$$$$$$$$oooooooooooooooooooo............OOOOOOOO............oooooooooooooooooooooooo$$$$$$$$oooooooooooooooo",
"oooooooo$$$$$$$$oooo$$$$$$$$oooooooooooooooooooo............OOOOOOOO............oooooooooooooooooooooooo$$$$$$$$oooooooooooooooo",
"oooooooo$$$$$$$$oooo$$$$$$$$oooooooooooooooooooo............OOOOOOOO............oooooooooooooooooooooooo$$$$$$$$oooooooooooooooo",
"oooooooooooooooooooooooooooooooooooooooooooooooo............OOOOOOOO............oooooooooooooooooooooooooooooooooooooooooooooooo",
"oooooooooooooooooooooooooooooooooooooooooooooooo............OOOOOOOO............oooooooooooooooooooooooooooooooooooooooooooooooo",
"oooooooooooooooooooooooooooooooooooooooooooooooo............OOOOOOOO............oooooooooooooooooooooooooooooooooooooooooooooooo",
"oooooooooooooooooooooooooooooooooooooooooooooooo............OOOOOOOO............oooooooooooooooooooooooooooooooooooooooooooooooo",
"oooooooooooooooooooooooooooooooooooooooooooooooo................................oooooooooooooooooooooooooooooooooooooooooooooooo",
"oooooooooooooooooooooooooooooooooooooooooooooooo................................oooooooooooooooooooooooooooooooooooooooooooooooo",
"oooooooooooooooooooooooooooooooooooooooooooooooo................................oooooooooooooooooooooooooooooooooooooooooooooooo",
"oooooooooooooooooooooooooooooooooooooooooooooooo................................oooooooooooooooooooooooooooooooooooooooooooooooo",
"oooooooooooooooooooooooooooooooooooooooooooooooo####........................####oooooooooooooooooooooooooooooooooooooooooooooooo",
"oooooooooooooooooooooooooooooooooooooooooooooooo####........................####oooooooooooooooooooooooooooooooooooooooooooooooo",
"oooooooooooooooooooooooooooooooooooooooooooooooo####........................####oooooooooooooooooooooooooooooooooooooooooooooooo",
"oooooooooooooooooooooooooooooooooooooooooooooooo####........................####oooooooooooooooooooooooooooooooooooooooooooooooo",
"@@@@@@@@@@@@@@@@@@@@@@@@@@@@@@@@@@@@@@@@@@@@@@@@....####................####....@@@@@@@@@@@@@@@@@@@@@@@@@@@@@@@@@@@@@@@@@@@@@@@@",
"@@@@@@@@@@@@@@@@@@@@@@@@@@@@@@@@@@@@@@@@@@@@@@@@....####................####....@@@@@@@@@@@@@@@@@@@@@@@@@@@@@@@@@@@@@@@@@@@@@@@@",
"@@@@@@@@@@@@@@@@@@@@@@@@@@@@@@@@@@@@@@@@@@@@@@@@....####................####....@@@@@@@@@@@@@@@@@@@@@@@@@@@@@@@@@@@@@@@@@@@@@@@@",
"@@@@@@@@@@@@@@@@@@@@@@@@@@@@@@@@@@@@@@@@@@@@@@@@....####................####....@@@@@@@@@@@@@@@@@@@@@@@@@@@@@@@@@@@@@@@@@@@@@@@@",
"@@@@@@@@@@@@@@@@@@@@@@@@@@@@@@@@@@@@@@@@@@@@@@@@........####........####........@@@@@@@@@@@@@@@@@@@@@@@@@@@@@@@@@@@@@@@@@@@@@@@@",
"@@@@@@@@@@@@@@@@@@@@@@@@@@@@@@@@@@@@@@@@@@@@@@@@........####........####........@@@@@@@@@@@@@@@@@@@@@@@@@@@@@@@@@@@@@@@@@@@@@@@@",
"@@@@@@@@@@@@@@@@@@@@@@@@@@@@@@@@@@@@@@@@@@@@@@@@........####........####........@@@@@@@@@@@@@@@@@@@@@@@@@@@@@@@@@@@@@@@@@@@@@@@@",
"@@@@@@@@@@@@@@@@@@@@@@@@@@@@@@@@@@@@@@@@@@@@@@@@........####........####........@@@@@@@@@@@@@@@@@@@@@@@@@@@@@@@@@@@@@@@@@@@@@@@@",
"@@@@@@@@@@@@@@@@@@@@@@@@@@@@@@@@@@@@@@@@@@@@@@@@............########............@@@@@@@@@@@@@@@@@@@@@@@@@@@@@@@@@@@@@@@@@@@@@@@@",
"@@@@@@@@@@@@@@@@@@@@@@@@@@@@@@@@@@@@@@@@@@@@@@@@............########............@@@@@@@@@@@@@@@@@@@@@@@@@@@@@@@@@@@@@@@@@@@@@@@@",
"@@@@@@@@@@@@@@@@@@@@@@@@@@@@@@@@@@@@@@@@@@@@@@@@............########............@@@@@@@@@@@@@@@@@@@@@@@@@@@@@@@@@@@@@@@@@@@@@@@@",
"@@@@@@@@@@@@@@@@@@@@@@@@@@@@@@@@@@@@@@@@@@@@@@@@............########............@@@@@@@@@@@@@@@@@@@@@@@@@@@@@@@@@@@@@@@@@@@@@@@@",
"XXXXXXXXXXXXXXXXXXXXXXXXXXXXXXXXXXXXXXXXXXXXXXXX............########............XXXXXXXXXXXXXXXXXXXXXXXXXXXXXXXXXXXXXXXXXXXXXXXX",
"XXXXXXXXXXXXXXXXXXXXXXXXXXXXXXXXXXXXXXXXXXXXXXXX............########............XXXXXXXXXXXXXXXXXXXXXXXXXXXXXXXXXXXXXXXXXXXXXXXX",
"XXXXXXXXXXXXXXXXXXXXXXXXXXXXXXXXXXXXXXXXXXXXXXXX............########............XXXXXXXXXXXXXXXXXXXXXXXXXXXXXXXXXXXXXXXXXXXXXXXX",
"XXXXXXXXXXXXXXXXXXXXXXXXXXXXXXXXXXXXXXXXXXXXXXXX............########............XXXXXXXXXXXXXXXXXXXXXXXXXXXXXXXXXXXXXXXXXXXXXXXX",
"XXXXXXXXXXXXXXXXXXXX++++XXXXXXXXXXXXXXXX++++XXXX................................XXXXXXXXXXXXXXXXXXXXXXXXXXXXXXXXXXXXXXXXXXXXXXXX",
"XXXXXXXXXXXXXXXXXXXX++++XXXXXXXXXXXXXXXX++++XXXX................................XXXXXXXXXXXXXXXXXXXXXXXXXXXXXXXXXXXXXXXXXXXXXXXX",
"XXXXXXXXXXXXXXXXXXXX++++XXXXXXXXXXXXXXXX++++XXXX................................XXXXXXXXXXXXXXXXXXXXXXXXXXXXXXXXXXXXXXXXXXXXXXXX",
"XXXXXXXXXXXXXXXXXXXX++++XXXXXXXXXXXXXXXX++++XXXX................................XXXXXXXXXXXXXXXXXXXXXXXXXXXXXXXXXXXXXXXXXXXXXXXX",
"XXXXXXXXXXXXXXXX++++XXXXXXXXXXXXXXXX++++++++XXXX................................XXXXXXXXXXXXXXXXXXXXXXXXXXXXXXXXXXXXXXXXXXXXXXXX",
"XXXXXXXXXXXXXXXX++++XXXXXXXXXXXXXXXX++++++++XXXX................................XXXXXXXXXXXXXXXXXXXXXXXXXXXXXXXXXXXXXXXXXXXXXXXX",
"XXXXXXXXXXXXXXXX++++XXXXXXXXXXXXXXXX++++++++XXXX................................XXXXXXXXXXXXXXXXXXXXXXXXXXXXXXXXXXXXXXXXXXXXXXXX",
"XXXXXXXXXXXXXXXX++++XXXXXXXXXXXXXXXX++++++++XXXX................................XXXXXXXXXXXXXXXXXXXXXXXXXXXXXXXXXXXXXXXXXXXXXXXX",
"XXXXXXXXXXXXXXXXXXXXXXXXXXXXXXXXXXXX++++XXXXXXXX................................XXXX++++XXXXXXXXXXXXXXXXXXXXXXXX++++XXXXXXXXXXXX",
"XXXXXXXXXXXXXXXXXXXXXXXXXXXXXXXXXXXX++++XXXXXXXX................................XXXX++++XXXXXXXXXXXXXXXXXXXXXXXX++++XXXXXXXXXXXX",
"XXXXXXXXXXXXXXXXXXXXXXXXXXXXXXXXXXXX++++XXXXXXXX................................XXXX++++XXXXXXXXXXXXXXXXXXXXXXXX++++XXXXXXXXXXXX",
"XXXXXXXXXXXXXXXXXXXXXXXXXXXXXXXXXXXX++++XXXXXXXX................................XXXX++++XXXXXXXXXXXXXXXXXXXXXXXX++++XXXXXXXXXXXX",
"XXXXXXXXXXXXXXXXXXXXXXXXXXXXXXXX++++XXXXXXXXXXXX................................XXXX++++++++XXXXXXXXXXXXXXXXXXXX++++XXXXXXXXXXXX",
"XXXXXXXXXXXXXXXXXXXXXXXXXXXXXXXX++++XXXXXXXXXXXX................................XXXX++++++++XXXXXXXXXXXXXXXXXXXX++++XXXXXXXXXXXX",
"XXXXXXXXXXXXXXXXXXXXXXXXXXXXXXXX++++XXXXXXXXXXXX................................XXXX++++++++XXXXXXXXXXXXXXXXXXXX++++XXXXXXXXXXXX",
"XXXXXXXXXXXXXXXXXXXXXXXXXXXXXXXX++++XXXXXXXXXXXX................................XXXX++++++++XXXXXXXXXXXXXXXXXXXX++++XXXXXXXXXXXX",
"XXXXXXXXXXXXXXXXXXXXXXXXXXXX++++++++XXXXXXXXXXXX................................XXXXXXXX++++++++XXXXXXXXXXXXXXXXXXXXXXXXXXXXXXXX",
"XXXXXXXXXXXXXXXXXXXXXXXXXXXX++++++++XXXXXXXXXXXX................................XXXXXXXX++++++++XXXXXXXXXXXXXXXXXXXXXXXXXXXXXXXX",
"XXXXXXXXXXXXXXXXXXXXXXXXXXXX++++++++XXXXXXXXXXXX................................XXXXXXXX++++++++XXXXXXXXXXXXXXXXXXXXXXXXXXXXXXXX",
"XXXXXXXXXXXXXXXXXXXXXXXXXXXX++++++++XXXXXXXXXXXX................................XXXXXXXX++++++++XXXXXXXXXXXXXXXXXXXXXXXXXXXXXXXX",
"XXXXXXXXXXXXXXXXXXXXXXXXXXXXXXXXXXXXXXXXXXXXXXXX................................XXXXXXXXXXXXXXXXXXXXXXXXXXXXXXXXXXXXXXXXXXXXXXXX",
"XXXXXXXXXXXXXXXXXXXXXXXXXXXXXXXXXXXXXXXXXXXXXXXX................................XXXXXXXXXXXXXXXXXXXXXXXXXXXXXXXXXXXXXXXXXXXXXXXX",
"XXXXXXXXXXXXXXXXXXXXXXXXXXXXXXXXXXXXXXXXXXXXXXXX................................XXXXXXXXXXXXXXXXXXXXXXXXXXXXXXXXXXXXXXXXXXXXXXXX",
"XXXXXXXXXXXXXXXXXXXXXXXXXXXXXXXXXXXXXXXXXXXXXXXX................................XXXXXXXXXXXXXXXXXXXXXXXXXXXXXXXXXXXXXXXXXXXXXXXX",
"XXXXXXXX++++++++XXXXXXXXXXXXXXXXXXXXXXXXXXXX........................................XXXXXXXXXXXXXXXXXXXXXXXXXXXXXXXX++++++++XXXX",
"XXXXXXXX++++++++XXXXXXXXXXXXXXXXXXXXXXXXXXXX........................................XXXXXXXXXXXXXXXXXXXXXXXXXXXXXXXX++++++++XXXX",
"XXXXXXXX++++++++XXXXXXXXXXXXXXXXXXXXXXXXXXXX........................................XXXXXXXXXXXXXXXXXXXXXXXXXXXXXXXX++++++++XXXX",
"XXXXXXXX++++++++XXXXXXXXXXXXXXXXXXXXXXXXXXXX........................................XXXXXXXXXXXXXXXXXXXXXXXXXXXXXXXX++++++++XXXX",
"XXXXXXXX++++XXXXXXXXXXXXXXXXXXXXXXXX............####........................####............XXXXXXXXXXXXXXXX++++++++XXXXXXXXXXXX",
"XXXXXXXX++++XXXXXXXXXXXXXXXXXXXXXXXX............####........................####............XXXXXXXXXXXXXXXX++++++++XXXXXXXXXXXX",
"XXXXXXXX++++XXXXXXXXXXXXXXXXXXXXXXXX............####........................####............XXXXXXXXXXXXXXXX++++++++XXXXXXXXXXXX",
"XXXXXXXX++++XXXXXXXXXXXXXXXXXXXXXXXX............####........................####............XXXXXXXXXXXXXXXX++++++++XXXXXXXXXXXX",
"XXXXXXXXXXXXXXXXXXXXXXXXXXXXXXXX........................OOOOOOOOOOOOOOOO........................XXXXXXXXXXXX++++++++XXXXXXXXXXXX",
"XXXXXXXXXXXXXXXXXXXXXXXXXXXXXXXX........................OOOOOOOOOOOOOOOO........................XXXXXXXXXXXX++++++++XXXXXXXXXXXX",
"XXXXXXXXXXXXXXXXXXXXXXXXXXXXXXXX........................OOOOOOOOOOOOOOOO........................XXXXXXXXXXXX++++++++XXXXXXXXXXXX",
"XXXXXXXXXXXXXXXXXXXXXXXXXXXXXXXX........................OOOOOOOOOOOOOOOO........................XXXXXXXXXXXX++++++++XXXXXXXXXXXX",
"XXXXXXXXXXXXXXXXXXXXXXXXXXXXXXXXXXXXXXXXXXXXXXXXXXXXXXXXXXXXXXXXXXXXXXXXXXXXXXXXXXXXXXXXXXXXXXXX++++++++XXXXXXXXXXXXXXXXXXXXXXXX",
"XXXXXXXXXXXXXXXXXXXXXXXXXXXXXXXXXXXXXXXXXXXXXXXXXXXXXXXXXXXXXXXXXXXXXXXXXXXXXXXXXXXXXXXXXXXXXXXX++++++++XXXXXXXXXXXXXXXXXXXXXXXX",
"XXXXXXXXXXXXXXXXXXXXXXXXXXXXXXXXXXXXXXXXXXXXXXXXXXXXXXXXXXXXXXXXXXXXXXXXXXXXXXXXXXXXXXXXXXXXXXXX++++++++XXXXXXXXXXXXXXXXXXXXXXXX",
"XXXXXXXXXXXXXXXXXXXXXXXXXXXXXXXXXXXXXXXXXXXXXXXXXXXXXXXXXXXXXXXXXXXXXXXXXXXXXXXXXXXXXXXXXXXXXXXX++++++++XXXXXXXXXXXXXXXXXXXXXXXX",
"XXXXXXXXXXXX++++++++++++++++++++++++++++++++XXXXXXXXXXXXXXXXXXXXXXXXXXXXXXXXXXXXXXXXXXXXXXXXXXXX++++XXXXXXXXXXXXXXXXXXXXXXXXXXXX",
"XXXXXXXXXXXX++++++++++++++++++++++++++++++++XXXXXXXXXXXXXXXXXXXXXXXXXXXXXXXXXXXXXXXXXXXXXXXXXXXX++++XXXXXXXXXXXXXXXXXXXXXXXXXXXX",
"XXXXXXXXXXXX++++++++++++++++++++++++++++++++XXXXXXXXXXXXXXXXXXXXXXXXXXXXXXXXXXXXXXXXXXXXXXXXXXXX++++XXXXXXXXXXXXXXXXXXXXXXXXXXXX",
"XXXXXXXXXXXX++++++++++++++++++++++++++++++++XXXXXXXXXXXXXXXXXXXXXXXXXXXXXXXXXXXXXXXXXXXXXXXXXXXX++++XXXXXXXXXXXXXXXXXXXXXXXXXXXX",
"XXXXXXXXXXXXXXXXXXXX++++++++++++++++++++++++XXXXXXXXXXXXXXXXXXXX++++++++++++++++++++XXXXXXXXXXXXXXXXXXXXXXXXXXXXXXXXXXXXXXXXXXXX",
"XXXXXXXXXXXXXXXXXXXX++++++++++++++++++++++++XXXXXXXXXXXXXXXXXXXX++++++++++++++++++++XXXXXXXXXXXXXXXXXXXXXXXXXXXXXXXXXXXXXXXXXXXX",
"XXXXXXXXXXXXXXXXXXXX++++++++++++++++++++++++XXXXXXXXXXXXXXXXXXXX++++++++++++++++++++XXXXXXXXXXXXXXXXXXXXXXXXXXXXXXXXXXXXXXXXXXXX",
"XXXXXXXXXXXXXXXXXXXX++++++++++++++++++++++++XXXXXXXXXXXXXXXXXXXX++++++++++++++++++++XXXXXXXXXXXXXXXXXXXXXXXXXXXXXXXXXXXXXXXXXXXX",
"XXXXXXXXXXXXXXXXXXXXXXXXXXXXXXXXXXXXXXXXXXXXXXXXXXXXXXXXXXXXXXXXXXXXXXXXXXXXXXXXXXXXXXXXXXXXXXXXXXXXXXXXXXXXXXXXXXXXXXXXXXXXXXXX",
"XXXXXXXXXXXXXXXXXXXXXXXXXXXXXXXXXXXXXXXXXXXXXXXXXXXXXXXXXXXXXXXXXXXXXXXXXXXXXXXXXXXXXXXXXXXXXXXXXXXXXXXXXXXXXXXXXXXXXXXXXXXXXXXX",
"XXXXXXXXXXXXXXXXXXXXXXXXXXXXXXXXXXXXXXXXXXXXXXXXXXXXXXXXXXXXXXXXXXXXXXXXXXXXXXXXXXXXXXXXXXXXXXXXXXXXXXXXXXXXXXXXXXXXXXXXXXXXXXXX",
"XXXXXXXXXXXXXXXXXXXXXXXXXXXXXXXXXXXXXXXXXXXXXXXXXXXXXXXXXXXXXXXXXXXXXXXXXXXXXXXXXXXXXXXXXXXXXXXXXXXXXXXXXXXXXXXXXXXXXXXXXXXXXXXX",
"XXXXXXXXXXXXXXXXXXXXXXXXXXXXXXXXXXXXXXXXXXXXXXXXXXXXXXXXXXXXXXXXXXXXXXXXXXXXXXXXXXXXXXXXXXXXXXXXXXXXXXXXXXXXXXXXXXXXXXXXXXXXXXXX",
"XXXXXXXXXXXXXXXXXXXXXXXXXXXXXXXXXXXXXXXXXXXXXXXXXXXXXXXXXXXXXXXXXXXXXXXXXXXXXXXXXXXXXXXXXXXXXXXXXXXXXXXXXXXXXXXXXXXXXXXXXXXXXXXX",
"XXXXXXXXXXXXXXXXXXXXXXXXXXXXXXXXXXXXXXXXXXXXXXXXXXXXXXXXXXXXXXXXXXXXXXXXXXXXXXXXXXXXXXXXXXXXXXXXXXXXXXXXXXXXXXXXXXXXXXXXXXXXXXXX",
"XXXXXXXXXXXXXXXXXXXXXXXXXXXXXXXXXXXXXXXXXXXXXXXXXXXXXXXXXXXXXXXXXXXXXXXXXXXXXXXXXXXXXXXXXXXXXXXXXXXXXXXXXXXXXXXXXXXXXXXXXXXXXXXX"
};
