/* XPM */
static char *result[] = {
/* columns rows colors chars-per-pixel */
"128 128 9 1 ",
"  c black",
". c #343333",
"X c #214433",
"o c #2B3D53",
"O c #573964",
"+ c #1D6642",
"@ c #297970",
"# c #A0821B",
"$ c #496C97",
/* pixels */
"oooooooooooooooooooooooooooooooooooooooooooooooooooooooooooooooooooooooooooooooooooooooooooooooooooooooooooooooooooooooooooooooo",
"oooooooooooooooooooooooooooooooooooooooooooooooooooooooooooooooooooooooooooooooooooooooooooooooooooooooooooooooooooooooooooooooo",
"oooooooooooooooooooooooooooooooooooooooooooooooooooooooooooooooooooooooooooooooooooooooooooooooooooooooooooooooooooooooooooooooo",
"oooooooooooooooooooooooooooooooooooooooooooooooooooooooooooooooooooooooooooooooooooooooooooooooooooooooooooooooooooooooooooooooo",
"oooooooooooooooooooooooooooooooooooooooooooooooooooooooooooooooooooooooooooooooooooooooooooooooooooooooooooooooooooooooooooooooo",
"oooooooooooooooooooooooooooooooooooooooooooooooooooooooooooooooooooooooooooooooooooooooooooooooooooooooooooooooooooooooooooooooo",
"oooooooooooooooooooooooooooooooooooooooooooooooooooooooooooooooooooooooooooooooooooooooooooooooooooooooooooooooooooooooooooooooo",
"oooooooooooooooooooooooooooooooooooooooooooooooooooooooooooooooooooooooooooooooooooooooooooooooooooooooooooooooooooooooooooooooo",
"oooooooooooooooooooooooooooo$$$$$$$$$$$$oooooooooooooooooooooooooooooooooooooooooooooooooooo$$$$$$$$$$$$oooooooooooooooooooooooo",
"oooooooooooooooooooooooooooo$$$$$$$$$$$$oooooooooooooooooooooooooooooooooooooooooooooooooooo$$$$$$$$$$$$oooooooooooooooooooooooo",
"oooooooooooooooooooooooooooo$$$$$$$$$$$$oooooooooooooooooooooooooooooooooooooooooooooooooooo$$$$$$$$$$$$oooooooooooooooooooooooo",
"oooooooooooooooooooooooooooo$$$$$$$$$$$$oooooooooooooooooooooooooooooooooooooooooooooooooooo$$$$$$$$$$$$oooooooooooooooooooooooo",
"oooooooooooooooo$$$$$$$$$$$$ooooooooooooooooooooooooooooooooOOOOOOOOoooooooooooooooooooooooooooooooo$$$$$$$$$$$$oooooooooooooooo",
"oooooooooooooooo$$$$$$$$$$$$ooooooooooooooooooooooooooooooooOOOOOOOOoooooooooooooooooooooooooooooooo$$$$$$$$$$$$oooooooooooooooo",
"oooooooooooooooo$$$$$$$$$$$$ooooooooooooooooooooooooooooooooOOOOOOOOoooooooooooooooooooooooooooooooo$$$$$$$$$$$$oooooooooooooooo",
"oooooooooooooooo$$$$$$$$$$$$ooooooooooooooooooooooooooooooooOOOOOOOOoooooooooooooooooooooooooooooooo$$$$$$$$$$$$oooooooooooooooo",
"oooooooooooooooooooooooooooooooooooooooooooooooooooooooooooo........oooooooooooooooooooooooooooooooooooooooo$$$$$$$$oooooooooooo",
"oooooooooooooooooooooooooooooooooooooooooooooooooooooooooooo........oooooooooooooooooooooooooooooooooooooooo$$$$$$$$oooooooooooo",
"oooooooooooooooooooooooooooooooooooooooooooooooooooooooooooo........oooooooooooooooooooooooooooooooooooooooo$$$$$$$$oooooooooooo",
"oooooooooooooooooooooooooooooooooooooooooooooooooooooooooooo........oooooooooooooooooooooooooooooooooooooooo$$$$$$$$oooooooooooo",
"oooooooooooooooooooooooooooooooooooooooooooooooooooooooooooo........oooooooooooooooooooooooooooooooooooooooooooooooooooooooooooo",
"oooooooooooooooooooooooooooooooooooooooooooooooooooooooooooo........oooooooooooooooooooooooooooooooooooooooooooooooooooooooooooo",
"oooooooooooooooooooooooooooooooooooooooooooooooooooooooooooo........oooooooooooooooooooooooooooooooooooooooooooooooooooooooooooo",
"oooooooooooooooooooooooooooooooooooooooooooooooooooooooooooo........oooooooooooooooooooooooooooooooooooooooooooooooooooooooooooo",
"ooooooooooooooooooooooooooooooooOOOOOOOO............oooooooo........oooooooo............OOOOOOOOoooooooooooooooooooooooooooooooo",
"ooooooooooooooooooooooooooooooooOOOOOOOO............oooooooo........oooooooo............OOOOOOOOoooooooooooooooooooooooooooooooo",
"ooooooooooooooooooooooooooooooooOOOOOOOO............oooooooo........oooooooo............OOOOOOOOoooooooooooooooooooooooooooooooo",
"ooooooooooooooooooooooooooooooooOOOOOOOO............oooooooo........oooooooo............OOOOOOOOoooooooooooooooooooooooooooooooo",
"oooooooooooooooooooooooooooooooo................................................................oooooooooooooooooooooooooooooooo",
"oooooooooooooooooooooooooooooooo................................................................oooooooooooooooooooooooooooooooo",
"oooooooooooooooooooooooooooooooo................................................................oooooooooooooooooooooooooooooooo",
"oooooooooooooooooooooooooooooooo................................................................oooooooooooooooooooooooooooooooo",
"oooooooooooooooooooooooooooooooooooo............OOOO........................OOOO............oooooooooooooooooooooooooooooooooooo",
"oooooooooooooooooooooooooooooooooooo............OOOO........................OOOO............oooooooooooooooooooooooooooooooooooo",
"oooooooooooooooooooooooooooooooooooo............OOOO........................OOOO............oooooooooooooooooooooooooooooooooooo",
"oooooooooooooooooooooooooooooooooooo............OOOO........................OOOO............oooooooooooooooooooooooooooooooooooo",
"oooooooooooooooooooooooooooooooooooooooooooo........................................oooooooooooooooooooooooooooooooooooooooooooo",
"oooooooooooooooooooooooooooooooooooooooooooo........................................oooooooooooooooooooooooooooooooooooooooooooo",
"oooooooooooooooooooooooooooooooooooooooooooo........................................oooooooooooooooooooooooooooooooooooooooooooo",
"oooooooooooooooooooooooooooooooooooooooooooo........................................oooooooooooooooooooooooooooooooooooooooooooo",
"oooooooo$$$$$$$$$$$$oooooooooooooooooooooooooooo........    OOOOOOOO    ........oooooooooooooooooooooooo$$$$$$$$$$$$oooooooooooo",
"oooooooo$$$$$$$$$$$$oooooooooooooooooooooooooooo........    OOOOOOOO    ........oooooooooooooooooooooooo$$$$$$$$$$$$oooooooooooo",
"oooooooo$$$$$$$$$$$$oooooooooooooooooooooooooooo........    OOOOOOOO    ........oooooooooooooooooooooooo$$$$$$$$$$$$oooooooooooo",
"oooooooo$$$$$$$$$$$$oooooooooooooooooooooooooooo........    OOOOOOOO    ........oooooooooooooooooooooooo$$$$$$$$$$$$oooooooooooo",
"oooooooooooooooo$$$$$$$$oooooooooooooooooooooooo............OOOOOOOO............oooooooooooooooooooo$$$$$$$$oooo$$$$$$$$oooooooo",
"oooooooooooooooo$$$$$$$$oooooooooooooooooooooooo............OOOOOOOO............oooooooooooooooooooo$$$$$$$$oooo$$$$$$$$oooooooo",
"oooooooooooooooo$$$$$$$$oooooooooooooooooooooooo............OOOOOOOO............oooooooooooooooooooo$$$$$$$$oooo$$$$$$$$oooooooo",
"oooooooooooooooo$$$$$$$$oooooooooooooooooooooooo............OOOOOOOO............oooooooooooooooooooo$$$$$$$$oooo$$$$$$$$oooooooo",
"oooooooooooooooooooooooooooooooooooooooooooooooo............OOOOOOOO............oooooooooooooooooooooooooooooooooooooooooooooooo",
"oooooooooooooooooooooooooooooooooooooooooooooooo............OOOOOOOO............oooooooooooooooooooooooooooooooooooooooooooooooo",
"oooooooooooooooooooooooooooooooooooooooooooooooo............OOOOOOOO............oooooooooooooooooooooooooooooooooooooooooooooooo",
"oooooooooooooooooooooooooooooooooooooooooooooooo............OOOOOOOO............oooooooooooooooooooooooooooooooooooooooooooooooo",
"oooooooooooooooooooooooooooooooooooooooooooooooo................................oooooooooooooooooooooooooooooooooooooooooooooooo",
"oooooooooooooooooooooooooooooooooooooooooooooooo................................oooooooooooooooooooooooooooooooooooooooooooooooo",
"oooooooooooooooooooooooooooooooooooooooooooooooo................................oooooooooooooooooooooooooooooooooooooooooooooooo",
"oooooooooooooooooooooooooooooooooooooooooooooooo................................oooooooooooooooooooooooooooooooooooooooooooooooo",
"oooooooooooooooooooooooooooooooooooooooooooooooo####........................####oooooooooooooooooooooooooooooooooooooooooooooooo",
"oooooooooooooooooooooooooooooooooooooooooooooooo####........................####oooooooooooooooooooooooooooooooooooooooooooooooo",
"oooooooooooooooooooooooooooooooooooooooooooooooo####........................####oooooooooooooooooooooooooooooooooooooooooooooooo",
"oooooooooooooooooooooooooooooooooooooooooooooooo####........................####oooooooooooooooooooooooooooooooooooooooooooooooo",
"@@@@@@@@@@@@@@@@@@@@@@@@@@@@@@@@@@@@@@@@@@@@@@@@....####................####....@@@@@@@@@@@@@@@@@@@@@@@@@@@@@@@@@@@@@@@@@@@@@@@@",
"@@@@@@@@@@@@@@@@@@@@@@@@@@@@@@@@@@@@@@@@@@@@@@@@....####................####....@@@@@@@@@@@@@@@@@@@@@@@@@@@@@@@@@@@@@@@@@@@@@@@@",
"@@@@@@@@@@@@@@@@@@@@@@@@@@@@@@@@@@@@@@@@@@@@@@@@....####................####....@@@@@@@@@@@@@@@@@@@@@@@@@@@@@@@@@@@@@@@@@@@@@@@@",
"@@@@@@@@@@@@@@@@@@@@@@@@@@@@@@@@@@@@@@@@@@@@@@@@....####................####....@@@@@@@@@@@@@@@@@@@@@@@@@@@@@@@@@@@@@@@@@@@@@@@@",
"@@@@@@@@@@@@@@@@@@@@@@@@@@@@@@@@@@@@@@@@@@@@@@@@........####........####........@@@@@@@@@@@@@@@@@@@@@@@@@@@@@@@@@@@@@@@@@@@@@@@@",
"@@@@@@@@@@@@@@@@@@@@@@@@@@@@@@@@@@@@@@@@@@@@@@@@........####........####........@@@@@@@@@@@@@@@@@@@@@@@@@@@@@@@@@@@@@@@@@@@@@@@@",
"@@@@@@@@@@@@@@@@@@@@@@@@@@@@@@@@@@@@@@@@@@@@@@@@........####........####........@@@@@@@@@@@@@@@@@@@@@@@@@@@@@@@@@@@@@@@@@@@@@@@@",
"@@@@@@@@@@@@@@@@@@@@@@@@@@@@@@@@@@@@@@@@@@@@@@@@........####........####........@@@@@@@@@@@@@@@@@@@@@@@@@@@@@@@@@@@@@@@@@@@@@@@@",
"@@@@@@@@@@@@@@@@@@@@@@@@@@@@@@@@@@@@@@@@@@@@@@@@............########............@@@@@@@@@@@@@@@@@@@@@@@@@@@@@@@@@@@@@@@@@@@@@@@@",
"@@@@@@@@@@@@@@@@@@@@@@@@@@@@@@@@@@@@@@@@@@@@@@@@............########............@@@@@@@@@@@@@@@@@@@@@@@@@@@@@@@@@@@@@@@@@@@@@@@@",
"@@@@@@@@@@@@@@@@@@@@@@@@@@@@@@@@@@@@@@@@@@@@@@@@............########............@@@@@@@@@@@@@@@@@@@@@@@@@@@@@@@@@@@@@@@@@@@@@@@@",
"@@@@@@@@@@@@@@@@@@@@@@@@@@@@@@@@@@@@@@@@@@@@@@@@............########............@@@@@@@@@@@@@@@@@@@@@@@@@@@@@@@@@@@@@@@@@@@@@@@@",
"XXXXXXXXXXXXXXXXXXXXXXXXXXXXXXXXXXXXXXXXXXXXXXXX............########............XXXXXXXXXXXXXXXXXXXXXXXXXXXXXXXXXXXXXXXXXXXXXXXX",
"XXXXXXXXXXXXXXXXXXXXXXXXXXXXXXXXXXXXXXXXXXXXXXXX............########............XXXXXXXXXXXXXXXXXXXXXXXXXXXXXXXXXXXXXXXXXXXXXXXX",
"XXXXXXXXXXXXXXXXXXXXXXXXXXXXXXXXXXXXXXXXXXXXXXXX............########............XXXXXXXXXXXXXXXXXXXXXXXXXXXXXXXXXXXXXXXXXXXXXXXX",
"XXXXXXXXXXXXXXXXXXXXXXXXXXXXXXXXXXXXXXXXXXXXXXXX............########............XXXXXXXXXXXXXXXXXXXXXXXXXXXXXXXXXXXXXXXXXXXXXXXX",
"XXXXXXXXXXXXXXXXXXXXXXXXXXXXXXXXXXXXXXXXXXXXXXXX................................XXXX++++XXXXXXXXXXXXXXXX++++XXXXXXXXXXXXXXXXXXXX",
"XXXXXXXXXXXXXXXXXXXXXXXXXXXXXXXXXXXXXXXXXXXXXXXX................................XXXX++++XXXXXXXXXXXXXXXX++++XXXXXXXXXXXXXXXXXXXX",
"XXXXXXXXXXXXXXXXXXXXXXXXXXXXXXXXXXXXXXXXXXXXXXXX................................XXXX++++XXXXXXXXXXXXXXXX++++XXXXXXXXXXXXXXXXXXXX",
"XXXXXXXXXXXXXXXXXXXXXXXXXXXXXXXXXXXXXXXXXXXXXXXX................................XXXX++++XXXXXXXXXXXXXXXX++++XXXXXXXXXXXXXXXXXXXX",
"XXXXXXXXXXXX++++XXXXXXXXXXXXXXXXXXXXXXXX++++XXXX................................XXXXXXXX++++XXXXXXXXXXXXXXXXXXXXXXXXXXXXXXXXXXXX",
"XXXXXXXXXXXX++++XXXXXXXXXXXXXXXXXXXXXXXX++++XXXX................................XXXXXXXX++++XXXXXXXXXXXXXXXXXXXXXXXXXXXXXXXXXXXX",
"XXXXXXXXXXXX++++XXXXXXXXXXXXXXXXXXXXXXXX++++XXXX................................XXXXXXXX++++XXXXXXXXXXXXXXXXXXXXXXXXXXXXXXXXXXXX",
"XXXXXXXXXXXX++++XXXXXXXXXXXXXXXXXXXXXXXX++++XXXX................................XXXXXXXX++++XXXXXXXXXXXXXXXXXXXXXXXXXXXXXXXXXXXX",
"XXXXXXXXXXXX++++XXXXXXXXXXXXXXXXXXXX++++++++XXXX................................XXXXXXXXXXXX++++XXXXXXXXXXXXXXXXXXXXXXXXXXXXXXXX",
"XXXXXXXXXXXX++++XXXXXXXXXXXXXXXXXXXX++++++++XXXX................................XXXXXXXXXXXX++++XXXXXXXXXXXXXXXXXXXXXXXXXXXXXXXX",
"XXXXXXXXXXXX++++XXXXXXXXXXXXXXXXXXXX++++++++XXXX................................XXXXXXXXXXXX++++XXXXXXXXXXXXXXXXXXXXXXXXXXXXXXXX",
"XXXXXXXXXXXX++++XXXXXXXXXXXXXXXXXXXX++++++++XXXX................................XXXXXXXXXXXX++++XXXXXXXXXXXXXXXXXXXXXXXXXXXXXXXX",
"XXXXXXXXXXXXXXXXXXXXXXXXXXXXXXXX++++++++XXXXXXXX................................XXXXXXXXXXXX++++++++XXXXXXXXXXXXXXXXXXXXXXXXXXXX",
"XXXXXXXXXXXXXXXXXXXXXXXXXXXXXXXX++++++++XXXXXXXX................................XXXXXXXXXXXX++++++++XXXXXXXXXXXXXXXXXXXXXXXXXXXX",
"XXXXXXXXXXXXXXXXXXXXXXXXXXXXXXXX++++++++XXXXXXXX................................XXXXXXXXXXXX++++++++XXXXXXXXXXXXXXXXXXXXXXXXXXXX",
"XXXXXXXXXXXXXXXXXXXXXXXXXXXXXXXX++++++++XXXXXXXX................................XXXXXXXXXXXX++++++++XXXXXXXXXXXXXXXXXXXXXXXXXXXX",
"XXXXXXXXXXXXXXXXXXXXXXXXXXXXXXXXXXXXXXXXXXXXXXXX................................XXXXXXXXXXXXXXXXXXXXXXXXXXXXXXXXXXXXXXXXXXXXXXXX",
"XXXXXXXXXXXXXXXXXXXXXXXXXXXXXXXXXXXXXXXXXXXXXXXX................................XXXXXXXXXXXXXXXXXXXXXXXXXXXXXXXXXXXXXXXXXXXXXXXX",
"XXXXXXXXXXXXXXXXXXXXXXXXXXXXXXXXXXXXXXXXXXXXXXXX................................XXXXXXXXXXXXXXXXXXXXXXXXXXXXXXXXXXXXXXXXXXXXXXXX",
"XXXXXXXXXXXXXXXXXXXXXXXXXXXXXXXXXXXXXXXXXXXXXXXX................................XXXXXXXXXXXXXXXXXXXXXXXXXXXXXXXXXXXXXXXXXXXXXXXX",
"XXXX++++++++XXXXXXXXXXXXXXXXXXXXXXXXXXXXXXXX........................................XXXXXXXXXXXXXXXXXXXXXXXXXXXX++++++++XXXXXXXX",
"XXXX++++++++XXXXXXXXXXXXXXXXXXXXXXXXXXXXXXXX........................................XXXXXXXXXXXXXXXXXXXXXXXXXXXX++++++++XXXXXXXX",
"XXXX++++++++XXXXXXXXXXXXXXXXXXXXXXXXXXXXXXXX........................................XXXXXXXXXXXXXXXXXXXXXXXXXXXX++++++++XXXXXXXX",
"XXXX++++++++XXXXXXXXXXXXXXXXXXXXXXXXXXXXXXXX........................................XXXXXXXXXXXXXXXXXXXXXXXXXXXX++++++++XXXXXXXX",
"XXXXXXXXXXXX++++++++XXXXXXXXXXXXXXXX............####........................####............XXXXXXXXXXXXXXXXXXXXXXXX++++XXXXXXXX",
"XXXXXXXXXXXX++++++++XXXXXXXXXXXXXXXX............####........................####............XXXXXXXXXXXXXXXXXXXXXXXX++++XXXXXXXX",
"XXXXXXXXXXXX++++++++XXXXXXXXXXXXXXXX............####........................####............XXXXXXXXXXXXXXXXXXXXXXXX++++XXXXXXXX",
"XXXXXXXXXXXX++++++++XXXXXXXXXXXXXXXX............####........................####............XXXXXXXXXXXXXXXXXXXXXXXX++++XXXXXXXX",
"XXXXXXXXXXXX++++++++XXXXXXXXXXXX........................OOOOOOOOOOOOOOOO........................XXXXXXXXXXXXXXXXXXXXXXXXXXXXXXXX",
"XXXXXXXXXXXX++++++++XXXXXXXXXXXX........................OOOOOOOOOOOOOOOO........................XXXXXXXXXXXXXXXXXXXXXXXXXXXXXXXX",
"XXXXXXXXXXXX++++++++XXXXXXXXXXXX........................OOOOOOOOOOOOOOOO........................XXXXXXXXXXXXXXXXXXXXXXXXXXXXXXXX",
"XXXXXXXXXXXX++++++++XXXXXXXXXXXX........................OOOOOOOOOOOOOOOO........................XXXXXXXXXXXXXXXXXXXXXXXXXXXXXXXX",
"XXXXXXXXXXXXXXXXXXXXXXXX++++++++XXXXXXXXXXXXXXXXXXXXXXXXXXXXXXXXXXXXXXXXXXXXXXXXXXXXXXXXXXXXXXXXXXXXXXXXXXXXXXXXXXXXXXXXXXXXXXXX",
"XXXXXXXXXXXXXXXXXXXXXXXX++++++++XXXXXXXXXXXXXXXXXXXXXXXXXXXXXXXXXXXXXXXXXXXXXXXXXXXXXXXXXXXXXXXXXXXXXXXXXXXXXXXXXXXXXXXXXXXXXXXX",
"XXXXXXXXXXXXXXXXXXXXXXXX++++++++XXXXXXXXXXXXXXXXXXXXXXXXXXXXXXXXXXXXXXXXXXXXXXXXXXXXXXXXXXXXXXXXXXXXXXXXXXXXXXXXXXXXXXXXXXXXXXXX",
"XXXXXXXXXXXXXXXXXXXXXXXX++++++++XXXXXXXXXXXXXXXXXXXXXXXXXXXXXXXXXXXXXXXXXXXXXXXXXXXXXXXXXXXXXXXXXXXXXXXXXXXXXXXXXXXXXXXXXXXXXXXX",
"XXXXXXXXXXXXXXXXXXXXXXXXXXXX++++XXXXXXXXXXXXXXXXXXXXXXXXXXXXXXXXXXXXXXXXXXXXXXXXXXXX++++++++++++++++++++++++++++++++XXXXXXXXXXXX",
"XXXXXXXXXXXXXXXXXXXXXXXXXXXX++++XXXXXXXXXXXXXXXXXXXXXXXXXXXXXXXXXXXXXXXXXXXXXXXXXXXX++++++++++++++++++++++++++++++++XXXXXXXXXXXX",
"XXXXXXXXXXXXXXXXXXXXXXXXXXXX++++XXXXXXXXXXXXXXXXXXXXXXXXXXXXXXXXXXXXXXXXXXXXXXXXXXXX++++++++++++++++++++++++++++++++XXXXXXXXXXXX",
"XXXXXXXXXXXXXXXXXXXXXXXXXXXX++++XXXXXXXXXXXXXXXXXXXXXXXXXXXXXXXXXXXXXXXXXXXXXXXXXXXX++++++++++++++++++++++++++++++++XXXXXXXXXXXX",
"XXXXXXXXXXXXXXXXXXXXXXXXXXXXXXXXXXXXXXXXXXXX++++++++++++++++++++XXXXXXXXXXXXXXXXXXXX++++++++++++++++++++++++XXXXXXXXXXXXXXXXXXXX",
"XXXXXXXXXXXXXXXXXXXXXXXXXXXXXXXXXXXXXXXXXXXX++++++++++++++++++++XXXXXXXXXXXXXXXXXXXX++++++++++++++++++++++++XXXXXXXXXXXXXXXXXXXX",
"XXXXXXXXXXXXXXXXXXXXXXXXXXXXXXXXXXXXXXXXXXXX++++++++++++++++++++XXXXXXXXXXXXXXXXXXXX++++++++++++++++++++++++XXXXXXXXXXXXXXXXXXXX",
"XXXXXXXXXXXXXXXXXXXXXXXXXXXXXXXXXXXXXXXXXXXX++++++++++++++++++++XXXXXXXXXXXXXXXXXXXX++++++++++++++++++++++++XXXXXXXXXXXXXXXXXXXX",
"XXXXXXXXXXXXXXXXXXXXXXXXXXXXXXXXXXXXXXXXXXXXXXXXXXXXXXXXXXXXXXXXXXXXXXXXXXXXXXXXXXXXXXXXXXXXXXXXXXXXXXXXXXXXXXXXXXXXXXXXXXXXXXXX",
"XXXXXXXXXXXXXXXXXXXXXXXXXXXXXXXXXXXXXXXXXXXXXXXXXXXXXXXXXXXXXXXXXXXXXXXXXXXXXXXXXXXXXXXXXXXXXXXXXXXXXXXXXXXXXXXXXXXXXXXXXXXXXXXX",
"XXXXXXXXXXXXXXXXXXXXXXXXXXXXXXXXXXXXXXXXXXXXXXXXXXXXXXXXXXXXXXXXXXXXXXXXXXXXXXXXXXXXXXXXXXXXXXXXXXXXXXXXXXXXXXXXXXXXXXXXXXXXXXXX",
"XXXXXXXXXXXXXXXXXXXXXXXXXXXXXXXXXXXXXXXXXXXXXXXXXXXXXXXXXXXXXXXXXXXXXXXXXXXXXXXXXXXXXXXXXXXXXXXXXXXXXXXXXXXXXXXXXXXXXXXXXXXXXXXX",
"XXXXXXXXXXXXXXXXXXXXXXXXXXXXXXXXXXXXXXXXXXXXXXXXXXXXXXXXXXXXXXXXXXXXXXXXXXXXXXXXXXXXXXXXXXXXXXXXXXXXXXXXXXXXXXXXXXXXXXXXXXXXXXXX",
"XXXXXXXXXXXXXXXXXXXXXXXXXXXXXXXXXXXXXXXXXXXXXXXXXXXXXXXXXXXXXXXXXXXXXXXXXXXXXXXXXXXXXXXXXXXXXXXXXXXXXXXXXXXXXXXXXXXXXXXXXXXXXXXX",
"XXXXXXXXXXXXXXXXXXXXXXXXXXXXXXXXXXXXXXXXXXXXXXXXXXXXXXXXXXXXXXXXXXXXXXXXXXXXXXXXXXXXXXXXXXXXXXXXXXXXXXXXXXXXXXXXXXXXXXXXXXXXXXXX",
"XXXXXXXXXXXXXXXXXXXXXXXXXXXXXXXXXXXXXXXXXXXXXXXXXXXXXXXXXXXXXXXXXXXXXXXXXXXXXXXXXXXXXXXXXXXXXXXXXXXXXXXXXXXXXXXXXXXXXXXXXXXXXXXX"
};
