/* XPM */
static char *result[] = {
/* columns rows colors chars-per-pixel */
"128 128 2 1 ",
"  c #214433",
". c #1D6642",
/* pixels */
"                                                                                                                                ",
"                                                                                                                                ",
"                                                                                                                                ",
"                                                                                                                                ",
"                                                                                                                                ",
"                                                                                                                                ",
"                                                                                                                                ",
"                                                                                                                                ",
"                                                                                                                                ",
"                                                                                                                                ",
"                                                                                                                                ",
"                                                                                                                                ",
"                                                                        ............                ........                    ",
"                                                                        ............                ........                    ",
"                                                                        ............                ........                    ",
"                                                                        ............                ........                    ",
"                                                                        ....                            ........                ",
"                                                                        ....                            ........                ",
"                                                                        ....                            ........                ",
"                                                                        ....                            ........                ",
"                        ............                                                                        ....                ",
"                        ............                                                                        ....                ",
"                        ............                                                                        ....                ",
"                        ............                                                                        ....                ",
"                        ....                                ....                                                                ",
"                        ....                                ....                                                                ",
"                        ....                                ....                                                                ",
"                        ....                                ....                                                                ",
"            ....                                            ....                                                                ",
"            ....                                            ....                                                                ",
"            ....                                            ....                                                                ",
"            ....                                            ....                                                                ",
"        ........                                                                                                                ",
"        ........                                                                                                                ",
"        ........                                                                                                                ",
"        ........                                                                                                                ",
"        ....                                                                                        ........                    ",
"        ....                                                                                        ........                    ",
"        ....                                                                                        ........                    ",
"        ....                                                                                        ........                    ",
"        ....                                                                                            ............            ",
"        ....                                                                                            ............            ",
"        ....                                                                                            ............            ",
"        ....                                                                                            ............            ",
"                                                                                                                                ",
"                                                                                                                                ",
"                                                                                                                                ",
"                                                                                                                                ",
"                                    ................                                                                            ",
"                                    ................                                                                            ",
"                                    ................                                                                            ",
"                                    ................                                                                            ",
"                            ........                                                                                            ",
"                            ........                                                                                            ",
"                            ........                                                                                            ",
"                            ........                                                                                            ",
"                            ....                                ....                                                            ",
"                            ....                                ....                                                            ",
"                            ....                                ....                                                            ",
"                            ....                                ....                                                            ",
"                                                                ....                                ........                    ",
"                                                                ....                                ........                    ",
"                                                                ....                                ........                    ",
"                                                                ....                                ........                    ",
"        ....                                                    ........                                ....                    ",
"        ....                                                    ........                                ....                    ",
"        ....                                                    ........                                ....                    ",
"        ....                                                    ........                                ....                    ",
"        ........                                                    ....                                                        ",
"        ........                                                    ....                                                        ",
"        ........                                                    ....                                                        ",
"        ........                                                    ....                                                        ",
"                ....                                                ....                                                        ",
"                ....                                                ....                                                        ",
"                ....                                                ....                                                        ",
"                ....                                                ....                                                        ",
"                    ....                ....                                                                                    ",
"                    ....                ....                                                                                    ",
"                    ....                ....                                                                                    ",
"                    ....                ....                                                                                    ",
"                    ........            ........                                                                                ",
"                    ........            ........                                                                                ",
"                    ........            ........                                                                                ",
"                    ........            ........                                                                                ",
"                                            ....                                                                                ",
"                                            ....                                                                                ",
"                                            ....                                                                                ",
"                                            ....                                                                                ",
"                                                                                                                                ",
"                                                                                                                                ",
"                                                                                                                                ",
"                                                                                                                                ",
"                                                                                                                                ",
"                                                                                                                                ",
"                                                                                                                                ",
"                                                                                                                                ",
"                                                                                        ....                ........            ",
"                                                                                        ....                ........            ",
"                                                                                        ....                ........            ",
"                                                                                        ....                ........            ",
"                        ............                        ........                ........                ....                ",
"                        ............                        ........                ........                ....                ",
"                        ............                        ........                ........                ....                ",
"                        ............                        ........                ........                ....                ",
"                        ....                                    ....        ............                    ....                ",
"                        ....                                    ....        ............                    ....                ",
"                        ....                                    ....        ............                    ....                ",
"                        ....                                    ....        ............                    ....                ",
"                                                            ....                ........            ........                    ",
"                                                            ....                ........            ........                    ",
"                                                            ....                ........            ........                    ",
"                                                            ....                ........            ........                    ",
"                                                    ............                                ........                        ",
"                                                    ............                                ........                        ",
"                                                    ............                                ........                        ",
"                                                    ............                                ........                        ",
"                                                                                                                                ",
"                                                                                                                                ",
"                                                                                                                                ",
"                                                                                                                                ",
"                                                                                                                                ",
"                                                                                                                                ",
"                                                                                                                                ",
"                                                                                                                                ",
"                                                                                                                                ",
"                                                                                                                                ",
"                                                                                                                                ",
"                                                                                                                                "
};
